<svg width="74" height="58" viewBox="0 0 74 58" fill="none" xmlns="http://www.w3.org/2000/svg">
<path d="M50.2061 8.86127L41.1967 29.4452L38.619 11.5641C38.2937 9.13655 42.423 7.63499 42.423 7.63499C42.0476 6.79661 40.7337 6.80913 40.7337 6.80913H37.9308C37.4803 2.41705 41.472 -0.798804 45.789 0.189727C50.0309 1.14072 51.57 5.74552 50.1936 8.87378L50.2061 8.86127Z" fill="#6E55DC"/>
<path d="M33.4633 36.1022L15.8949 24.39C11.4278 21.3993 6.99817 24.4525 6.05969 27.5933C4.68325 32.2356 7.77397 36.1022 12.629 36.1022H33.4633Z" fill="#FCCC12"/>
<path d="M35.7647 7.08443C36.4154 2.5422 32.3487 -0.823811 27.9316 0.177233C23.6897 1.12822 22.1506 5.73302 23.527 8.86129L32.5364 29.4452L35.7522 7.08443H35.7647Z" fill="#EF1541"/>
<path d="M31.8353 32.8238L23.1888 13.1157C21.1617 8.54847 15.8061 7.97287 12.8405 10.6632C10.7508 12.5526 9.13667 17.6955 13.804 20.8112L31.8478 32.8363L31.8353 32.8238Z" fill="#FF7112"/>
<path d="M61.1058 36.1022C65.9609 36.1022 69.0641 32.2356 67.6752 27.5933C66.7367 24.4525 62.3196 21.3993 57.8399 24.39L40.2716 36.1022H61.1058Z" fill="#05AC3F"/>
<path d="M59.9525 20.7987C64.6199 17.683 62.9932 12.5401 60.916 10.6507C57.9505 7.97287 52.5949 8.53596 50.5678 13.1032L41.9212 32.8113L59.9651 20.7862L59.9525 20.7987Z" fill="#069DE0"/>
<path d="M19.1948 40.3063H23.2365L31.5577 51.4554V40.3063H35.3491V57.5492H31.3074L22.9737 46.3751V57.5492H19.1948V40.3063Z" fill="white"/>
<path d="M54.6313 52.1188C54.6313 56.8112 50.8773 57.5495 48.5249 57.5495H38.5019V40.319H48.5124C51.5781 40.319 54.0306 42.0583 54.0306 45.3242C54.0306 46.9384 52.8919 47.8268 52.0285 48.2773C53.455 48.9905 54.6187 50.0416 54.6187 52.1313L54.6313 52.1188ZM42.1683 43.5474V46.8133H48.0744C49.0504 46.8133 50.1266 46.4128 50.1266 45.1991C50.1266 43.9853 49.2882 43.5599 47.9368 43.5599H42.1683V43.5474ZM50.7397 52.1188C50.7397 50.4671 49.3633 50.0416 48.0244 50.0416H42.1808V54.1584H48.162C49.2506 54.1584 50.7397 53.783 50.7397 52.1188Z" fill="white"/>
<path d="M73.74 54.734C71.8505 56.3607 69.8109 57.9999 65.7817 57.9999C60.4261 57.9748 56.2843 53.8205 56.2843 48.8904C56.3093 43.8101 60.6263 39.856 65.8317 39.856C70.3489 39.856 72.7765 42.759 73.1018 43.0718L70.2488 45.9248C69.6232 45.2991 68.2843 43.8601 65.8067 43.8601C62.7785 43.8601 60.3135 46.125 60.3135 48.9154C60.3135 51.3429 62.4031 53.9707 65.7817 53.9707C68.4845 53.9707 69.473 53.0822 71.1247 51.6933L73.7274 54.734H73.74Z" fill="white"/>
<path d="M17.4557 54.734C15.5662 56.3607 13.5266 58 9.4974 58C4.14182 57.9749 0 53.8206 0 48.8905C0.0250261 43.8102 4.34203 39.856 9.54745 39.856C14.0647 39.856 16.4922 42.7591 16.8175 43.0719L13.9646 45.9249C13.3389 45.2992 12 43.8602 9.52243 43.8602C6.49427 43.8602 4.0292 46.1251 4.0292 48.9155C4.0292 51.343 6.11888 53.9708 9.4974 53.9708C12.2002 53.9708 13.1887 53.0823 14.8405 51.6934L17.4432 54.734H17.4557Z" fill="white"/>
</svg>
