<svg width="79" height="25" viewBox="0 0 79 25" fill="none" xmlns="http://www.w3.org/2000/svg">
<rect width="79" height="25" fill="#213862"/>
<path d="M28.778 8.6H27.168V7.2H31.928V8.6H30.318V17H28.778V8.6Z" fill="white"/>
<path d="M32.6736 7.2H34.9556C35.7489 7.2 36.3276 7.38666 36.6916 7.76C37.0556 8.124 37.2376 8.68866 37.2376 9.454V10.056C37.2376 11.0733 36.9016 11.7173 36.2296 11.988V12.016C36.6029 12.128 36.8642 12.3567 37.0136 12.702C37.1722 13.0473 37.2516 13.5093 37.2516 14.088V15.81C37.2516 16.09 37.2609 16.3187 37.2796 16.496C37.2982 16.664 37.3449 16.832 37.4196 17H35.8516C35.7956 16.8413 35.7582 16.692 35.7396 16.552C35.7209 16.412 35.7116 16.16 35.7116 15.796V14.004C35.7116 13.556 35.6369 13.2433 35.4876 13.066C35.3476 12.8887 35.1002 12.8 34.7456 12.8H34.2136V17H32.6736V7.2ZM34.7736 11.4C35.0816 11.4 35.3102 11.3207 35.4596 11.162C35.6182 11.0033 35.6976 10.7373 35.6976 10.364V9.608C35.6976 9.25333 35.6322 8.99666 35.5016 8.838C35.3802 8.67933 35.1842 8.6 34.9136 8.6H34.2136V11.4H34.7736Z" fill="white"/>
<path d="M38.3201 7.2H42.5201V8.6H39.8601V11.19H41.9741V12.59H39.8601V15.6H42.5201V17H38.3201V7.2Z" fill="white"/>
<path d="M43.406 7.2H45.338L46.836 13.066H46.864V7.2H48.236V17H46.654L44.806 9.846H44.778V17H43.406V7.2Z" fill="white"/>
<path d="M49.3806 7.2H51.7326C52.4979 7.2 53.0719 7.40533 53.4546 7.816C53.8373 8.22666 54.0286 8.82866 54.0286 9.622V14.578C54.0286 15.3713 53.8373 15.9733 53.4546 16.384C53.0719 16.7947 52.4979 17 51.7326 17H49.3806V7.2ZM51.7046 15.6C51.9566 15.6 52.1479 15.5253 52.2786 15.376C52.4186 15.2267 52.4886 14.984 52.4886 14.648V9.552C52.4886 9.216 52.4186 8.97333 52.2786 8.824C52.1479 8.67466 51.9566 8.6 51.7046 8.6H50.9206V15.6H51.7046Z" fill="white"/>
<path d="M55.0681 7.2H56.6081V17H55.0681V7.2Z" fill="white"/>
<path d="M57.7615 7.2H59.6935L61.1915 13.066H61.2195V7.2H62.5915V17H61.0095L59.1615 9.846H59.1335V17H57.7615V7.2Z" fill="white"/>
<path d="M65.9201 17.14C65.1734 17.14 64.6041 16.93 64.2121 16.51C63.8201 16.0807 63.6241 15.4693 63.6241 14.676V9.524C63.6241 8.73066 63.8201 8.124 64.2121 7.704C64.6041 7.27466 65.1734 7.06 65.9201 7.06C66.6667 7.06 67.2361 7.27466 67.6281 7.704C68.0201 8.124 68.2161 8.73066 68.2161 9.524V10.364H66.7601V9.426C66.7601 8.782 66.4941 8.46 65.9621 8.46C65.4301 8.46 65.1641 8.782 65.1641 9.426V14.788C65.1641 15.4227 65.4301 15.74 65.9621 15.74C66.4941 15.74 66.7601 15.4227 66.7601 14.788V12.87H65.9901V11.47H68.2161V14.676C68.2161 15.4693 68.0201 16.0807 67.6281 16.51C67.2361 16.93 66.6667 17.14 65.9201 17.14Z" fill="white"/>
<path fill-rule="evenodd" clip-rule="evenodd" d="M14.5091 3L14.2733 3.72588H13.511L14.1282 4.17956L13.8921 4.90526L14.5091 4.45159L15.1261 4.90526L14.8902 4.17956L15.5072 3.72588H14.7452L14.5093 3H14.5091ZM16.5417 3.9618L15.8157 3.762L16.2875 4.36103L15.8701 4.99618L16.578 4.72397L17.068 5.32283L17.0317 4.56065L17.7393 4.28826L16.9952 4.08864L16.9589 3.32665L16.5417 3.9618ZM12.005 4.08864L11.2607 4.28826L11.9685 4.56065L11.9324 5.32283L12.4222 4.72397L13.1301 4.99618L12.7125 4.36103L13.2025 3.762L12.4586 3.9618L12.0411 3.32665L12.005 4.08864ZM9.91786 5.03247L9.24642 5.41356L10.0088 5.48615L10.1721 6.23018L10.4806 5.52245L11.2426 5.59503L10.6802 5.08673L10.9887 4.39733L10.3173 4.77841L9.75454 4.27011L9.91786 5.03247ZM18.6831 4.79656L18.0116 4.41529L18.32 5.10488L17.7574 5.61318L18.5198 5.54059L18.8283 6.24833L18.9916 5.5043L19.7538 5.41356L19.0821 5.03247L19.2455 4.28826L18.6831 4.79656ZM20.0986 6.33906L19.4269 6.68368L20.1891 6.81089L20.3163 7.59121L20.6611 6.90144L21.4231 7.02847L20.8787 6.48424L21.2235 5.79465L20.5339 6.13945L19.9715 5.5767L20.0986 6.33906ZM8.46609 6.1213L7.7765 5.7765L8.1213 6.46609L7.57707 7.01051L8.33906 6.88348L8.68404 7.57307L8.81089 6.81089L9.57307 6.68368L8.88366 6.33906L9.01069 5.5767L8.46609 6.1213ZM7.01433 7.89953L6.25215 7.73639L6.7786 8.29895L6.39751 8.97039L7.0871 8.66171L7.59522 9.22445L7.52245 8.46227L8.21222 8.15377L7.468 7.99045L7.3956 7.22827L7.01433 7.89953ZM21.532 8.00841L20.7881 8.17174L21.4777 8.49839L21.405 9.26074L21.9133 8.69819L22.6029 9.0065L22.2216 8.33524L22.7299 7.77268L21.9859 7.93601L21.6048 7.26457L21.532 8.00841ZM6.08901 9.98645L5.32665 10.0229L5.96198 10.4403L5.76236 11.1843L6.36103 10.6944L6.99618 11.1116L6.72397 10.404L7.32283 9.91404L6.56083 9.95015L6.28862 9.2426L6.08901 9.98645ZM22.4395 9.98645L21.6772 9.95015L22.2762 10.4403L22.0038 11.148L22.639 10.7307L23.238 11.2206L23.0382 10.4764L23.6734 10.0592L22.9114 10.0229L22.7116 9.27889L22.4395 9.98645ZM5.72588 12.2548L5 12.4909L5.72588 12.7268V13.4888L6.17956 12.872L6.90563 13.1079L6.45195 12.4909L6.90563 11.8739L6.17956 12.1097L5.72588 11.4928V12.2548ZM22.8204 12.128L22.0947 11.8921L22.5484 12.5091L22.0947 13.1259L22.8204 12.8902L23.2743 13.5072V12.7448L24 12.5091L23.2743 12.273V11.511L22.8204 12.128ZM22.6571 14.2875L22.0038 13.8701L22.2762 14.596L21.6772 15.086L22.4395 15.0497L22.7116 15.7572L22.9114 15.0134L23.6915 14.9589L23.0564 14.5415L23.2562 13.7975L22.6571 14.2875ZM5.96198 14.5415L5.32665 14.9589L6.08901 14.9954L6.28862 15.7393L6.56083 15.0313L7.32283 15.0676L6.72397 14.5777L6.99618 13.852L6.36103 14.2693L5.76236 13.7975L5.96198 14.5415ZM7.0871 16.32L6.39751 16.0113L6.7786 16.6829L6.27048 17.2455L7.01433 17.0821L7.3956 17.7536L7.468 16.9733L8.21222 16.8279L7.52245 16.5194L7.59522 15.7572L7.0871 16.32ZM21.4596 16.5377L20.7698 16.846L21.5138 17.0094L21.5864 17.7717L21.9677 17.1003L22.7116 17.2636L22.2036 16.7009L22.5845 16.0294L21.8949 16.3379L21.387 15.7755L21.4596 16.5377ZM8.3211 18.0984L7.55892 17.9712L8.10333 18.5156L7.75854 19.2052L8.44795 18.8606L8.99236 19.405L8.86551 18.6426L9.5551 18.2978L8.79274 18.171L8.66589 17.4088L8.3211 18.0984ZM20.1711 18.1891L19.4088 18.3161L20.0986 18.6608L19.9715 19.4231L20.5158 18.8787L21.2053 19.2235L20.8606 18.5156L21.405 17.9712L20.643 18.0984L20.2982 17.4269L20.1711 18.1891ZM9.99045 19.5138L9.22845 19.5864L9.89971 19.9673L9.73657 20.7117L10.2991 20.2034L10.9704 20.5845L10.6621 19.8951L11.2245 19.3868L10.4623 19.4592L10.1538 18.7698L9.99045 19.5138ZM18.5198 19.4774L17.7574 19.405L18.32 19.9131L18.0116 20.6025L18.6831 20.2216L19.2455 20.7297L19.0821 19.9857L19.7538 19.6044L18.9916 19.532L18.8283 18.7878L18.5198 19.4774ZM16.5599 20.2579L15.8521 19.9857L16.2695 20.6208L15.7975 21.2197L16.5417 21.0201L16.9589 21.6734L16.9952 20.911L17.7393 20.6934L17.0136 20.421L17.0498 19.6588L16.5599 20.2579ZM11.9505 20.4394L11.2426 20.7117L11.9868 20.911L12.0229 21.6734L12.4403 21.0382L13.1843 21.2376L12.6944 20.639L13.1119 20.0038L12.4042 20.2758L11.914 19.6772L11.9505 20.4394ZM14.4909 20.5482L13.8739 20.0944L14.11 20.8204L13.4928 21.2741H14.2552L14.4909 22L14.727 21.2741H15.489L14.872 20.8204L15.1081 20.0944L14.4909 20.5482Z" fill="white"/>
<path fill-rule="evenodd" clip-rule="evenodd" d="M15.2007 12.2183C15.491 12.182 15.7814 12.182 16.0536 12.182C16.2714 12.182 16.5073 12.2001 16.725 12.2183L15.5092 9.11513C15.2733 9.18771 15.0192 9.2603 14.747 9.31474L15.2007 12.2183ZM12.2246 12.9079C12.4605 12.799 12.7145 12.7082 12.9504 12.6357C13.1682 12.5631 13.4223 12.5086 13.6763 12.4542L13.2226 9.5688C12.9504 9.6051 12.6964 9.6051 12.4423 9.62324L12.2246 12.9079ZM15.4547 13.8152C15.854 13.7245 16.2351 13.6156 16.598 13.4523C16.6524 13.4341 16.7069 13.4162 16.7432 13.3797C16.5073 13.3434 16.2895 13.3434 16.0536 13.3434C15.8358 13.3434 15.6181 13.3615 15.3822 13.3797L15.4547 13.8152ZM12.5512 14.033C12.7871 14.0693 13.0049 14.0693 13.2408 14.0693H13.2589C13.4586 14.0693 13.6763 14.0513 13.9122 14.033L13.8397 13.5976C13.4404 13.6884 13.0412 13.8152 12.6601 13.9785L12.5512 14.033ZM15.3096 18.8238C15.1462 18.8238 15.0011 18.7875 14.874 18.6968C14.7107 18.5881 14.6018 18.4246 14.5655 18.2251L14.0937 15.1944C13.9667 15.2125 13.8215 15.2125 13.6945 15.2309C13.5312 15.2488 13.386 15.2488 13.2408 15.2488C12.8416 15.2488 12.4605 15.2125 12.0794 15.1401L11.9161 17.4446C11.8979 17.6443 11.8072 17.8076 11.662 17.9346C11.5168 18.0437 11.3354 18.0979 11.1539 18.0979H11.1176C10.8998 18.0979 10.7002 18.0072 10.555 17.8622C10.428 17.7168 10.3554 17.5354 10.3554 17.3358L10.8817 9.47807C10.8091 9.45992 10.7546 9.44177 10.6821 9.40548C10.3554 9.2603 10.1376 8.96995 10.0832 8.62515C10.0106 8.26221 10.1195 7.89927 10.3917 7.62706C10.918 7.13709 12.1338 6.70156 13.5674 6.4475C14.1663 6.33862 14.7652 6.28418 15.3822 6.28418C15.854 6.28418 16.4891 6.32047 16.9247 6.52009C17.2332 6.66527 17.4509 6.97377 17.4872 7.33671C17.5417 7.69965 17.4146 8.06259 17.1424 8.31665C17.0698 8.37109 16.9972 8.42554 16.9247 8.47998L19.8463 15.866C19.9189 16.0475 19.9189 16.2469 19.8282 16.4104C19.7375 16.5919 19.556 16.7369 19.3564 16.8095C19.2656 16.8458 19.1749 16.8641 19.066 16.8641C18.9753 16.8641 18.8845 16.8458 18.7938 16.8095C18.6123 16.7369 18.4672 16.5919 18.4127 16.4104L17.5598 14.2328C17.1787 14.4504 16.7795 14.6137 16.3439 14.7407C16.1262 14.8133 15.8903 14.8679 15.6362 14.9222L16.108 17.9529C16.1443 18.1344 16.0899 18.3338 15.981 18.479C15.854 18.6242 15.6907 18.7331 15.491 18.7696C15.4184 18.8238 15.364 18.8238 15.3096 18.8238Z" fill="#C62232"/>
<path fill-rule="evenodd" clip-rule="evenodd" d="M12.6571 9.8422C12.7841 9.8422 12.9112 9.82405 13.0382 9.82405L13.4193 12.2739C13.2378 12.3102 13.0563 12.3646 12.893 12.4191C12.7478 12.4554 12.6208 12.5098 12.4756 12.5461L12.6571 9.8422ZM14.9981 9.49741C15.1251 9.46111 15.234 9.42482 15.361 9.38852L16.3773 11.9473H16.0506C15.8328 11.9473 15.6151 11.9654 15.3792 11.9654L14.9981 9.49741ZM15.3792 6.08575C14.7622 6.08575 14.1452 6.1402 13.5282 6.24908C12.0401 6.50314 10.788 6.97496 10.2435 7.48308C9.91689 7.79158 9.77171 8.24526 9.8806 8.68079C9.95318 9.09817 10.2254 9.46111 10.6246 9.62444C10.6428 9.62444 10.6428 9.64258 10.6609 9.64258L10.1528 17.3369C10.1347 17.591 10.2254 17.8451 10.4069 18.0265C10.6065 18.2262 10.8605 18.335 11.1327 18.335H11.169C11.405 18.335 11.6227 18.2623 11.8042 18.1173C12.0038 17.9539 12.1308 17.7179 12.1308 17.464L12.276 15.4134C12.6027 15.4678 12.9112 15.4859 13.2378 15.4859C13.383 15.4859 13.5463 15.4859 13.7096 15.4678C13.7641 15.4678 13.8367 15.4678 13.8911 15.4495L14.3266 18.2623C14.3629 18.5165 14.5081 18.7343 14.7259 18.8795C14.8892 18.9882 15.0888 19.0428 15.2884 19.0428C15.361 19.0428 15.4336 19.0428 15.488 19.0246C15.724 18.9882 15.9599 18.8432 16.105 18.6617C16.2684 18.4621 16.3228 18.208 16.2865 17.9539L15.851 15.123C16.0325 15.0865 16.1958 15.0323 16.3773 14.9778C16.722 14.8689 17.0668 14.7419 17.3935 14.5786L18.1557 16.5203C18.2464 16.7562 18.4279 16.9559 18.6819 17.0466C18.7908 17.0827 18.9178 17.101 19.0267 17.101C19.1538 17.101 19.2808 17.0827 19.3897 17.0284C19.6437 16.9377 19.8615 16.7562 19.9885 16.5203C20.0974 16.2844 20.1156 16.0304 20.0248 15.7763L17.1939 8.57191C17.2302 8.55376 17.2483 8.53561 17.2665 8.49932C17.6113 8.20896 17.7564 7.75529 17.702 7.31976C17.6475 6.88423 17.3935 6.52128 17.0124 6.33981C16.5406 6.12205 15.851 6.08575 15.3792 6.08575ZM13.2378 14.3064C13.5645 14.3064 13.873 14.2882 14.1633 14.2519L14.0181 13.3264C13.51 13.4172 13.02 13.5624 12.5664 13.762C12.3486 13.8346 12.149 13.9616 11.9857 14.1068C12.1308 14.1975 12.5301 14.3064 13.2378 14.3064ZM15.2521 14.0884C15.7421 13.9977 16.2321 13.8527 16.6858 13.6712C16.9035 13.5805 17.1213 13.4716 17.3028 13.3083C17.1757 13.2357 16.7583 13.1268 16.0506 13.1268C15.7421 13.1268 15.4155 13.145 15.107 13.1811L15.2521 14.0884ZM11.9675 13.2901C12.2942 13.1087 12.6571 12.9635 13.02 12.8546C13.3104 12.7639 13.6189 12.6913 13.9274 12.6187L13.4193 9.29779C13.02 9.35223 12.6208 9.37038 12.2216 9.37038L11.9675 13.2901ZM14.9981 12.4735C15.3429 12.4372 15.6877 12.4191 16.0506 12.4191C16.3954 12.4191 16.7402 12.4372 17.085 12.5098L15.6332 8.84411C15.2521 8.97114 14.871 9.08002 14.49 9.15261L14.9981 12.4735ZM12.5301 8.64449C11.7679 8.64449 11.1327 8.51746 10.8242 8.28155C11.0239 8.64449 11.7497 8.86226 12.6752 8.86226C13.1108 8.86226 13.5463 8.82596 13.9818 8.73523C15.3973 8.48117 16.5224 7.88232 16.7402 7.3379C16.3047 7.82787 15.2521 8.28155 13.9818 8.51746C13.4919 8.6082 13.02 8.64449 12.5301 8.64449ZM15.3792 6.53943C16.0143 6.53943 16.5224 6.61202 16.8309 6.7572C17.339 6.99311 17.4298 7.79158 16.9943 8.15452C16.8854 8.24526 16.7765 8.31785 16.6495 8.39043L19.6256 15.9578C19.68 16.0846 19.6619 16.2118 19.6074 16.3207C19.5348 16.4659 19.4078 16.5566 19.2626 16.6111C19.1901 16.629 19.1175 16.6474 19.0449 16.6474C18.9904 16.6474 18.9178 16.629 18.8634 16.6111C18.7364 16.5566 18.6456 16.4659 18.5912 16.3389L17.6294 13.907L17.6113 13.9253C17.1939 14.1975 16.7402 14.4153 16.2502 14.5421C15.978 14.6329 15.6695 14.7056 15.3429 14.7601L15.851 18.0084C15.8691 18.1354 15.8328 18.2623 15.7603 18.3713C15.6695 18.4802 15.5425 18.5528 15.4155 18.571C15.3792 18.571 15.3429 18.5891 15.2884 18.5891C15.1795 18.5891 15.0707 18.5528 14.9618 18.4984C14.8529 18.4258 14.7803 18.3169 14.7622 18.1899L14.254 14.9415C14.0544 14.9597 13.8548 14.9778 13.6552 14.9958C13.51 15.0141 13.3467 15.0141 13.2015 15.0141C12.7297 15.0323 12.2579 14.9597 11.8223 14.8327L11.6409 17.4457C11.6409 17.5729 11.5683 17.6999 11.4775 17.7725C11.3687 17.8451 11.2598 17.8993 11.1327 17.8814H11.1146C10.9513 17.8814 10.8061 17.8086 10.6972 17.6999C10.6065 17.6092 10.552 17.4821 10.5702 17.3549L11.0965 9.29779C10.9694 9.27964 10.8605 9.24335 10.7517 9.18891C10.2254 8.98929 10.0984 8.19082 10.5157 7.79158C10.9876 7.35605 12.149 6.92052 13.5645 6.66646C14.1815 6.59387 14.7803 6.53943 15.3792 6.53943Z" fill="white"/>
</svg>
