<svg width="339" height="67" viewBox="0 0 339 67" fill="none" xmlns="http://www.w3.org/2000/svg">
<path d="M313.449 9.66146V23.1302H308.782V35.526H313.449V52.4635C313.449 62.1927 319.048 66.7292 326.381 66.7292C330.782 66.8594 335.183 65.7969 338.917 63.526L335.048 52.7292C333.985 53.1302 332.917 53.3958 331.85 53.3958C329.318 53.3958 329.048 51.1302 329.048 49.1302V35.526H338.251V23.1302H329.048V8.0625L313.449 9.66146Z" fill="#3E4855"/>
<path d="M289.047 65.927H304.646V23.1301H289.047V65.927Z" fill="#3E4855"/>
<path d="M296.917 0.327962H296.516C291.714 0.463378 287.849 4.32796 287.979 9.13005V9.52588C288.115 14.328 292.115 18.0623 296.917 17.9269H297.583C302.25 17.6613 305.979 13.6613 305.714 8.99463V8.46338C305.583 3.88005 301.724 0.322754 297.167 0.322754C297.083 0.322754 297 0.322754 296.917 0.327962Z" fill="#68EBCA"/>
<path d="M229.713 44.5938C229.713 57.7969 239.317 66.8594 252.114 66.8594C261.182 66.8594 267.984 63.1302 271.713 58.7292L263.713 49.7969C260.781 52.8594 257.713 54.4635 253.848 54.4635C249.312 54.4635 245.713 52.4635 245.046 48.3281H273.046C273.182 46.8594 273.312 45.526 273.312 44.1927C273.312 31.3958 264.114 22.3281 251.848 22.3281C238.916 22.3281 229.713 31.6615 229.713 44.5938ZM251.848 34.0625C255.046 34.0625 257.583 36.0625 258.249 39.7969H245.046C245.447 36.4635 248.38 33.9271 251.848 34.0625Z" fill="#3E4855"/>
<path d="M189.447 1.66138V65.7968H205.046V54.9947L208.38 51.2603L216.249 65.7968H233.447L218.645 39.3958L232.916 23.1301H215.046L205.182 34.7291H205.046V1.66138H189.447Z" fill="#3E4855"/>
<path d="M153.85 23.7968C151.714 24.328 149.584 25.1301 147.449 26.0624V38.4635L153.85 35.6614C156.652 34.5937 159.584 33.927 162.516 33.927C165.183 33.927 166.782 34.328 167.714 35.7968C168.381 36.9947 168.652 38.328 168.516 39.7968V39.927L162.115 40.0624C149.318 40.0624 144.381 45.2603 144.381 53.3958C144.381 60.9947 148.646 66.7291 158.115 66.7291C161.98 66.5937 165.714 65.2603 168.652 62.7291H168.917L169.449 65.927H183.85V40.5937C183.85 25.6614 176.115 22.1926 165.449 22.1926C161.584 22.1926 157.584 22.7291 153.85 23.7968ZM159.313 52.1926C159.313 49.2603 161.318 47.927 163.98 47.927L168.652 47.7968V52.4635C168.652 52.9947 167.048 56.1926 162.782 56.1926C160.782 56.1926 159.313 54.8593 159.313 52.1926Z" fill="#3E4855"/>
<path d="M111.182 28.4636H111.047C108.38 24.0626 103.979 22.3282 98.7812 22.3282C94.2499 22.3282 89.9791 24.4636 87.3124 28.0626H87.1822V23.1303H71.5833V65.9272H87.3124V44.4636C87.3124 38.5938 89.7135 36.0626 93.1822 36.0626C97.3124 36.0626 98.3801 39.797 98.3801 44.4636V65.9272H113.849V44.4636C113.849 38.5938 116.38 36.0626 119.448 36.0626C123.713 36.0626 124.646 39.797 124.646 44.4636V65.9272H140.25V40.8595C140.25 26.9949 133.849 22.1928 125.047 22.3282C124.901 22.323 124.75 22.323 124.604 22.323C119.432 22.323 114.552 24.573 111.182 28.4636Z" fill="#3E4855"/>
<g clip-path="url(#clip0_688_591)">
<path d="M15.1943 51.9941H18.3937L24.9807 60.8197V51.9941H27.982V65.6436H24.7826L18.1857 56.7982V65.6436H15.1943V51.9941Z" fill="#001F60"/>
<path d="M43.2464 61.3446C43.2464 65.059 40.2748 65.6434 38.4126 65.6434H30.4785V52.0039H38.4027C40.8295 52.0039 42.7709 53.3807 42.7709 55.966C42.7709 57.2438 41.8696 57.9471 41.1861 58.3036C42.3153 58.8682 43.2365 59.7003 43.2365 61.3545L43.2464 61.3446ZM33.3808 54.5595V57.1447H38.056C38.8286 57.1447 39.6805 56.8278 39.6805 55.867C39.6805 54.9061 39.0168 54.5694 37.9471 54.5694H33.3808V54.5595ZM40.1659 61.3446C40.1659 60.0371 39.0763 59.7003 38.0164 59.7003H33.3907V62.9591H38.1254C38.9871 62.9591 40.1659 62.662 40.1659 61.3446Z" fill="#001F60"/>
<path d="M58.3713 63.4148C56.8756 64.7025 55.261 66.0001 52.0716 66.0001C47.8321 65.9803 44.5535 62.6917 44.5535 58.789C44.5733 54.7675 47.9906 51.6375 52.1112 51.6375C55.687 51.6375 57.6086 53.9355 57.8661 54.1831L55.6077 56.4415C55.1125 55.9462 54.0526 54.8071 52.0914 54.8071C49.6943 54.8071 47.743 56.6 47.743 58.8089C47.743 60.7305 49.3971 62.8106 52.0716 62.8106C54.2111 62.8106 54.9936 62.1073 56.3011 61.0078L58.3614 63.4148H58.3713Z" fill="#001F60"/>
<path d="M13.8178 63.4148C12.3221 64.7025 10.7076 66.0001 7.51809 66.0001C3.27864 65.9803 0 62.6917 0 58.789C0.0198105 54.7675 3.43712 51.6375 7.55771 51.6375C11.1335 51.6375 13.0551 53.9355 13.3127 54.1831L11.0543 56.4415C10.559 55.9462 9.49914 54.8071 7.5379 54.8071C5.14083 54.8071 3.18949 56.6 3.18949 58.8089C3.18949 60.7305 4.84367 62.8106 7.51809 62.8106C9.65762 62.8106 10.4401 62.1073 11.7476 61.0078L13.8079 63.4148H13.8178Z" fill="#001F60"/>
<path d="M39.74 27.0128L32.6082 43.307L30.5677 29.1524C30.3102 27.2308 33.5789 26.0421 33.5789 26.0421C33.2818 25.3785 32.2417 25.3884 32.2417 25.3884H30.0229C29.6663 21.9116 32.8261 19.366 36.2434 20.1485C39.6013 20.9013 40.8197 24.5464 39.7301 27.0227L39.74 27.0128Z" fill="#675EA9"/>
<path d="M26.4862 48.5768L12.5792 39.3054C9.04302 36.9381 5.53656 39.355 4.79367 41.8412C3.70409 45.516 6.15069 48.5768 9.99393 48.5768H26.4862Z" fill="#FFCD00"/>
<path d="M28.3093 25.6063C28.8243 22.0107 25.6051 19.3462 22.1086 20.1386C18.7507 20.8914 17.5323 24.5365 18.6219 27.0128L25.7537 43.307L28.2994 25.6063H28.3093Z" fill="#EA0029"/>
<path d="M25.1987 45.9814L18.3541 30.3807C16.7495 26.7652 12.51 26.3096 10.1625 28.4392C8.50832 29.9349 7.23054 34.006 10.9252 36.4724L25.2086 45.9914L25.1987 45.9814Z" fill="#F37121"/>
<path d="M48.367 48.5768C52.2102 48.5768 54.6667 45.516 53.5673 41.8412C52.8244 39.355 49.3278 36.9381 45.7817 39.3054L31.8748 48.5768H48.3571H48.367Z" fill="#009845"/>
<path d="M47.4563 36.4625C51.151 33.9961 49.8633 29.925 48.219 28.4293C45.8715 26.3096 41.632 26.7553 40.0274 30.3708L33.1829 45.9715L47.4662 36.4526L47.4563 36.4625Z" fill="#00A0DF"/>
</g>
<defs>
<clipPath id="clip0_688_591">
<rect width="58.3717" height="46" fill="white" transform="translate(0 20)"/>
</clipPath>
</defs>
</svg>
