<svg xmlns="http://www.w3.org/2000/svg" xmlns:xlink="http://www.w3.org/1999/xlink" viewBox="0 0 663.54 98.37"><defs><style>.cls-1{fill:url(#linear-gradient);}.cls-2{fill:url(#linear-gradient-2);}.cls-3{fill:url(#linear-gradient-3);}.cls-4{fill:url(#linear-gradient-4);}.cls-5{fill:url(#linear-gradient-5);}.cls-6{fill:url(#linear-gradient-6);}.cls-7{fill:url(#linear-gradient-7);}.cls-8{fill:url(#linear-gradient-9);}.cls-9{fill:url(#linear-gradient-10);}.cls-10{fill:url(#linear-gradient-11);}.cls-11{fill:url(#linear-gradient-12);}.cls-12{fill:url(#linear-gradient-13);}</style><linearGradient id="linear-gradient" x1="104.58" y1="110.62" x2="104.58" y2="-11.22" gradientUnits="userSpaceOnUse"><stop offset="0" stop-color="#01c3a6"/><stop offset="1" stop-color="#19bdc4"/></linearGradient><linearGradient id="linear-gradient-2" x1="148.24" y1="110.62" x2="148.24" y2="-11.22" xlink:href="#linear-gradient"/><linearGradient id="linear-gradient-3" x1="192.65" y1="110.62" x2="192.65" y2="-11.22" xlink:href="#linear-gradient"/><linearGradient id="linear-gradient-4" x1="223.88" y1="110.62" x2="223.88" y2="-11.22" xlink:href="#linear-gradient"/><linearGradient id="linear-gradient-5" x1="72.44" y1="110.62" x2="72.44" y2="-11.22" xlink:href="#linear-gradient"/><linearGradient id="linear-gradient-6" x1="39.27" y1="110.62" x2="39.27" y2="-11.22" xlink:href="#linear-gradient"/><linearGradient id="linear-gradient-7" x1="39.27" y1="110.62" x2="39.27" y2="-11.22" xlink:href="#linear-gradient"/><linearGradient id="linear-gradient-9" x1="565.58" y1="48.98" x2="565.58" y2="39.6" xlink:href="#linear-gradient"/><linearGradient id="linear-gradient-10" x1="262.9" y1="97.35" x2="262.9" y2="39.6" xlink:href="#linear-gradient"/><linearGradient id="linear-gradient-11" x1="306.34" y1="98.37" x2="306.34" y2="51.74" xlink:href="#linear-gradient"/><linearGradient id="linear-gradient-12" x1="351.57" y1="98.37" x2="351.57" y2="51.74" xlink:href="#linear-gradient"/><linearGradient id="linear-gradient-13" x1="398.25" y1="97.35" x2="398.25" y2="39.6" xlink:href="#linear-gradient"/></defs><title>Asset 1</title><g id="Layer_2" data-name="Layer 2"><g id="Layer_1-2" data-name="Layer 1"><path class="cls-1" d="M98.29,64.14H87c1.36-8.32,7.22-12.4,17.58-12.4,12.4,0,18.69,4.08,18.94,12.4V79.43c0,12.4-7.47,17.92-19.62,18.77C93.11,99.05,85.64,94,85.64,84.1c.25-10.78,8.07-13.67,19.45-14.78,4.84-.59,7.3-2,7.3-4.5-.25-2.55-2.63-3.82-7.3-3.82C101.1,61,98.89,62,98.29,64.14Zm14.27,14.78V74.76a49.24,49.24,0,0,1-9,2.72c-4.5.85-6.8,3-6.8,6.28C97,87.33,98.89,89,102.46,89,108.74,89,112.56,85.29,112.56,78.92Z"/><path class="cls-2" d="M170.07,52.42,154.18,97.35h-12l-15.8-44.93H138.9L148,83.93l7.82-27.52a5.34,5.34,0,0,1,5.52-4Z"/><path class="cls-3" d="M192.66,98.37c-13.59-.42-20.38-8.32-20.38-23.61s6.88-22.93,20.55-23q21.4,0,20.13,26.33H183.91c.43,6.88,3.4,10.37,8.92,10.37a10.47,10.47,0,0,0,7.31-3.23A4.93,4.93,0,0,1,204,83.59h8.32C209.82,93.11,203.7,98.37,192.66,98.37ZM184.08,70H201c-.67-5.94-3.48-9-8.32-9S184.93,64.06,184.08,70Z"/><path class="cls-4" d="M229.52,45.12V97.35H218.23V39.6h5.86A5.54,5.54,0,0,1,229.52,45.12Z"/><path class="cls-5" d="M81.39,63.23a20.19,20.19,0,0,1,5.16-10.81H81.44c-15,0-22.77,7.22-23.11,21.75V97.35H69.8V74c0-6.54,3.14-9.86,9.43-9.86h2Z"/><polygon class="cls-6" points="39.27 17.55 49.62 21.66 51.49 9.29 39.27 0 27.04 9.29 28.91 21.66 39.27 17.55"/><polygon class="cls-7" points="78.53 39.7 39.27 23.16 0 39.7 0 47.21 30.69 42.83 33.12 77.65 45.41 77.65 47.84 42.83 78.53 47.21 78.53 39.7"/><polygon class="cls-7" points="33.54 84.22 34.36 96.84 44.17 96.84 44.99 84.22 33.54 84.22"/><path d="M467.2,40.24h7.46V96.37h-6L439.78,54.43V96.37h-7.46V40.24h5.77L467.2,82.39Z"/><path d="M519.17,56.28h7V96.37h-7V89.48Q514,97.42,504,97.42a19.23,19.23,0,0,1-14.35-6.14,20.69,20.69,0,0,1-5.94-15,20.68,20.68,0,0,1,5.94-14.95A19.23,19.23,0,0,1,504,55.23q9.94,0,15.16,7.94ZM504.9,90.68a13.77,13.77,0,0,0,10.18-4.13,14.83,14.83,0,0,0,0-20.45,14.53,14.53,0,0,0-20.29,0,14.83,14.83,0,0,0,0,20.45A13.69,13.69,0,0,0,504.9,90.68Z"/><path d="M553.83,63H543.17V84.75c0,2,.38,3.38,1.16,4.21a4.81,4.81,0,0,0,3.57,1.28q2.4,0,5.93-.12v6.25q-9.14,1.22-13.39-1.48t-4.25-10.14V47.13l7-2.08V56.28h10.66Z"/><rect x="562.09" y="56.28" width="6.98" height="40.1"/><path class="cls-8" d="M565.62,49a4.49,4.49,0,0,0,3.29-1.37,4.45,4.45,0,0,0,1.36-3.28A4.59,4.59,0,0,0,568.91,41a4.41,4.41,0,0,0-3.29-1.4,4.49,4.49,0,0,0-3.37,1.4,4.59,4.59,0,0,0-1.36,3.33,4.45,4.45,0,0,0,1.36,3.28A4.58,4.58,0,0,0,565.62,49Z"/><path d="M613.58,91.32a21.44,21.44,0,0,1-30,0,20.3,20.3,0,0,1-6.13-15,20.88,20.88,0,0,1,21.09-21.09,20.59,20.59,0,0,1,15,6.1,20.26,20.26,0,0,1,6.17,15A20.26,20.26,0,0,1,613.58,91.32Zm-15-.72a14,14,0,0,0,14.2-14.28,14,14,0,0,0-14.2-14.27,13.59,13.59,0,0,0-10,4.09,14.73,14.73,0,0,0,0,20.37A13.59,13.59,0,0,0,598.58,90.6Z"/><path d="M648,55.23q7,0,11.31,4.45t4.25,12.07V96.37h-7V72.15q0-4.89-2.64-7.57a9.8,9.8,0,0,0-7.3-2.69,11.27,11.27,0,0,0-8.42,3.25q-3.21,3.24-3.21,10V96.37h-7V56.28h7v5.77Q639.24,55.24,648,55.23Z"/><path class="cls-9" d="M245.87,39.6h40V49.87H268.8V97.35H257V49.87H239.93V45.79A6.12,6.12,0,0,1,245.87,39.6Z"/><path class="cls-10" d="M306.34,98.37C292.76,97.94,286,90,286,74.76s6.88-22.94,20.55-23q21.4,0,20.13,26.33h-29C298,85,301,88.43,306.51,88.43a10.41,10.41,0,0,0,7.31-3.23,5,5,0,0,1,3.82-1.61H326C323.5,93.1,317.38,98.37,306.34,98.37ZM297.77,70h16.9c-.68-6-3.48-9-8.33-9S298.62,64.05,297.77,70Z"/><path class="cls-11" d="M352.46,98.37c-13.59,0-20.55-7.82-20.89-23.27,0-15.38,6.88-23.11,20.72-23.36,10.87,0,17.33,4.84,19.28,14.61H359.25a7.35,7.35,0,0,0-7.3-4.67c-5.94,0-8.92,4.5-8.92,13.42s3.14,13.42,9.43,13.33a8.78,8.78,0,0,0,6.79-3.23,5.23,5.23,0,0,1,3.83-1.61h8.49C369.53,92.76,362.91,98.62,352.46,98.37Z"/><path class="cls-12" d="M398.4,61.85c-6.7,0-9.59,5.6-9.59,12.48v23h-11.3V39.6h5.69c3.74,0,5.61,1.95,5.61,5.69V58.7c5.77-6.62,12.82-8.49,21.23-5.52q9.43,3.45,8.92,18.09V97.35H407.75v-23C407.75,66.77,404.86,61.85,398.4,61.85Z"/></g></g></svg>