<?xml version="1.0" encoding="UTF-8"?>
<svg width="280px" height="280px" viewBox="0 0 280 280" version="1.1" xmlns="http://www.w3.org/2000/svg" xmlns:xlink="http://www.w3.org/1999/xlink">
    <!-- Generator: Sketch 47.1 (45422) - http://www.bohemiancoding.com/sketch -->
    <title>abc_logo</title>
    <desc>Created with Sketch.</desc>
    <defs>
        <polygon id="path-1" points="279.110832 280 0 280 0 0.348009975 279.110832 0.348009975"></polygon>
    </defs>
    <g id="Logos" stroke="none" stroke-width="1" fill="none" fill-rule="evenodd">
        <g id="Network-Logos" transform="translate(-340.000000, -542.000000)">
            <g id="abc_logo" transform="translate(340.000000, 542.000000)">
                <g id="Group-3">
                    <mask id="mask-2" fill="white">
                        <use xlink:href="#path-1"></use>
                    </mask>
                    <g id="Clip-2"></g>
                    <path d="M232.40089,184.013347 C208.121712,184.013347 188.641152,164.440579 188.641152,140.174145 C188.641152,115.907711 208.121712,96.3342444 232.40089,96.3342444 C253.375392,96.3342444 270.764014,110.94382 275.110472,130.565466 L250.954801,130.565466 C247.493823,123.849656 240.503485,119.255142 232.40089,119.255142 C220.825454,119.255142 211.546405,128.594993 211.546405,140.174145 C211.546405,151.753297 220.825454,161.093147 232.40089,161.093147 C240.479761,161.093147 247.433116,156.515392 250.905259,149.833097 L275.110472,149.833097 C270.745872,169.428908 253.35725,184.013347 232.40089,184.013347 L232.40089,184.013347 Z M141.162259,184.031501 C116.883779,184.031501 97.3878676,164.443372 97.3878676,140.176938 L97.3878676,66.1466135 L120.406161,66.1466135 L120.406161,106.883471 C120.406161,106.883471 126.254236,96.3223741 141.162259,96.3223741 C165.441436,96.3223741 184.887108,115.910504 184.887108,140.176938 C184.887108,164.443372 165.441436,184.031501 141.162259,184.031501 L141.162259,184.031501 Z M91.8202987,183.063022 L68.7971209,183.063022 L68.7971209,173.480878 C68.7971209,173.480878 62.9692809,184.013347 48.0605609,184.013347 C23.7813831,184.013347 4.30082311,164.440579 4.30082311,140.174145 C4.30082311,115.907711 23.7813831,96.3342444 48.0605609,96.3342444 C72.3397387,96.3342444 91.8202987,115.907711 91.8202987,140.174145 L91.8202987,183.063022 Z M139.580396,0.348009975 C62.1821876,0.348009975 -0.000279111111,62.7517007 -0.000279111111,140.174145 C-0.000279111111,217.596589 62.1821876,280.000279 139.580396,280.000279 C216.979303,280.000279 279.110832,217.596589 279.110832,140.174145 C279.110832,62.7517007 216.979303,0.348009975 139.580396,0.348009975 L139.580396,0.348009975 Z" id="Fill-1" fill="#FFFFFF" mask="url(#mask-2)"></path>
                </g>
                <path d="M140.888539,120 C129.295365,120 120,129.327407 120,140.88854 C120,152.449673 129.295365,161.777778 140.888539,161.777778 C152.482413,161.777778 161.777778,152.449673 161.777778,140.88854 C161.777778,129.327407 152.482413,120 140.888539,120" id="Fill-4" fill="#FFFFFF"></path>
                <path d="M48.4444444,120 C36.8499124,120 27.5555556,129.326405 27.5555556,140.888889 C27.5555556,152.451372 36.8499124,161.777778 48.4444444,161.777778 C60.0389764,161.777778 69.3333333,152.451372 69.3333333,140.888889 C69.3333333,129.326405 60.0389764,120 48.4444444,120" id="Fill-6" fill="#FFFFFF"></path>
            </g>
        </g>
    </g>
</svg>