<svg viewBox="0 0 468 180" width="100%" height="100%" fill="none" xmlns="http://www.w3.org/2000/svg">
  <defs>
    <clipPath id="clip0_508_5">
      <rect width="466" height="140" fill="white"/>
    </clipPath>
  </defs>
  <g clip-path="url(#clip0_508_5)">
    <path d="M155.889 95.2877C159.932 95.2877 163.432 94.1372 166.389 91.8361C169.261 89.5138 171.208 86.1901 172.229 81.8651H164.761C162.804 86.1049 159.847 88.2248 155.889 88.2248C154.23 88.2248 152.805 87.8733 151.613 87.1702C150.4 86.5736 149.422 85.796 148.677 84.8372C147.762 83.8358 147.156 82.5255 146.858 80.9063C146.518 79.2871 146.347 76.1871 146.347 71.6064C146.347 67.0256 146.518 63.9044 146.858 62.2425C147.156 60.6659 147.762 59.3769 148.677 58.3755C149.422 57.4168 150.4 56.6178 151.613 55.9786C152.805 55.3608 154.23 55.0305 155.889 54.9879C158.145 55.0305 160.059 55.6803 161.634 56.9374C163.144 58.2583 164.187 59.8563 164.761 61.7312H172.229C171.484 57.8322 169.697 54.5618 166.867 51.9199C164.038 49.2993 160.379 47.9677 155.889 47.9251C152.23 47.9677 149.177 48.8412 146.73 50.5457C144.241 52.2288 142.433 54.1463 141.305 56.2982C140.603 57.4274 140.082 58.9082 139.742 60.7405C139.43 62.5301 139.27 66.0272 139.263 71.2317V71.6064C139.263 76.9328 139.422 80.5335 139.742 82.4084C139.912 83.4097 140.124 84.2407 140.38 84.9011C140.656 85.5403 140.965 86.2114 141.305 86.9145C142.433 89.0664 144.241 90.9626 146.73 92.6031C149.177 94.3076 152.23 95.2024 155.889 95.2877ZM190.347 94.9042L193.921 84.4857H211.569L215.175 94.9042H222.611L205.697 48.3086H199.793L182.879 94.9042H190.347ZM209.558 78.2218H195.963L202.697 57.8642H202.825L209.558 78.2218ZM245.164 94.9042V76.7197H255.887C260.674 76.6345 264.312 75.1005 266.801 72.1177C269.227 69.284 270.439 66.1415 270.439 62.6899C270.439 60.1332 269.961 57.9174 269.003 56.0425C268.089 54.1037 266.897 52.6123 265.429 51.5683C263.685 50.1835 261.961 49.2673 260.259 48.8199C258.557 48.479 256.791 48.3086 254.962 48.3086H238.112V94.9042H245.164ZM255.6 70.0404H245.164V54.9879H255.345C257.259 54.9453 258.94 55.3821 260.387 56.2982C261.344 56.8522 262.089 57.6085 262.621 58.5673C263.131 59.6326 263.387 60.9429 263.387 62.4982C263.387 64.3731 262.759 66.0775 261.504 67.6115C260.185 69.1882 258.217 69.9978 255.6 70.0404ZM306.971 94.9042C310.63 94.9042 313.683 93.6791 316.13 91.2289C318.598 88.8853 319.853 85.7001 319.896 81.6733C319.896 79.2445 319.289 76.9967 318.077 74.9301C316.779 72.9273 314.864 71.5957 312.332 70.9352V70.8074C313.673 70.1682 314.8 69.4545 315.715 68.6662C316.63 67.9205 317.332 67.1322 317.821 66.3012C318.779 64.5542 319.236 62.7219 319.194 60.8044C319.194 57.0546 318.034 54.0398 315.715 51.7601C313.417 49.5017 309.982 48.3512 305.407 48.3086H287.377V94.9042H306.971ZM304.609 67.9311H294.429V54.6044H304.609C307.184 54.647 309.077 55.2755 310.29 56.49C311.524 57.7896 312.141 59.3769 312.141 61.2518C312.141 63.1267 311.524 64.682 310.29 65.9177C309.077 67.26 307.184 67.9311 304.609 67.9311ZM305.28 88.2248H294.429V74.227H305.28C307.897 74.2696 309.811 74.962 311.024 76.3043C312.237 77.6678 312.843 79.3084 312.843 81.2259C312.843 83.1008 312.237 84.72 311.024 86.0836C309.811 87.4685 307.897 88.1822 305.28 88.2248ZM340.375 94.9042L343.949 84.4857H361.597L365.203 94.9042H372.639L355.725 48.3086H349.821L332.908 94.9042H340.375ZM359.587 78.2218H345.992L352.726 57.8642H352.853L359.587 78.2218ZM401.863 95.2877C412.522 95.1598 417.968 90.643 418.202 81.7372C418.202 78.4349 417.17 75.5373 415.107 73.0445C413.022 70.5091 409.798 68.9432 405.437 68.3466C403.224 68.0696 401.48 67.8246 400.203 67.6115C397.906 67.1854 396.235 66.4184 395.193 65.3105C394.15 64.2239 393.629 63.0095 393.629 61.6673C393.672 59.4302 394.448 57.747 395.959 56.6178C397.406 55.5312 399.214 54.9879 401.384 54.9879C405.575 55.0731 409.415 56.2663 412.905 58.5673L416.83 52.7508C412.554 49.6615 407.522 48.0529 401.735 47.9251C396.927 47.9677 393.214 49.2247 390.597 51.6962C387.896 54.1889 386.544 57.47 386.544 61.5394C386.544 64.927 387.619 67.8033 389.768 70.1682C391.853 72.4692 394.895 73.95 398.895 74.6105C401.129 74.9301 403.182 75.2177 405.054 75.4734C409.139 76.1764 411.16 78.2644 411.117 81.7372C411.032 85.9771 407.969 88.1396 401.927 88.2248C396.82 88.1822 392.416 86.6376 388.715 83.5908L384.087 88.896C389.044 93.1571 394.97 95.2877 401.863 95.2877ZM465.871 94.9042V88.2248H443.213V74.5466H462.552V68.2827H443.213V54.9879H465.871V48.3086H436.16V94.9042H465.871Z" style="fill: rgb(255, 255, 255);"/>
    <path d="M98.0365 0V55.6335H54.9004V87.7045H98.0365V143.338H43.136V99.4857H0V43.8523H43.136V0H98.0365ZM86.2721 99.4857H54.9004V131.557H86.2721V99.4857ZM43.136 55.6335H11.7644V87.7045H43.136V55.6335ZM86.2721 11.7812H54.9004V43.8523H86.2721V11.7812Z" style="fill: rgb(255, 255, 255);"/>
  </g>
  <path d="M391.68 170.974C388.302 170.974 385.291 170.319 382.646 169.009C380.001 167.7 377.905 165.797 376.359 163.3C374.853 160.763 374.1 157.755 374.1 154.276C374.1 150.634 374.833 147.421 376.298 144.638C377.763 141.855 379.797 139.707 382.402 138.193C385.047 136.637 388.078 135.86 391.497 135.86C395.037 135.86 398.008 136.637 400.409 138.193C402.81 139.707 404.6 141.896 405.78 144.761C407.001 147.626 407.591 151.023 407.55 154.951H377.457V149.242H402.85L399.249 151.943C399.249 149.938 398.964 148.178 398.394 146.664C397.865 145.15 397.011 143.943 395.831 143.042C394.691 142.142 393.247 141.692 391.497 141.692C389.706 141.692 388.14 142.183 386.797 143.165C385.454 144.147 384.416 145.58 383.684 147.462C382.951 149.345 382.585 151.555 382.585 154.092C382.585 156.343 382.971 158.287 383.745 159.924C384.558 161.561 385.657 162.809 387.041 163.668C388.465 164.487 390.032 164.896 391.741 164.896C394.101 164.896 396.054 164.262 397.601 162.993C399.188 161.684 400.348 160.047 401.08 158.082L407.978 162.256C406.024 165.203 403.644 167.393 400.836 168.825C398.069 170.257 395.017 170.974 391.68 170.974Z" style="fill: rgb(255, 255, 255);"/>
  <path d="M427.544 170.974C424.166 170.974 421.155 170.319 418.51 169.009C415.865 167.7 413.769 165.797 412.222 163.3C410.717 160.763 409.964 157.755 409.964 154.276C409.964 150.634 410.696 147.421 412.161 144.638C413.626 141.855 415.661 139.707 418.265 138.193C420.911 136.637 423.942 135.86 427.361 135.86C430.901 135.86 433.872 136.637 436.272 138.193C438.673 139.707 440.464 141.896 441.644 144.761C442.865 147.626 443.455 151.023 443.414 154.951H413.321V149.242H438.714L435.113 151.943C435.113 149.938 434.828 148.178 434.258 146.664C433.729 145.15 432.875 143.943 431.694 143.042C430.555 142.142 429.11 141.692 427.361 141.692C425.57 141.692 424.003 142.183 422.66 143.165C421.318 144.147 420.28 145.58 419.547 147.462C418.815 149.345 418.449 151.555 418.449 154.092C418.449 156.343 418.835 158.287 419.608 159.924C420.422 161.561 421.521 162.809 422.905 163.668C424.329 164.487 425.896 164.896 427.605 164.896C429.965 164.896 431.918 164.262 433.465 162.993C435.052 161.684 436.211 160.047 436.944 158.082L443.842 162.256C441.888 165.203 439.508 167.393 436.7 168.825C433.933 170.257 430.881 170.974 427.544 170.974Z" style="fill: rgb(255, 255, 255);"/>
  <path d="M446.133 126.222H454.312V162.134C454.312 165.039 454.455 167.7 454.74 170.114H446.133V126.222Z" style="fill: rgb(255, 255, 255);"/>
  <path d="M336.163 153.44C336.163 141.282 343.88 135.88 352.342 135.88C360.064 135.88 363.321 140.814 363.321 140.814V126.238H371.685V162.16C371.685 165.108 371.786 167.769 371.991 170.142H363.324V166.11C363.324 166.11 360.005 171 352.344 171C344.178 171 336.163 166.287 336.163 153.44ZM354.478 164.546C360.402 164.546 364.232 160.011 364.232 153.44C364.232 146.639 360.399 142.334 354.478 142.334C348.557 142.334 344.866 146.426 344.866 153.44C344.866 160.454 348.712 164.546 354.478 164.546Z" style="fill: rgb(255, 255, 255);"/>
  <path d="M459.604 162.256H467.662V170.113H459.604V162.256Z" style="fill: rgb(255, 255, 255);"/>
  <path d="M289.719 170.533C295.91 170.533 300.133 165.982 300.133 159.34C300.133 152.698 295.91 148.024 289.965 148.024C285.865 148.024 283.61 150.566 282.913 151.673H282.667V139.25H278.362V170H282.544V166.966H282.831C283.405 167.786 285.455 170.533 289.719 170.533ZM289.104 166.638C285.004 166.638 282.544 163.358 282.544 159.299C282.544 154.666 285.414 151.96 289.186 151.96C293.081 151.96 295.746 154.994 295.746 159.299C295.746 163.768 293.081 166.638 289.104 166.638ZM303.235 179.43H305.654C309.508 179.43 311.476 177.544 312.706 174.264L322.546 148.557H317.831L311.927 165.121H311.64L305.695 148.557H301.021L309.672 170.902L308.893 172.952C308.237 174.674 307.089 175.576 305.121 175.576H303.235V179.43Z" style="fill: rgb(255, 255, 255);"/>
</svg>