<svg width="340" height="67" viewBox="0 0 340 67" fill="none" xmlns="http://www.w3.org/2000/svg">
<path d="M314.265 9.62508V23.0938H309.598V35.4897H314.265V52.422C314.265 62.1563 319.864 66.6928 327.197 66.6928C331.598 66.823 335.999 65.7553 339.734 63.4897L335.864 52.6928C334.801 53.0938 333.734 53.3595 332.666 53.3595C330.135 53.3595 329.864 51.0886 329.864 49.0886V35.4897H339.067V23.0938H329.864V8.02612L314.265 9.62508Z" fill="white"/>
<path d="M289.865 65.8906H305.469V23.0938H289.865V65.8906Z" fill="white"/>
<path d="M297.734 0.291585H297.333C292.53 0.427001 288.666 4.29159 288.801 9.08846V9.4895C288.932 14.2916 292.932 18.026 297.734 17.8905H298.4C303.067 17.6249 306.801 13.6249 306.53 8.95825V8.42179C306.4 3.84367 302.541 0.286377 297.984 0.286377C297.9 0.286377 297.817 0.291585 297.734 0.291585Z" fill="#68EBCA"/>
<path d="M230.531 44.5574C230.531 57.7605 240.135 66.823 252.932 66.823C262 66.823 268.802 63.0886 272.531 58.6928L264.531 49.7553C261.599 52.823 258.531 54.4272 254.667 54.4272C250.135 54.4272 246.531 52.422 245.865 48.2917H273.865C274 46.823 274.135 45.4897 274.135 44.1563C274.135 31.3595 264.932 22.2917 252.667 22.2917C239.734 22.2917 230.531 31.6251 230.531 44.5574ZM252.667 34.0261C255.865 34.0261 258.401 36.0261 259.068 39.7605H245.865C246.266 36.4272 249.198 33.8907 252.667 34.0261Z" fill="white"/>
<path d="M190.266 1.625V65.7604H205.865V54.9583L209.198 51.224L217.068 65.7604H234.266L219.469 39.3594L233.734 23.0938H215.865L206 34.6927H205.865V1.625H190.266Z" fill="white"/>
<path d="M154.666 23.7552C152.531 24.2917 150.4 25.0885 148.265 26.026V38.4219L154.666 35.625C157.468 34.5573 160.4 33.8906 163.333 33.8906C165.999 33.8906 167.598 34.2917 168.531 35.7552C169.197 36.9583 169.468 38.2917 169.333 39.7604V39.8906L162.932 40.026C150.135 40.026 145.197 45.224 145.197 53.3594C145.197 60.9583 149.468 66.6927 158.932 66.6927C162.801 66.5573 166.531 65.224 169.468 62.6927H169.734L170.265 65.8906H184.666V40.5573C184.666 25.625 176.932 22.1562 166.265 22.1562C162.4 22.1562 158.4 22.6927 154.666 23.7552ZM160.135 52.1563C160.135 49.224 162.135 47.8906 164.801 47.8906L169.468 47.7552V52.4219C169.468 52.9583 167.864 56.1563 163.598 56.1563C161.598 56.1563 160.135 54.8229 160.135 52.1563Z" fill="white"/>
<path d="M112.001 28.422H111.865C109.198 24.0262 104.803 22.2918 99.5995 22.2918C95.0683 22.2918 90.8027 24.4272 88.136 28.0262H88.0006V23.0939H72.4016V65.8908H88.136V44.422C88.136 38.5575 90.5318 36.0262 94.0006 36.0262C98.136 36.0262 99.1985 39.7606 99.1985 44.422V65.8908H114.667V44.422C114.667 38.5575 117.198 36.0262 120.266 36.0262C124.532 36.0262 125.469 39.7606 125.469 44.422V65.8908H141.068V40.8231C141.068 26.9585 134.667 22.1564 125.865 22.2918C125.719 22.2866 125.568 22.2866 125.422 22.2866C120.256 22.2866 115.37 24.5366 112.001 28.422Z" fill="white"/>
<g clip-path="url(#clip0_688_516)">
<path d="M15.1943 51.9941H18.3937L24.9807 60.8197V51.9941H27.982V65.6436H24.7826L18.1857 56.7982V65.6436H15.1943V51.9941Z" fill="white"/>
<path d="M43.2464 61.3446C43.2464 65.059 40.2748 65.6434 38.4126 65.6434H30.4785V52.0039H38.4027C40.8295 52.0039 42.7709 53.3807 42.7709 55.966C42.7709 57.2438 41.8696 57.9471 41.1861 58.3036C42.3153 58.8682 43.2365 59.7003 43.2365 61.3545L43.2464 61.3446ZM33.3808 54.5595V57.1447H38.056C38.8286 57.1447 39.6805 56.8278 39.6805 55.867C39.6805 54.9061 39.0168 54.5694 37.9471 54.5694H33.3808V54.5595ZM40.1659 61.3446C40.1659 60.0371 39.0763 59.7003 38.0164 59.7003H33.3907V62.9591H38.1254C38.9871 62.9591 40.1659 62.662 40.1659 61.3446Z" fill="white"/>
<path d="M58.3713 63.4148C56.8756 64.7025 55.261 66.0001 52.0716 66.0001C47.8321 65.9803 44.5535 62.6917 44.5535 58.789C44.5733 54.7675 47.9906 51.6375 52.1112 51.6375C55.687 51.6375 57.6086 53.9355 57.8661 54.1831L55.6077 56.4415C55.1125 55.9462 54.0526 54.8071 52.0914 54.8071C49.6943 54.8071 47.743 56.6 47.743 58.8089C47.743 60.7305 49.3971 62.8106 52.0716 62.8106C54.2111 62.8106 54.9936 62.1073 56.3011 61.0078L58.3614 63.4148H58.3713Z" fill="white"/>
<path d="M13.8178 63.4148C12.3221 64.7025 10.7076 66.0001 7.51809 66.0001C3.27864 65.9803 0 62.6917 0 58.789C0.0198105 54.7675 3.43712 51.6375 7.55771 51.6375C11.1335 51.6375 13.0551 53.9355 13.3127 54.1831L11.0543 56.4415C10.559 55.9462 9.49914 54.8071 7.5379 54.8071C5.14083 54.8071 3.18949 56.6 3.18949 58.8089C3.18949 60.7305 4.84367 62.8106 7.51809 62.8106C9.65762 62.8106 10.4401 62.1073 11.7476 61.0078L13.8079 63.4148H13.8178Z" fill="white"/>
<path d="M39.74 27.0128L32.6082 43.307L30.5677 29.1524C30.3102 27.2308 33.5789 26.0421 33.5789 26.0421C33.2818 25.3785 32.2417 25.3884 32.2417 25.3884H30.0229C29.6663 21.9116 32.8261 19.366 36.2434 20.1485C39.6013 20.9013 40.8197 24.5464 39.7301 27.0227L39.74 27.0128Z" fill="#675EA9"/>
<path d="M26.4862 48.5768L12.5792 39.3054C9.04302 36.9381 5.53656 39.355 4.79367 41.8412C3.70409 45.516 6.15069 48.5768 9.99393 48.5768H26.4862Z" fill="#FFCD00"/>
<path d="M28.3093 25.6063C28.8243 22.0107 25.6051 19.3462 22.1086 20.1386C18.7507 20.8914 17.5323 24.5365 18.6219 27.0128L25.7537 43.307L28.2994 25.6063H28.3093Z" fill="#EA0029"/>
<path d="M25.1987 45.9814L18.3541 30.3807C16.7495 26.7652 12.51 26.3096 10.1625 28.4392C8.50832 29.9349 7.23054 34.006 10.9252 36.4724L25.2086 45.9914L25.1987 45.9814Z" fill="#F37121"/>
<path d="M48.367 48.5768C52.2102 48.5768 54.6667 45.516 53.5673 41.8412C52.8244 39.355 49.3278 36.9381 45.7817 39.3054L31.8748 48.5768H48.3571H48.367Z" fill="#009845"/>
<path d="M47.4563 36.4625C51.151 33.9961 49.8633 29.925 48.219 28.4293C45.8715 26.3096 41.632 26.7553 40.0274 30.3708L33.1829 45.9715L47.4662 36.4526L47.4563 36.4625Z" fill="#00A0DF"/>
</g>
<defs>
<clipPath id="clip0_688_516">
<rect width="58.3717" height="46" fill="white" transform="translate(0 20)"/>
</clipPath>
</defs>
</svg>
