<svg width="100" height="101" viewBox="0 0 100 101" fill="none" xmlns="http://www.w3.org/2000/svg">
<path d="M4.56787 17.151C4.56787 13.8373 7.25416 11.151 10.5679 11.151H89.7799C93.0936 11.151 95.7799 13.8373 95.7799 17.151V83.926C95.7799 87.2397 93.0936 89.926 89.7799 89.926H10.5679C7.25417 89.926 4.56787 87.2397 4.56787 83.926V17.151Z" fill="#EEEEEE"/>
<path d="M60.5352 19.443H39.8052C38.7055 19.443 37.6508 19.8799 36.8732 20.6575C36.0956 21.4351 35.6587 22.4898 35.6587 23.5895C35.6587 24.6892 36.0956 25.7439 36.8732 26.5215C37.6508 27.2991 38.7055 27.736 39.8052 27.736H60.5352C61.6349 27.736 62.6896 27.2991 63.4672 26.5215C64.2448 25.7439 64.6817 24.6892 64.6817 23.5895C64.6817 22.4898 64.2448 21.4351 63.4672 20.6575C62.6896 19.8799 61.6349 19.443 60.5352 19.443Z" fill="white"/>
<path d="M4.56787 17.151C4.56787 13.8373 7.25416 11.151 10.5679 11.151H89.7799C93.0936 11.151 95.7799 13.8373 95.7799 17.151V50.538H4.56787V17.151Z" fill="#212121" fill-opacity="0.05"/>
<path d="M4.56787 50.02H95.7799V50.538H4.56787V50.02Z" fill="#212121" fill-opacity="0.02"/>
<path d="M4.56787 50.539H95.7799V51.057H4.56787V50.539Z" fill="white" fill-opacity="0.05"/>
<path d="M60.5339 27.736H39.8039C38.7498 27.7359 37.7355 27.3337 36.9679 26.6114C36.2002 25.8891 35.737 24.9011 35.6729 23.849C35.6629 23.935 35.6579 24.0215 35.6579 24.108C35.6577 24.6525 35.7649 25.1917 35.9732 25.6948C36.1815 26.1978 36.4869 26.6549 36.8719 27.04C37.2569 27.425 37.714 27.7304 38.2171 27.9387C38.7202 28.147 39.2594 28.2541 39.8039 28.254H60.5339C61.0784 28.2541 61.6176 28.147 62.1206 27.9387C62.6237 27.7304 63.0808 27.425 63.4658 27.04C63.8508 26.6549 64.1562 26.1978 64.3645 25.6948C64.5728 25.1917 64.68 24.6525 64.6799 24.108C64.6809 24.0212 64.6768 23.9344 64.6679 23.848C64.6039 24.9008 64.1404 25.8894 63.3721 26.612C62.6038 27.3346 61.5886 27.7367 60.5339 27.736ZM4.56787 11.151V11.669H95.7799V11.151H4.56787Z" fill="#212121" fill-opacity="0.02"/>
<path d="M39.804 19.443H60.534C61.5886 19.4423 62.6036 19.8442 63.3719 20.5666C64.1402 21.289 64.6038 22.2774 64.668 23.33C64.668 23.241 64.683 23.159 64.683 23.071C64.6831 22.5265 64.576 21.9873 64.3677 21.4842C64.1593 20.9812 63.854 20.524 63.4689 20.139C63.0839 19.754 62.6268 19.4486 62.1237 19.2403C61.6207 19.032 61.0815 18.9249 60.537 18.925H39.804C39.2595 18.9249 38.7203 19.032 38.2172 19.2403C37.7142 19.4486 37.257 19.754 36.872 20.139C36.487 20.524 36.1816 20.9812 35.9733 21.4842C35.765 21.9873 35.6579 22.5265 35.658 23.071C35.6581 23.1575 35.6631 23.244 35.673 23.33C35.7372 22.2779 36.2003 21.2899 36.968 20.5676C37.7356 19.8453 38.7499 19.4431 39.804 19.443ZM89.557 89.408H10.782C9.13407 89.4032 7.555 88.7465 6.38974 87.5812C5.22448 86.416 4.56774 84.8369 4.56299 83.189V83.707C4.56774 85.3549 5.22448 86.934 6.38974 88.0992C7.555 89.2645 9.13407 89.9212 10.782 89.926H89.557C91.2049 89.9212 92.784 89.2645 93.9492 88.0992C95.1145 86.934 95.7712 85.3549 95.776 83.707V83.189C95.7712 84.8369 95.1145 86.416 93.9492 87.5812C92.784 88.7465 91.2049 89.4032 89.557 89.408Z" fill="#231F20" fill-opacity="0.1"/>
<path d="M4.56787 11.151V83.707C4.57262 85.3549 5.22936 86.934 6.39462 88.0993C7.55988 89.2645 9.13895 89.9213 10.7869 89.926H89.5619C91.2098 89.9213 92.7889 89.2645 93.9541 88.0993C95.1194 86.934 95.7761 85.3549 95.7809 83.707V11.151H4.56787ZM60.5339 27.736H39.8039C38.7042 27.736 37.6495 27.2991 36.8719 26.5215C36.0942 25.7439 35.6574 24.6892 35.6574 23.5895C35.6574 22.4898 36.0942 21.4351 36.8719 20.6575C37.6495 19.8799 38.7042 19.443 39.8039 19.443H60.5339C61.6336 19.443 62.6883 19.8799 63.4659 20.6575C64.2435 21.4351 64.6804 22.4898 64.6804 23.5895C64.6804 24.6892 64.2435 25.7439 63.4659 26.5215C62.6883 27.2991 61.6336 27.736 60.5339 27.736Z" fill="url(#paint0_radial)"/>
<mask id="mask0" mask-type="alpha" maskUnits="userSpaceOnUse" x="4" y="11" width="92" height="79">
<path d="M4.56787 11.151V83.707C4.57262 85.3549 5.22936 86.934 6.39462 88.0993C7.55988 89.2645 9.13895 89.9213 10.7869 89.926H89.5619C91.2098 89.9213 92.7889 89.2645 93.9541 88.0993C95.1194 86.934 95.7761 85.3549 95.7809 83.707V11.151H4.56787ZM60.5339 27.736H39.8039C38.7042 27.736 37.6495 27.2991 36.8719 26.5215C36.0942 25.7439 35.6574 24.6892 35.6574 23.5895C35.6574 22.4898 36.0942 21.4351 36.8719 20.6575C37.6495 19.8799 38.7042 19.443 39.8039 19.443H60.5339C61.6336 19.443 62.6883 19.8799 63.4659 20.6575C64.2435 21.4351 64.6804 22.4898 64.6804 23.5895C64.6804 24.6892 64.2435 25.7439 63.4659 26.5215C62.6883 27.2991 61.6336 27.736 60.5339 27.736Z" fill="#C4C4C4"/>
</mask>
<g mask="url(#mask0)">
<mask id="mask1" mask-type="alpha" maskUnits="userSpaceOnUse" x="11" y="45" width="78" height="78">
<path d="M50 123C71.5391 123 89 105.539 89 84C89 62.4609 71.5391 45 50 45C28.4609 45 11 62.4609 11 84C11 105.539 28.4609 123 50 123Z" fill="#F1F1F1"/>
</mask>
<g mask="url(#mask1)">
<path d="M17.0371 44.32V92.657H34.6631L50.1701 65.802H89.5571V44.32H17.0371ZM17.0371 44.32V92.657H34.6631L50.1701 65.802H89.5571V44.32H17.0371Z" fill="#DB4437"/>
<path d="M10.7822 123.095H48.2732L65.6732 105.695V92.662H34.6602L10.7822 51.7V123.095ZM10.7822 123.095H48.2732L65.6732 105.695V92.662H34.6602L10.7822 51.7V123.095Z" fill="#0F9D58"/>
<path d="M50.1693 65.802L65.6753 92.658L48.2773 123.097H89.5563V65.802H50.1693ZM50.1693 65.802L65.6753 92.658L48.2773 123.097H89.5563V65.802H50.1693Z" fill="#FFCD40"/>
</g>
<path d="M50.1702 101.613C60.0594 101.613 68.0762 93.5962 68.0762 83.707C68.0762 73.8178 60.0594 65.801 50.1702 65.801C40.2809 65.801 32.2642 73.8178 32.2642 83.707C32.2642 93.5962 40.2809 101.613 50.1702 101.613Z" fill="#F1F1F1"/>
<path d="M50.1702 98.032C58.0817 98.032 64.4952 91.6185 64.4952 83.707C64.4952 75.7955 58.0817 69.382 50.1702 69.382C42.2587 69.382 35.8452 75.7955 35.8452 83.707C35.8452 91.6185 42.2587 98.032 50.1702 98.032Z" fill="#4285F4"/>
</g>
<defs>
<radialGradient id="paint0_radial" cx="0" cy="0" r="1" gradientUnits="userSpaceOnUse" gradientTransform="translate(-8.07035 -179.354) scale(118.002)">
<stop stop-color="white" stop-opacity="0.102"/>
<stop offset="1" stop-color="white" stop-opacity="0"/>
</radialGradient>
</defs>
</svg>
