<svg id="Layer_1" data-name="Layer 1" xmlns="http://www.w3.org/2000/svg" viewBox="0 0 600 210.75"><defs><style>.cls-1{fill:#fff;}</style></defs><path class="cls-1" d="M67.78,35.62v-.2C67.78,15.86,83.55,0,104.57,0s36.59,15.67,36.59,35.23v.19a34.84,34.84,0,0,1-7.24,21.38c-6.59,8.54-29.55,35.52-29.55,35.52s-23.06-27-29.58-35.61A34.69,34.69,0,0,1,67.78,35.62Zm54,0v-.2c0-9.92-7-18.39-17.42-18.39S87.05,25.4,87.05,35.23v.19c0,9.83,7.1,18.4,17.52,18.4S121.79,45.45,121.79,35.62Z"/><path class="cls-1" d="M1,35.79v-.18C1,16.12,15.88.84,36.13.84,49.79.84,58.58,6.57,64.5,14.68l-14,10.8c-3.82-4.69-8.21-7.83-14.62-7.83-9.35,0-15.94,8-15.94,17.76v.2c0,10,6.59,17.86,15.94,17.86,7,0,11.09-3.25,15.1-8.13L65,55.28C58.67,64,50.17,70.37,35.46,70.37,16.36,70.37,1,55.75,1,35.79Z"/><path class="cls-1" d="M148,2.17h19.58l16,25.89L199.44,2.17H219V69H200.59V30.64l-17.1,26.17h-.38l-17-26.08V69H148Z"/><path class="cls-1" d="M226.64,2.17h19.59l16,25.89L278.13,2.17h19.58V69H279.27V30.64L262.18,56.81h-.38l-17-26.08V69H226.64Z"/><path class="cls-1" d="M304.54,39.71V2.17h18.72V39.33c0,9.64,4.87,14.22,12.32,14.22S348,49.17,348,39.81V2.17h18.72V39.23c0,21.49-12.32,31-31.32,31S304.54,60.62,304.54,39.71Z"/><path class="cls-1" d="M373.56,2.17h17.29l27.51,35.34V2.17h18.33V69H420.55L391.89,32.36V69H373.56Z"/><path class="cls-1" d="M444.51,2.17H463V69H444.51Z"/><path class="cls-1" d="M488.71,18.41h-20V2.17H527.3V18.41H507.24V69H488.71Z"/><path class="cls-1" d="M555.74,44,530.24,2.17h21.11l13.76,24.36L579,2.17h20.72l-25.4,41.55V69H555.74Z"/><path class="cls-1" d="M0,91.45H32.42v117H0Z"/><path class="cls-1" d="M42.7,91.45H76.94l27.9,42.69,27.91-42.69H167v117H134.75V141.24L104.84,187h-.66L74.44,141.41v67H42.7Z"/><path class="cls-1" d="M178.59,91.45h50.29c29.4,0,48.44,15.21,48.44,40.94v.33c0,27.74-21.21,42.27-50.11,42.27H211V208.4H178.59Zm47.95,58.14c11.36,0,18.54-6.18,18.54-15.37v-.33c0-10-7.18-15.2-18.71-15.2H211v30.9Z"/><path class="cls-1" d="M308.08,90.62h31.24L389.1,208.4H354.36L346,187.35H300.72l-8.34,21.05H258.46Zm28.4,71.51-13-33.08-13.2,33.08Z"/><path class="cls-1" d="M378.44,150.26v-.33c0-34.09,26.06-60.81,61.49-60.81,23.88,0,39.25,10,49.61,24.22l-24.39,18.88c-6.68-8.18-14.36-13.7-25.56-13.7-16.37,0-27.9,14-27.9,31.07v.34c0,17.54,11.53,31.24,27.9,31.24,12.19,0,19.38-5.68,26.4-14.2l24.39,17.37c-11,15.21-25.89,26.41-51.62,26.41C405.34,210.75,378.44,185.18,378.44,150.26Z"/><path class="cls-1" d="M532.5,119.86H497.59V91.45H600v28.41H564.92V208.4H532.5Z"/></svg>