<svg id="Layer_1" data-name="Layer 1" xmlns="http://www.w3.org/2000/svg" viewBox="0 0 600 36.2"><defs><style>.cls-1{fill:#bc2f2c;}</style></defs><path class="cls-1" d="M0,87.53a3.08,3.08,0,0,1,3.1-3.1h.65A3.87,3.87,0,0,1,7,86.23l17.5,22.65V87.38a3,3,0,0,1,6.05,0v29.4a3,3,0,0,1-3,3h-.25a3.87,3.87,0,0,1-3.2-1.85l-18-23.3v22.2a3,3,0,0,1-6,0Z" transform="translate(0 -84.03)"/><path class="cls-1" d="M39.29,116.53V87.73a3.05,3.05,0,0,1,3.1-3.1H62.73a2.77,2.77,0,0,1,2.75,2.75,2.74,2.74,0,0,1-2.75,2.75H45.44v9.1h15a2.79,2.79,0,0,1,2.75,2.8,2.73,2.73,0,0,1-2.75,2.7h-15v9.4H63a2.77,2.77,0,0,1,2.75,2.75A2.74,2.74,0,0,1,63,119.63H42.39A3.06,3.06,0,0,1,39.29,116.53Z" transform="translate(0 -84.03)"/><path class="cls-1" d="M70.38,88.58a3.22,3.22,0,0,1-.25-1.2,3.07,3.07,0,0,1,3.15-3,3.14,3.14,0,0,1,3,2.25l8,24.05,7.9-24a3.24,3.24,0,0,1,3.1-2.45h.45a3.18,3.18,0,0,1,3.09,2.45l7.9,24,8.05-24.1a3.14,3.14,0,0,1,3-2.2,3,3,0,0,1,3,3,3.53,3.53,0,0,1-.3,1.25l-10.35,29a3.44,3.44,0,0,1-3.2,2.55h-.6a3.32,3.32,0,0,1-3.15-2.55l-7.8-22.85-7.79,22.85a3.38,3.38,0,0,1-3.2,2.55h-.6a3.42,3.42,0,0,1-3.2-2.55Z" transform="translate(0 -84.03)"/><path class="cls-1" d="M125.3,115.73a2.87,2.87,0,0,1,1.7-5.2,2.85,2.85,0,0,1,1.8.55,15.18,15.18,0,0,0,9.8,3.6c3.8,0,6.2-1.8,6.2-4.4v-.1c0-2.5-1.4-3.85-7.9-5.35-7.45-1.8-11.65-4-11.65-10.45v-.1c0-6,5-10.15,11.95-10.15a19.26,19.26,0,0,1,11.1,3.25,2.78,2.78,0,0,1,1.35,2.45,2.86,2.86,0,0,1-2.9,2.85,3,3,0,0,1-1.6-.45,14.56,14.56,0,0,0-8.05-2.65c-3.6,0-5.7,1.85-5.7,4.15v.1c0,2.7,1.6,3.9,8.35,5.5,7.4,1.8,11.2,4.45,11.2,10.25v.1c0,6.55-5.15,10.45-12.5,10.45A21.79,21.79,0,0,1,125.3,115.73Z" transform="translate(0 -84.03)"/><path class="cls-1" d="M173.2,116.53V87.73a3.05,3.05,0,0,1,3.1-3.1h20.35a2.77,2.77,0,0,1,2.75,2.75,2.74,2.74,0,0,1-2.75,2.75h-17.3v9.1H194.4a2.79,2.79,0,0,1,2.75,2.8,2.73,2.73,0,0,1-2.75,2.7H179.35v9.4H196.9a2.77,2.77,0,0,1,2.75,2.75,2.74,2.74,0,0,1-2.75,2.75H176.3A3.06,3.06,0,0,1,173.2,116.53Z" transform="translate(0 -84.03)"/><path class="cls-1" d="M216.61,117.63l-12.25-28.8a3.44,3.44,0,0,1-.35-1.45,3,3,0,0,1,3.1-3,3.22,3.22,0,0,1,3.15,2.2l10.1,25.25,10.25-25.45a3.17,3.17,0,0,1,2.95-2,3,3,0,0,1,3.05,3,3.55,3.55,0,0,1-.3,1.3l-12.3,29a3.68,3.68,0,0,1-3.55,2.5h-.35A3.66,3.66,0,0,1,216.61,117.63Z" transform="translate(0 -84.03)"/><path class="cls-1" d="M242,116.53V87.73a3.05,3.05,0,0,1,3.1-3.1h20.35a2.77,2.77,0,0,1,2.75,2.75,2.74,2.74,0,0,1-2.75,2.75h-17.3v9.1h15.05a2.79,2.79,0,0,1,2.75,2.8,2.73,2.73,0,0,1-2.75,2.7H248.14v9.4h17.55a2.77,2.77,0,0,1,2.75,2.75,2.74,2.74,0,0,1-2.75,2.75h-20.6A3.06,3.06,0,0,1,242,116.53Z" transform="translate(0 -84.03)"/><path class="cls-1" d="M274.8,87.73a3.05,3.05,0,0,1,3.1-3.1h12.49c4.4,0,7.85,1.3,10.1,3.5a10.58,10.58,0,0,1,2.9,7.55v.1c0,5.6-3.25,9-7.95,10.45l6.7,8.45a3.56,3.56,0,0,1,1,2.34,2.9,2.9,0,0,1-2.95,2.86,3.52,3.52,0,0,1-3-1.61l-8.5-10.84H281v9.4a3.08,3.08,0,0,1-6.15,0ZM289.94,102c4.4,0,7.2-2.3,7.2-5.85V96c0-3.75-2.7-5.8-7.25-5.8H281V102Z" transform="translate(0 -84.03)"/><path class="cls-1" d="M319.66,106,307.61,89.48a3.8,3.8,0,0,1-.7-2.15,3,3,0,0,1,3.1-3,3.54,3.54,0,0,1,3,1.85l9.75,14,9.89-14.1a3.53,3.53,0,0,1,3-1.85,2.92,2.92,0,0,1,3,3,3.73,3.73,0,0,1-.85,2.2l-11.94,16.35v11a3.08,3.08,0,0,1-6.15,0Z" transform="translate(0 -84.03)"/><path class="cls-1" d="M340.39,102.23v-.1A18.3,18.3,0,0,1,377,102v.1a18.3,18.3,0,0,1-36.59.1Zm30.14,0v-.1c0-6.8-4.94-12.45-11.89-12.45s-11.8,5.55-11.8,12.35v.1c0,6.8,5,12.4,11.9,12.4S370.53,109,370.53,102.23Z" transform="translate(0 -84.03)"/><path class="cls-1" d="M383.91,87.53a3.08,3.08,0,0,1,3.1-3.1h.65a3.87,3.87,0,0,1,3.2,1.8l17.5,22.65V87.38a3,3,0,0,1,6.05,0v29.4a3,3,0,0,1-3,3h-.25A3.87,3.87,0,0,1,408,118l-18-23.3v22.2a3,3,0,0,1-6,0Z" transform="translate(0 -84.03)"/><path class="cls-1" d="M423.19,116.53V87.73a3.05,3.05,0,0,1,3.1-3.1h20.35a2.77,2.77,0,0,1,2.75,2.75,2.74,2.74,0,0,1-2.75,2.75h-17.3v9.1h15.05a2.79,2.79,0,0,1,2.75,2.8,2.73,2.73,0,0,1-2.75,2.7H429.34v9.4h17.55a2.77,2.77,0,0,1,2.75,2.75,2.74,2.74,0,0,1-2.75,2.75h-20.6A3.06,3.06,0,0,1,423.19,116.53Z" transform="translate(0 -84.03)"/><path class="cls-1" d="M470.14,102.23v-.1A17.83,17.83,0,0,1,488.19,84c5.25,0,8.75,1.25,11.95,3.55a3.12,3.12,0,0,1,1.25,2.5,3.06,3.06,0,0,1-3.05,3,3.23,3.23,0,0,1-1.9-.7,13.3,13.3,0,0,0-8.5-2.75c-6.45,0-11.35,5.65-11.35,12.35v.1c0,7.2,4.75,12.5,11.9,12.5a14.29,14.29,0,0,0,8.45-2.65v-6.55H490a2.69,2.69,0,0,1-2.75-2.65,2.73,2.73,0,0,1,2.75-2.7h9.75a3.05,3.05,0,0,1,3.1,3.1v9.35a4.25,4.25,0,0,1-2.15,3.9,22.29,22.29,0,0,1-12.45,3.79C477.34,120.22,470.14,112.43,470.14,102.23Z" transform="translate(0 -84.03)"/><path class="cls-1" d="M510.65,116.53V87.73a3.05,3.05,0,0,1,3.1-3.1H534.1a2.77,2.77,0,0,1,2.75,2.75,2.74,2.74,0,0,1-2.75,2.75H516.8v9.1h15.05a2.79,2.79,0,0,1,2.75,2.8,2.73,2.73,0,0,1-2.75,2.7H516.8v9.4h17.55a2.77,2.77,0,0,1,2.75,2.75,2.74,2.74,0,0,1-2.75,2.75h-20.6A3.06,3.06,0,0,1,510.65,116.53Z" transform="translate(0 -84.03)"/><path class="cls-1" d="M552.67,90.33h-8.49a2.85,2.85,0,1,1,0-5.7h23.24a2.85,2.85,0,0,1,0,5.7h-8.55v26.5a3.1,3.1,0,0,1-6.2,0Z" transform="translate(0 -84.03)"/><path class="cls-1" d="M574.35,115.73a2.87,2.87,0,0,1,1.7-5.2,2.85,2.85,0,0,1,1.8.55,15.18,15.18,0,0,0,9.8,3.6c3.8,0,6.2-1.8,6.2-4.4v-.1c0-2.5-1.4-3.85-7.9-5.35-7.45-1.8-11.65-4-11.65-10.45v-.1c0-6,5-10.15,12-10.15a19.26,19.26,0,0,1,11.1,3.25,2.78,2.78,0,0,1,1.35,2.45,2.86,2.86,0,0,1-2.9,2.85,3,3,0,0,1-1.6-.45,14.56,14.56,0,0,0-8.05-2.65c-3.6,0-5.7,1.85-5.7,4.15v.1c0,2.7,1.6,3.9,8.35,5.5,7.4,1.8,11.2,4.45,11.2,10.25v.1c0,6.55-5.15,10.45-12.5,10.45A21.79,21.79,0,0,1,574.35,115.73Z" transform="translate(0 -84.03)"/></svg>