<svg xmlns="http://www.w3.org/2000/svg" viewBox="0 0 230 230"><g fill="#EFEFEF"><path d="M135 115c0 11.05-8.96 20-20 20s-20-8.95-20-20 8.96-20 20-20 20 8.95 20 20zM-10-10v250h250v-250h-250zm125 205c-44.18 0-80-35.82-80-80s35.82-80 80-80 80 35.82 80 80-35.82 80-80 80z"/></g><path opacity=".25" d="M181.46 122.93l7.53 7.53c2.97-7.19 4.91-14.9 5.66-22.96-.37-3.94-1.021-7.79-1.94-11.54-.11.41-.32.79-.64 1.11-.971.98-2.561.98-3.53 0l-10.61-10.61c-.979-.97-.979-2.56 0-3.53.971-.98 2.561-.98 3.53 0l10.61 10.61.02.02c-2.479-8.93-6.46-17.23-11.67-24.61-1.02-1.46-2.09-2.87-3.22-4.25v-.01c-1.98-2.45-4.11-4.79-6.37-6.99l-9.37 9.37c-.97.98-2.56.98-3.53 0-.979-.98-.979-2.56 0-3.53l9.21-9.21c-9.96-8.57-22.05-14.73-35.37-17.57l-10.31 10.31c-.97.98-2.56.98-3.53 0-.979-.98-.979-2.56 0-3.53l7.82-7.82c-3.52-.48-7.1-.72-10.75-.72-.74 0-1.48.01-2.22.03.09.73-.15 1.49-.71 2.04-.971.98-2.561.98-3.53 0l-1.66-1.66c-6.08.61-11.97 1.91-17.57 3.81l-7.85 7.85c-.97.98-2.56.98-3.53 0-.729-.73-.91-1.78-.56-2.68-3.101 1.65-6.07 3.5-8.91 5.54l3.61 3.61c.979.97.979 2.56 0 3.53-.971.98-2.561.98-3.53 0l-4.08-4.08c-8.02 6.54-14.74 14.59-19.729 23.74l3.81-3.8c.97-.98 2.56-.98 3.53 0 .979.97.979 2.56 0 3.53l-10.611 10.61c-.47.48-1.09.72-1.71.73-2.26 6.24-3.76 12.84-4.4 19.7.5 5.36 1.53 10.57 3.04 15.57l10.15-10.14c.97-.98 2.56-.98 3.53 0 .979.97.979 2.56 0 3.53l-10.61 10.61c-.42.42-.95.66-1.5.72 1.21 3.271 2.63 6.431 4.23 9.479l4.35-4.34c.97-.979 2.56-.979 3.53 0 .979.971.979 2.561 0 3.53l-5.311 5.31c9.2 15 23.21 26.74 39.891 33.051l1.89-1.891c.97-.979 2.56-.979 3.53 0 .979.971.979 2.561 0 3.53l-.15.149c7.31 2.212 15.06 3.392 23.08 3.392 2.28 0 4.53-.1 6.76-.29l6.78-6.78c.97-.979 2.56-.979 3.53 0 .979.971.979 2.561 0 3.53l-2.141 2.14c5.391-1.01 10.58-2.57 15.53-4.609l-7.53-7.53c-.979-.97-.979-2.56 0-3.53.971-.979 2.561-.979 3.53 0l8.86 8.86c2.729-1.34 5.37-2.83 7.91-4.47-.101-.07-.211-.16-.301-.25-.979-.98-.979-2.561 0-3.53l10.61-10.61c.97-.979 2.56-.979 3.53 0 .67.67.88 1.631.63 2.48 2.33-2.42 4.5-4.98 6.5-7.68l-1.271-1.271c-.979-.97-.979-2.56 0-3.53.971-.979 2.561-.979 3.53 0l.64.641c1.73-2.65 3.301-5.4 4.69-8.25l-8.86-8.86c-.979-.97-.979-2.56 0-3.53.973-.981 2.563-.981 3.533-.001zm-129.39-26.47l-10.61 10.61c-.97.98-2.56.98-3.53 0-.979-.98-.979-2.56 0-3.54l10.61-10.6c.97-.98 2.56-.98 3.53 0 .98.97.98 2.56 0 3.53zm20 60.61c-.971.979-2.561.979-3.53 0l-10.61-10.61c-.979-.97-.979-2.56 0-3.53.971-.979 2.561-.979 3.53 0l10.61 10.61c.98.97.98 2.55 0 3.53zm0-20c-.971.979-2.561.979-3.53 0l-10.61-10.61c-.979-.97-.979-2.56 0-3.53.971-.979 2.561-.979 3.53 0l10.61 10.61c.98.97.98 2.55 0 3.53zm0-20c-.971.979-2.561.979-3.53 0l-10.61-10.61c-.979-.97-.979-2.56 0-3.53.971-.98 2.561-.98 3.53 0l10.61 10.61c.98.97.98 2.55 0 3.53zm0-20c-.971.98-2.561.98-3.53 0l-10.61-10.61c-.979-.97-.979-2.56 0-3.53.971-.98 2.561-.98 3.53 0l10.61 10.61c.98.97.98 2.55 0 3.53zm0-20c-.971.98-2.561.98-3.53 0l-10.61-10.61c-.979-.97-.979-2.56 0-3.53.971-.98 2.561-.98 3.53 0l10.61 10.61c.98.97.98 2.56 0 3.53zm45.86-13.53l10.61-10.61c.97-.98 2.56-.98 3.53 0 .979.97.979 2.56 0 3.53l-10.61 10.61c-.97.98-2.56.98-3.53 0-.98-.98-.98-2.56 0-3.53zm-20-20.61c.971-.98 2.561-.98 3.53 0l10.61 10.61c.979.97.979 2.56 0 3.53-.971.98-2.561.98-3.53 0l-10.61-10.61c-.98-.97-.98-2.56 0-3.53zm0 20c.971-.98 2.561-.98 3.53 0l10.61 10.61c.979.97.979 2.56 0 3.53-.971.98-2.561.98-3.53 0l-10.61-10.61c-.98-.97-.98-2.56 0-3.53zm-20 .61l10.61-10.61c.97-.98 2.56-.98 3.53 0 .979.97.979 2.56 0 3.53l-10.61 10.61c-.97.98-2.56.98-3.53 0-.98-.98-.98-2.56 0-3.53zm0 19.99l10.61-10.6c.97-.98 2.56-.98 3.53 0 .979.97.979 2.56 0 3.53l-10.61 10.61c-.97.98-2.56.98-3.53 0-.98-.98-.98-2.56 0-3.54zm14.14 72.93l-10.61 10.61c-.97.979-2.56.979-3.53 0-.979-.98-.979-2.561 0-3.53l10.61-10.61c.97-.979 2.56-.979 3.53 0 .98.97.98 2.56 0 3.53zm0-20l-10.61 10.61c-.97.979-2.56.979-3.53 0-.979-.98-.979-2.561 0-3.541l10.61-10.6c.97-.979 2.56-.979 3.53 0 .98.971.98 2.561 0 3.531zm20 40.61c-.971.979-2.561.979-3.53 0l-10.61-10.61c-.979-.97-.979-2.56 0-3.53.971-.979 2.561-.979 3.53 0l10.61 10.61c.98.97.98 2.56 0 3.53zm0-20c-.971.979-2.561.979-3.53 0l-10.61-10.61c-.979-.97-.979-2.56 0-3.53.971-.979 2.561-.979 3.53 0l10.61 10.61c.98.97.98 2.55 0 3.53zm20-.61l-10.61 10.61c-.97.979-2.56.979-3.53 0-.979-.98-.979-2.561 0-3.53l10.61-10.61c.97-.979 2.56-.979 3.53 0 .98.97.98 2.56 0 3.53zm0-20l-10.61 10.61c-.97.979-2.56.979-3.53 0-.979-.98-.979-2.561 0-3.541l10.61-10.6c.97-.979 2.56-.979 3.53 0 .98.971.98 2.561 0 3.531zm20 20.61c-.971.979-2.561.979-3.53 0l-10.61-10.61c-.979-.97-.979-2.56 0-3.53.971-.979 2.561-.979 3.53 0l10.61 10.61c.98.97.98 2.55 0 3.53zm0-20c-.971.979-2.561.979-3.53 0l-10.61-10.61c-.979-.97-.979-2.56 0-3.53.971-.979 2.561-.979 3.53 0l10.61 10.61c.98.97.98 2.55 0 3.53zm0-20c-.971.979-2.561.979-3.53 0l-6.25-6.25c-1.63 13.63-13.22 24.18-27.29 24.18-.76 0-1.5-.029-2.24-.09.13.76-.1 1.57-.689 2.16-.971.979-2.561.979-3.53 0l-4.24-4.24c-6.43-2.71-11.609-7.801-14.43-14.17l-8.41 8.41c-.97.979-2.56.979-3.53 0-.979-.98-.979-2.561 0-3.541l10.2-10.189c-.42-1.88-.63-3.84-.63-5.84 0-2.61.36-5.13 1.05-7.52l-7.09 7.09c-.97.98-2.56.98-3.53 0-.979-.98-.979-2.56 0-3.54l10.61-10.6c.89-.9 2.31-.97 3.28-.22 1.58-2.49 3.569-4.71 5.85-6.56-.71-.97-.62-2.35.26-3.22.971-.98 2.561-.98 3.53 0l.4.4c3.899-2.12 8.379-3.33 13.139-3.33 2 0 3.95.21 5.83.63l7.71-7.7c.97-.98 2.56-.98 3.53 0 .979.97.979 2.56 0 3.53l-5.91 5.91c8.52 3.77 14.76 11.76 16.07 21.33l9.84 9.84c.98.97.98 2.55 0 3.53zm0-20c-.971.98-2.561.98-3.53 0l-10.61-10.61c-.979-.97-.979-2.56 0-3.53.971-.98 2.561-.98 3.53 0l10.61 10.61c.98.97.98 2.55 0 3.53zm0-20c-.971.98-2.561.98-3.53 0l-10.61-10.61c-.979-.97-.979-2.56 0-3.53.971-.98 2.561-.98 3.53 0l10.61 10.61c.98.97.98 2.56 0 3.53zm0-20c-.971.98-2.561.98-3.53 0l-10.61-10.61c-.979-.97-.979-2.56 0-3.53.971-.98 2.561-.98 3.53 0l10.61 10.61c.98.97.98 2.56 0 3.53zm20 79.39l-10.61 10.61c-.97.979-2.56.979-3.53 0-.979-.98-.979-2.561 0-3.541l10.61-10.6c.97-.979 2.56-.979 3.53 0 .98.971.98 2.561 0 3.531zm0-20l-10.61 10.61c-.97.979-2.56.979-3.53 0-.979-.98-.979-2.561 0-3.541l10.61-10.599c.97-.98 2.56-.98 3.53 0 .98.97.98 2.56 0 3.53zm0-20l-10.61 10.61c-.97.98-2.56.98-3.53 0-.979-.98-.979-2.56 0-3.54l10.61-10.6c.97-.98 2.56-.98 3.53 0 .98.97.98 2.56 0 3.53zm0-20l-10.61 10.61c-.97.98-2.56.98-3.53 0-.979-.98-.979-2.56 0-3.54l10.61-10.6c.97-.98 2.56-.98 3.53 0 .98.97.98 2.56 0 3.53zm5.86 26.47c.971-.98 2.561-.98 3.53 0l10.61 10.61c.979.97.979 2.55 0 3.53-.971.979-2.561.979-3.53 0l-10.61-10.61c-.98-.97-.98-2.56 0-3.53z"/></svg>
