<svg xmlns="http://www.w3.org/2000/svg" width="16" height="16"><g fill="none" fill-rule="evenodd"><path d="M0 0h16v16H0z"/><g fill="#606669"><path d="m11.36 6.589.676-.675a2 2 0 1 0-2.829-2.828L7.086 5.207A2 2 0 0 0 8.208 8.6L7.016 9.792a3.5 3.5 0 0 1-.99-5.646l2.12-2.12a3.5 3.5 0 1 1 4.95 4.949l-.675.675-1.06-1.061Z"/><path d="m4.76 9.203-.674.675a2 2 0 1 0 2.828 2.828l2.122-2.121a2 2 0 0 0-1.122-3.393L9.106 6a3.5 3.5 0 0 1 .99 5.645l-2.121 2.122a3.5 3.5 0 0 1-4.95-4.95l.675-.675 1.06 1.06Z"/></g></g></svg>