<svg id="CR-Logo" xmlns="http://www.w3.org/2000/svg" width="313" height="36.857" viewBox="0 0 313 36.857">
  <path id="Path_6" data-name="Path 6" d="M114.2,266.016v5.474H104.142v29.605H98.488V271.49H88.116v-5.474Zm27.679,0-6.624,15.478-7.284-15.478H121l11.284,21.529v13.549h5.555V287.534l10.67-21.518Zm200.392,0-6.63,15.478-7.28-15.478h-6.978l11.28,21.529v13.549h5.568V287.534l10.659-21.518Zm-183.643,0v35.078h5.5V288.068l4.752.007,7.661,13.02h6.241l-8.245-13.683.526-.134a10.5,10.5,0,0,0,7.315-10.16c0-6.329-4.614-11.1-10.734-11.1Zm12.332,5.474a5.522,5.522,0,0,1,5.659,5.627,5.388,5.388,0,0,1-5.6,5.529l-6.893-.01V271.49Zm24.567-5.474v35.079h21.546v-5.476H201.023v-9.49h13.916v-5.478H201.023V271.49h15.47v-5.474Zm71.181,0v35.079h20.6V295.78H272.26V266.016Zm22.042,0v5.474h10.373v29.605h5.662V271.49h10.059v-5.474Zm-49.217-.215-12.812,35.294h6.023l2.231-6.272H248.25l2.254,6.272h6.116L243.656,265.8Zm2.029,10.4,4.623,12.882H237.01ZM77.228,266.015h-5.6v35.079h5.6ZM48.8,295.085c-.122-.058-.253-.117-.372-.182a12.707,12.707,0,0,1-6.043-7.125,13.408,13.408,0,0,1-.691-3.6c0-.037-.009-.083-.011-.117,0-.079,0-.171,0-.261a13.145,13.145,0,0,1,.793-4.669,12.292,12.292,0,0,1,15.434-7.685l1.935-5.278a17.887,17.887,0,0,0-22.814,10.879,18.4,18.4,0,0,0-1.106,5.507,18.715,18.715,0,0,0,.973,7.191A17.883,17.883,0,0,0,59.461,301.07s-1.855-5.42-1.82-5.33a11.8,11.8,0,0,1-8.841-.655" transform="translate(-35.893 -265.129)" fill="#3b1355"/>
</svg>
