<?xml version="1.0" encoding="UTF-8"?>
<svg xmlns="http://www.w3.org/2000/svg" version="1.1" viewBox="0 0 1556.23 250.18">
  <defs>
    <style>
      .cls-1 {
        fill: #fff;
      }
    </style>
  </defs>
  <!-- Generator: Adobe Illustrator 28.6.0, SVG Export Plug-In . SVG Version: 1.2.0 Build 709)  -->
  <g>
    <g id="Layer_1">
      <g>
        <g>
          <path class="cls-1" d="M447.07,145.58l-.05,21.82c-.06,26.28-13.2,41.26-38.47,41.21-25.28-.05-38.35-15.1-38.29-41.38l.19-85.4c.06-26.28,13.2-41.26,38.47-41.21,25.28.05,38.35,15.1,38.29,41.37l-.04,15.95-24.34-.05.04-17.59c.02-11.73-5.11-16.2-13.31-16.22s-13.35,4.43-13.38,16.16l-.19,88.68c-.03,11.73,5.11,15.96,13.31,15.98s13.35-4.2,13.38-15.92l.05-23.46,24.34.05Z"/>
          <path class="cls-1" d="M545.93,207.03l-25.98-.06-4.38-29.81-31.59-.07-4.51,29.78-23.64-.05,26.57-164.17,37.68.08,25.85,164.28ZM487.3,154.81l24.81.05-12.22-83.08-12.59,83.02Z"/>
          <path class="cls-1" d="M612.5,159.55l17.81-116.56,35.81.08-.36,164.22-24.34-.05.26-117.77-18.04,117.73-24.34-.05-18.94-116.17-.25,116.13-22.47-.05.36-164.22,35.81.08,18.7,116.64Z"/>
          <path class="cls-1" d="M761.05,83.86l-.05,21.35c-.06,26.28-12.73,40.56-38.47,40.5l-12.17-.03-.14,61.7-25.74-.06.36-164.22,37.91.08c25.74.06,38.35,14.4,38.29,40.67ZM710.54,66.62l-.12,55.6,12.17.03c8.19.02,12.65-3.72,12.67-15.46l.05-24.63c.02-11.73-4.41-15.49-12.6-15.51l-12.17-.03Z"/>
          <path class="cls-1" d="M797.65,43.35l-.28,126.69c-.03,11.73,5.11,15.97,13.3,15.98,8.19.02,13.35-4.19,13.37-15.92l.28-126.69,24.34.05-.27,125.04c-.06,26.28-13.2,41.26-38.47,41.21-25.28-.05-38.35-15.1-38.29-41.38l.27-125.05,25.75.06Z"/>
          <path class="cls-1" d="M900.86,41.7c25.04.05,37.88,15.1,37.82,41.37v5.16s-24.35-.05-24.35-.05l.02-6.8c.02-11.73-4.64-16.2-12.84-16.22-8.19-.02-12.88,4.43-12.91,16.16-.07,33.78,50.23,40.23,50.13,87.15-.06,26.28-13.2,41.26-38.47,41.21-25.28-.05-38.35-15.1-38.29-41.38l.02-10.09,24.34.05-.02,11.73c-.03,11.73,5.11,15.96,13.31,15.98s13.35-4.2,13.38-15.92c.07-33.78-50.23-40.23-50.13-87.15.06-26.28,12.96-41.26,38-41.21Z"/>
        </g>
        <g>
          <path class="cls-1" d="M1049.76,207.83c-1.42-4.25-2.36-6.85-2.36-20.31v-25.98c0-15.35-5.2-21.02-17.01-21.02h-8.98v67.31h-26V42.51h39.23c26.94,0,38.52,12.52,38.52,38.02v12.99c0,17-5.44,28.1-17.02,33.54,13,5.43,17.25,17.95,17.25,35.19v25.51c0,8.03.24,13.93,2.84,20.07h-26.47ZM1021.4,66.13v50.77h10.16c9.69,0,15.6-4.25,15.6-17.48v-16.3c0-11.81-4.02-17-13.23-17h-12.53Z"/>
          <path class="cls-1" d="M1116.41,112.18h35.69v23.61h-35.69v48.41h44.9v23.62h-70.9V42.51h70.9v23.62h-44.9v46.05Z"/>
          <path class="cls-1" d="M1203.38,115.96h33.56v23.62h-33.56v68.25h-26V42.51h68.77v23.62h-42.78v49.83Z"/>
          <path class="cls-1" d="M1256.55,82.19c0-26.45,13.94-41.56,39.47-41.56s39.47,15.11,39.47,41.56v85.96c0,26.45-13.94,41.56-39.47,41.56s-39.47-15.11-39.47-41.56v-85.96ZM1282.55,169.8c0,11.81,5.2,16.3,13.47,16.3s13.47-4.49,13.47-16.3v-89.27c0-11.81-5.2-16.3-13.47-16.3s-13.47,4.49-13.47,16.3v89.27Z"/>
          <path class="cls-1" d="M1406.63,207.83c-1.42-4.25-2.36-6.85-2.36-20.31v-25.98c0-15.35-5.2-21.02-17.01-21.02h-8.98v67.31h-26V42.51h39.23c26.94,0,38.52,12.52,38.52,38.02v12.99c0,17-5.44,28.1-17.02,33.54,13,5.43,17.25,17.95,17.25,35.19v25.51c0,8.03.24,13.93,2.84,20.07h-26.47ZM1378.27,66.13v50.77h10.16c9.69,0,15.6-4.25,15.6-17.48v-16.3c0-11.81-4.02-17-13.23-17h-12.53Z"/>
          <path class="cls-1" d="M1502.34,159.89l17.72-117.38h36.16v165.32h-24.58v-118.55l-17.96,118.55h-24.58l-19.38-116.9v116.9h-22.69V42.51h36.16l19.14,117.38Z"/>
        </g>
        <g>
          <path class="cls-1" d="M209.84,159.21c-13.56,33.59-46.44,57.3-84.88,57.3-50.55,0-91.52-40.98-91.52-91.52S74.41,33.46,124.96,33.46c18.08,0,34.92,5.26,49.12,14.31l14.85-30.25C170.24,6.4,148.42,0,125.09,0,56,0,0,56,0,125.09s56,125.09,125.09,125.09c51.68,0,96.04-31.35,115.11-76.06l-30.36-14.91Z"/>
          <path class="cls-1" d="M178.64,143.88c-7.79,22.76-29.35,39.13-54.75,39.13-31.96,0-57.87-25.91-57.87-57.87s25.91-57.87,57.87-57.87c12.74,0,24.52,4.13,34.08,11.11l11.15-22.84c-12.89-8.36-28.26-13.24-44.77-13.24-45.5,0-82.39,36.89-82.39,82.39s36.89,82.39,82.39,82.39c34.86,0,64.65-21.67,76.68-52.26l-22.39-10.93Z"/>
          <path class="cls-1" d="M148.12,129.45c-2.21,11.1-12,19.46-23.74,19.46-13.37,0-24.21-10.84-24.21-24.21s10.84-24.21,24.21-24.21c7.42,0,14.05,3.35,18.49,8.6l10.25-21.79c-8.08-6.24-18.2-9.96-29.2-9.96-26.41,0-47.82,21.41-47.82,47.82s21.41,47.82,47.82,47.82c21.4,0,39.51-14.06,45.62-33.45l-21.42-10.08Z"/>
          <path class="cls-1" d="M216.01,10.14l-8.53,17.06s27.11,14.62,39.59,48.43c0,0,15.44,33.76-.7,72.74l17.15,8.58s19.19-40.51,2.44-87.72c0,0-14.62-38.38-49.95-59.09Z"/>
          <path class="cls-1" d="M198.65,45.16l-7.92,15.84s15.23,9.14,21.62,27.72c0,0,9.66,22.27.82,43.29l15.02,7.57s12.49-24.37,1.83-54.52c0,0-6.4-23.45-31.37-39.9Z"/>
          <path class="cls-1" d="M183.41,75.75l-8.01,15.54s9,8.5,7.2,25.84l15.05,7.36s11.45-27.48-14.23-48.74Z"/>
        </g>
      </g>
    </g>
  </g>
</svg>