<svg xmlns="http://www.w3.org/2000/svg" viewBox="0 0 115 18">
  <path fill="#FFF" fill-rule="evenodd" d="M22.8201545,2.24273179 C22.8201545,3.14638278 23.5623416,3.89942526 24.4607788,3.89942526 C25.3592159,3.89942526 26.1014031,3.1840349 26.1014031,2.24273179 C26.1014031,1.33908081 25.3592159,0.586038325 24.4607788,0.586038325 C23.5232792,0.623690449 22.8201545,1.33908081 22.8201545,2.24273179 L22.8201545,2.24273179 Z M31.0232761,0.247169206 L31.0232761,11.392198 C31.0232761,12.295849 31.4920259,12.3711532 31.9607757,12.3711532 L32.0779632,12.3711532 L32.0779632,13.1241957 L27.3123401,13.1241957 L27.3123401,12.3711532 L27.4295276,12.3711532 C27.9373399,12.3711532 28.4060897,12.3711532 28.4060897,11.1286331 L28.4060897,3.59820827 C28.4060897,2.73220941 28.2107772,2.20507967 27.3514026,2.0921233 L27.2342151,2.0921233 L27.2342151,1.37673294 L31.0232761,0.247169206 L31.0232761,0.247169206 Z M22.0779673,5.36785811 L22.0779673,6.08324847 L22.1951547,6.08324847 C23.0935918,6.19620485 23.2498418,6.72333459 23.2498418,7.58933344 L23.2498418,11.090981 C23.2498418,12.3335011 22.781092,12.3335011 22.2732797,12.3335011 L22.1560922,12.3335011 L22.1560922,13.0865436 L26.9217153,13.0865436 L26.9217153,12.3335011 L26.8045278,12.3335011 C26.335778,12.3335011 25.8670282,12.2581969 25.8670282,11.3545459 L25.8670282,4.27594651 L22.0779673,5.36785811 L22.0779673,5.36785811 Z M40.9842095,4.80307625 L40.9842095,5.51846661 L40.9060845,5.55611873 C39.9295224,5.8196836 39.6170226,6.45976972 39.2654602,7.32576857 L39.1873352,7.5140292 L36.6873363,13.1241957 C36.0623365,14.5173243 35.2810868,16.2869742 33.2889002,16.2869742 C32.546713,16.2869742 31.7654633,15.8351487 31.7654633,14.9691498 C31.7654633,14.2914116 32.3123381,13.7642818 33.0154628,13.7642818 C33.5232751,13.7642818 33.7967124,14.0654988 34.0701498,14.3290637 C34.2263998,14.4796722 34.3826497,14.6302807 34.4998372,14.6302807 C34.9295245,14.6302807 35.5154617,13.5760212 35.7498366,13.0112393 C35.7107742,12.9359351 32.8201503,6.72333459 32.8201503,6.72333459 L32.8201503,6.68568246 C32.546713,6.08324847 32.3514005,5.63142298 31.6482758,5.55611873 L31.5310884,5.55611873 L31.5310884,4.80307625 L36.101399,4.80307625 L36.101399,5.55611873 L35.9842115,5.55611873 C35.7107742,5.59377086 35.3592118,5.70672723 35.3592118,6.08324847 C35.3592118,6.38446547 35.5154617,6.68568246 35.6326492,6.94924733 L35.6717117,7.02455158 C35.6717117,7.02455158 36.8435862,9.54724391 37.0388986,9.92376515 C37.1951486,9.54724391 38.1717107,7.40107282 38.1717107,7.40107282 C38.3279606,7.09985583 38.4842105,6.72333459 38.4842105,6.42211759 C38.4842105,5.9702921 38.3279606,5.70672723 37.4685859,5.55611873 L37.3513985,5.55611873 L37.3513985,4.80307625 L40.9842095,4.80307625 L40.9842095,4.80307625 L40.9842095,4.80307625 Z M0.749851011,0.586038325 L0.749851011,1.37673294 L0.867038463,1.37673294 C1.9998505,1.37673294 2.35141285,1.71560205 2.35141285,2.80751366 L2.35141285,10.9027204 C2.35141285,11.994632 1.9998505,12.3335011 0.867038463,12.3335011 L0.749851011,12.3335011 L0.749851011,13.1241957 L6.60922361,13.1241957 C7.50766074,13.1241957 8.5623478,13.0865436 9.5389099,12.6723702 C11.7654715,11.8063714 13.2107834,9.58489603 13.2107834,6.98689946 C13.2107834,4.16299013 11.8435965,2.01681905 9.46078494,1.07551594 C8.64047277,0.774298947 7.74203564,0.623690449 6.60922361,0.623690449 L0.749851011,0.623690449 L0.749851011,0.586038325 Z M5.32016163,10.7144598 L5.32016163,2.92047003 C5.32016163,1.86621055 5.32016163,1.48968931 6.49203615,1.48968931 C8.3279729,1.48968931 10.1639096,2.0921233 10.1639096,6.53507396 C10.1639096,11.5428065 8.28891042,12.1828926 6.68734857,12.1828926 C5.32016163,12.2205447 5.32016163,11.9569799 5.32016163,10.7144598 L5.32016163,10.7144598 Z M17.5857816,4.5771635 C17.9764064,4.5771635 19.3435934,4.61481563 20.0857806,5.21724961 C20.9060927,5.89498785 20.9060927,6.72333459 20.9060927,7.43872495 L20.9060927,11.0156768 L20.9060927,11.1286331 C20.9060927,11.5804586 20.9451552,11.8440235 21.3357801,11.8440235 C21.4529675,11.8440235 21.570155,11.8063714 21.7264049,11.7687192 L21.8435924,11.7310671 L22.0389048,12.1828926 L21.9998423,12.2205447 C21.570155,12.8606308 20.7889053,13.2748042 20.0857806,13.2748042 C19.3826559,13.2748042 18.7967186,12.9359351 18.4060938,12.295849 C17.5467191,12.9735872 16.6873445,13.2748042 15.6326574,13.2748042 C14.0310956,13.2748042 13.0935959,12.4464575 13.0935959,11.0533289 C13.0935959,8.56828868 16.6873445,7.96585469 18.3279688,7.70228982 L18.3279688,7.3634207 L18.3279688,7.09985583 C18.3279688,6.57272609 18.2889063,5.93263998 17.9764064,5.59377086 C17.8201565,5.44316236 17.6248441,5.36785811 17.3514067,5.36785811 C16.648282,5.36785811 16.4529696,5.89498785 16.2576571,6.49742184 L16.2185947,6.57272609 C15.9451573,7.40107282 15.4764075,7.85289831 14.8904702,7.85289831 C14.3435954,7.85289831 13.7185957,7.43872495 13.7185957,6.76098671 C13.6795332,6.00794422 14.4607829,4.5771635 17.5857816,4.5771635 L17.5857816,4.5771635 Z M16.8045319,12.0699362 C17.4685941,12.0699362 18.0935939,11.4675022 18.2889063,11.2039374 L18.2889063,8.68124505 C17.1170318,8.83185355 15.7889073,9.35898329 15.7889073,10.8274161 C15.7498449,11.6181107 16.1404697,12.0699362 16.8045319,12.0699362 L16.8045319,12.0699362 Z M104.851371,1.33908081 L104.851371,2.05447117 L104.968558,2.05447117 C105.827933,2.16742755 106.023245,2.69455729 106.023245,3.56055614 L106.023245,11.090981 C105.984183,12.3335011 105.554495,12.3335011 105.046683,12.3335011 L104.929496,12.3335011 L104.929496,13.0865436 L109.695119,13.0865436 L109.695119,12.3335011 L109.577931,12.3335011 C109.109182,12.3335011 108.640432,12.2581969 108.640432,11.3545459 L108.640432,6.83629096 C108.718557,6.79863883 108.913869,6.68568246 108.913869,6.68568246 C109.304494,6.45976972 109.695119,6.23385697 110.124806,6.23385697 C111.023243,6.23385697 111.218556,7.0622037 111.218556,7.25046433 L111.218556,11.0533289 C111.179493,12.295849 110.749806,12.295849 110.241994,12.295849 L110.124806,12.295849 L110.124806,13.0488915 L114.890429,13.0488915 L114.890429,12.295849 L114.773242,12.295849 C114.304492,12.295849 113.835742,12.2205447 113.835742,11.3168938 L113.835742,7.02455158 C113.835742,5.66907511 112.741993,4.5771635 111.374806,4.5771635 C110.202931,4.5771635 109.421681,5.14194537 108.640432,5.74437935 L108.640432,0.247169206 L104.851371,1.33908081 L104.851371,1.33908081 Z M86.6873157,4.426555 C87.4295029,4.426555 87.9373152,5.17959749 87.9373152,5.85733573 C87.9373152,6.53507396 87.4295029,7.0622037 86.7654407,7.0622037 C86.4529408,7.0622037 86.140441,6.94924733 85.9060661,6.79863883 C85.7107536,6.72333459 85.5154412,6.61037821 85.3591913,6.61037821 C85.0857539,6.61037821 84.4998166,7.28811645 84.2654417,7.62698557 L84.2654417,11.3168938 C84.3045042,12.1452405 84.6560666,12.295849 85.3201288,12.295849 L85.4373162,12.295849 L85.4373162,13.0488915 L80.4763808,13.0488915 L80.4763808,12.295849 L80.5935682,12.295849 C81.2966929,12.295849 81.6482553,12.2581969 81.6482553,11.0533289 L81.6482553,7.70228982 C81.6482553,6.87394308 81.4529429,6.30916122 80.5935682,6.19620485 L80.4763808,6.19620485 L80.4763808,5.48081448 L84.2654417,4.38890288 L84.2654417,6.1209006 C84.851379,5.44316236 85.7498161,4.426555 86.6873157,4.426555 L86.6873157,4.426555 Z M42.7810838,0.586038325 L41.9217091,4.12533801 L42.7420213,4.35125076 L42.7810838,4.27594651 C43.523271,3.14638278 44.734208,1.75325418 46.3748323,1.48968931 L46.3748323,10.8650683 C46.3748323,11.9569799 46.0232699,12.295849 44.8904579,12.295849 L44.7732704,12.295849 L44.7732704,13.0865436 L50.9451429,13.0865436 L50.9451429,12.295849 L50.8279555,12.295849 C50.2420182,12.295849 49.8904558,12.2205447 49.6560809,11.994632 C49.421706,11.7687192 49.3435811,11.4298501 49.3435811,10.8650683 L49.3435811,1.48968931 C50.788893,1.60264568 52.1560799,2.99577428 52.9763921,4.27594651 L53.0154546,4.35125076 L53.8357667,4.12533801 L52.8982671,0.586038325 L42.7810838,0.586038325 L42.7810838,0.586038325 L42.7810838,0.586038325 Z M62.4685757,0.247169206 L62.4685757,11.392198 C62.4685757,11.8063714 62.5467006,12.0699362 62.7810755,12.2205447 C62.976388,12.3711532 63.2107629,12.3711532 63.4451378,12.3711532 L63.5623252,12.3711532 L63.5623252,13.1241957 L58.7576397,13.1241957 L58.7576397,12.3711532 L58.8748272,12.3711532 C59.3826394,12.3711532 59.8513893,12.3711532 59.8513893,11.1286331 L59.8513893,3.59820827 C59.8513893,2.73220941 59.6560768,2.20507967 58.7967022,2.0921233 L58.6795147,2.0921233 L58.6795147,1.37673294 L62.4685757,0.247169206 L62.4685757,0.247169206 Z M51.921705,6.08324847 L51.921705,6.08324847 C51.2185803,6.94924733 50.8279555,8.07881106 50.8279555,9.20837479 C50.8279555,11.5428065 52.7029547,13.3124563 55.2029537,13.3124563 C56.765453,13.3124563 57.9373275,12.7476745 59.0310771,11.392198 L59.1092021,11.3168938 L58.5232648,10.8274161 L58.4451398,10.9027204 C58.0154525,11.3545459 57.1560779,12.1075884 56.1013908,12.1075884 C55.3201411,12.1075884 54.6560789,11.7687192 54.1482666,11.090981 C53.7185793,10.5261991 53.4451419,9.81080878 53.4451419,9.05776629 L59.0310771,9.05776629 L59.0310771,8.94480992 L59.0310771,8.83185355 C59.0310771,7.62698557 58.6013898,6.53507396 57.8592026,5.74437935 C57.1560779,4.99133687 56.1404533,4.61481563 55.0857662,4.61481563 C53.7967042,4.5771635 52.7029547,5.10429324 51.921705,6.08324847 L51.921705,6.08324847 Z M55.1638912,5.55611873 C56.2185782,5.55611873 56.6482656,6.30916122 56.6482656,8.07881106 L53.4060794,8.07881106 C53.4451419,7.0622037 53.8748292,5.55611873 55.1638912,5.55611873 L55.1638912,5.55611873 Z M67.3123237,4.5771635 C68.4060732,4.5771635 69.3826353,4.99133687 70.0857601,5.70672723 C70.8279472,6.49742184 71.2576346,7.58933344 71.2576346,8.79420142 L71.2576346,8.9071578 L71.2576346,9.02011417 L65.6716994,9.02011417 C65.7107618,10.488547 66.7263864,12.0699362 68.3670108,12.0699362 C69.4607603,12.0699362 70.320135,11.3168938 70.7107598,10.8650683 L70.7888848,10.789764 L71.374822,11.2792416 L71.2966971,11.3545459 C70.163885,12.7100223 69.031073,13.2748042 67.4685736,13.2748042 C64.9685747,13.2748042 63.0935754,11.5051544 63.0935754,9.17072267 C63.0935754,8.04115894 63.4842003,6.94924733 64.187325,6.04559635 L64.187325,6.04559635 C64.9685747,5.10429324 66.0232617,4.5771635 67.3123237,4.5771635 L67.3123237,4.5771635 Z M65.6326369,8.07881106 L68.874823,8.07881106 C68.8357606,6.27150909 68.4060732,5.55611873 67.3904487,5.55611873 C66.1013867,5.55611873 65.6716994,7.0622037 65.6326369,8.07881106 L65.6326369,8.07881106 Z M77.2341946,4.8783805 C76.6873198,4.727772 76.1795075,4.61481563 75.7107577,4.61481563 C74.7341956,4.61481563 73.3670087,4.8783805 72.4685716,5.78203148 C71.9216968,6.30916122 71.6482594,6.94924733 71.6482594,7.66463769 L71.6482594,7.70228982 C71.6482594,8.71889717 72.1951342,9.50959178 73.2888837,10.1120258 C73.2498213,10.1496779 73.1716963,10.18733 73.1716963,10.18733 C72.5076341,10.488547 71.6873219,10.9027204 71.6873219,11.7687192 L71.6873219,11.8063714 C71.6873219,12.5594139 72.1560717,12.898283 72.7029465,13.2371521 C72.1170092,13.4254127 71.2576346,13.801934 71.2576346,14.7055849 C71.2576346,14.7055849 71.2576346,14.7055849 71.2576346,14.7432371 C71.2576346,15.8728008 72.6248215,16.5128869 75.1248205,16.550539 C79.6560686,16.6258433 80.3591933,14.9314977 80.3982558,13.8772382 L80.3982558,13.8395861 C80.3982558,12.898283 79.851381,12.2581969 78.7576315,11.9193277 C78.2107567,11.7310671 76.9216947,11.6181107 75.9060702,11.4675022 C75.2420079,11.392198 74.5779457,11.3168938 74.3826333,11.2415895 C74.1091959,11.1286331 74.0701334,11.0156768 74.0701334,10.9027204 L74.0701334,10.9027204 C74.0701334,10.7521119 74.3045083,10.6391555 74.4607583,10.5638513 C74.8513831,10.6391555 75.2029454,10.7144598 75.5154453,10.7144598 C76.5310699,10.7144598 77.8982568,10.4508949 78.796694,9.58489603 C79.3045063,9.09541842 79.5779437,8.4553323 79.5779437,7.73994194 L79.5779437,7.70228982 C79.5779437,6.49742184 78.8357565,5.8196836 78.1716942,5.33020599 C78.2107567,5.29255386 78.2888817,5.25490174 78.3279442,5.25490174 C78.4060691,5.25490174 78.5232566,5.33020599 78.6795065,5.36785811 C78.8748189,5.44316236 79.1091938,5.55611873 79.3826312,5.55611873 C80.007631,5.55611873 80.5154433,5.06664112 80.5545058,4.46420713 C80.5545058,4.16299013 80.4373183,3.89942526 80.2420059,3.71116464 C80.0466935,3.4852519 79.7341936,3.37229552 79.4216937,3.37229552 C78.5232566,3.29699127 77.7029444,4.08768588 77.2341946,4.8783805 L77.2341946,4.8783805 Z M74.2654458,7.55168132 C74.2654458,7.02455158 74.4216958,6.27150909 74.8904456,5.85733573 C75.1248205,5.63142298 75.4373204,5.51846661 75.7888827,5.51846661 C76.1013826,5.51846661 76.3357575,5.63142298 76.5701324,5.85733573 C76.9998197,6.30916122 77.1560696,7.17516008 77.1560696,7.81524619 C77.1560696,8.56828868 76.8045073,9.8484609 75.6716953,9.81080878 C74.3045083,9.77315665 74.2654458,7.92820256 74.2654458,7.55168132 L74.2654458,7.55168132 Z M73.3279462,14.5173243 L73.3279462,14.5173243 C73.3279462,14.1408031 73.5232586,13.8395861 73.874821,13.5760212 C73.9920084,13.5760212 76.5310699,14.0278467 76.5310699,14.0278467 C77.9763818,14.2161073 78.0545068,14.3667158 78.0545068,14.7055849 L78.0545068,14.7808892 C78.0545068,14.9314977 77.9763818,15.0821062 77.8591944,15.2327147 C77.507632,15.5715838 76.6482574,15.7598444 75.4373204,15.7221923 C74.4998207,15.646888 73.3279462,15.4586274 73.3279462,14.5173243 L73.3279462,14.5173243 Z M92.038876,4.5771635 C92.4295009,4.5771635 93.7966878,4.61481563 94.538875,5.21724961 C95.3591872,5.89498785 95.3591872,6.72333459 95.3591872,7.43872495 L95.3591872,11.0156768 L95.3591872,11.1286331 C95.3591872,11.5804586 95.3982497,11.8440235 95.7888745,11.8440235 C95.906062,11.8440235 96.0232494,11.8063714 96.1794993,11.7687192 L96.2966868,11.7310671 L96.4919992,12.1828926 L96.4529367,12.2205447 C96.0232494,12.8606308 95.2419997,13.2748042 94.538875,13.2748042 C93.8357503,13.2748042 93.249813,12.9359351 92.8591882,12.295849 C91.9998136,12.9735872 91.1404389,13.2748042 90.0857518,13.2748042 C88.48419,13.2748042 87.5466904,12.4464575 87.5466904,11.0533289 C87.5466904,8.56828868 91.1404389,7.96585469 92.7810632,7.70228982 L92.7810632,7.3634207 L92.7810632,7.09985583 C92.7810632,6.57272609 92.7420008,5.93263998 92.4295009,5.59377086 C92.2732509,5.44316236 92.0779385,5.36785811 91.8045011,5.36785811 C91.1013764,5.36785811 90.906064,5.89498785 90.7107516,6.49742184 L90.6716891,6.57272609 C90.3982517,7.40107282 89.9295019,7.85289831 89.3435646,7.85289831 C88.7966899,7.85289831 88.1716901,7.43872495 88.1716901,6.76098671 C88.1326276,6.00794422 88.9529398,4.5771635 92.038876,4.5771635 L92.038876,4.5771635 Z M91.2576264,12.0699362 C91.9216886,12.0699362 92.5466883,11.4675022 92.7420008,11.2039374 L92.7420008,8.68124505 C91.5701262,8.83185355 90.2420018,9.35898329 90.2420018,10.8274161 C90.2029393,11.6181107 90.5935641,12.0699362 91.2576264,12.0699362 L91.2576264,12.0699362 Z M95.749812,5.48081448 L95.749812,6.19620485 L95.8669995,6.19620485 C96.7263741,6.30916122 96.9216865,6.83629096 96.9216865,7.70228982 L96.9216865,14.2537594 C96.8826241,15.4962795 96.4529367,15.4962795 95.9451244,15.4962795 L95.827937,15.4962795 L95.827937,16.249322 L100.59356,16.249322 L100.59356,15.4962795 L100.476373,15.4962795 C100.007623,15.4962795 99.538873,15.4209753 99.538873,14.5173243 L99.538873,12.5217617 C100.12481,12.9359351 100.866997,13.3124563 101.765435,13.3124563 C103.054497,13.3124563 105.437308,11.994632 105.437308,8.83185355 C105.437308,6.72333459 104.343558,4.61481563 101.882622,4.61481563 C101.023247,4.61481563 100.163873,4.95368474 99.538873,5.55611873 L99.538873,4.38890288 L95.749812,5.48081448 L95.749812,5.48081448 Z M101.21856,5.8196836 C102.663872,5.8196836 102.820122,7.85289831 102.820122,8.71889717 C102.820122,9.05776629 102.781059,12.1828926 101.06231,12.1828926 C100.398248,12.1828926 100.007623,11.8440235 99.538873,11.3545459 L99.538873,6.76098671 C99.8904353,6.30916122 100.476373,5.8196836 101.21856,5.8196836 L101.21856,5.8196836 Z M16.1795322,1.37673294 L16.1795322,1.37673294 L16.1404697,1.41438506 L15.9842198,1.45203718 L15.9451573,1.45203718 L15.9451573,1.41438506 C15.7107824,1.03786382 15.35922,0.661342574 14.9295327,0.623690449 L14.9295327,3.22168703 C14.9295327,3.52290402 15.0076577,3.59820827 15.3201575,3.59820827 L15.35922,3.59820827 L15.35922,3.63586039 L15.35922,3.86177314 L15.35922,3.89942526 L15.3201575,3.89942526 L13.6795332,3.89942526 L13.6404707,3.89942526 L13.6404707,3.86177314 L13.6404707,3.71116464 L13.6404707,3.67351252 L13.6795332,3.67351252 C13.9920331,3.67351252 14.070158,3.59820827 14.070158,3.29699127 L14.070158,0.698994698 C13.6014082,0.774298947 13.2889084,1.15082019 13.0935959,1.45203718 L13.0935959,1.48968931 L13.0545335,1.48968931 L12.8982835,1.41438506 L12.859221,1.41438506 L12.859221,1.37673294 L13.0935959,0.435429828 L13.0935959,0.397777704 L13.1326584,0.397777704 L15.9060948,0.397777704 L15.9451573,0.397777704 L15.9451573,0.435429828 L16.1795322,1.37673294 L16.1795322,1.37673294 Z M18.7576561,3.40994765 L18.7576561,2.20507967 C18.7576561,1.82855843 18.4451562,1.52734143 18.0545314,1.52734143 C17.7420315,1.52734143 17.5076566,1.67794993 17.3123442,1.82855843 L17.3123442,0.360125579 L17.3123442,0.322473455 L17.2732817,0.322473455 L16.2967196,0.623690449 L16.2576571,0.623690449 L16.2576571,0.661342574 L16.2576571,0.811951071 L16.2576571,0.849603195 L16.2967196,0.849603195 C16.5310945,0.88725532 16.570157,1.03786382 16.570157,1.26377656 L16.570157,3.37229552 C16.570157,3.71116464 16.4529696,3.71116464 16.2967196,3.71116464 L16.2576571,3.71116464 L16.2576571,3.74881677 L16.2576571,3.86177314 L16.2576571,3.89942526 L16.2967196,3.89942526 L17.5857816,3.89942526 L17.6248441,3.89942526 L17.6248441,3.86177314 L17.6248441,3.71116464 L17.6248441,3.67351252 L17.5857816,3.67351252 C17.4685941,3.67351252 17.3514067,3.63586039 17.3123442,3.40994765 L17.3123442,2.16742755 C17.3514067,2.16742755 17.3514067,2.12977542 17.3904692,2.12977542 C17.5076566,2.05447117 17.6248441,2.01681905 17.7029691,2.01681905 C17.937344,2.01681905 18.0154689,2.24273179 18.0154689,2.28038392 L18.0154689,3.3346434 C18.0154689,3.67351252 17.8982815,3.67351252 17.7420315,3.67351252 L17.7029691,3.67351252 L17.7029691,3.71116464 L17.7029691,3.86177314 L17.7029691,3.89942526 L17.7420315,3.89942526 L18.992031,3.89942526 L19.0310935,3.89942526 L19.0310935,3.86177314 L19.0310935,3.71116464 L19.0310935,3.67351252 L18.992031,3.67351252 C18.9139061,3.67351252 18.7576561,3.67351252 18.7576561,3.40994765 L18.7576561,3.40994765 Z M21.3357801,3.40994765 L21.3357801,3.40994765 C20.9842177,3.82412101 20.6717178,3.97472951 20.2420305,3.97472951 C19.5389058,3.97472951 18.992031,3.4852519 18.992031,2.80751366 C18.992031,2.50629666 19.1092185,2.16742755 19.3045309,1.9415148 C19.5389058,1.67794993 19.8514057,1.52734143 20.202968,1.52734143 C20.5154679,1.52734143 20.7498428,1.64029781 20.9451552,1.82855843 C21.1795301,2.05447117 21.2967176,2.39334029 21.2967176,2.73220941 L21.2967176,2.76986153 L21.2576551,2.76986153 L19.7342182,2.76986153 C19.7342182,3.1840349 20.0467181,3.59820827 20.4764054,3.59820827 C20.7889053,3.59820827 21.0232802,3.40994765 21.1404676,3.25933915 L21.1795301,3.22168703 L21.2185926,3.25933915 L21.3357801,3.40994765 L21.3357801,3.40994765 L21.3357801,3.40994765 Z M20.6326553,2.50629666 C20.6326553,2.01681905 20.5154679,1.82855843 20.202968,1.82855843 C19.8514057,1.82855843 19.7342182,2.24273179 19.7342182,2.50629666 L20.6326553,2.50629666 L20.6326553,2.50629666 Z" transform="translate(0 .504)"/>
</svg>
