<svg id="Layer_1" data-name="Layer 1" xmlns="http://www.w3.org/2000/svg" viewBox="0 0 135 40"><title>appStore</title><path d="M130.2,0H4.73A4.73,4.73,0,0,0,0,4.73V35.27A4.74,4.74,0,0,0,4.73,40H130.2a4.8,4.8,0,0,0,4.8-4.73V4.73A4.8,4.8,0,0,0,130.2,0Z"/><path d="M30.13,19.78a5.8,5.8,0,0,1,2.76-4.86,5.94,5.94,0,0,0-4.68-2.53c-2-.21-3.87,1.18-4.88,1.18s-2.57-1.16-4.23-1.12a6.23,6.23,0,0,0-5.24,3.2c-2.27,3.92-.58,9.69,1.59,12.86,1.09,1.55,2.35,3.29,4,3.23s2.23-1,4.19-1,2.51,1,4.21,1,2.84-1.56,3.89-3.13a12.83,12.83,0,0,0,1.78-3.62A5.6,5.6,0,0,1,30.13,19.78Z" style="fill:#fff"/><path d="M26.93,10.31a5.71,5.71,0,0,0,1.31-4.09,5.81,5.81,0,0,0-3.76,1.94,5.43,5.43,0,0,0-1.34,3.94A4.8,4.8,0,0,0,26.93,10.31Z" style="fill:#fff"/><path d="M46.69,18.2,42.41,31.5h2.21l1.19-3.91h4.32l1.24,3.91h2.27L49.34,18.2ZM46.18,26l1.1-3.47q.44-1.66.63-2.51h0q.49,2,.67,2.51L49.76,26Z" style="fill:#fff"/><path d="M60.69,21.71a3.55,3.55,0,0,0-3.24,1.72h0l-.12-1.52H55.42q.08,1.62.08,3.16V35.41h2.13V30.36h0a2.94,2.94,0,0,0,2.73,1.36,3.87,3.87,0,0,0,2.94-1.26,5.45,5.45,0,0,0,1.32-3.87,5.29,5.29,0,0,0-1.14-3.54A3.56,3.56,0,0,0,60.69,21.71Zm1.13,7.4a2.18,2.18,0,0,1-1.87.93,2.13,2.13,0,0,1-1.67-.72,2.56,2.56,0,0,1-.64-1.77V26a2.78,2.78,0,0,1,.1-.65,2.43,2.43,0,0,1,.84-1.37A2.22,2.22,0,0,1,60,23.41a2.18,2.18,0,0,1,1.86.95,4,4,0,0,1,.63,2.31A4.08,4.08,0,0,1,61.82,29.11Z" style="fill:#fff"/><path d="M71.73,21.71a3.55,3.55,0,0,0-3.24,1.72h0l-.12-1.52H66.46q.08,1.62.08,3.16V35.41h2.13V30.36h0a2.94,2.94,0,0,0,2.72,1.36,3.86,3.86,0,0,0,2.94-1.26,5.45,5.45,0,0,0,1.32-3.87,5.3,5.3,0,0,0-1.13-3.54A3.57,3.57,0,0,0,71.73,21.71Zm1.12,7.4A2.18,2.18,0,0,1,71,30a2.13,2.13,0,0,1-1.67-.72,2.57,2.57,0,0,1-.64-1.77V26a2.85,2.85,0,0,1,.1-.65,2.43,2.43,0,0,1,.84-1.37A2.22,2.22,0,0,1,71,23.41a2.18,2.18,0,0,1,1.85.95,4,4,0,0,1,.63,2.31A4.08,4.08,0,0,1,72.85,29.11Z" style="fill:#fff"/><path d="M84.7,23.85a6.91,6.91,0,0,1-1.94-1,1.63,1.63,0,0,1-.61-1.3,1.58,1.58,0,0,1,.53-1.2,2.58,2.58,0,0,1,1.76-.55,5.24,5.24,0,0,1,2.55.61l.53-1.74a6.46,6.46,0,0,0-3-.63,4.83,4.83,0,0,0-3.26,1A3.38,3.38,0,0,0,80,21.74q0,2.51,3.49,3.82a5.14,5.14,0,0,1,1.84,1,1.85,1.85,0,0,1,.55,1.36,1.78,1.78,0,0,1-.67,1.45,2.91,2.91,0,0,1-1.88.54,5.84,5.84,0,0,1-3.08-.85l-.49,1.78a6.35,6.35,0,0,0,3.45.83,5.24,5.24,0,0,0,3.63-1.16A3.55,3.55,0,0,0,88,27.77a3.38,3.38,0,0,0-.81-2.31A6.57,6.57,0,0,0,84.7,23.85Z" style="fill:#fff"/><path d="M92.74,19.52l-2.09.63v1.76h-1.4v1.6h1.4v4.84a3.78,3.78,0,0,0,.71,2.59,2.56,2.56,0,0,0,2,.77A4.83,4.83,0,0,0,95,31.46l-.06-1.62a3.79,3.79,0,0,1-.95.1q-1.25,0-1.24-1.78V23.51h2.35v-1.6H92.74Z" style="fill:#fff"/><path d="M101.07,21.71a4.47,4.47,0,0,0-3.48,1.42,5.21,5.21,0,0,0-1.29,3.65,5.1,5.1,0,0,0,1.25,3.53,4.29,4.29,0,0,0,3.36,1.4,4.51,4.51,0,0,0,3.52-1.46,5.27,5.27,0,0,0,1.26-3.63,5,5,0,0,0-1.23-3.51A4.38,4.38,0,0,0,101.07,21.71ZM102.89,29A2.18,2.18,0,0,1,99,29a4.31,4.31,0,0,1-.57-2.28A4.4,4.4,0,0,1,99,24.42a2.14,2.14,0,0,1,2-1.15,2.11,2.11,0,0,1,1.91,1.15,4.79,4.79,0,0,1,0,4.57Z" style="fill:#fff"/><path d="M110.55,22.22a3.28,3.28,0,0,0-1.07,1.52h-.06l-.08-1.84h-1.86q.08,1.36.08,3l0,6.57h2.13v-5a3.19,3.19,0,0,1,.53-1.9,2,2,0,0,1,1.74-.85,3.7,3.7,0,0,1,.67.06v-2a3.42,3.42,0,0,0-.53,0A2.58,2.58,0,0,0,110.55,22.22Z" style="fill:#fff"/><path d="M122.16,26.25a5.19,5.19,0,0,0-.85-3,3.58,3.58,0,0,0-3.14-1.54,4.09,4.09,0,0,0-3.35,1.54,5.5,5.5,0,0,0-1.19,3.61,4.85,4.85,0,0,0,1.27,3.52,4.66,4.66,0,0,0,3.51,1.31,8,8,0,0,0,3.22-.59l-.33-1.48a7.07,7.07,0,0,1-2.59.45,3.17,3.17,0,0,1-2.09-.67,2.78,2.78,0,0,1-.93-2.17h6.4A5,5,0,0,0,122.16,26.25Zm-6.47-.55a3.18,3.18,0,0,1,.63-1.66,2,2,0,0,1,1.7-.87,1.86,1.86,0,0,1,1.7.89,2.89,2.89,0,0,1,.41,1.64Z" style="fill:#fff"/><path d="M48,12.67A3.28,3.28,0,0,0,49,10a3,3,0,0,0-1-2.42,3.89,3.89,0,0,0-2.59-.75,11.31,11.31,0,0,0-1.8.14v6.43a12.9,12.9,0,0,0,1.53.08A4.21,4.21,0,0,0,48,12.67ZM44.72,7.74a4.43,4.43,0,0,1,.84-.07,2.39,2.39,0,0,1,1.77.61A2.39,2.39,0,0,1,47.94,10,2.68,2.68,0,0,1,47.29,12a2.48,2.48,0,0,1-1.86.67,5.53,5.53,0,0,1-.71,0Z" style="fill:#fff"/><path d="M52.64,8.62a2.2,2.2,0,0,0-1.71.7,2.56,2.56,0,0,0-.64,1.79,2.51,2.51,0,0,0,.62,1.74,2.11,2.11,0,0,0,1.65.69,2.22,2.22,0,0,0,1.73-.72A2.59,2.59,0,0,0,54.91,11a2.49,2.49,0,0,0-.6-1.73A2.16,2.16,0,0,0,52.64,8.62Zm.89,3.58a1,1,0,0,1-.94.57,1.06,1.06,0,0,1-1-.56,2.13,2.13,0,0,1-.28-1.12A2.16,2.16,0,0,1,51.64,10a1.05,1.05,0,0,1,1-.56,1,1,0,0,1,.94.56,2.13,2.13,0,0,1,.28,1.12A2.12,2.12,0,0,1,53.53,12.2Z" style="fill:#fff"/><polygon points="62.77 8.72 62.77 8.72 62.77 8.72 62.77 8.72" style="fill:#fff"/><path d="M58.29,13.43l.65-2a11.18,11.18,0,0,0,.38-1.52h0a15.28,15.28,0,0,0,.38,1.52l.61,2h1l1.47-4.71h-1l-.57,2.2a14.81,14.81,0,0,0-.32,1.55h0q-.15-.75-.38-1.55l-.64-2.2h-.85L58.27,11q-.27.91-.39,1.5h0q-.13-.72-.32-1.51L57,8.72H55.93l1.39,4.71Z" style="fill:#fff"/><path d="M67.15,10.73v2.7h1V10.61A2.08,2.08,0,0,0,67.66,9a1.5,1.5,0,0,0-1.1-.43,1.77,1.77,0,0,0-.95.27,1.51,1.51,0,0,0-.54.57h0l0-.74h-.92q0,.73,0,1.35v3.37h1v-2.8a1.22,1.22,0,0,1,.29-.81,1,1,0,0,1,.76-.34Q67.15,9.48,67.15,10.73Z" style="fill:#fff"/><rect x="70.04" y="6.56" width="1.05" height="6.88" style="fill:#fff"/><path d="M75,8.62a2.2,2.2,0,0,0-1.71.7,2.56,2.56,0,0,0-.64,1.79,2.51,2.51,0,0,0,.61,1.74,2.1,2.1,0,0,0,1.65.69,2.22,2.22,0,0,0,1.73-.72A2.59,2.59,0,0,0,77.26,11a2.49,2.49,0,0,0-.6-1.73A2.16,2.16,0,0,0,75,8.62Zm.89,3.58a1,1,0,0,1-.94.57,1.06,1.06,0,0,1-1-.56,2.13,2.13,0,0,1-.28-1.12A2.16,2.16,0,0,1,74,10a1,1,0,0,1,1-.56,1,1,0,0,1,.94.56,2.13,2.13,0,0,1,.28,1.12A2.11,2.11,0,0,1,75.88,12.2Z" style="fill:#fff"/><path d="M81.28,12.89h0l.08.54h.94a7.38,7.38,0,0,1-.07-1.12V10.57q0-1.95-1.85-2A3,3,0,0,0,78.8,9l.21.69a2.19,2.19,0,0,1,1.23-.35q1,0,1,.93v.09a3.75,3.75,0,0,0-2,.45,1.46,1.46,0,0,0-.72,1.32,1.34,1.34,0,0,0,.37,1,1.42,1.42,0,0,0,1.08.43A1.61,1.61,0,0,0,81.28,12.89ZM79.51,12q0-1,1.73-1v.73a.9.9,0,0,1-.38.74,1.06,1.06,0,0,1-.64.22.73.73,0,0,1-.51-.18A.71.71,0,0,1,79.51,12Z" style="fill:#fff"/><path d="M88.25,6.56h-1V9.26h0a1.41,1.41,0,0,0-1.33-.64,1.88,1.88,0,0,0-1.46.66,2.73,2.73,0,0,0-.61,1.85,2.61,2.61,0,0,0,.56,1.74,1.77,1.77,0,0,0,1.42.67,1.57,1.57,0,0,0,1.51-.86h0l0,.76h.93q0-.58,0-1.27Zm-1,4.89a1.29,1.29,0,0,1-.3.86,1,1,0,0,1-.83.39,1.08,1.08,0,0,1-.92-.47,1.86,1.86,0,0,1-.32-1.13,2,2,0,0,1,.34-1.19,1.08,1.08,0,0,1,.92-.47,1,1,0,0,1,.7.26,1.19,1.19,0,0,1,.38.64,1.54,1.54,0,0,1,0,.33Z" style="fill:#fff"/><path d="M94.9,13.54a2.22,2.22,0,0,0,1.73-.72A2.59,2.59,0,0,0,97.25,11a2.49,2.49,0,0,0-.6-1.73A2.15,2.15,0,0,0,95,8.62a2.2,2.2,0,0,0-1.71.7,2.56,2.56,0,0,0-.64,1.79,2.51,2.51,0,0,0,.61,1.74A2.11,2.11,0,0,0,94.9,13.54ZM94,10a1.05,1.05,0,0,1,1-.56,1,1,0,0,1,.94.56,2.13,2.13,0,0,1,.28,1.12,2.13,2.13,0,0,1-.29,1.13,1,1,0,0,1-.94.57,1.06,1.06,0,0,1-1-.56,2.13,2.13,0,0,1-.28-1.12A2.16,2.16,0,0,1,94,10Z" style="fill:#fff"/><path d="M98.79,13.43h1v-2.8a1.21,1.21,0,0,1,.29-.81.94.94,0,0,1,.76-.34q1,0,1,1.25v2.7h1V10.61A2.07,2.07,0,0,0,102.34,9a1.5,1.5,0,0,0-1.1-.43,1.77,1.77,0,0,0-1,.27,1.53,1.53,0,0,0-.54.57h0l0-.74h-.92q0,.73,0,1.35Z" style="fill:#fff"/><path d="M107.75,11.88a1.85,1.85,0,0,0,.35,1.27,1.25,1.25,0,0,0,1,.38,2.35,2.35,0,0,0,.81-.12l0-.79a1.85,1.85,0,0,1-.47,0c-.41,0-.61-.29-.61-.87V9.5h1.15V8.72h-1.15V7.54l-1,.31v.86h-.69V9.5h.69Z" style="fill:#fff"/><path d="M114.43,10.75v2.68h1v-2.8A2.15,2.15,0,0,0,115,9a1.46,1.46,0,0,0-1.08-.43,1.58,1.58,0,0,0-1.42.77h0V6.56h-1v6.88h1V10.6a1.32,1.32,0,0,1,0-.38,1,1,0,0,1,1-.73Q114.44,9.48,114.43,10.75Z" style="fill:#fff"/><path d="M119.36,13.52a4,4,0,0,0,1.58-.29l-.16-.73a3.47,3.47,0,0,1-1.27.22,1.56,1.56,0,0,1-1-.33,1.37,1.37,0,0,1-.46-1.07h3.14a2.54,2.54,0,0,0,0-.47,2.52,2.52,0,0,0-.42-1.48,1.75,1.75,0,0,0-1.54-.76,2,2,0,0,0-1.65.76,2.7,2.7,0,0,0-.58,1.78,2.38,2.38,0,0,0,.63,1.73A2.28,2.28,0,0,0,119.36,13.52Zm-1-3.75a1,1,0,0,1,.83-.43.92.92,0,0,1,.83.44,1.41,1.41,0,0,1,.2.8H118A1.59,1.59,0,0,1,118.34,9.77Z" style="fill:#fff"/></svg>
