<svg id="Layer_1" data-name="Layer 1" xmlns="http://www.w3.org/2000/svg" viewBox="0 0 135 40"><title>playStore</title><rect width="135" height="40" rx="5" ry="5"/><path d="M10.44,32.32a2,2,0,0,1-.46-1.4v.15a2,2,0,0,0,.46,1.4l.07-.07Z" style="opacity:0.12;isolation:isolate"/><path d="M44.47,13.13a2.91,2.91,0,0,0,2.2-.89,2.71,2.71,0,0,0,.75-2,2.55,2.55,0,0,0,0-.45H44.47v.72h2.18a1.89,1.89,0,0,1-.5,1.22,2.35,2.35,0,0,1-4-1.73,2.32,2.32,0,0,1,2.33-2.4,2,2,0,0,1,1.64.71l.53-.53a2.48,2.48,0,0,0-.94-.67,3.09,3.09,0,0,0-1.23-.25A3.09,3.09,0,0,0,41.35,10a3.09,3.09,0,0,0,3.12,3.13Z" style="fill:#fff"/><polygon points="52.03 12.26 49.3 12.26 49.3 10.36 51.76 10.36 51.76 9.64 49.3 9.64 49.3 7.74 52.03 7.74 52.03 7 48.52 7 48.52 13 52.03 13 52.03 12.26" style="fill:#fff"/><polygon points="55.28 13 55.28 7.74 56.95 7.74 56.95 7 52.83 7 52.83 7.74 54.51 7.74 54.51 13 55.28 13" style="fill:#fff"/><rect x="59.94" y="7" width="0.77" height="6" style="fill:#fff"/><polygon points="64.13 13 64.13 7.74 65.8 7.74 65.8 7 61.68 7 61.68 7.74 63.36 7.74 63.36 13 64.13 13" style="fill:#fff"/><path d="M71.41,13.13a2.94,2.94,0,0,0,2.2-.91A3.07,3.07,0,0,0,74.49,10a3.07,3.07,0,0,0-.89-2.22,3.1,3.1,0,0,0-4.4,0A3.07,3.07,0,0,0,68.33,10a3.07,3.07,0,0,0,.88,2.22A2.94,2.94,0,0,0,71.41,13.13ZM69.78,8.28a2.31,2.31,0,0,1,3.26,0A2.35,2.35,0,0,1,73.71,10,2.35,2.35,0,0,1,73,11.72a2.31,2.31,0,0,1-3.26,0A2.35,2.35,0,0,1,69.11,10,2.35,2.35,0,0,1,69.78,8.28Z" style="fill:#fff"/><polygon points="76.35 9.26 76.31 8.11 76.35 8.11 79.4 13 80.2 13 80.2 7 79.43 7 79.43 10.51 79.46 11.67 79.43 11.67 76.51 7 75.58 7 75.58 13 76.35 13 76.35 9.26" style="fill:#fff"/><path d="M47.74,23.06v1.8h4.32a3.77,3.77,0,0,1-1,2.27,4.42,4.42,0,0,1-3.33,1.32,4.8,4.8,0,0,1,0-9.6A4.6,4.6,0,0,1,51,20.14l1.27-1.27A6.29,6.29,0,0,0,47.74,17a6.61,6.61,0,1,0,0,13.21,6,6,0,0,0,4.61-1.85,6,6,0,0,0,1.56-4.22,5.87,5.87,0,0,0-.1-1.13Z" style="fill:#fff"/><path d="M101.81,17.5H97.33V30H99.2V25.26h2.61a3.89,3.89,0,1,0,0-7.77Zm0,6H99.2V19.24h2.65a2.14,2.14,0,1,1,0,4.29Z" style="fill:#fff"/><rect x="106.94" y="17.5" width="1.87" height="12.5" style="fill:#fff"/><path d="M113.39,21.73a3.5,3.5,0,0,0-3.33,1.91l1.66.69a1.77,1.77,0,0,1,1.7-.92,1.8,1.8,0,0,1,2,1.61v.13a4.13,4.13,0,0,0-1.95-.48c-1.79,0-3.6,1-3.6,2.81a2.89,2.89,0,0,0,3.1,2.75A2.63,2.63,0,0,0,115.32,29h.06v1h1.8V25.19C117.18,23,115.52,21.73,113.39,21.73Zm-.23,6.85c-.61,0-1.46-.31-1.46-1.06,0-1,1.06-1.33,2-1.33a3.32,3.32,0,0,1,1.7.42A2.26,2.26,0,0,1,113.16,28.58Z" style="fill:#fff"/><polygon points="123.74 22 121.6 27.42 121.54 27.42 119.32 22 117.31 22 120.64 29.58 118.74 33.79 120.69 33.79 125.82 22 123.74 22" style="fill:#fff"/><path d="M58.82,21.75A4.25,4.25,0,1,0,63.09,26,4.19,4.19,0,0,0,58.82,21.75Zm0,6.83A2.58,2.58,0,1,1,61.22,26,2.46,2.46,0,0,1,58.82,28.58Z" style="fill:#fff"/><path d="M93.05,24.46a4,4,0,0,0-3.64-2.71,4,4,0,0,0-4,4.25,4.16,4.16,0,0,0,4.22,4.25,4.23,4.23,0,0,0,3.54-1.88l-1.45-1a2.43,2.43,0,0,1-2.09,1.18,2.16,2.16,0,0,1-2.06-1.29l5.69-2.35Zm-5.8,1.42a2.33,2.33,0,0,1,2.22-2.48,1.65,1.65,0,0,1,1.58.9Z" style="fill:#fff"/><path d="M68.14,21.75A4.25,4.25,0,1,0,72.41,26,4.19,4.19,0,0,0,68.14,21.75Zm0,6.83A2.58,2.58,0,1,1,70.54,26,2.46,2.46,0,0,1,68.14,28.58Z" style="fill:#fff"/><path d="M79.57,22.7H79.5a3,3,0,0,0-2.24-1,4.26,4.26,0,0,0,0,8.51,2.9,2.9,0,0,0,2.24-1h.06v.61c0,1.63-.87,2.5-2.27,2.5a2.35,2.35,0,0,1-2.14-1.51l-1.63.68a4.05,4.05,0,0,0,3.77,2.51c2.19,0,4-1.29,4-4.43V22H79.57Zm-2.14,5.88a2.59,2.59,0,0,1,0-5.16A2.4,2.4,0,0,1,79.7,26,2.38,2.38,0,0,1,77.42,28.58Z" style="fill:#fff"/><rect x="82.63" y="17.5" width="1.87" height="12.5" style="fill:#fff"/><path d="M32,18.56l-4.89-2.78h0L12.51,7.48a1.65,1.65,0,0,0-2,0h0l-.07.07A2,2,0,0,0,10,8.94V31.06a2,2,0,0,0,.46,1.4l.07.07h0a1.65,1.65,0,0,0,2,0L27,24.28h0l.09-.05L32,21.45C33.41,20.65,33.41,19.35,32,18.56Z" style="fill:#fff"/><path d="M32.08,18.45l-4.75-2.7h0L12.58,7.37a1.81,1.81,0,0,0-2-.05l0,0-.17.16-.08.09h0a2.19,2.19,0,0,0-.42,1.39V31.06a2.12,2.12,0,0,0,.5,1.5l.16.16L22.9,20.32l4,4,.07.07,5.07-2.88A1.87,1.87,0,0,0,33.19,20,1.87,1.87,0,0,0,32.08,18.45ZM12.45,7.59l14.37,8.17L22.9,19.68,10.71,7.49A1.61,1.61,0,0,1,12.45,7.59ZM10.51,32.36a1.9,1.9,0,0,1-.41-1.3V8.94a2,2,0,0,1,.35-1.22L22.77,20.05v0ZM32,21.34l-4.89,2.78h0l-4-4v0l4.12-4.12L32,18.67a1.64,1.64,0,0,1,1,1.33A1.64,1.64,0,0,1,32,21.34Z"/></svg>
