<?xml version="1.0" encoding="utf-8"?>
<!-- Generator: Adobe Illustrator 21.1.0, SVG Export Plug-In . SVG Version: 6.00 Build 0)  -->
<svg version="1.1" id="Layer_1" xmlns="http://www.w3.org/2000/svg" xmlns:xlink="http://www.w3.org/1999/xlink" x="0px" y="0px"
	 viewBox="0 0 365.33 88.67" style="enable-background:new 0 0 365.33 88.67;" xml:space="preserve">
<style type="text/css">
	.st0{fill:#FFFFFF;}
</style>
<g>
	<path class="st0" d="M116.81,14.04v5.82h13.99v5.86h-13.99v5.91h15.96v5.86h-23.41V8.18h22.95v5.86H116.81z"/>
	<path class="st0" d="M143.53,32.1l-2.14,5.4h-7.67l12.65-29.32h7.67L166.4,37.5h-7.96l-2.09-5.4H143.53z M149.98,15.59l-4.27,10.85
		h8.46L149.98,15.59z"/>
	<path class="st0" d="M192.07,11.11l-2.81,5.82c-3.1-1.8-7-3.06-9.38-3.06c-1.93,0-3.23,0.71-3.23,2.14c0,5.07,15.5,2.18,15.5,12.78
		c0,5.86-5.19,8.96-11.73,8.96c-4.9,0-9.93-1.84-13.4-4.69l2.89-5.74c3.02,2.64,7.54,4.4,10.6,4.4c2.35,0,3.81-0.88,3.81-2.55
		c0-5.19-15.5-2.09-15.5-12.48c0-5.4,4.65-8.84,11.69-8.84C184.74,7.84,189.06,9.14,192.07,11.11z"/>
	<path class="st0" d="M210.04,14.17V37.5h-7.46V14.17h-8.75V8.14h25.05v6.03H210.04z"/>
	<path class="st0" d="M227.59,37.5V8.18h7.46V37.5H227.59z"/>
	<path class="st0" d="M251.43,8.18c9.21,0,15.58,5.95,15.58,14.66c0,8.67-6.45,14.66-15.87,14.66h-12.31V8.18H251.43z M246.27,31.55
		h5.32c4.57,0,7.83-3.52,7.83-8.67c0-5.19-3.44-8.75-8.17-8.75h-4.98V31.55z"/>
	<path class="st0" d="M275.8,32.1l-2.14,5.4H266l12.65-29.32h7.67l12.36,29.32h-7.96l-2.09-5.4H275.8z M282.25,15.59l-4.27,10.85
		h8.46L282.25,15.59z"/>
	<path class="st0" d="M319.99,37.5V26.11h-12.15V37.5h-7.46V8.18h7.46v12.06h12.15V8.18h7.46V37.5H319.99z"/>
	<path class="st0" d="M362.09,22.8c0,8.54-6.79,15.04-15.88,15.04c-9.05,0-15.83-6.45-15.83-15.04c0-8.54,6.79-14.87,15.83-14.87
		C355.3,7.93,362.09,14.29,362.09,22.8z M338,22.84c0,4.94,3.81,8.75,8.29,8.75c4.52,0,8.13-3.81,8.13-8.75
		c0-4.94-3.6-8.67-8.13-8.67S338,17.9,338,22.84z"/>
	<path class="st0" d="M130.33,81.37l-13.77-18.43v18.43h-7.14V51.43h6.71l13.81,18.48V51.43h7.1v29.94H130.33z"/>
	<path class="st0" d="M150.65,57.42v5.94h14.29v5.99h-14.29v6.03h16.3v5.99h-23.91V51.43h23.44v5.99H150.65z"/>
	<path class="st0" d="M198.64,81.37l-5.56-20.7l-5.65,20.7h-7.87l-9.79-29.94h8.13l5.86,22.03l5.73-22.03h7.44l5.86,22.03
		l5.77-22.03h7.78l-9.88,29.94H198.64z"/>
	<path class="st0" d="M242.35,54.42l-2.87,5.94c-3.17-1.84-7.14-3.12-9.58-3.12c-1.97,0-3.29,0.73-3.29,2.18
		c0,5.18,15.83,2.22,15.83,13.04c0,5.99-5.3,9.15-11.98,9.15c-5,0-10.14-1.88-13.69-4.79l2.95-5.86c3.08,2.69,7.7,4.49,10.82,4.49
		c2.4,0,3.89-0.9,3.89-2.61c0-5.3-15.83-2.14-15.83-12.75c0-5.52,4.75-9.02,11.93-9.02C234.87,51.09,239.27,52.41,242.35,54.42z"/>
	<path class="st0" d="M255.02,77.31c0,2.61-1.8,4.4-4.41,4.4c-2.57,0-4.36-1.8-4.36-4.4c0-2.57,1.8-4.36,4.36-4.36
		C253.22,72.94,255.02,74.74,255.02,77.31z"/>
	<path class="st0" d="M285.81,56.22l-4.41,5.22c-1.97-2.4-4.88-3.89-7.53-3.89c-4.75,0-8.34,3.76-8.34,8.68c0,5,3.59,8.81,8.34,8.81
		c2.52,0,5.43-1.37,7.53-3.51l4.45,4.71c-3.21,3.29-7.96,5.47-12.36,5.47c-9.02,0-15.74-6.63-15.74-15.4c0-8.64,6.89-15.14,16-15.14
		C278.2,51.17,282.82,53.14,285.81,56.22z"/>
	<path class="st0" d="M320.59,66.36c0,8.73-6.93,15.35-16.21,15.35c-9.24,0-16.17-6.59-16.17-15.35c0-8.73,6.93-15.18,16.17-15.18
		C313.66,51.17,320.59,57.67,320.59,66.36z M295.99,66.4c0,5.05,3.89,8.94,8.47,8.94c4.62,0,8.3-3.89,8.3-8.94s-3.68-8.85-8.3-8.85
		S295.99,61.35,295.99,66.4z"/>
	<path class="st0" d="M352.15,81.37l-0.04-19.46l-7.19,16.47h-4.96l-7.19-16.47v19.46h-6.8V51.39h8.34l8.13,17.83l8.13-17.83h8.3
		v29.98H352.15z"/>
</g>
<g>
	<g>
		<path class="st0" d="M24.4,85.53c-11.63,0-21.09-9.46-21.09-21.09V25.32c0-11.63,9.46-21.09,21.09-21.09
			c2.91,0,5.27,2.36,5.27,5.27s-2.36,5.27-5.27,5.27c-5.82,0-10.55,4.73-10.55,10.55v39.11c0,5.82,4.73,10.55,10.55,10.55
			c2.91,0,5.27,2.36,5.27,5.27S27.31,85.53,24.4,85.53z"/>
	</g>
	<g>
		<path class="st0" d="M71.98,85.53c-2.91,0-5.27-2.36-5.27-5.27s2.36-5.27,5.27-5.27c5.82,0,10.55-4.73,10.55-10.55V25.32
			c0-5.82-4.73-10.55-10.55-10.55c-2.91,0-5.27-2.36-5.27-5.27s2.36-5.27,5.27-5.27c11.63,0,21.09,9.46,21.09,21.09v39.11
			C93.07,76.07,83.61,85.53,71.98,85.53z"/>
	</g>
</g>
<path class="st0" d="M40.65,25.61l23.76,13.72c3.92,2.26,3.92,7.93,0,10.19L40.65,63.24c-3.92,2.26-8.83-0.57-8.83-5.1V30.7
	C31.83,26.17,36.73,23.34,40.65,25.61z"/>
<g>
</g>
<g>
</g>
<g>
</g>
<g>
</g>
<g>
</g>
<g>
</g>
</svg>
