<?xml version="1.0" encoding="utf-8"?>
<!-- Generator: Adobe Illustrator 19.2.1, SVG Export Plug-In . SVG Version: 6.00 Build 0)  -->
<svg version="1.1" id="Layer_1" xmlns="http://www.w3.org/2000/svg" xmlns:xlink="http://www.w3.org/1999/xlink" x="0px" y="0px"
	 viewBox="0 0 210.3 216.5" style="enable-background:new 0 0 210.3 216.5;" xml:space="preserve">
<style type="text/css">
	.st0{fill:#FFFFFF;}
</style>
<g>
	<g>
		<path class="st0" d="M63.4,211.1c0,2.6-1.8,4.4-4.4,4.4c-2.6,0-4.4-1.8-4.4-4.4c0-2.6,1.8-4.4,4.4-4.4
			C61.6,206.7,63.4,208.5,63.4,211.1z"/>
		<path class="st0" d="M90.1,196.7l-3.4,4.1c-1.5-1.9-3.8-3-5.9-3c-3.7,0-6.5,2.9-6.5,6.8c0,3.9,2.8,6.9,6.5,6.9
			c2,0,4.2-1.1,5.9-2.7l3.5,3.7c-2.5,2.6-6.2,4.3-9.6,4.3c-7,0-12.3-5.2-12.3-12c0-6.7,5.4-11.8,12.5-11.8
			C84.1,192.7,87.7,194.3,90.1,196.7z"/>
		<path class="st0" d="M118.2,204.6c0,6.8-5.4,12-12.6,12c-7.2,0-12.6-5.1-12.6-12c0-6.8,5.4-11.8,12.6-11.8
			C112.8,192.7,118.2,197.8,118.2,204.6z M99,204.6c0,3.9,3,7,6.6,7c3.6,0,6.5-3,6.5-7s-2.9-6.9-6.5-6.9
			C102,197.7,99,200.7,99,204.6z"/>
		<path class="st0" d="M143.8,216.3l0-15.2l-5.6,12.8h-3.9l-5.6-12.8v15.2h-5.3v-23.4h6.5l6.3,13.9l6.3-13.9h6.5v23.4H143.8z"/>
	</g>
</g>
<g>
	<g>
		<path class="st0" d="M6.9,107.1v4.6h11v4.6h-11v4.7h12.6v4.6H1v-23.1h18.1v4.6H6.9z"/>
		<path class="st0" d="M28.8,121.3l-1.7,4.3h-6l10-23.1h6l9.7,23.1h-6.3l-1.7-4.3H28.8z M33.9,108.3l-3.4,8.5h6.7L33.9,108.3z"/>
		<path class="st0" d="M67.2,104.7l-2.2,4.6c-2.4-1.4-5.5-2.4-7.4-2.4c-1.5,0-2.5,0.6-2.5,1.7c0,4,12.2,1.7,12.2,10.1
			c0,4.6-4.1,7.1-9.2,7.1c-3.9,0-7.8-1.5-10.6-3.7l2.3-4.5c2.4,2.1,5.9,3.5,8.3,3.5c1.8,0,3-0.7,3-2c0-4.1-12.2-1.7-12.2-9.8
			c0-4.3,3.7-7,9.2-7C61.4,102.2,64.8,103.2,67.2,104.7z"/>
		<path class="st0" d="M81.7,107.2v18.4h-5.9v-18.4h-6.9v-4.8h19.7v4.8H81.7z"/>
		<path class="st0" d="M99.5,125.5v-23.1h5.9v23.1H99.5z"/>
		<path class="st0" d="M120.2,102.4c7.3,0,12.3,4.7,12.3,11.6c0,6.8-5.1,11.6-12.5,11.6h-9.7v-23.1H120.2z M116.2,120.9h4.2
			c3.6,0,6.2-2.8,6.2-6.8c0-4.1-2.7-6.9-6.4-6.9h-3.9V120.9z"/>
		<path class="st0" d="M140.5,121.3l-1.7,4.3h-6l10-23.1h6l9.7,23.1h-6.3l-1.7-4.3H140.5z M145.6,108.3l-3.4,8.5h6.7L145.6,108.3z"
			/>
		<path class="st0" d="M176.5,125.5v-9h-9.6v9H161v-23.1h5.9v9.5h9.6v-9.5h5.9v23.1H176.5z"/>
		<path class="st0" d="M210.3,114c0,6.7-5.3,11.8-12.5,11.8c-7.1,0-12.5-5.1-12.5-11.8c0-6.7,5.3-11.7,12.5-11.7
			C205,102.2,210.3,107.3,210.3,114z M191.4,114c0,3.9,3,6.9,6.5,6.9c3.6,0,6.4-3,6.4-6.9s-2.8-6.8-6.4-6.8S191.4,110.1,191.4,114z"
			/>
	</g>
</g>
<g>
	<g>
		<path class="st0" d="M78.5,85.3c-12.2,0-22.1-9.9-22.1-22.1v-41C56.4,9.9,66.3,0,78.5,0C81.6,0,84,2.5,84,5.5s-2.5,5.5-5.5,5.5
			c-6.1,0-11.1,5-11.1,11.1v41c0,6.1,5,11.1,11.1,11.1c3.1,0,5.5,2.5,5.5,5.5S81.6,85.3,78.5,85.3z"/>
	</g>
	<g>
		<path class="st0" d="M128.4,85.3c-3.1,0-5.5-2.5-5.5-5.5s2.5-5.5,5.5-5.5c6.1,0,11.1-5,11.1-11.1v-41c0-6.1-5-11.1-11.1-11.1
			c-3.1,0-5.5-2.5-5.5-5.5s2.5-5.5,5.5-5.5c12.2,0,22.1,9.9,22.1,22.1v41C150.5,75.4,140.6,85.3,128.4,85.3z"/>
	</g>
</g>
<path class="st0" d="M95.5,22.4l24.9,14.4c4.1,2.4,4.1,8.3,0,10.7L95.5,61.9c-4.1,2.4-9.3-0.6-9.3-5.3V27.8
	C86.3,23,91.4,20.1,95.5,22.4z"/>
<g>
	<g>
		<path class="st0" d="M33.2,182.7l-21.9-29.3v29.3H0v-47.6h10.7l22,29.4v-29.4h11.3v47.6H33.2z"/>
		<path class="st0" d="M65.5,144.6v9.5h22.7v9.5H65.5v9.6h25.9v9.5h-38v-47.6h37.3v9.5H65.5z"/>
		<path class="st0" d="M140.3,182.7l-8.8-32.9l-9,32.9H110l-15.6-47.6h12.9l9.3,35l9.1-35h11.8l9.3,35l9.2-35h12.4l-15.7,47.6H140.3
			z"/>
		<path class="st0" d="M209.8,139.9l-4.6,9.5c-5-2.9-11.4-5-15.2-5c-3.1,0-5.2,1.2-5.2,3.5c0,8.2,25.2,3.5,25.2,20.7
			c0,9.5-8.4,14.6-19,14.6c-8,0-16.1-3-21.8-7.6l4.7-9.3c4.9,4.3,12.2,7.1,17.2,7.1c3.8,0,6.2-1.4,6.2-4.1c0-8.4-25.2-3.4-25.2-20.3
			c0-8.8,7.5-14.3,19-14.3C197.9,134.5,204.9,136.7,209.8,139.9z"/>
	</g>
</g>
<g>
</g>
<g>
</g>
<g>
</g>
<g>
</g>
<g>
</g>
<g>
</g>
</svg>
