<svg width="50" height="35" viewBox="0 0 50 35" fill="none" xmlns="http://www.w3.org/2000/svg">
<path d="M49.9955 32.5285V2.27393L32.9922 17.0944L49.9955 32.5285Z" fill="#EE7523"/>
<path d="M0.151014 1.66087C-0.182131 11.6529 0.139854 22.2527 0.139854 32.3133L17.1239 16.8978L0.150568 1.66016L0.151014 1.66087Z" fill="#EE7523"/>
<path d="M28.1659 17.6639L48.4049 0.0234369L2.39844 0L22.0246 17.6183C23.765 19.1796 26.4051 19.1981 28.1657 17.6638L28.1659 17.6639Z" fill="#EE7523"/>
<path d="M29.9786 19.735C28.5922 20.9437 26.8626 21.5463 25.1354 21.5463C23.3704 21.5463 21.6071 20.9179 20.2081 19.6627L19.1766 18.7363L1.67188 34.6254L48.274 34.6616L30.9221 18.9126L29.9782 19.7354L29.9786 19.735Z" fill="#EE7523"/>
</svg>
