<?xml version="1.0" encoding="UTF-8"?>
<svg id="Layer_1" data-name="Layer 1" xmlns="http://www.w3.org/2000/svg" viewBox="0 0 720 720">
  <defs>
    <style>
      .cls-1 {
        fill: #c42127;
        stroke-width: 0px;
      }
    </style>
  </defs>
  <path class="cls-1" d="M426.94,250.14h25.71c10.48,0,19-8.52,19-19v-50.56c0-9.47-6.79-17.37-16.16-18.79-8.42-1.27-30.3-4.23-51.58-4.23-30.9,0-56.93,9.71-75.29,28.09-18.78,18.79-28.7,45.97-28.7,78.58v36.91h-40.82c-10.48,0-19,8.52-19,19v60.1c0,10.48,8.52,19,19,19h40.82v146.18c0,9.41,7.01,17.49,16.3,18.81,11.7,1.66,23.64,2.5,35.51,2.5s23.81-.84,35.51-2.5c9.3-1.32,16.31-9.41,16.31-18.81v-146.18h36.46c9.45,0,17.35-6.78,18.78-16.12l9.22-60.11c.84-5.48-.75-11.04-4.36-15.25-3.61-4.21-8.87-6.62-14.42-6.62h-45.68v-29.19c0-15.28,7-21.79,23.39-21.79ZM392.54,331.12h43.87l-5.84,38.1h-38.02c-10.48,0-19,8.52-19,19v147.43c-14.48,1.42-29.15,1.42-43.62,0v-147.43c0-10.48-8.52-19-19-19h-40.82v-38.1h40.82c10.48,0,19-8.52,19-19v-47.91c0-48.72,26.97-76.66,73.99-76.66,13.75,0,27.93,1.39,37.74,2.61v29.97h-14.71c-32.93,0-53.39,19.85-53.39,51.79v40.19c0,10.48,8.52,19,19,19Z"/>
</svg>