<svg width="234" height="52" viewBox="0 0 234 52" fill="none" xmlns="http://www.w3.org/2000/svg">
<path d="M119.418 51.1389V49.8373L120.564 49.7404C121.856 49.6072 122.332 49.1713 122.514 47.9242C122.582 47.4732 122.617 47.018 122.618 46.562C122.618 36.3063 122.618 26.0506 122.618 15.7949C122.615 15.3127 122.578 14.8312 122.508 14.354C122.332 13.1432 121.899 12.7376 120.71 12.5378C120.302 12.4712 119.893 12.4409 119.442 12.3925V11.1816H130.932V15.0805C131.2 14.796 131.34 14.6567 131.462 14.5054C133.242 12.4106 135.388 10.8729 138.198 10.5884C142.623 10.1403 146.067 11.89 148.493 15.5346C152.339 21.3042 151.65 31.8807 144.835 36.9843C141.282 39.6603 137.344 40.3928 133.09 38.8793C132.364 38.5692 131.659 38.2112 130.981 37.8077C130.959 37.944 130.944 38.0815 130.938 38.2194V46.5257C130.938 46.6952 130.938 46.8647 130.938 47.0342C131.048 48.911 131.663 49.5588 133.553 49.7344C134.163 49.7889 134.772 49.8191 135.412 49.8615V51.1752L119.418 51.1389ZM130.963 26.2746C130.963 29.3319 130.963 32.3893 130.963 35.4466C130.945 35.6583 130.991 35.8705 131.094 36.0567C131.197 36.2429 131.352 36.395 131.542 36.494C132.572 37.1482 133.781 37.4702 135.003 37.416C136.225 37.3618 137.4 36.9341 138.368 36.1913C139.821 35.0412 140.87 33.4648 141.367 31.687C142.4 28.3103 142.596 24.7361 141.94 21.2678C141.69 19.2954 140.883 17.4336 139.612 15.8978C139.115 15.2924 138.488 14.8053 137.777 14.4724C137.066 14.1396 136.289 13.9695 135.503 13.9748C134.716 13.98 133.941 14.1604 133.235 14.5026C132.528 14.8449 131.908 15.3403 131.42 15.9523C131.159 16.2814 131.01 16.6841 130.993 17.1026C130.944 20.1599 130.963 23.2173 130.963 26.2746Z" fill="#032528"/>
<path d="M29.0847 19.5299H13.31C13.31 19.766 13.2673 19.9779 13.2673 20.1837C13.2673 24.7848 13.2673 29.384 13.2673 33.9811C13.254 34.4144 13.2805 34.8481 13.3465 35.2767C13.5904 36.6207 14.1877 37.1898 15.5591 37.3774C16.2296 37.4683 16.9062 37.4803 17.6133 37.5348V38.9212H0.168439V37.5409L1.58255 37.4501C3.63668 37.2987 4.33765 36.5843 4.42908 34.5623C4.42908 34.2717 4.42908 33.9568 4.42908 33.6965C4.42908 24.2803 4.42908 14.8641 4.42908 5.44795C4.44136 4.89551 4.41079 4.34296 4.33765 3.79518C4.31135 3.26779 4.08942 2.76874 3.71462 2.39424C3.33983 2.01974 2.83872 1.79631 2.3079 1.76704C1.61913 1.65807 0.912071 1.63384 0.15625 1.56725V0.192966H17.5828V1.56725C16.9367 1.61568 16.3089 1.64596 15.6932 1.72466C14.0231 1.9305 13.2978 2.69332 13.2551 4.4127C13.2124 7.68193 13.2551 10.9572 13.2551 14.2325V17.4533H29.0298C29.0298 17.2172 29.0725 16.9629 29.0725 16.7086C29.0725 12.8824 29.0725 9.04814 29.0725 5.20578C29.0725 2.40272 28.3532 1.68833 25.4884 1.60963C25.2507 1.60963 25.013 1.60963 24.6717 1.60963V0.174805H42.2384V1.54304C41.5984 1.59753 40.9523 1.6278 40.3123 1.7065C38.7214 1.90629 38.0387 2.62068 37.9229 4.19476C37.9229 4.60644 37.8863 5.01206 37.8863 5.40558C37.8863 14.8177 37.8863 24.2319 37.8863 33.6481C37.886 34.2973 37.9411 34.9454 38.0509 35.5854C38.1047 36.0093 38.2994 36.4033 38.6042 36.7049C38.9089 37.0064 39.3062 37.1984 39.7332 37.2503C40.5439 37.3895 41.3668 37.444 42.2262 37.5409V38.9091H24.7143V37.5409C25.3726 37.4985 26.0004 37.4804 26.6222 37.4077C28.2252 37.2261 28.9201 36.5359 29.0298 34.9437C29.103 33.8418 29.0786 32.7279 29.0786 31.62C29.0786 27.8906 29.0786 24.1593 29.0786 20.4259L29.0847 19.5299Z" fill="#032528"/>
<path d="M69.7773 38.9431V37.6415C70.1796 37.6415 70.5575 37.5991 70.9355 37.5628C72.2581 37.4478 72.8067 36.9574 72.953 35.6376C73.0179 35.0869 73.0525 34.5332 73.0566 33.9787C73.0566 28.0094 73.0566 22.038 73.0566 16.0646C73.0565 15.4572 73.0158 14.8504 72.9347 14.2483C72.9332 13.7927 72.7515 13.356 72.4289 13.0321C72.1062 12.7082 71.6684 12.5232 71.2097 12.5169C70.7587 12.4442 70.3015 12.4139 69.7956 12.3534V11.1426H81.3768V15.7074L81.5352 15.774L82.0411 14.9809C83.1027 13.282 84.6718 11.9546 86.5294 11.1841C88.387 10.4135 90.4404 10.2381 92.4032 10.6825C93.6512 10.9134 94.8172 11.463 95.7865 12.2771C96.7558 13.0913 97.4951 14.142 97.9317 15.326C98.0536 15.6347 98.1572 15.9314 98.3096 16.3431C98.6387 15.8285 98.9191 15.3805 99.2056 14.9506C100.372 13.1806 102.078 11.8268 104.073 11.0863C106.068 10.3458 108.25 10.2574 110.299 10.8338C113.091 11.6511 114.761 13.5763 115.523 16.2825C115.813 17.3242 115.969 18.3984 115.986 19.4791C116.035 24.3224 115.986 29.1112 115.986 33.9303C115.983 34.5073 116.02 35.0838 116.096 35.6558C116.273 37.0058 116.803 37.472 118.193 37.5749C119.412 37.6597 119.412 37.6597 119.217 38.925H104.466V37.6415C104.941 37.6052 105.398 37.5931 105.849 37.5325C106.27 37.5258 106.673 37.3621 106.978 37.0738C107.283 36.7855 107.468 36.3938 107.495 35.9766C107.58 35.503 107.623 35.0229 107.623 34.5418C107.623 29.8983 107.666 25.2487 107.623 20.6173C107.614 19.4884 107.431 18.3675 107.081 17.2936C106.883 16.6761 106.541 16.1142 106.081 15.6546C105.621 15.195 105.058 14.8508 104.438 14.6508C103.817 14.4507 103.158 14.4005 102.514 14.5042C101.87 14.6079 101.26 14.8627 100.736 15.2473C99.981 15.9102 99.3208 16.6719 98.7728 17.5115C98.6562 17.7198 98.6073 17.9587 98.6326 18.1956C98.6611 23.2528 98.6976 28.3081 98.7423 33.3612C98.7423 34.0393 98.7424 34.7113 98.7728 35.3833C98.846 36.915 99.4433 37.5083 100.973 37.5991L101.924 37.6476V38.9552H87.149V37.6657C87.5879 37.6294 88.0451 37.6173 88.49 37.5567C88.9229 37.5605 89.3406 37.3984 89.6562 37.1041C89.9718 36.8098 90.161 36.406 90.1845 35.9766C90.2612 35.5774 90.302 35.1722 90.3064 34.7658C90.3064 29.977 90.343 25.1821 90.3064 20.3933C90.2876 19.3646 90.115 18.3445 89.7944 17.3662C89.4309 16.4216 88.7451 15.6338 87.8566 15.1401C86.968 14.6464 85.9332 14.4782 84.9326 14.6649C83.932 14.8515 83.0291 15.3812 82.3815 16.1614C81.7339 16.9417 81.3826 17.923 81.3889 18.9342C81.4804 23.9652 81.4194 29.0023 81.4255 34.0332C81.4133 34.6404 81.448 35.2476 81.5291 35.8495C81.7364 37.0603 82.2545 37.5265 83.5284 37.6294L84.589 37.6899V39.0037L69.7773 38.9431Z" fill="#032528"/>
<path d="M233.156 37.6379V38.9274H218.417V37.6439C218.85 37.6137 219.277 37.6016 219.703 37.5471C219.936 37.5545 220.169 37.5148 220.386 37.4305C220.603 37.3462 220.801 37.219 220.968 37.0565C221.134 36.8941 221.265 36.6998 221.354 36.4855C221.443 36.2712 221.487 36.0412 221.483 35.8095C221.55 35.259 221.587 34.7052 221.593 34.1507C221.593 29.7675 221.623 25.3904 221.593 21.0072C221.584 19.9497 221.449 18.897 221.191 17.8711C221.044 17.0554 220.649 16.3041 220.058 15.7193C219.467 15.1344 218.709 14.7443 217.887 14.6019C217.016 14.4063 216.106 14.4645 215.267 14.7695C214.428 15.0744 213.695 15.6132 213.157 16.3213C212.614 16.9412 212.323 17.7398 212.34 18.5613C212.383 23.5439 212.34 28.5264 212.34 33.509C212.34 34.1628 212.34 34.8106 212.419 35.4584C212.529 36.9416 213.114 37.4986 214.626 37.5834L215.534 37.6258V38.9274H200.777V37.6439C201.265 37.6076 201.722 37.5955 202.173 37.5349C202.606 37.5389 203.025 37.378 203.342 37.0853C203.659 36.7926 203.852 36.3902 203.88 35.9609C203.983 35.3611 204.03 34.7531 204.02 34.1446C204.02 28.0542 204.02 21.9637 204.02 15.8733C204.031 15.3432 204.003 14.813 203.935 14.2871C203.74 13.0763 203.325 12.6888 202.106 12.5011C201.679 12.4345 201.247 12.4043 200.777 12.3498V11.139H212.358V15.7461L212.517 15.7946C212.633 15.6069 212.761 15.4253 212.877 15.2376C213.971 13.3924 215.651 11.9596 217.652 11.1633C219.654 10.3669 221.865 10.2519 223.94 10.8363C227.414 11.8291 229.163 14.3295 229.779 17.7137C229.907 18.5145 229.966 19.3247 229.956 20.1354C229.956 24.7365 229.956 29.3316 229.956 33.9328C229.948 34.5583 229.987 35.1835 230.071 35.8035C230.075 36.0367 230.126 36.2667 230.22 36.4803C230.315 36.6938 230.451 36.8865 230.621 37.0471C230.792 37.2078 230.992 37.3331 231.212 37.4158C231.431 37.4985 231.665 37.537 231.9 37.5289C232.272 37.5955 232.68 37.6076 233.156 37.6379Z" fill="#032528"/>
<path d="M186.228 10.4601C194.53 10.9445 200.643 17.6343 200.192 25.7408C200.113 27.6484 199.654 29.5216 198.842 31.2521C198.03 32.9825 196.88 34.5359 195.46 35.8223C194.039 37.1087 192.376 38.1026 190.567 38.7467C188.757 39.3907 186.837 39.6721 184.917 39.5744C176.993 39.1264 170.898 32.1521 171.398 24.0759C171.604 20.3374 173.268 16.8255 176.036 14.2841C178.804 11.7426 182.459 10.3711 186.228 10.4601V10.4601ZM191.714 24.99C191.579 23.313 191.5 21.6239 191.299 19.9591C191.143 17.9324 190.486 15.9754 189.385 14.2621C187.441 11.447 184.058 11.4227 182.18 14.2621C181.5 15.3131 180.999 16.469 180.699 17.6827C179.647 22.1235 179.557 26.7359 180.437 31.2137C180.682 33.0381 181.405 34.7666 182.534 36.2265C184.314 38.3697 187.197 38.4242 188.946 36.2749C189.573 35.4795 190.068 34.5907 190.415 33.6414C191.506 30.8807 191.634 27.9445 191.738 24.9961L191.714 24.99Z" fill="#032528"/>
<path d="M44.9751 19.9836L43.689 19.469C45.3286 15.1221 48.102 12.0406 52.6979 10.8418C54.7535 10.3153 56.9084 10.3028 58.97 10.8055C60.9921 11.1998 62.8208 12.261 64.1596 13.8171C65.4983 15.3732 66.2685 17.3328 66.3453 19.3782C66.4977 21.8725 66.4368 24.3849 66.4551 26.8853C66.4551 29.0527 66.4551 31.2201 66.4551 33.3874C66.4551 33.672 66.4551 33.9626 66.4551 34.2532C66.5282 35.0886 66.8025 35.8333 67.6741 36.1481C68.0647 36.2939 68.4915 36.3138 68.8941 36.2051C69.2967 36.0965 69.6546 35.8647 69.9172 35.5427L70.3987 35.0705L71.2216 35.9423C69.6856 38.1883 67.6193 39.5021 64.8703 39.5747C61.6215 39.6474 59.2869 38.2549 58.0862 35.1007C57.0723 36.6013 55.6842 37.8153 54.0571 38.6243C51.3203 39.9319 48.5714 40.047 45.9199 38.4426C45.164 37.9685 44.5195 37.3385 44.0302 36.5952C43.541 35.852 43.2184 35.013 43.0842 34.135C42.9501 33.2571 43.0076 32.3608 43.2529 31.5068C43.4982 30.6529 43.9255 29.8614 44.5058 29.1859C45.7368 27.8444 47.2669 26.8077 48.9736 26.1588C51.747 24.9964 54.5509 23.9127 57.3547 22.8351C57.8545 22.6413 58.0984 22.4173 58.0374 21.8604C58.0087 20.949 57.9334 20.0398 57.8119 19.136C56.922 14.9708 52.3566 13.1969 48.6018 15.5035C47.1805 16.4418 46.0444 17.7482 45.3164 19.2813L44.9751 19.9836ZM58.0374 24.3365C56.6294 24.8995 55.3067 25.3657 54.0389 25.9469C51.3691 27.1577 50.339 28.9376 50.6072 31.8194C50.7718 33.5146 51.5398 34.8465 53.2343 35.4822C54.0385 35.7318 54.8983 35.7446 55.7096 35.519C56.521 35.2933 57.2491 34.8389 57.8058 34.2108C57.9424 34.0512 58.0218 33.851 58.0313 33.6417C58.0435 30.5904 58.0374 27.5391 58.0374 24.3365Z" fill="#032528"/>
<path d="M171.666 33.1634L172.458 33.9081C170.666 36.8141 168.258 38.8361 164.827 39.4294C162.041 39.9138 159.445 39.4658 157.25 37.5708C156.408 36.8716 155.733 35.9948 155.274 35.0042C154.816 34.0135 154.585 32.9339 154.599 31.8436C154.599 25.9227 154.684 20.0017 154.739 14.0747V13.1485H151.734C151.472 12.4159 151.734 12.0587 152.344 11.7076C156.061 9.50705 159.361 6.67746 162.096 3.34683C162.284 3.14677 162.487 2.9625 162.706 2.7959L162.901 2.91699V11.1082H171.391C171.399 11.1422 171.399 11.1772 171.391 11.2112C171.16 13.1969 171.154 13.1969 169.142 13.1969H162.998C162.998 13.4996 162.956 13.7539 162.956 14.0082C162.956 19.4266 162.956 24.839 162.956 30.2574C162.941 31.1446 163.054 32.0294 163.291 32.8849C163.443 33.5193 163.751 34.1062 164.188 34.5927C164.625 35.0792 165.177 35.45 165.795 35.6717C166.412 35.8933 167.076 35.9588 167.725 35.8623C168.374 35.7658 168.989 35.5103 169.514 35.1189C170.28 34.5222 171 33.8685 171.666 33.1634Z" fill="#032528"/>
</svg>
