<?xml version="1.0" encoding="UTF-8"?>
<svg id="Layer_1" data-name="Layer 1" xmlns="http://www.w3.org/2000/svg" viewBox="0 0 1280 213.11">
  <defs>
    <style>
      .cls-1 {
        fill: #fff;
      }
    </style>
  </defs>
  <path class="cls-1" d="M948.03,111.51c-.56,15.95-3.41,32.78-15.16,45.3-13,13.66-29.38,13.93-36.02,13.93-13.21,0-25.83-3.78-34.97-13.39-8.56-9.02-16.17-24.81-16.17-52.12,0-21.32,6.15-47.26,27.07-58.89,3.82-2.09,12-4.23,23.22-4.23,3.46,0,12.85-.63,21.68,2.89,11.16,4.7,15.76,11.27,18.42,14.77,6.16,8.47,12.84,26.46,11.93,51.74M895.99,0c-47.18,0-72.4,23.89-83,39.31-18.26,26.51-17.28,55.99-17.28,66.58,0,11.87-.71,51.15,27.26,80.35,26.5,27.39,61.24,26.87,73.62,26.87,33.34,0,54.22-9.98,65.38-19.06,25.63-20.71,36.97-55.17,36.97-85.97,0-27.56-8.7-61.75-28.66-82.18-10.94-11.06-35.74-25.9-74.29-25.9"/>
  <path class="cls-1" d="M704.25,156.17c-13.26,9.69-30.55,10.56-45.47,10.56h-15.52V48.67h20.41c9.8,0,18.42-.28,27.89,2.82,10.97,3.42,16.96,10.29,19.87,13.65,9.79,12.23,11.49,26.13,11.49,41.51,0,27.28-8.33,41.81-18.67,49.51m38.19-127.99c-24.72-20.22-58.66-21.04-67.24-21.62-6.05-.28-12.09-.28-18.42-.28h-64.69V207.11h79.66c11.47,0,21.24-.57,32.51-3.16,24.68-5.68,39.61-18.73,46.26-26.13,10.91-12.54,23.27-34.99,23.27-72.79,0-29.58-8-47.55-15.23-58.63-6.37-9.96-12.36-15.41-16.12-18.21"/>
  <polygon class="cls-1" points="1199.8 144.53 1161.84 7.31 1116.71 7.31 1079.89 144.53 1050.02 6.29 999.11 6.29 1050.56 207.11 1102.94 207.11 1139.71 85.76 1176.22 207.11 1228.5 207.11 1280 6.29 1229.43 6.29 1199.8 144.53"/>
  <polygon class="cls-1" points="514.31 132.29 440.1 6.28 390.37 6.28 390.37 207.11 439.27 207.11 437.53 82.79 511.18 207.11 560.85 207.11 560.85 6.28 512.28 6.28 514.31 132.29"/>
  <polygon class="cls-1" points="252.64 6.29 177.32 207.11 229.81 207.11 272.04 77.86 278.69 77.86 320.96 207.11 373.42 207.11 298.08 6.29 252.64 6.29"/>
  <path class="cls-1" d="M151.83,101.87c-6.63-4.68-14.27-8.42-22.86-11.22-8.59-2.8-17.63-5.31-27.1-7.57-7.56-1.73-14.26-3.24-20.01-4.66-5.77-1.43-10.54-2.96-14.32-4.64-3.79-1.68-6.68-3.69-8.69-6.02-1.94-2.34-2.91-5.3-2.91-8.86,0-5.59,2.61-10.17,7.93-13.58,5.26-3.49,12.35-5.23,21.25-5.23,9.47,0,17.01,2.1,22.73,6.16,5.67,4.13,8.95,10.15,9.92,18.02h49.09c-.57-10.48-3.02-19.67-7.25-27.39-4.25-7.75-9.94-14.2-17.03-19.23-7.07-5.06-15.4-8.83-24.94-11.36-9.55-2.6-19.82-3.8-30.8-3.8s-21.94,1.2-31.76,3.66c-9.86,2.42-18.36,6.14-25.54,11.2-7.21,5.03-12.86,11.47-17.03,19.25-4.15,7.79-6.27,17-6.27,27.67s2.15,19.19,6.42,26.08c4.25,6.94,9.78,12.68,16.59,17.14,6.82,4.48,14.51,8.03,23.14,10.7,8.58,2.59,17.35,4.95,26.23,7.02,7,1.67,13.24,3.17,18.72,4.63,5.5,1.33,10.13,3.04,13.92,4.86,3.76,1.9,6.64,4.12,8.63,6.79,2,2.62,3,5.88,3,9.83,0,3.74-.97,6.93-2.84,9.69-1.9,2.68-4.37,4.87-7.37,6.55-3.06,1.71-6.49,2.92-10.35,3.68-3.91,.72-7.9,1.14-12.07,1.14-12.1,0-21.46-2.26-28.08-6.77-6.6-4.49-10.51-11.82-11.64-21.89H0c.19,11,2.49,20.82,6.95,29.35,4.48,8.5,10.6,15.6,18.44,21.33,7.87,5.68,17.32,10.03,28.38,12.89,11.08,2.92,23.32,4.4,36.74,4.4,11.74,0,22.67-1.48,32.79-4.4,10.1-2.86,18.89-7.1,26.37-12.6,7.5-5.58,13.38-12.38,17.63-20.52,4.24-8.12,6.36-17.44,6.36-27.92s-1.97-19.55-5.94-26.69c-3.98-7.14-9.27-12.95-15.89-17.68"/>
  <path class="cls-1" d="M1264.2,205c-7.73,0-13.27-5.8-13.27-13.85s5.54-13.86,13.27-13.86,13.26,5.88,13.26,13.86-5.52,13.85-13.26,13.85m0-29.8c-8.81,0-15.8,6.79-15.8,15.95s6.99,15.96,15.8,15.96,15.79-6.73,15.79-15.96-7-15.95-15.79-15.95"/>
  <path class="cls-1" d="M1265.2,190.1h-4.27v-5.34h4.34c2.07,0,2.99,1.13,2.99,2.7s-.99,2.64-3.06,2.64m2.8,1.21v-.08c2.2-.59,3.19-2.11,3.19-4.1,0-2.82-2.13-4.73-5.33-4.73h-7.86v17.06h2.93v-7.1h3.47c2.27,0,3.34,1.11,3.41,3.24,.13,2.02,.25,3.67,.73,3.86h2.86v-.12c-.47-.27-.47-1.86-.73-4.36-.14-2.17-.94-3.22-2.67-3.67"/>
</svg>