<?xml version="1.0" encoding="UTF-8"?>
<svg width="60px" height="60px" viewBox="0 0 60 60" version="1.1" xmlns="http://www.w3.org/2000/svg" xmlns:xlink="http://www.w3.org/1999/xlink">
    <title>11037CC2-5390-41CE-930E-5C42FB0F8B47@0.5x</title>
    <g id="Style-Guide" stroke="none" stroke-width="1" fill="none" fill-rule="evenodd">
        <g id="Logos-Styleguide" transform="translate(-403.000000, -233.000000)">
            <g id="FOX-Sports" transform="translate(163.000000, 113.000000)">
                <g id="Group" transform="translate(240.000000, 120.000000)">
                    <rect id="Rectangle-5" stroke="#FFFFFF" fill="#000000" x="0.5" y="0.5" width="59" height="59" rx="13.915663"></rect>
                    <path d="M15.1573128,35.9585098 L15.1573128,36.9484952 L14.7813151,37.3237096 L10.9838543,37.3237096 L10.8376301,37.4667995 L10.8376301,38.4169496 L10.9430192,38.5192628 L14.5456498,38.5192628 L15.3462006,39.3024417 L15.3462006,41.5686417 L14.4239572,42.46875 L9,42.46875 L9,41.5504582 L9.48128529,41.0964651 L13.3695584,41.0964651 L13.5166968,40.9537716 L13.5166968,39.9805825 L13.4104443,39.8756433 L9.80095705,39.8756433 L9,39.0951399 L9,36.8581722 L9.92407181,35.9585098 L15.1573128,35.9585098 Z M21.9234953,35.9585098 L22.9519911,36.9618232 L22.9519911,39.3741848 L21.9234953,40.3787864 L18.3308194,40.3787864 L18.3308194,42.46875 L16.4918688,42.46875 L16.4918688,35.9585098 L21.9234953,35.9585098 Z M29.4444159,35.9585098 L30.4734197,36.9618232 L30.4734197,41.4676167 L29.4444159,42.46875 L24.9358962,42.46875 L23.9160346,41.4676167 L23.9160346,36.9618232 L24.9358962,35.9585098 L29.4444159,35.9585098 Z M37.161538,35.9585098 L38.0848987,36.8581722 L38.0848987,38.936542 L37.2030841,39.796716 L38.3636846,42.46875 L36.3196443,42.46875 L35.4555553,40.1072724 L33.5103014,40.1072724 L33.5103014,42.46875 L31.6735855,42.46875 L31.6735855,35.9585098 L37.161538,35.9585098 Z M44.7909459,35.9585098 L44.7909459,37.4667995 L42.667724,37.4667995 L42.667724,42.46875 L40.829586,42.46875 L40.829586,37.4667995 L38.7051452,37.4667995 L38.7051452,35.9585098 L44.7909459,35.9585098 Z M51.5340697,35.9585098 L51.5340697,36.9484952 L51.1581227,37.3237096 L47.3619824,37.3237096 L47.214844,37.4667995 L47.214844,38.4169496 L47.3202331,38.5192628 L50.923778,38.5192628 L51.7238716,39.3024417 L51.7238716,41.5686417 L50.7993935,42.46875 L45.3749284,42.46875 L45.3749284,41.5504582 L45.8571279,41.0964651 L49.7458581,41.0964651 L49.8930473,40.9537716 L49.8930473,39.9805825 L49.786744,39.8756433 L46.1777139,39.8756433 L45.3749284,39.0951399 L45.3749284,36.8581722 L46.2994065,35.9585098 L51.5340697,35.9585098 Z M28.2579633,37.3711255 L26.120114,37.3711255 L25.7450812,37.7387593 L25.7450812,40.5803904 L26.120114,40.9444569 L28.2579633,40.9444569 L28.6375672,40.5803904 L28.6375672,37.7387593 L28.2579633,37.3711255 Z M20.8364386,37.3392672 L18.3308194,37.3392672 L18.3308194,39.1105983 L20.8364386,39.1105983 L21.1057267,38.848845 L21.1057267,37.6023087 L20.8364386,37.3392672 Z M35.9854466,37.2922477 L33.5103014,37.2922477 L33.5103014,38.7513874 L35.9854466,38.7513874 L36.2470655,38.4962237 L36.2470655,37.5474609 L35.9854466,37.2922477 Z M20.3831385,17 L20.7201297,21.8571266 L14.5821678,21.8571266 L14.5821678,24.1720801 L19.5840099,24.1720801 L19.5840099,29.0198425 L14.5461069,29.0198425 L14.5461069,34.7598353 L9.42054054,34.7598353 L9.42054054,17 L20.3831385,17 Z M41.3065034,17.026755 L43.544866,20.8495523 L45.8216257,17.026755 L51.3111019,17.026755 L46.3266807,25.5199883 L51.8125,34.7340216 L46.1376406,34.7340216 L43.4764011,30.2537445 L40.842639,34.7419986 L35.3256855,34.7447236 L40.7046936,25.5792457 L35.6266158,17.026755 L41.3065034,17.026755 Z M29.2530395,17.2681448 C34.0471001,17.2681448 37.9309545,21.136376 37.9309545,25.9017428 C37.9309545,30.6737488 34.0471001,34.5388586 29.2530395,34.5388586 C24.46355,34.5388586 20.5813208,30.6737488 20.5813208,25.9017428 C20.5813208,21.136376 24.46355,17.2681448 29.2530395,17.2681448 Z M29.2790947,20.8197254 C28.4680812,20.8197254 27.8106057,21.5461738 27.8106057,22.3537791 L27.8078123,29.4269647 C27.8078123,30.2367996 28.4680812,30.8925454 29.2790947,30.8925454 C30.0927492,30.8925454 30.8142708,30.2594919 30.8142708,29.4483688 L30.8142708,22.3537791 C30.8142708,21.5461738 30.0927492,20.8197254 29.2790947,20.8197254 Z" id="Combined-Shape" fill="#FFFFFF"></path>
                </g>
            </g>
        </g>
    </g>
</svg>