<?xml version="1.0" encoding="UTF-8"?>
<svg width="100px" height="30px" viewBox="0 0 100 30" version="1.1" xmlns="http://www.w3.org/2000/svg" xmlns:xlink="http://www.w3.org/1999/xlink">
    <title>logo/no-call-letters/austin</title>
    <g id="logo/no-call-letters/austin" stroke="none" stroke-width="1" fill="none" fill-rule="evenodd">
        <path d="M38.144773,2.95352283 C42.4660964,5.55821993 44.9916031,10.3400372 44.7065217,15.3775974 C44.9916031,20.4151575 42.4660964,25.1969748 38.144773,27.8016719 C33.8234495,30.406369 28.4156809,30.406369 24.0943575,27.8016719 C19.773034,25.1969748 17.2475273,20.4151575 17.5326087,15.3775974 C17.2475273,10.3400372 19.773034,5.55821993 24.0943575,2.95352283 C28.4156809,0.348825725 33.8234495,0.348825725 38.144773,2.95352283 Z M17.1956522,1.10585823 L17.7173913,8.91020605 L8.09782609,8.91020605 L8.09782609,12.6384669 L15.9347826,12.6384669 L15.9347826,20.4210756 L8.0326087,20.4210756 L8.0326087,29.6602061 L0,29.6602061 L0,1.10585823 L17.1956522,1.10585823 Z M50,1.10585823 L53.5108696,7.3015104 L57.0869565,1.10585823 L65.6956522,1.10585823 L57.8804348,14.8015104 L66.4782609,29.6167278 L57.6086957,29.6167278 L53.4021739,22.4102061 L49.2826087,29.6275974 L40.5869565,29.6275974 L49.0217391,14.8993365 L41.0978261,1.10585823 L50,1.10585823 Z M100,1.10585823 L83.8152174,29.6275974 L73.8152174,29.6275974 L84.6847826,11.3232495 C84.9021739,10.9210756 85.9891304,9.08411909 86,9.07324953 L86.2826087,8.59498866 L80.6630435,8.59498866 L72.6086957,8.84498866 L72.6086957,1.10585823 L100,1.10585823 Z M31.1630435,7.24716257 C29.8508015,7.31132649 28.8237105,8.40081092 28.8369565,9.71455388 L28.8369565,9.71455388 L28.8369565,21.0841191 C28.8311641,21.7039265 29.0718402,22.3006464 29.5060335,22.7429935 C29.9402267,23.1853406 30.532366,23.4370759 31.1521739,23.4428148 C32.4440557,23.4430322 33.4980349,22.4083921 33.5217391,21.1167278 L33.5217391,21.1167278 L33.5217391,9.71455388 C33.5120447,8.39761826 32.4782072,7.31613849 31.1630435,7.24716257 Z" id="fts-austin-c-copy-2" fill="#FFFFFF"></path>
    </g>
</svg>