<svg width="104" height="104" fill="none" xmlns="http://www.w3.org/2000/svg"><path d="M55.064 103.562c-2.084-.074-4.18 0-6.24-.247a45.04 45.04 0 01-7.005-1.085 53.35 53.35 0 01-10.703-3.7 61.819 61.819 0 01-10.58-6.498 51.079 51.079 0 01-9.028-9.089 54.434 54.434 0 01-3.526-5.167 50.836 50.836 0 01-2.948-5.758 50.25 50.25 0 01-2.244-6.314 47.343 47.343 0 01-1.455-6.857 62.99 62.99 0 01-.444-7.793c-.029-2.93.27-5.854.888-8.719A48.612 48.612 0 014.874 32.2c1.295-2.738 2.873-5.352 4.39-7.979a39.72 39.72 0 016.869-8.484 79.863 79.863 0 016.498-5.29 42.559 42.559 0 019.323-5.438 57.959 57.959 0 016.733-2.467 63.952 63.952 0 016.66-1.516C46.875.74 48.441.692 49.994.53a14.662 14.662 0 011.9-.185c2.342.074 4.673.16 7.016.346 1.727.135 3.44.456 5.155.703.172 0 .333.086.505.123a.48.48 0 01.358.801c-.58 1.06-1.233 2.11-1.739 3.194-1.739 3.453-3.453 6.918-5.191 10.371-1.036 2.047-2.134 4.07-3.182 6.166a1.073 1.073 0 01-1.036.616 40.604 40.604 0 00-6.51.814 30.052 30.052 0 00-11.543 5.192 30.693 30.693 0 00-8.632 9.964 26.958 26.958 0 00-2.837 8.127 29.016 29.016 0 00-.148 9.79 31.57 31.57 0 001.677 5.945 25.898 25.898 0 004.378 7.571 31.894 31.894 0 007.707 6.746 28.508 28.508 0 009.237 3.699 30.96 30.96 0 009.433.641c2.745-.277 5.45-.86 8.065-1.739a22.676 22.676 0 004.341-2.059c1.233-.703 2.466-1.554 3.7-2.355.653-.432.838-.395 1.233.271l3.095 5.426 6.425 11.259c.308.542.567 1.122.875 1.677a.567.567 0 01-.222.875c-2.158 1.234-4.291 2.467-6.486 3.601a33.674 33.674 0 01-4.563 2.072 62.808 62.808 0 01-7.239 2.121c-2.466.53-5.055.789-7.583 1.085-1.019.059-2.04.059-3.059 0v.148l-.061.025z" fill="#FF492C"/><path d="M66.865 66.838H55.594c-1.11 0-2.207-.086-3.317-.123-.765 0-.864-.197-.457-.863 1.727-2.845 3.462-5.68 5.204-8.509l7.4-12.036a1.234 1.234 0 011.232-.629c1.826 0 3.7.1 5.476.124l14.058.086c1.714 0 3.428.099 5.142.123a1.232 1.232 0 011.172.777c1.8 3.198 3.609 6.388 5.425 9.57 1.382 2.466 2.787 4.809 4.169 7.226.813 1.43 1.615 2.873 2.466 4.316a1.086 1.086 0 010 1.233 1804.086 1804.086 0 00-6.696 10.877c-1.233 2.108-2.565 4.242-3.86 6.35-.715 1.16-1.492 2.294-2.232 3.429-.382.592-.555.592-.9 0-1.8-3.17-3.601-6.339-5.414-9.508-1.332-2.343-2.688-4.661-4.032-7.004a144.214 144.214 0 01-2.38-4.267 1.603 1.603 0 00-1.603-.925h-9.582v-.247zM81.145 31.323c3.453 0 6.906-.086 10.359 0 2.182.075 1.96-.11 1.972 1.986v3.7c0 .789-.184.998-.949.986l-11.789-.222h-3.194l-7.399-.136c-.752 0-.95-.197-.875-.95.069-1.654.25-3.302.542-4.932a14.946 14.946 0 017.005-9.791c2.034-1.233 4.279-2.121 6.363-3.268a9.012 9.012 0 002.602-1.998 3.341 3.341 0 00-2.27-5.524 8.175 8.175 0 00-8.632 4.18c-.431.802-.58.814-1.233.173-1.171-1.16-2.306-2.356-3.477-3.527a.74.74 0 01-.148-.999 10.383 10.383 0 014.304-4.34 20.962 20.962 0 014.254-1.74 18.497 18.497 0 014.526-.246c2.078.023 4.114.588 5.907 1.64 2.38 1.43 4.377 3.367 4.772 6.166.42 3.07 0 6.08-2.466 8.447a16.772 16.772 0 01-4.76 3.366 104.644 104.644 0 00-5.895 2.923 5.635 5.635 0 00-2.725 3.132c-.222.605-.087.814.555.826h2.614v.148h.037z" fill="#FF492C"/></svg>