<?xml version="1.0" encoding="utf-8"?>
<!-- Generator: Adobe Illustrator 26.5.0, SVG Export Plug-In . SVG Version: 6.00 Build 0)  -->
<svg version="1.1" id="Layer_1" xmlns="http://www.w3.org/2000/svg" xmlns:xlink="http://www.w3.org/1999/xlink" x="0px" y="0px"
	 viewBox="0 0 110 57.9" style="enable-background:new 0 0 110 57.9;" xml:space="preserve">
<style type="text/css">
	.st0{fill:#ffffff;}
</style>
<path class="st0" d="M43,24.2v-8.1l-6.7,6.1c-1.7-2-4.2-3.1-6.8-2.9c-5.4,0-9.1,4.2-9.1,9.6c0,5.8,3.7,9.6,9.2,9.6
	c3.4,0,6.5-1.8,7.2-4.9h-9.3v-9.4H43z"/>
<path class="st0" d="M89.2,33.6h-8.3v14.1H70.5v-6c-2.1,4.2-7,6-14.1,6H43v-5.3c-3.4,3.7-8.1,5.8-13.1,5.8
	C17.1,48.2,10,39.4,10,28.9c-0.1-4.2,1.2-8.3,3.6-11.7L7,23.4C2,27.9,0,32.3,0,38.6C0,49,7.1,57.9,19.8,57.9c4.5,0,8.9-1.7,12.2-4.8
	l0.5-0.4v4.8h13.4c5.4,0,9.6-1.1,12.1-3.5l2-1.8v5.3h11.6l5.9-5.4v5.4H89l10.5-9.7H89.2V33.6z"/>
<path class="st0" d="M52.8,38.9h4.4c2.8,0,3.8-1.4,3.8-3.1c0-1.7-0.9-2.9-3.5-2.9h-4.6V38.9z"/>
<path class="st0" d="M98.3,0.5l-5.7,5.3V0.5H80.9L78,3.2c-2.3-1.8-5.9-2.7-10.8-2.7H53.5l-2.4,2.3C47.8,0.9,44.1-0.1,40.4,0
	c-5.1-0.1-10,1.8-13.7,5.2l-8,7.4c3.2-1.9,6.9-2.9,10.7-2.9c5-0.1,9.8,1.6,13.6,4.9v-4.4h13.7c8.2,0,12.6,2.5,13.8,7.6v-7.6h10.3V24
	h8.3V10.2h10.4v37.5L110,38V0.5H98.3z"/>
<path class="st0" d="M60.7,21.6c0-1.4-1.1-2.6-2.6-2.7c-0.1,0-0.2,0-0.4,0h-4.9v5.7h5c1.6,0,2.8-1.3,2.8-2.9
	C60.7,21.7,60.7,21.6,60.7,21.6z"/>
<path class="st0" d="M70.5,31.8V23c-0.5,2.1-1.8,4-3.6,5.4C68.4,29.2,69.6,30.4,70.5,31.8z"/>
</svg>