<?xml version="1.0" encoding="UTF-8"?> <svg xmlns="http://www.w3.org/2000/svg" width="116" height="24" viewBox="0 0 116 24" fill="none"><g id="logo/GSDM" clip-path="url(#clip0_3200_242)"><path id="Vector" d="M31.1604 6.35529C31.1604 5.1556 32.1793 3.95591 34.5484 3.95591C36.6413 3.95591 38.0836 4.7434 38.9797 5.54319L41.6495 2.37478C40.0415 1.02743 37.6969 0 34.6527 0C29.7795 0 26.9746 3.03307 26.9746 6.45988C26.9746 14.4271 39.0656 12.4891 39.0656 17.214C39.0656 18.8075 37.5865 20.0502 34.8675 20.0502C32.2713 20.0502 30.3073 18.8321 29.0552 17.6078L25.9312 20.5055C27.9996 22.4558 31.277 24.0062 34.8675 24.0062C40.7412 24.0062 43.2514 20.1979 43.2514 17.214C43.2514 8.50243 31.1604 10.7911 31.1604 6.35529ZM64.2174 11.9969C64.2174 6.25686 59.829 4.30044 56.4779 4.30044H53.4766V19.6934H56.4779C59.829 19.6996 64.2174 17.7431 64.2174 11.9969ZM68.4032 11.9969C68.4032 19.6565 62.683 23.6493 56.4595 23.6493H49.2969V0.344527H56.4533C62.683 0.344527 68.4032 4.3435 68.4032 11.9969ZM81.9917 14.224L78.1558 9.41297C77.2719 9.94207 76.6766 10.9018 76.6766 11.96C76.6766 13.898 78.1619 15.0792 79.7208 15.0792C80.5065 15.0854 81.3043 14.8147 81.9917 14.224ZM85.4902 14.1379L88.16 17.4847H84.6002L83.6918 16.3404C82.5503 17.2571 81.1754 17.7185 79.727 17.7185C76.5354 17.7185 73.9393 15.1346 73.9393 11.96C73.9393 10.0159 74.9151 8.25634 76.4618 7.20431C75.7682 6.19533 75.4184 5.34017 75.4184 4.10356C75.4123 1.84568 77.2658 0 79.5429 0C81.1264 0 82.36 0.812099 83.164 1.9072L80.9177 3.47603C80.5985 3.00846 80.1382 2.63932 79.549 2.63932C78.6959 2.63932 78.1558 3.30992 78.1558 4.00513C78.1558 4.73109 78.4504 5.30941 79.9725 7.22276L83.52 11.6709C83.7594 10.8464 83.8944 9.86209 83.8944 8.69931H86.6808C86.687 10.9264 86.2389 12.7413 85.4902 14.1379ZM111.47 0.344527L104.959 14.2056L98.4466 0.344527H93.917V23.6493H98.1029V9.43758L104.842 23.6493H105.075L111.814 9.43758V23.6493H116V0.344527H111.47ZM11.8271 14.8208H17.6148C17.2036 17.5586 15.0002 20.0441 11.2011 20.0441C8.01566 20.0441 4.17968 17.737 4.17968 11.9969C4.17968 6.25686 8.01566 3.94976 11.2011 3.94976C12.6066 3.94976 14.454 4.33735 15.9945 5.91233L18.8669 3.05768C16.7065 0.978211 13.8402 0 11.2011 0C5.8491 0 0 3.95591 0 12.0031C0 20.0502 5.8491 24 11.2011 24C16.8783 24 21.7699 19.9949 21.7699 13.8734V10.8711H11.8271V14.8208ZM73.5465 20.8746H87.4971V23.6493H73.5465V20.8746Z" fill="white"></path></g><defs><clipPath id="clip0_3200_242"><rect width="116" height="24" fill="white"></rect></clipPath></defs></svg> 