<svg width="34" height="31" viewBox="0 0 34 31" fill="none" xmlns="http://www.w3.org/2000/svg">
<g clip-path="url(#clip0_879_9271)">
<path d="M33.9024 0.975966V-0.209961H19.9672V0.975966C22.6824 0.975966 23.4506 1.33653 23.4506 3.86244V11.7267H10.9262V3.86244C10.9262 1.33653 11.6944 0.975966 14.4096 0.975966V-0.209961H0.475098V0.975966C3.19033 0.975966 3.95857 1.33653 3.95857 3.86244V26.9536C3.95857 29.4789 3.18968 29.8401 0.475098 29.8401V31.0254H14.4103V29.8401C11.6951 29.8401 10.9268 29.4789 10.9268 26.9536V20.2458C10.9268 19.3523 11.194 18.4751 11.7114 17.7481C12.9318 16.0357 14.9257 14.918 17.1757 14.918C19.5039 14.918 21.5584 16.1151 22.7652 17.9297C23.22 18.6134 23.4513 19.4231 23.4513 20.2458V26.9536C23.4513 29.4789 22.6824 29.8401 19.9678 29.8401V31.0254H33.9024V29.8401C31.1871 29.8401 30.4189 29.4789 30.4189 26.9536V3.86244C30.4189 1.33653 31.1871 0.975966 33.9024 0.975966Z" fill="#B39E8A"/>
</g>
<defs>
<clipPath id="clip0_879_9271">
<rect width="34" height="31" fill="white"/>
</clipPath>
</defs>
</svg>
