<svg width="92" height="116" viewBox="0 0 92 116" fill="none" xmlns="http://www.w3.org/2000/svg">
<path fill-rule="evenodd" clip-rule="evenodd" d="M53.795 22.455C53.795 21.4887 54.5527 20.7295 55.517 20.7295V20.6605H69.7062C70.6706 20.6605 71.4282 21.4197 71.4282 22.386V78.2917C71.4282 79.8101 70.6017 81.1215 69.293 81.8117L53.795 89.887V61.0369H37.6772V89.818L22.1793 81.7427C20.8705 81.0525 20.044 79.6721 20.044 78.2227V22.386C20.044 21.4197 20.8017 20.6605 21.766 20.6605H35.9552C36.9195 20.6605 37.6772 21.4197 37.6772 22.386V45.7836H53.795V22.455ZM10.4008 83.0541C10.4008 84.9866 11.434 86.7121 13.156 87.6093L45.7361 105.347L78.3851 87.6093C80.1071 86.7121 81.1403 84.9866 81.1403 83.0541V13.1374C81.1403 11.757 80.0382 10.5837 78.5917 10.5837H12.9494C11.5718 10.5837 10.4008 11.688 10.4008 13.1374V83.0541ZM0 6.16643C0 2.8535 2.68631 0.161743 5.99253 0.161743H85.4108C88.717 0.161743 91.4033 2.8535 91.4033 6.16643V88.2995C91.4033 90.8532 90.0257 93.1999 87.7527 94.3732L50.0066 114.803C48.6979 115.493 47.1826 115.838 45.7361 115.838H45.6672C44.2208 115.838 42.7743 115.493 41.3967 114.803L3.65062 94.3732C1.44647 93.1999 0 90.8532 0 88.2995V6.16643Z" fill="white"/>
</svg>
