<svg width="499" height="574" viewBox="0 0 499 574" fill="none" xmlns="http://www.w3.org/2000/svg">
<g clip-path="url(#clip0_103_206)">
<path d="M313.44 22.5669V446.7C313.44 459.126 303.723 469.787 291.305 470.013C278.654 470.245 268.329 460.05 268.329 447.446V252.944C268.329 246.41 263.911 240.696 257.593 239.054L246.556 236.187C237.468 233.826 228.599 240.689 228.599 250.077V385.623C228.599 398.049 218.882 408.71 206.464 408.935C193.813 409.168 183.488 398.973 183.488 386.369V84.3489C183.488 72.3949 192.48 61.9872 204.392 61.1388C211.264 60.6529 217.562 63.2463 221.993 67.6871C226.069 71.7859 228.592 77.4173 228.592 83.651V173.761C228.592 180.296 233.01 186.01 239.328 187.652L250.365 190.519C259.453 192.88 268.322 186.017 268.322 176.628V23.2649C268.322 11.3108 277.314 0.903176 289.226 0.0546909C296.098 -0.431135 302.396 2.16222 306.827 6.60308C310.903 10.7018 313.426 16.3333 313.426 22.5669H313.44Z" fill="white"/>
<path d="M369.513 408.942C357.054 408.942 346.954 398.836 346.954 386.368V83.6578C346.954 71.1905 357.054 61.084 369.513 61.084C381.972 61.084 392.072 71.1905 392.072 83.6578V386.375C392.072 398.843 381.972 408.949 369.513 408.949V408.942Z" fill="white"/>
<path d="M127.415 445.181C114.956 445.181 104.856 435.074 104.856 422.607V47.4195C104.856 34.9523 114.956 24.8457 127.415 24.8457C139.874 24.8457 149.974 34.9523 149.974 47.4195V422.607C149.974 435.074 139.874 445.181 127.415 445.181Z" fill="white"/>
<path d="M448.144 348.898C435.685 348.898 425.585 338.792 425.585 326.324V143.702C425.585 131.234 435.685 121.128 448.144 121.128C460.604 121.128 470.704 131.234 470.704 143.702V326.324C470.704 338.792 460.604 348.898 448.144 348.898Z" fill="white"/>
<path d="M28.2964 143.702C28.2964 131.234 38.3963 121.128 50.8554 121.128C63.3145 121.128 73.4145 131.234 73.4145 143.702V326.324C73.4145 338.792 63.3145 348.898 50.8554 348.898C38.3963 348.898 28.2964 338.792 28.2964 326.324" fill="white"/>
<path d="M0 525.123H11.2214V544.07H26.5867V525.123H37.8081V572.98H26.5867V553.903H11.2214V572.98H0V525.123V525.123Z" fill="white"/>
<path d="M44.4478 549.052C44.4478 534.374 54.4588 524.104 68.8052 524.104C83.1517 524.104 93.2242 534.374 93.2242 549.052C93.2242 563.729 83.1517 574 68.8052 574C54.4588 574 44.4478 563.729 44.4478 549.052ZM81.7498 548.99C81.7498 540.061 76.8401 534.121 68.8052 534.121C60.7704 534.121 55.9222 540.054 55.9222 548.99C55.9222 557.927 60.832 563.859 68.8052 563.859C76.7785 563.859 81.7498 558.05 81.7498 548.99V548.99Z" fill="white"/>
<path d="M112.679 541.203L121.671 546.691C125.562 549.052 129.453 552.945 129.453 559.836C129.453 568.389 122.888 574 113.575 574C103.434 574 98.4623 567.807 97.252 560.28L107.01 556.517C107.584 559.391 109.369 563.982 113.834 563.982C116.706 563.982 118.108 562.066 118.108 560.027C118.108 558.303 117.472 556.839 114.853 555.244L107.01 550.461C103.311 548.231 98.7837 545.418 98.7837 537.7C98.7837 530.618 104.329 524.11 113.513 524.11C122.184 524.11 127.032 528.449 129.138 535.599L119.51 539.171C117.855 534.894 115.619 533.875 113.322 533.875C111.345 533.875 109.684 535.086 109.684 537.063C109.684 539.171 110.962 540.191 112.679 541.21V541.203Z" fill="white"/>
<path d="M172.431 540.95C172.431 549.818 165.483 556.839 156.108 556.839H147.69V572.98H136.469V525.123H156.108C165.483 525.123 172.431 532.014 172.431 540.95V540.95ZM161.209 541.08C161.209 537.631 158.912 534.887 154.959 534.887H147.69V547.204H154.959C158.912 547.204 161.209 544.399 161.209 541.08Z" fill="white"/>
<path d="M178.175 525.123H189.396V572.98H178.175V525.123V525.123Z" fill="white"/>
<path d="M206.102 534.887H194.942V525.123H228.545V534.887H217.323V572.98H206.102V534.887V534.887Z" fill="white"/>
<path d="M240.416 525.123H255.145L269.43 572.98H257.251L254.831 563.729H240.163L237.742 572.98H226.138L240.423 525.123H240.416ZM242.713 553.965H252.341L247.685 536.099H247.432L242.713 553.965Z" fill="white"/>
<path d="M274.339 525.123H285.561V563.086H300.926V572.973H274.333V525.116L274.339 525.123Z" fill="white"/>
<path d="M306.479 525.123H317.7V572.98H306.479V525.123V525.123Z" fill="white"/>
<path d="M334.413 534.887H323.253V525.123H356.856V534.887H345.634V572.98H334.413V534.887V534.887Z" fill="white"/>
<path d="M373.883 554.984L357.943 525.123H370.505L379.497 544.07H379.75L388.742 525.123H401.242L385.172 555.114V572.98H373.883V554.984V554.984Z" fill="white"/>
<path d="M397.542 567.684C397.542 564.174 400.415 561.43 403.854 561.43C407.294 561.43 410.104 564.174 410.104 567.684C410.104 571.195 407.301 573.939 403.854 573.939C400.408 573.939 397.542 571.133 397.542 567.684Z" fill="white"/>
<path d="M415.91 525.123H444.479V534.887H427.138V546.055H443.269V555.689H427.138V572.98H415.917V525.123H415.91Z" fill="white"/>
<path d="M470.369 563.024L461.951 544.583H461.698V572.98H450.921V525.123H464.693L474.895 548.669H475.148L485.925 525.123H499V572.98H488.285V544.583H488.032L479.552 563.024H470.369V563.024Z" fill="white"/>
</g>
<defs>
<clipPath id="clip0_103_206">
<rect width="499" height="574" fill="white"/>
</clipPath>
</defs>
</svg>
