<svg width="753" height="230" viewBox="0 0 753 230" fill="none" xmlns="http://www.w3.org/2000/svg">
<path d="M139.645 11.044V218.578C139.645 224.658 134.89 229.874 128.814 229.985C122.624 230.099 117.571 225.11 117.571 218.943V123.771C117.571 120.573 115.41 117.777 112.318 116.974L106.918 115.571C102.471 114.416 98.1311 117.774 98.1311 122.368V188.692C98.1311 194.772 93.3765 199.989 87.3002 200.099C81.1101 200.213 76.0576 195.224 76.0576 189.057V41.2747C76.0576 35.4254 80.4576 30.3328 86.2863 29.9177C89.649 29.6799 92.7307 30.9489 94.8989 33.1219C96.8931 35.1274 98.1278 37.883 98.1278 40.9332V85.0254C98.1278 88.2229 100.289 91.0186 103.381 91.8222L108.781 93.2251C113.228 94.3802 117.568 91.022 117.568 86.4283V11.3855C117.568 5.53619 121.968 0.443608 127.797 0.0284334C131.159 -0.209287 134.241 1.05967 136.409 3.23264C138.404 5.2382 139.638 7.99376 139.638 11.044H139.645Z" fill="#007EE5"/>
<path d="M167.082 200.102C160.985 200.102 156.043 195.157 156.043 189.057V40.9365C156.043 34.8361 160.985 29.8909 167.082 29.8909C173.178 29.8909 178.12 34.8361 178.12 40.9365V189.06C178.12 195.16 173.178 200.106 167.082 200.106V200.102Z" fill="#073D57"/>
<path d="M48.6202 217.834C42.5238 217.834 37.5818 212.889 37.5818 206.789V23.2046C37.5818 17.1042 42.5238 12.1589 48.6202 12.1589C54.7166 12.1589 59.6587 17.1042 59.6587 23.2046V206.789C59.6587 212.889 54.7166 217.834 48.6202 217.834Z" fill="#073D57"/>
<path d="M205.557 170.722C199.461 170.722 194.519 165.777 194.519 159.677V70.3169C194.519 64.2165 199.461 59.2712 205.557 59.2712C211.654 59.2712 216.596 64.2165 216.596 70.3169V159.677C216.596 165.777 211.654 170.722 205.557 170.722Z" fill="#073D57"/>
<path d="M0.120117 70.3169C0.120117 64.2165 5.06215 59.2712 11.1585 59.2712C17.2549 59.2712 22.197 64.2165 22.197 70.3169V159.677C22.197 165.777 17.2549 170.722 11.1585 170.722C5.06215 170.722 0.120117 165.777 0.120117 159.677" fill="#073D57"/>
<path d="M254 91.0195H265.221V109.967H280.587V91.0195H291.808V138.877H280.587V119.8H265.221V138.877H254V91.0195V91.0195Z" fill="#007EE5"/>
<path d="M298.448 114.948C298.448 100.271 308.459 90 322.805 90C337.152 90 347.224 100.271 347.224 114.948C347.224 129.626 337.152 139.896 322.805 139.896C308.459 139.896 298.448 129.626 298.448 114.948ZM335.75 114.887C335.75 105.957 330.84 100.018 322.805 100.018C314.771 100.018 309.922 105.95 309.922 114.887C309.922 123.823 314.832 129.756 322.805 129.756C330.779 129.756 335.75 123.946 335.75 114.887V114.887Z" fill="#007EE5"/>
<path d="M366.679 107.1L375.671 112.587C379.562 114.948 383.453 118.842 383.453 125.732C383.453 134.285 376.888 139.896 367.575 139.896C357.434 139.896 352.463 133.704 351.252 126.177L361.01 122.413C361.585 125.287 363.369 129.879 367.835 129.879C370.707 129.879 372.109 127.963 372.109 125.924C372.109 124.199 371.473 122.735 368.854 121.141L361.01 116.358C357.311 114.127 352.784 111.315 352.784 103.596C352.784 96.5142 358.33 90.0068 367.513 90.0068C376.184 90.0068 381.032 94.345 383.138 101.496L373.51 105.067C371.856 100.791 369.619 99.7712 367.322 99.7712C365.346 99.7712 363.684 100.982 363.684 102.96C363.684 105.067 364.963 106.087 366.679 107.107V107.1Z" fill="#007EE5"/>
<path d="M426.431 106.847C426.431 115.715 419.483 122.735 410.108 122.735H401.69V138.877H390.469V91.0195H410.108C419.483 91.0195 426.431 97.9101 426.431 106.847V106.847ZM415.209 106.977C415.209 103.528 412.912 100.784 408.959 100.784H401.69V113.101H408.959C412.912 113.101 415.209 110.295 415.209 106.977Z" fill="#007EE5"/>
<path d="M432.175 91.0195H443.396V138.877H432.175V91.0195V91.0195Z" fill="#007EE5"/>
<path d="M460.102 100.784H448.942V91.0195H482.545V100.784H471.323V138.877H460.102V100.784V100.784Z" fill="#007EE5"/>
<path d="M494.415 91.0195H509.145L523.43 138.877H511.251L508.83 129.626H494.162L491.742 138.877H480.137L494.422 91.0195H494.415ZM496.713 119.861H506.341L501.684 101.995H501.431L496.713 119.861Z" fill="#007EE5"/>
<path d="M528.34 91.0195H539.561V128.982H554.926V138.87H528.333V91.0127L528.34 91.0195Z" fill="#007EE5"/>
<path d="M560.479 91.0195H571.7V138.877H560.479V91.0195V91.0195Z" fill="#007EE5"/>
<path d="M588.413 100.784H577.253V91.0195H610.856V100.784H599.634V138.877H588.413V100.784V100.784Z" fill="#007EE5"/>
<path d="M627.883 120.881L611.943 91.0195H624.505L633.497 109.967H633.75L642.742 91.0195H655.242L639.172 121.011V138.877H627.883V120.881V120.881Z" fill="#007EE5"/>
<path d="M651.542 133.581C651.542 130.07 654.415 127.326 657.854 127.326C661.294 127.326 664.104 130.07 664.104 133.581C664.104 137.091 661.301 139.835 657.854 139.835C654.408 139.835 651.542 137.029 651.542 133.581Z" fill="#007EE5"/>
<path d="M669.91 91.0195H698.479V100.784H681.138V111.951H697.269V121.586H681.138V138.877H669.917V91.0195H669.91Z" fill="#007EE5"/>
<path d="M724.369 128.921L715.951 110.48H715.698V138.877H704.921V91.0195H718.693L728.895 114.565H729.148L739.925 91.0195H753V138.877H742.285V110.48H742.032L733.552 128.921H724.369V128.921Z" fill="#007EE5"/>
</svg>
