<svg width="753" height="230" viewBox="0 0 753 230" fill="none" xmlns="http://www.w3.org/2000/svg">
<path d="M139.645 11.0474V218.581C139.645 224.661 134.89 229.878 128.814 229.988C122.624 230.102 117.571 225.113 117.571 218.946V123.774C117.571 120.576 115.41 117.781 112.318 116.977L106.918 115.574C102.471 114.419 98.1311 117.777 98.1311 122.371V188.695C98.1311 194.776 93.3765 199.992 87.3002 200.102C81.1101 200.216 76.0576 195.228 76.0576 189.06V41.2781C76.0576 35.4288 80.4576 30.3362 86.2863 29.9211C89.649 29.6834 92.7307 30.9523 94.8989 33.1253C96.8931 35.1308 98.1278 37.8864 98.1278 40.9366V85.0288C98.1278 88.2263 100.289 91.022 103.381 91.8256L108.781 93.2285C113.228 94.3836 117.568 91.0254 117.568 86.4317V11.3889C117.568 5.53961 121.968 0.447026 127.797 0.0318514C131.159 -0.20587 134.241 1.06309 136.409 3.23606C138.404 5.24162 139.638 7.99718 139.638 11.0474H139.645Z" fill="white"/>
<path d="M167.082 200.106C160.985 200.106 156.043 195.161 156.043 189.06V40.9399C156.043 34.8396 160.985 29.8943 167.082 29.8943C173.178 29.8943 178.12 34.8396 178.12 40.9399V189.064C178.12 195.164 173.178 200.109 167.082 200.109V200.106Z" fill="white"/>
<path d="M48.6202 217.838C42.5238 217.838 37.5818 212.893 37.5818 206.792V23.208C37.5818 17.1076 42.5238 12.1624 48.6202 12.1624C54.7166 12.1624 59.6587 17.1076 59.6587 23.208V206.792C59.6587 212.893 54.7166 217.838 48.6202 217.838Z" fill="white"/>
<path d="M205.557 170.726C199.461 170.726 194.519 165.78 194.519 159.68V70.3203C194.519 64.2199 199.461 59.2747 205.557 59.2747C211.654 59.2747 216.596 64.2199 216.596 70.3203V159.68C216.596 165.78 211.654 170.726 205.557 170.726Z" fill="white"/>
<path d="M0.120117 70.3203C0.120117 64.2199 5.06215 59.2747 11.1585 59.2747C17.2549 59.2747 22.197 64.2199 22.197 70.3203V159.68C22.197 165.78 17.2549 170.726 11.1585 170.726C5.06215 170.726 0.120117 165.78 0.120117 159.68" fill="white"/>
<path d="M254 91.0229H265.221V109.97H280.587V91.0229H291.808V138.88H280.587V119.803H265.221V138.88H254V91.0229V91.0229Z" fill="white"/>
<path d="M298.448 114.952C298.448 100.274 308.459 90.0034 322.805 90.0034C337.152 90.0034 347.224 100.274 347.224 114.952C347.224 129.629 337.152 139.9 322.805 139.9C308.459 139.9 298.448 129.629 298.448 114.952ZM335.75 114.89C335.75 105.96 330.84 100.021 322.805 100.021C314.771 100.021 309.922 105.954 309.922 114.89C309.922 123.826 314.832 129.759 322.805 129.759C330.779 129.759 335.75 123.95 335.75 114.89V114.89Z" fill="white"/>
<path d="M366.679 107.103L375.671 112.591C379.562 114.952 383.453 118.845 383.453 125.736C383.453 134.289 376.888 139.9 367.575 139.9C357.434 139.9 352.463 133.707 351.252 126.18L361.01 122.417C361.585 125.291 363.369 129.882 367.835 129.882C370.707 129.882 372.109 127.966 372.109 125.927C372.109 124.203 371.473 122.739 368.854 121.144L361.01 116.361C357.311 114.13 352.784 111.318 352.784 103.6C352.784 96.5176 358.33 90.0103 367.513 90.0103C376.184 90.0103 381.032 94.3485 383.138 101.499L373.51 105.071C371.856 100.794 369.619 99.7746 367.322 99.7746C365.346 99.7746 363.684 100.986 363.684 102.963C363.684 105.071 364.963 106.09 366.679 107.11V107.103Z" fill="white"/>
<path d="M426.431 106.85C426.431 115.718 419.483 122.739 410.108 122.739H401.69V138.88H390.469V91.0229H410.108C419.483 91.0229 426.431 97.9135 426.431 106.85V106.85ZM415.209 106.98C415.209 103.531 412.912 100.787 408.959 100.787H401.69V113.104H408.959C412.912 113.104 415.209 110.299 415.209 106.98Z" fill="white"/>
<path d="M432.175 91.0229H443.396V138.88H432.175V91.0229V91.0229Z" fill="white"/>
<path d="M460.102 100.787H448.942V91.0229H482.545V100.787H471.323V138.88H460.102V100.787V100.787Z" fill="white"/>
<path d="M494.415 91.0229H509.145L523.43 138.88H511.251L508.83 129.629H494.162L491.742 138.88H480.137L494.422 91.0229H494.415ZM496.713 119.865H506.341L501.684 101.998H501.431L496.713 119.865Z" fill="white"/>
<path d="M528.34 91.023H539.561V128.986H554.926V138.873H528.333V91.0161L528.34 91.023Z" fill="white"/>
<path d="M560.479 91.0229H571.7V138.88H560.479V91.0229V91.0229Z" fill="white"/>
<path d="M588.413 100.787H577.253V91.0229H610.856V100.787H599.634V138.88H588.413V100.787V100.787Z" fill="white"/>
<path d="M627.883 120.884L611.943 91.0229H624.505L633.497 109.97H633.75L642.742 91.0229H655.242L639.172 121.014V138.88H627.883V120.884V120.884Z" fill="white"/>
<path d="M651.542 133.584C651.542 130.074 654.415 127.33 657.854 127.33C661.294 127.33 664.104 130.074 664.104 133.584C664.104 137.094 661.301 139.838 657.854 139.838C654.408 139.838 651.542 137.033 651.542 133.584Z" fill="white"/>
<path d="M669.91 91.0229H698.479V100.787H681.138V111.955H697.269V121.589H681.138V138.88H669.917V91.0229H669.91Z" fill="white"/>
<path d="M724.369 128.924L715.951 110.483H715.698V138.88H704.921V91.0229H718.693L728.895 114.568H729.148L739.925 91.0229H753V138.88H742.285V110.483H742.032L733.552 128.924H724.369V128.924Z" fill="white"/>
</svg>
