<svg width="753" height="250" viewBox="0 0 753 250" fill="none" xmlns="http://www.w3.org/2000/svg">
<path d="M139.525 21.044V228.578C139.525 234.658 134.77 239.874 128.694 239.985C122.504 240.099 117.451 235.11 117.451 228.943V133.771C117.451 130.573 115.29 127.777 112.198 126.974L106.798 125.571C102.351 124.416 98.011 127.774 98.011 132.368V198.692C98.011 204.772 93.2564 209.989 87.18 210.099C80.99 210.213 75.9375 205.224 75.9375 199.057V51.2747C75.9375 45.4254 80.3375 40.3328 86.1662 39.9177C89.5289 39.6799 92.6106 40.9489 94.7788 43.1219C96.773 45.1274 98.0077 47.883 98.0077 50.9332V95.0254C98.0077 98.2229 100.169 101.019 103.261 101.822L108.661 103.225C113.108 104.38 117.448 101.022 117.448 96.4283V21.3855C117.448 15.5362 121.848 10.4436 127.677 10.0284C131.039 9.79071 134.121 11.0597 136.289 13.2326C138.283 15.2382 139.518 17.9938 139.518 21.044H139.525Z" fill="#007EE5"/>
<path d="M166.962 210.102C160.865 210.102 155.923 205.157 155.923 199.057V50.9365C155.923 44.8361 160.865 39.8909 166.962 39.8909C173.058 39.8909 178 44.8361 178 50.9365V199.06C178 205.16 173.058 210.106 166.962 210.106V210.102Z" fill="#073D57"/>
<path d="M48.5001 227.834C42.4037 227.834 37.4617 222.889 37.4617 216.789V33.2046C37.4617 27.1042 42.4037 22.1589 48.5001 22.1589C54.5965 22.1589 59.5385 27.1042 59.5385 33.2046V216.789C59.5385 222.889 54.5965 227.834 48.5001 227.834Z" fill="#073D57"/>
<path d="M205.437 180.722C199.341 180.722 194.399 175.777 194.399 169.677V80.3169C194.399 74.2165 199.341 69.2712 205.437 69.2712C211.534 69.2712 216.476 74.2165 216.476 80.3169V169.677C216.476 175.777 211.534 180.722 205.437 180.722Z" fill="#073D57"/>
<path d="M0 80.3169C0 74.2165 4.94203 69.2712 11.0384 69.2712C17.1348 69.2712 22.0769 74.2165 22.0769 80.3169V169.677C22.0769 175.777 17.1348 180.722 11.0384 180.722C4.94203 180.722 0 175.777 0 169.677" fill="#073D57"/>
<path d="M253.88 101.02H265.101V119.967H280.467V101.02H291.688V148.877H280.467V129.8H265.101V148.877H253.88V101.02V101.02Z" fill="#007EE5"/>
<path d="M298.328 124.948C298.328 110.271 308.339 100 322.685 100C337.032 100 347.104 110.271 347.104 124.948C347.104 139.626 337.032 149.896 322.685 149.896C308.339 149.896 298.328 139.626 298.328 124.948ZM335.63 124.887C335.63 115.957 330.72 110.018 322.685 110.018C314.651 110.018 309.802 115.95 309.802 124.887C309.802 133.823 314.712 139.756 322.685 139.756C330.659 139.756 335.63 133.946 335.63 124.887V124.887Z" fill="#007EE5"/>
<path d="M366.559 117.1L375.551 122.587C379.442 124.948 383.333 128.842 383.333 135.732C383.333 144.285 376.768 149.896 367.455 149.896C357.314 149.896 352.342 143.704 351.132 136.177L360.89 132.413C361.465 135.287 363.249 139.879 367.715 139.879C370.587 139.879 371.988 137.963 371.988 135.924C371.988 134.199 371.352 132.735 368.733 131.141L360.89 126.358C357.191 124.127 352.664 121.315 352.664 113.596C352.664 106.514 358.21 100.007 367.393 100.007C376.064 100.007 380.912 104.345 383.018 111.496L373.39 115.067C371.735 110.791 369.499 109.771 367.202 109.771C365.225 109.771 363.564 110.982 363.564 112.96C363.564 115.067 364.843 116.087 366.559 117.107V117.1Z" fill="#007EE5"/>
<path d="M426.311 116.847C426.311 125.715 419.363 132.735 409.988 132.735H401.57V148.877H390.349V101.02H409.988C419.363 101.02 426.311 107.91 426.311 116.847V116.847ZM415.089 116.977C415.089 113.528 412.792 110.784 408.839 110.784H401.57V123.101H408.839C412.792 123.101 415.089 120.295 415.089 116.977Z" fill="#007EE5"/>
<path d="M432.055 101.02H443.276V148.877H432.055V101.02V101.02Z" fill="#007EE5"/>
<path d="M459.982 110.784H448.822V101.02H482.424V110.784H471.203V148.877H459.982V110.784V110.784Z" fill="#007EE5"/>
<path d="M494.295 101.02H509.025L523.31 148.877H511.131L508.71 139.626H494.042L491.622 148.877H480.017L494.302 101.02H494.295ZM496.593 129.861H506.221L501.564 111.995H501.311L496.593 129.861Z" fill="#007EE5"/>
<path d="M528.219 101.02H539.441V138.982H554.806V148.87H528.213V101.013L528.219 101.02Z" fill="#007EE5"/>
<path d="M560.359 101.02H571.58V148.877H560.359V101.02V101.02Z" fill="#007EE5"/>
<path d="M588.293 110.784H577.133V101.02H610.735V110.784H599.514V148.877H588.293V110.784V110.784Z" fill="#007EE5"/>
<path d="M627.762 130.881L611.823 101.02H624.384L633.377 119.967H633.63L642.622 101.02H655.122L639.052 131.011V148.877H627.762V130.881V130.881Z" fill="#007EE5"/>
<path d="M651.422 143.581C651.422 140.07 654.294 137.326 657.734 137.326C661.174 137.326 663.984 140.07 663.984 143.581C663.984 147.091 661.18 149.835 657.734 149.835C654.288 149.835 651.422 147.029 651.422 143.581Z" fill="#007EE5"/>
<path d="M669.79 101.02H698.359V110.784H681.018V121.951H697.149V131.586H681.018V148.877H669.796V101.02H669.79Z" fill="#007EE5"/>
<path d="M724.248 138.921L715.831 120.48H715.578V148.877H704.801V101.02H718.573L728.775 124.565H729.028L739.805 101.02H752.88V148.877H742.164V120.48H741.911L733.432 138.921H724.248V138.921Z" fill="#007EE5"/>
</svg>
