<svg height="71" viewBox="0 0 216 71" width="216" xmlns="http://www.w3.org/2000/svg"><path d="m132.3 71.2h17.2v-71.2h-17.2zm-30.2-20.3c0 2.5-2.1 4.6-4.6 4.6h-10c-2.5 0-4.6-2.1-4.6-4.6v-28.7h-17.2v30.1c0 12.3 7.9 18.8 19.5 18.8h16.8c10.7 0 17.2-7.7 17.2-18.8v-30.1h-17.2c.1 0 .1 27.8.1 28.7zm96.7-28.7v28.7c0 2.5-2.1 4.6-4.6 4.6h-10c-2.5 0-4.6-2.1-4.6-4.6v-28.7h-17.2v30.1c0 12.3 7.9 18.8 19.5 18.8h16.8c10.7 0 17.2-7.7 17.2-18.8v-30.1zm-164.8 0h-11c-3.9 0-5.8 1-5.8 1v-23.2h-17.2v71.1h17.1v-28.6c0-2.5 2.1-4.6 4.6-4.6h10c2.5 0 4.6 2.1 4.6 4.6v28.7h17.2v-31c0-13-8.7-18-19.5-18z" fill="#1ce783"/></svg>