<svg xmlns="http://www.w3.org/2000/svg" width="42.401" height="57.259" viewBox="0 0 42.401 57.259">
  <g id="icon_history" transform="translate(-144.78 -2.864)">
    <path id="Path_23130" data-name="Path 23130" d="M182.5,15.931v-5.02a4.769,4.769,0,0,0,4.678-4.761v-2.4a.885.885,0,0,0-.885-.885h-40.63a.885.885,0,0,0-.885.885v2.4a4.768,4.768,0,0,0,4.678,4.761v5.02a15.217,15.217,0,0,0,6.063,12.4l4.06,3.16-4.06,3.16a15.216,15.216,0,0,0-6.063,12.4v5.02a4.768,4.768,0,0,0-4.678,4.761v2.4a.885.885,0,0,0,.885.885H186.3a.885.885,0,0,0,.885-.885v-2.4a4.768,4.768,0,0,0-4.678-4.761v-5.02a15.218,15.218,0,0,0-6.063-12.4l-4.061-3.16,4.06-3.16a15.215,15.215,0,0,0,6.063-12.4ZM146.55,6.15V4.634h38.86V6.15a3,3,0,0,1-2.994,2.994H149.544A3,3,0,0,1,146.55,6.15Zm38.86,50.686v1.516H146.55V56.836a3,3,0,0,1,2.995-2.994h32.871a3,3,0,0,1,2.994,2.994Zm-9.85-4.765H156.4v-.59a8.388,8.388,0,0,1,3.384-6.923l6.195-4.821,6.194,4.821a8.387,8.387,0,0,1,3.385,6.923v.59Zm-5.165-21.276a.885.885,0,0,0,0,1.4l4.958,3.858a13.5,13.5,0,0,1,5.38,11v5.016h-3.4v-.59a10.079,10.079,0,0,0-4.068-8.32l-6.738-5.244a.886.886,0,0,0-1.088,0L158.7,43.161a10.081,10.081,0,0,0-4.068,8.32v.59h-3.4V47.055a13.5,13.5,0,0,1,5.38-11l4.958-3.858a.885.885,0,0,0,0-1.4l-4.958-3.858a13.5,13.5,0,0,1-5.38-11.006V10.915h29.5V15.93a13.5,13.5,0,0,1-5.38,11.006Zm6.051-16.477H155.516a.885.885,0,0,0-.885.885,10.08,10.08,0,0,0,4.068,8.32l6.4,4.979v2.462a.885.885,0,1,0,1.771,0V28.5l6.4-4.979a10.079,10.079,0,0,0,4.068-8.32.885.885,0,0,0-.885-.885Zm-4.271,7.809-6.195,4.821-6.195-4.821a8.329,8.329,0,0,1-3.346-6.038h19.082a8.329,8.329,0,0,1-3.347,6.038Z" fill="#fff"/>
  </g>
</svg>
