<svg xmlns="http://www.w3.org/2000/svg" width="59.999" height="60" viewBox="0 0 59.999 60">
  <g id="icon_events_thingstodo" transform="translate(-3.5 -3.5)">
    <path id="Path_21260" data-name="Path 21260" d="M39.45,50.463a.966.966,0,0,0-1.52-.8A12.424,12.424,0,0,1,30.494,51.8a12.415,12.415,0,0,1-7.434-2.142.966.966,0,0,0-1.52.8,8.956,8.956,0,0,0,17.911,0ZM23.735,52.3a15.139,15.139,0,0,0,6.759,1.442A15.149,15.149,0,0,0,37.254,52.3a7.021,7.021,0,0,1-13.519,0Z" transform="translate(-6.401 -16.318)" fill="#fff"/>
    <path id="Path_21261" data-name="Path 21261" d="M23.106,27.326a.971.971,0,0,0,.953-1.142,5.466,5.466,0,0,0-10.93.176.968.968,0,0,0,.968.968h8.994a.044.044,0,0,1,.015,0ZM15.2,25.39a3.53,3.53,0,0,1,6.789,0Z" transform="translate(-3.417 -6.172)" fill="#fff"/>
    <path id="Path_21262" data-name="Path 21262" d="M41.724,27.326h9.007a.971.971,0,0,0,.953-1.142,5.466,5.466,0,0,0-10.93.176.971.971,0,0,0,.97.965Zm4.5-4.5a3.534,3.534,0,0,1,3.395,2.563H42.828a3.534,3.534,0,0,1,3.395-2.563Z" transform="translate(-13.219 -6.172)" fill="#fff"/>
    <path id="Path_21263" data-name="Path 21263" d="M54.3,67.015a9.226,9.226,0,0,0-1.149-.073A8.986,8.986,0,0,0,44.281,74.7a.968.968,0,0,0,1.406.99,12.48,12.48,0,0,1,7.648-1.179,12.409,12.409,0,0,1,7.1,3.072.968.968,0,0,0,1.61-.6A8.982,8.982,0,0,0,54.3,67.015Zm-.716,5.57a18.352,18.352,0,0,0-2.336-.154,13.957,13.957,0,0,0-4.549.723,7.046,7.046,0,0,1,6.449-4.274,7.227,7.227,0,0,1,.9.058,7.045,7.045,0,0,1,6.051,5.94,15.042,15.042,0,0,0-6.517-2.293Z" transform="translate(-14.467 -22.511)" fill="#fff"/>
    <path id="Path_21264" data-name="Path 21264" d="M67.023,50.106a.974.974,0,0,0,.194.716.962.962,0,0,0,.643.368l8.921,1.144a1.016,1.016,0,0,0,.123.008.965.965,0,0,0,.958-.844,5.464,5.464,0,1,0-10.839-1.391ZM72.895,47.3a3.534,3.534,0,0,1,3.042,2.974L69.2,49.408A3.549,3.549,0,0,1,72.895,47.3Z" transform="translate(-22.537 -14.845)" fill="#fff"/>
    <path id="Path_21265" data-name="Path 21265" d="M63.064,20.92a.966.966,0,0,0-1.026-.025c-3.208,1.9-9.148,3.125-15.134,3.125a37,37,0,0,1-3.745-.184A108.256,108.256,0,0,0,44.685,4.468.968.968,0,0,0,43.122,3.7C38.9,7,29.954,9.034,24.09,9.034S9.286,7,5.063,3.7A.968.968,0,0,0,3.5,4.468c0,26.847,6.663,41.434,20.373,44.6a.586.586,0,0,0,.093.01c2.477,7.2,6.916,12.034,13.211,14.365a.961.961,0,0,0,.335.06c.033,0,.063,0,.1-.005,14-1.394,22.467-15.015,25.882-41.643a.959.959,0,0,0-.426-.932ZM5.445,6.3c4.927,2.946,12.979,4.67,18.644,4.67S37.809,9.244,42.736,6.3c-.224,19.126-4,31.467-11.472,37.372-.05.038-.1.073-.151.113-.386.3-.781.575-1.184.837-.272.176-.544.348-.824.509-.116.066-.229.131-.345.194a19.11,19.11,0,0,1-4.385,1.719.7.7,0,0,0-.066.025c-.073.018-.146.043-.219.06C11.841,44.161,5.732,30.8,5.445,6.3ZM37.64,61.547c-5.638-2.155-9.5-6.381-11.785-12.9,5.922-1.82,10.421-5.958,13.534-12.487l.068-.144q.321-.684.625-1.4a48.02,48.02,0,0,0,2.729-8.861,37.887,37.887,0,0,0,4.093.207c4.393,0,10.2-.683,14.423-2.533-3.4,24.259-11.159,36.739-23.687,38.125Z" transform="translate(0)" fill="#fff"/>
  </g>
</svg>
