<svg xmlns="http://www.w3.org/2000/svg" width="87.723" height="54.828" viewBox="0 0 87.723 54.828">
  <g id="icon_food_dining" transform="translate(0.004 -27.734)">
    <path id="Path_21275" data-name="Path 21275" d="M46.418,31.9A25.586,25.586,0,1,0,72,57.488,25.616,25.616,0,0,0,46.418,31.9Zm0,49.342A23.756,23.756,0,1,1,70.174,57.488,23.782,23.782,0,0,1,46.418,81.244Z" transform="translate(-2.559 -0.512)" fill="#fff"/>
    <path id="Path_21276" data-name="Path 21276" d="M47.442,40.234A18.274,18.274,0,1,0,65.715,58.508,18.3,18.3,0,0,0,47.442,40.234Zm0,34.721A16.447,16.447,0,1,1,63.889,58.508,16.465,16.465,0,0,1,47.442,74.955Z" transform="translate(-3.583 -1.535)" fill="#fff"/>
    <path id="Path_21277" data-name="Path 21277" d="M15.532,27.734a.915.915,0,0,0-.915.915V43.437H9.138V28.649a.915.915,0,0,0-1.83,0V43.437H1.826V28.649a.915.915,0,0,0-1.83,0v15.7a.915.915,0,0,0,.915.915h6.4V81.643a.915.915,0,1,0,1.83,0V45.264h6.4a.915.915,0,0,0,.915-.915l0-15.7a.913.913,0,0,0-.915-.915Z" fill="#fff"/>
    <path id="Path_21278" data-name="Path 21278" d="M97.7,38.7c0-6.044-3.69-10.965-8.224-10.965S81.25,32.655,81.25,38.7c0,5.633,3.2,10.287,7.309,10.9V81.643a.915.915,0,0,0,1.83,0V49.6C94.494,48.985,97.7,44.332,97.7,38.7Zm-8.224,9.139c-3.526,0-6.4-4.1-6.4-9.139s2.868-9.139,6.4-9.139,6.4,4.1,6.4,9.139S93,47.837,89.474,47.837Z" transform="translate(-9.979 0)" fill="#fff"/>
    <path id="Path_21279" data-name="Path 21279" d="M52.833,50.652a4.575,4.575,0,0,0-4.112,2.231c-.093-.137-.185-.267-.281-.387a4.517,4.517,0,0,0-3.831-1.844,4.934,4.934,0,0,0-3.564,1.518A5.182,5.182,0,0,0,39.582,55.8a10.992,10.992,0,0,0,2.124,5.993,54.542,54.542,0,0,0,6.36,7.343.916.916,0,0,0,.661.271.946.946,0,0,0,.661-.281c4.163-4.29,8.47-8.727,8.47-13.325a5.092,5.092,0,0,0-5.027-5.147Zm-4.112,16.53a48.029,48.029,0,0,1-5.489-6.4A9.262,9.262,0,0,1,41.409,55.8a3.368,3.368,0,0,1,.946-2.357,3.12,3.12,0,0,1,2.251-.963,2.715,2.715,0,0,1,2.388,1.138,8.55,8.55,0,0,1,.9,1.521.915.915,0,0,0,1.645,0c.977-2.015,1.778-2.659,3.289-2.659a3.264,3.264,0,0,1,3.2,3.32c0,3.642-3.6,7.559-7.305,11.383Z" transform="translate(-4.862 -2.815)" fill="#fff"/>
  </g>
</svg>
