<svg xmlns="http://www.w3.org/2000/svg" fill="none" viewBox="0 0 512 512">
  <g clip-path="url(#a)">
    <circle cx="256" cy="256" r="246" fill="#fff" stroke="#000" stroke-width="18"/>
    <path fill="#5BB0E2" fill-opacity=".7" d="M256.004 298.621c-36.465 0-66.301-29.836-66.301-66.301v-85.246c0-36.465 29.836-66.301 66.301-66.301s66.301 29.836 66.301 66.301v85.246c.004 36.465-29.832 66.301-66.301 66.301Z"/>
    <path fill="#000" d="m287.26 396.18-31.258 31.258-31.258-31.258c-3.79-3.79-9.473-3.79-13.262 0-3.79 3.79-3.79 9.473 0 13.262l37.887 37.887c1.898 1.895 4.266 2.84 6.633 2.84s4.734-.946 6.629-2.84l37.887-37.887c3.789-3.79 3.789-9.473 0-13.262-3.785-3.785-9.47-3.785-13.258 0Z"/>
    <path fill="#000" d="M300.52 344.09c-3.79-3.79-9.473-3.79-13.262 0L256 375.348l-31.258-31.258c-3.79-3.79-9.473-3.79-13.262 0-3.79 3.79-3.79 9.473 0 13.262l37.887 37.887c1.898 1.895 4.266 2.84 6.633 2.84s4.734-.946 6.629-2.84l37.887-37.887c3.793-3.79 3.793-9.473.004-13.262Zm40.73-111.77v-85.246c0-46.883-38.359-85.246-85.246-85.246-46.883 0-85.246 38.359-85.246 85.246v85.246c0 46.883 38.359 85.246 85.246 85.246 46.887-.004 85.246-38.363 85.246-85.246Zm-85.246 66.301c-36.465 0-66.301-29.836-66.301-66.301v-85.246c0-36.465 29.836-66.301 66.301-66.301s66.301 29.836 66.301 66.301v85.246c.004 36.465-29.832 66.301-66.301 66.301Z"/>
    <path fill="#000" d="M256 113.93c-5.21 0-9.473 4.262-9.473 9.473v28.414c0 5.21 4.262 9.472 9.473 9.472 5.211 0 9.473-4.261 9.473-9.472v-28.414c0-5.211-4.262-9.473-9.473-9.473Z"/>
  </g>
  <defs>
    <clipPath id="a">
      <path fill="#fff" d="M0 0h512v512H0z"/>
    </clipPath>
  </defs>
</svg>
