<svg id="icon_celebrities" xmlns="http://www.w3.org/2000/svg" width="56" height="56" viewBox="0 0 56 56">
  <path id="Path_21065" data-name="Path 21065" d="M50,22A28,28,0,1,0,78,50,28.033,28.033,0,0,0,50,22Zm0,54A26,26,0,1,1,76,50,26.03,26.03,0,0,1,50,76Z" transform="translate(-22 -22)" fill="#fff"/>
  <path id="Path_21066" data-name="Path 21066" d="M63,54H37a1,1,0,0,0-1,1,15.38,15.38,0,0,0,5.262,11.7.937.937,0,0,0,.246.2,13.176,13.176,0,0,0,17.039-.039,1.029,1.029,0,0,0,.176-.141A15.388,15.388,0,0,0,64,55a1,1,0,0,0-1-1Zm-1.035,2a13.489,13.489,0,0,1-.3,2H38.336a13.489,13.489,0,0,1-.3-2ZM43.281,65.754a3.559,3.559,0,0,1,3-1.754,3.514,3.514,0,0,1,2.895,1.574c.02.023.047.039.063.063a.907.907,0,0,0,.18.188c.008.008.02.008.031.012a1.237,1.237,0,0,0,.145.063,1.061,1.061,0,0,0,.219.086c.043.008.086,0,.129,0a1.067,1.067,0,0,0,.25,0c.051-.012.094-.039.145-.055a.849.849,0,0,0,.211-.094c.008,0,.02,0,.023-.012a1.028,1.028,0,0,0,.156-.164.892.892,0,0,0,.086-.086A3.52,3.52,0,0,1,53.71,64a3.559,3.559,0,0,1,3,1.754,11.166,11.166,0,0,1-13.434,0Zm14.957-1.316A5.4,5.4,0,0,0,50,63.492a5.4,5.4,0,0,0-8.238.945A13.136,13.136,0,0,1,38.937,60H61.066a13.185,13.185,0,0,1-2.828,4.438Z" transform="translate(-22 -22)" fill="#fff"/>
  <path id="Path_21067" data-name="Path 21067" d="M44.555,51.9A1,1,0,0,0,45,52a1.011,1.011,0,0,0,.656-.242,1,1,0,0,0,.293-1.07l-1.8-5.414,4.563-4.562A1,1,0,0,0,48,39H42.617l-2.723-5.445a1.04,1.04,0,0,0-1.789,0L35.383,39H30a1,1,0,0,0-.926.617.992.992,0,0,0,.219,1.09l4.563,4.563-1.8,5.414a1,1,0,0,0,.293,1.07,1.007,1.007,0,0,0,1.1.141L39,49.118Zm-9.844-2.867,1.238-3.711a.993.993,0,0,0-.242-1.023L32.414,41H36a1,1,0,0,0,.895-.555L39,36.235l2.105,4.211A1,1,0,0,0,42,41h3.586l-3.293,3.293a1,1,0,0,0-.242,1.023l1.238,3.711-3.84-1.922A1.011,1.011,0,0,0,39,47a.983.983,0,0,0-.445.105Z" transform="translate(-22 -22)" fill="#fff"/>
  <path id="Path_21068" data-name="Path 21068" d="M61.9,33.555a1.04,1.04,0,0,0-1.789,0L57.383,39H52a1,1,0,0,0-.926.617.992.992,0,0,0,.219,1.09l4.563,4.563-1.8,5.414a1,1,0,0,0,.293,1.07,1.009,1.009,0,0,0,1.1.141L61,49.118l5.555,2.777A1,1,0,0,0,67,52a1.011,1.011,0,0,0,.656-.242,1,1,0,0,0,.293-1.07l-1.8-5.414,4.563-4.562A1,1,0,0,0,70,39H64.618Zm2.4,10.738a1,1,0,0,0-.242,1.023l1.238,3.711-3.84-1.922A1.011,1.011,0,0,0,61,47a.983.983,0,0,0-.445.105l-3.84,1.922,1.238-3.711a.993.993,0,0,0-.242-1.023L54.415,41H58a1,1,0,0,0,.895-.555L61,36.234l2.105,4.211A1,1,0,0,0,64,41h3.586Z" transform="translate(-22 -22)" fill="#fff"/>
</svg>
