<svg xmlns="http://www.w3.org/2000/svg" width="59.8" height="59.799" viewBox="0 0 59.8 59.799">
  <path id="icon_realestate_policy" d="M14.542,7A7.57,7.57,0,0,0,7,14.585a.691.691,0,0,0,.69.69l8.081-.065a.69.69,0,1,0,0-1.379L8.509,13.9a6.1,6.1,0,0,1,6.033-5.516h.927a.737.737,0,0,0,.172.022,6.089,6.089,0,0,1,4.978,6.1V58.779a7.607,7.607,0,0,0,7.65,7.52h30.49a7.523,7.523,0,0,0,7.542-7.52.691.691,0,0,0-.69-.69H60.332V14.585A7.57,7.57,0,0,0,52.79,7Zm4.417,1.379h33.83a6.171,6.171,0,0,1,6.163,6.206V58.09h-24a.691.691,0,0,0-.69.69c0,2.815-1.562,4.883-4.719,6.1a.729.729,0,0,0-.129.043H28.268A6.208,6.208,0,0,1,22,58.779V14.5a7.593,7.593,0,0,0-3.038-6.12Zm9.115,12.239A.69.69,0,1,0,28.139,22H52.832a.69.69,0,1,0,0-1.379H28.074Zm0,8.512a.69.69,0,1,0,.065,1.379H52.832a.69.69,0,1,0,0-1.379H28.074Zm-.086,8.533a.684.684,0,0,0-.466.256.693.693,0,0,0-.148.509.684.684,0,0,0,.256.466.693.693,0,0,0,.509.148H52.832a.69.69,0,1,0,0-1.379H28.139a.706.706,0,0,0-.151,0Zm0,8.512a.684.684,0,0,0-.466.256.693.693,0,0,0-.148.509.684.684,0,0,0,.256.466.693.693,0,0,0,.509.148h14.89a.69.69,0,1,0,0-1.379H28.139a.705.705,0,0,0-.151,0ZM35.53,59.469H64.792a6.052,6.052,0,0,1-6.033,5.452H32.342a7.324,7.324,0,0,0,3.189-5.452Z" transform="translate(-6.75 -6.75)" fill="#fff" stroke="#fff" stroke-width="0.5"/>
</svg>
