<svg xmlns="http://www.w3.org/2000/svg" width="57.794" height="57.794" viewBox="0 0 57.794 57.794">
  <g id="icon_newdev" transform="translate(-3.711 -3.711)">
    <path id="Path_21266" data-name="Path 21266" d="M60.651,95.262H4.564a.854.854,0,0,1,0-1.707H60.651a.854.854,0,0,1,0,1.707Z" transform="translate(0 -33.757)" fill="#fff"/>
    <path id="Path_21267" data-name="Path 21267" d="M56.768,65.907H20.189a.854.854,0,0,1-.853-.854V16.283a.854.854,0,0,1,.853-.853H56.768a.854.854,0,0,1,.854.853V65.054A.854.854,0,0,1,56.768,65.907ZM21.043,64.2H55.914V17.136H21.043Z" transform="translate(-5.871 -4.403)" fill="#fff"/>
    <path id="Path_21268" data-name="Path 21268" d="M59.443,12.733H14.329a.854.854,0,0,1-.853-.853V4.564a.854.854,0,0,1,.853-.853H59.443a.854.854,0,0,1,.853.853V11.88A.854.854,0,0,1,59.443,12.733ZM15.183,11.026H58.589V5.418H15.183Z" transform="translate(-3.669 0)" fill="#fff"/>
    <path id="Path_21269" data-name="Path 21269" d="M32.382,82.052H20.189a.854.854,0,0,1-.853-.854V65.348a6.95,6.95,0,0,1,13.9,0V81.2a.854.854,0,0,1-.854.854ZM21.043,80.345H31.528v-15a5.243,5.243,0,0,0-10.486,0Z" transform="translate(-5.871 -20.548)" fill="#fff"/>
    <path id="Path_21270" data-name="Path 21270" d="M51.914,82.052H39.721a.854.854,0,0,1-.853-.854V65.348a6.95,6.95,0,0,1,13.9,0V81.2a.854.854,0,0,1-.853.854ZM40.575,80.345H51.06v-15a5.243,5.243,0,0,0-10.486,0Z" transform="translate(-13.21 -20.548)" fill="#fff"/>
    <path id="Path_21271" data-name="Path 21271" d="M71.445,82.052H59.252A.854.854,0,0,1,58.4,81.2V65.348a6.95,6.95,0,0,1,13.9,0V81.2a.854.854,0,0,1-.853.854ZM60.106,80.345H70.591v-15a5.243,5.243,0,0,0-10.486,0Z" transform="translate(-20.548 -20.548)" fill="#fff"/>
    <path id="Path_21272" data-name="Path 21272" d="M65.1,37.142H55.345a.854.854,0,0,1-.853-.854V24.1a.854.854,0,0,1,.853-.853H65.1a.854.854,0,0,1,.853.853V36.289A.854.854,0,0,1,65.1,37.142Zm-8.9-1.707h8.047V24.949H56.2Z" transform="translate(-19.08 -7.339)" fill="#fff"/>
    <path id="Path_21273" data-name="Path 21273" d="M37.756,37.142H28a.854.854,0,0,1-.853-.854V24.1A.854.854,0,0,1,28,23.243h9.754a.854.854,0,0,1,.854.853V36.289A.854.854,0,0,1,37.756,37.142Zm-8.9-1.707H36.9V24.949H28.856Z" transform="translate(-8.806 -7.339)" fill="#fff"/>
    <path id="Path_21274" data-name="Path 21274" d="M59.194,52.293H10.423a.853.853,0,1,1,0-1.707H59.194a.853.853,0,1,1,0,1.707Z" transform="translate(-2.201 -17.613)" fill="#fff"/>
  </g>
</svg>
