<svg xmlns="http://www.w3.org/2000/svg" width="48.461" height="59.504" viewBox="0 0 48.461 59.504">
  <path id="icon_transit" d="M38.981,7A76.1,76.1,0,0,0,22.344,8.606a20.43,20.43,0,0,0-5.16,1.82A5.639,5.639,0,0,0,15.643,11.6,2.419,2.419,0,0,0,15,13.166v37a2.365,2.365,0,0,0,.642,1.542,5.642,5.642,0,0,0,1.542,1.178,20.426,20.426,0,0,0,5.16,1.82c1.022.241,2.13.471,3.319.664L19.9,64.875a.685.685,0,1,0,1.156.707L22.923,62.5H55.039L56.9,65.581a.685.685,0,1,0,1.156-.707L52.3,55.368c1.188-.193,2.3-.423,3.319-.664a20.43,20.43,0,0,0,5.16-1.82,5.639,5.639,0,0,0,1.542-1.178,2.365,2.365,0,0,0,.642-1.542v-37a2.418,2.418,0,0,0-.642-1.563,5.642,5.642,0,0,0-1.542-1.178,20.426,20.426,0,0,0-5.16-1.82A76.1,76.1,0,0,0,38.981,7Zm0,1.37A75.162,75.162,0,0,1,55.318,9.955a19.543,19.543,0,0,1,4.8,1.67,4.494,4.494,0,0,1,1.178.878,1,1,0,0,1,.3.664v37a.96.96,0,0,1-.3.642,4.491,4.491,0,0,1-1.178.878,19.444,19.444,0,0,1-4.8,1.692,75.159,75.159,0,0,1-16.337,1.584,75.159,75.159,0,0,1-16.337-1.584,19.44,19.44,0,0,1-4.8-1.692,4.494,4.494,0,0,1-1.178-.878.96.96,0,0,1-.3-.642v-37a1,1,0,0,1,.3-.664,4.492,4.492,0,0,1,1.178-.878,19.541,19.541,0,0,1,4.8-1.67A75.159,75.159,0,0,1,38.981,8.37Zm-6.166,2.055a3.426,3.426,0,0,0,0,6.852H45.147a3.426,3.426,0,1,0,0-6.852Zm0,1.37H45.147a2.055,2.055,0,1,1,0,4.111H32.814a2.055,2.055,0,0,1,0-4.111ZM18.982,19.333a.685.685,0,0,0-.557.685V39.2a.686.686,0,0,0,.685.685H58.85a.686.686,0,0,0,.685-.685V20.018a.686.686,0,0,0-.685-.685H19.111a.516.516,0,0,0-.128,0ZM19.8,20.7H58.165V38.517H19.8Zm4.8,22.61a3.426,3.426,0,1,0,3.426,3.426A3.436,3.436,0,0,0,24.592,43.313Zm28.777,0a3.426,3.426,0,1,0,3.426,3.426A3.436,3.436,0,0,0,53.369,43.313Zm-28.777,1.37a2.055,2.055,0,1,1-2.055,2.055A2.046,2.046,0,0,1,24.592,44.684Zm28.777,0a2.055,2.055,0,1,1-2.055,2.055A2.046,2.046,0,0,1,53.369,44.684Zm-26.25,10.9a87.587,87.587,0,0,0,11.861.749,87.575,87.575,0,0,0,11.861-.749L54.2,61.127H23.756Z" transform="translate(-14.75 -6.75)" fill="#fff" stroke="#fff" stroke-width="0.5"/>
</svg>
