<svg id="icon_affordable_housing" xmlns="http://www.w3.org/2000/svg" xmlns:xlink="http://www.w3.org/1999/xlink" width="57.394" height="60.772" viewBox="0 0 57.394 60.772">
  <defs>
    <clipPath id="clip-path">
      <rect id="Rectangle_1797" data-name="Rectangle 1797" width="57.394" height="60.772" fill="#fff"/>
    </clipPath>
  </defs>
  <g id="Group_3321" data-name="Group 3321" clip-path="url(#clip-path)">
    <path id="Path_23131" data-name="Path 23131" d="M57.078,25.8,29.36.258a.981.981,0,0,0-1.326,0L.315,25.8a.979.979,0,0,0,1.327,1.441h0L6.676,22.6V59.79a.981.981,0,0,0,.981.981H24.014A.981.981,0,0,0,25,59.79V50.728a3.611,3.611,0,0,1,3.6-3.6h.192a3.6,3.6,0,0,1,2.5,1.013l.043.045A3.6,3.6,0,0,1,32.4,50.728V59.79a.981.981,0,0,0,.981.981H49.736a.981.981,0,0,0,.981-.981V22.6l5.035,4.64A.979.979,0,0,0,57.078,25.8m-8.325,2.006v31H34.358V50.727a5.554,5.554,0,0,0-1.633-3.935l-.059-.055a5.544,5.544,0,0,0-3.874-1.578H28.6a5.574,5.574,0,0,0-5.567,5.567v8.082H8.638V20.8L28.7,2.309,48.755,20.8Z" transform="translate(0 0.001)" fill="#fff"/>
  </g>
</svg>
