<svg xmlns="http://www.w3.org/2000/svg" width="70.042" height="74.318" viewBox="0 0 70.042 74.318">
  <g id="icon_neighborhoods" transform="translate(5750.598 -6327.842)">
    <path id="Path_93100" data-name="Path 93100" d="M-5740.086,6498.7l16.516,9.509-3.619,5.1v1.942l-1.511.716-2.583,1.157v2.68l-.981.607.375,3.488,2.1,1.34,1.618-1.583,3.209,1.011-.464,5.474-1.592,6.826-.336,4.522-3.931,7.363h-1.925V6541.5l-4.533-9.907-5.1-2.918-2.9-4-1.508-.754-.908-4.059H-5750v-5.251l2.745-2.778-1.614-3.62,4.74-4.01,1.285-3.783Z" transform="translate(0 -147.298)" fill="none" stroke="#fff" stroke-linecap="round" stroke-linejoin="round" stroke-width="1.2"/>
    <path id="Path_93101" data-name="Path 93101" d="M-5741.571,6338.023l13.3-9.109,2.875,1.515,5.037.548.862-2.536,1.994,1.317v1.219l4.418,2.3,1.68-1.637h2.776l-.522,21,1.191,1.947-4.87,3.555,1.5,2.2-.179,1.165-2.324,2.095-.11.888-.565.753,1.018,1.07,1.161-1.824h1.31l.248-.888,3.35-.773-.108-.641,1.107.641h.813v-.757l3.363,1.206,1.719-.738.337-1.031,7.6-.293,1.192-.872h2.086l5.614-4.346,1.721-.425-.8,3.075-2.588.422-1.025,1.274-2.926,1.729,2.926.757.769-1.614h1.067l.852-1.417h2.442l.412-1.151,6.978-1.175-5.319,2.871-7.2,4.147-16.465,6.3-1.014-.549-4.521,1.609h-5.1l-3.088,1.33-.454-.849h-.962v-.481h-1.326l-1.5,1.747-1.537.914-.167-1.331.913-.849-.5-1.436,4.312-1.313-.2-2.6,1.416-2.988.3-3.088-16.476-9.474-.99-2.6-1.2.519-2.918-1.724h-1.029l-1.592-3.093v-4.6l-.783-.434Z" transform="translate(-7.29 0)" fill="none" stroke="#fff" stroke-linecap="round" stroke-linejoin="round" stroke-width="1.2"/>
    <path id="Path_93103" data-name="Path 93103" d="M-5524.139,6357.395l9.376-.021V6359h2.673l-.454,1.836h-.507l-.41,2.605h-1.069l.7,4.385h1.282v2.426l3.646-.768.311,4.18,1.86-.229.841,1.09v1.673l1.262,1.476-6.641.589-.579-1.081-1.982,2.291h-1.11l-3.933,2.391h-.876l-3.465,2.286h-1l-2.64,1.239-1.46-2.2,4.872-3.57-1.2-1.916Z" transform="translate(-191.794 -25.03)" fill="none" stroke="#fff" stroke-linecap="round" stroke-width="1.2"/>
  </g>
</svg>
