<svg width="49" height="49" viewBox="0 0 49 49" fill="none" xmlns="http://www.w3.org/2000/svg">
<rect x="0.65625" y="0.674805" width="47" height="47" rx="23.5" fill="#F1F2EF"/>
<path d="M24.1562 16.5356C26.2317 16.5356 26.4907 16.5433 27.305 16.5815C28.1185 16.6197 28.6723 16.7472 29.1597 16.9367C29.6639 17.1307 30.0886 17.3935 30.5133 17.8174C30.9017 18.1993 31.2023 18.6612 31.3941 19.1711C31.5828 19.6577 31.7111 20.2122 31.7493 21.0258C31.7852 21.8401 31.7951 22.099 31.7951 24.1745C31.7951 26.25 31.7875 26.509 31.7493 27.3233C31.7111 28.1368 31.5828 28.6906 31.3941 29.178C31.2029 29.6881 30.9022 30.1501 30.5133 30.5316C30.1313 30.9199 29.6694 31.2205 29.1597 31.4124C28.6731 31.6011 28.1185 31.7294 27.305 31.7676C26.4907 31.8035 26.2317 31.8134 24.1562 31.8134C22.0807 31.8134 21.8218 31.8058 21.0075 31.7676C20.1939 31.7294 19.6401 31.6011 19.1528 31.4124C18.6427 31.221 18.1807 30.9204 17.7991 30.5316C17.4106 30.1498 17.1101 29.6879 16.9184 29.178C16.7289 28.6914 16.6014 28.1368 16.5632 27.3233C16.5273 26.509 16.5173 26.25 16.5173 24.1745C16.5173 22.099 16.525 21.8401 16.5632 21.0258C16.6014 20.2115 16.7289 19.6584 16.9184 19.1711C17.1095 18.6609 17.4102 18.1989 17.7991 17.8174C18.1808 17.4288 18.6428 17.1282 19.1528 16.9367C19.6401 16.7472 20.1932 16.6197 21.0075 16.5815C21.8218 16.5456 22.0807 16.5356 24.1562 16.5356ZM24.1562 20.3551C23.1432 20.3551 22.1718 20.7575 21.4555 21.4738C20.7392 22.1901 20.3368 23.1616 20.3368 24.1745C20.3368 25.1875 20.7392 26.159 21.4555 26.8753C22.1718 27.5916 23.1432 27.994 24.1562 27.994C25.1692 27.994 26.1407 27.5916 26.857 26.8753C27.5733 26.159 27.9757 25.1875 27.9757 24.1745C27.9757 23.1616 27.5733 22.1901 26.857 21.4738C26.1407 20.7575 25.1692 20.3551 24.1562 20.3551V20.3551ZM29.1215 20.1641C29.1215 19.9109 29.0209 19.668 28.8418 19.4889C28.6628 19.3099 28.4199 19.2093 28.1666 19.2093C27.9134 19.2093 27.6705 19.3099 27.4915 19.4889C27.3124 19.668 27.2118 19.9109 27.2118 20.1641C27.2118 20.4174 27.3124 20.6602 27.4915 20.8393C27.6705 21.0184 27.9134 21.119 28.1666 21.119C28.4199 21.119 28.6628 21.0184 28.8418 20.8393C29.0209 20.6602 29.1215 20.4174 29.1215 20.1641ZM24.1562 21.8829C24.764 21.8829 25.3469 22.1243 25.7767 22.5541C26.2064 22.9839 26.4479 23.5667 26.4479 24.1745C26.4479 24.7823 26.2064 25.3652 25.7767 25.795C25.3469 26.2248 24.764 26.4662 24.1562 26.4662C23.5484 26.4662 22.9655 26.2248 22.5358 25.795C22.106 25.3652 21.8646 24.7823 21.8646 24.1745C21.8646 23.5667 22.106 22.9839 22.5358 22.5541C22.9655 22.1243 23.5484 21.8829 24.1562 21.8829V21.8829Z" fill="#939598"/>
<rect x="0.65625" y="0.674805" width="47" height="47" rx="23.5" stroke="#939598"/>
</svg>
