<?xml version="1.0" encoding="UTF-8"?>
<svg id="Layer_1" data-name="Layer 1" xmlns="http://www.w3.org/2000/svg" viewBox="0 0 720 720">
  <defs>
    <style>
      .cls-1 {
        fill: #c42127;
        stroke-width: 0px;
      }
    </style>
  </defs>
  <path class="cls-1" d="M442.56,259.24c-10.1,0-18.28,8.19-18.28,18.28s8.19,18.28,18.28,18.28,18.28-8.19,18.28-18.28-8.19-18.28-18.28-18.28Z"/>
  <path class="cls-1" d="M361.28,282.69c-42.35,0-76.8,34.45-76.8,76.8s34.45,76.8,76.8,76.8,76.8-34.45,76.8-76.8-34.45-76.8-76.8-76.8ZM361.28,408.68c-27.13,0-49.19-22.07-49.19-49.19s22.07-49.19,49.19-49.19,49.19,22.07,49.19,49.19-22.07,49.19-49.19,49.19Z"/>
  <path class="cls-1" d="M422.25,515.41h-124.5c-51.65,0-93.67-42.02-93.67-93.67v-124.51c0-51.65,42.02-93.67,93.67-93.67h124.5c51.65,0,93.67,42.02,93.67,93.67v124.51c0,51.65-42.02,93.67-93.67,93.67ZM297.75,232.9c-35.47,0-64.33,28.85-64.33,64.33v124.51c0,35.47,28.86,64.33,64.33,64.33h124.5c35.47,0,64.33-28.86,64.33-64.33v-124.51c0-35.47-28.86-64.33-64.33-64.33h-124.5Z"/>
</svg>