<svg xmlns="http://www.w3.org/2000/svg" width="21.34" height="22.72" viewBox="0 0 21.34 22.72"><defs><style>.cls-1,.cls-3{fill:#00548e;}.cls-2,.cls-4{fill:none;}.cls-2,.cls-3{fill-rule:evenodd;}</style></defs><title>Asset 1</title><g id="Layer_2" data-name="Layer 2"><g id="Layer_1-2" data-name="Layer 1"><rect class="cls-1" width="21.34" height="2.28"/><path class="cls-2" d="M0,2.28V4.95A5.32,5.32,0,0,1,4.07,8.4H17.31a5.3,5.3,0,0,1,4-3.46V2.28Z"/><path class="cls-3" d="M17.31,8.4H4.07A5.32,5.32,0,0,0,0,4.95V22.72H4V12.26a1,1,0,0,1,0-.12,1.16,1.16,0,0,1,.48-.92,1.43,1.43,0,0,1,1.77,0,1.16,1.16,0,0,1,.45.9s0,0,0,0h0V22.72H9.35V12.26a1,1,0,0,1,0-.12,1.16,1.16,0,0,1,.45-.9,1.43,1.43,0,0,1,1.8,0,1.16,1.16,0,0,1,.45.9s0,0,0,0h0V22.72h2.44V12.26a1,1,0,0,1,0-.12,1.16,1.16,0,0,1,.45-.9,1.43,1.43,0,0,1,1.8,0,1.16,1.16,0,0,1,.45.9s0,0,0,0h0V22.72h4.19V4.95A5.3,5.3,0,0,0,17.31,8.4Z"/><rect class="cls-4" x="4.02" y="22.39" width="2.68" height="0.32"/><path class="cls-2" d="M6.69,12.19s0,0,0,0a1.16,1.16,0,0,0-.45-.9H4.48v0a1.16,1.16,0,0,0-.48.92,1,1,0,0,0,0,.12V22.39H6.7V12.19Z"/><path class="cls-2" d="M6.25,11.24a1.43,1.43,0,0,0-1.77,0v0Z"/><rect class="cls-4" x="14.47" y="22.39" width="2.68" height="0.32"/><path class="cls-2" d="M17.14,12.19s0,0,0,0a1.16,1.16,0,0,0-.45-.9H14.9a1.16,1.16,0,0,0-.45.9,1,1,0,0,0,0,.12V22.39h2.68V12.19Z"/><path class="cls-2" d="M15.8,10.92a1.41,1.41,0,0,0-.9.32h1.8A1.42,1.42,0,0,0,15.8,10.92Z"/><rect class="cls-4" x="9.35" y="22.39" width="2.68" height="0.32"/><path class="cls-2" d="M12,12.19s0,0,0,0a1.16,1.16,0,0,0-.45-.9H9.78a1.16,1.16,0,0,0-.45.9,1,1,0,0,0,0,.12V22.39H12V12.19Z"/><path class="cls-4" d="M10.68,10.92a1.42,1.42,0,0,0-.9.32h1.8A1.42,1.42,0,0,0,10.68,10.92Z"/></g></g></svg>