<?xml version="1.0" encoding="UTF-8"?>
<svg width="218px" height="145px" viewBox="0 0 218 145" version="1.1" xmlns="http://www.w3.org/2000/svg" xmlns:xlink="http://www.w3.org/1999/xlink">
    <title>KCEN_overhang</title>
    <defs>
        <polygon id="path-1" points="0 0 158.335945 0 158.335945 145 0 145"></polygon>
        <polygon id="path-3" points="0 0 59.2842614 0 59.2842614 59.2844167 0 59.2844167"></polygon>
    </defs>
    <g id="KCEN_overhang" stroke="none" stroke-width="1" fill="none" fill-rule="evenodd">
        <g id="Group-19" transform="translate(-0.000000, 0.000000)">
            <g id="Group-3">
                <mask id="mask-2" fill="white">
                    <use xlink:href="#path-1"></use>
                </mask>
                <g id="Clip-2"></g>
                <path d="M85.664549,75.3753575 L85.2093575,75.3753575 C79.8907637,75.3753575 75.4095357,77.4260495 71.7633433,81.5282101 C67.5081575,86.0855623 65.3828949,92.39144 65.3828949,100.442736 C65.3828949,108.646281 67.5081575,114.876034 71.7633433,119.129667 C75.5610073,123.003455 80.1952604,125.054147 85.664549,125.281742 L86.689895,125.281742 C91.7785628,125.281742 96.1083192,123.649733 99.679941,120.383385 C103.932796,116.357349 106.060389,110.09031 106.060389,101.582268 C106.060389,93.4548481 103.932796,86.9602135 99.679941,82.0975879 C95.8799467,77.6932608 91.2084083,75.4514817 85.664549,75.3753575 M126.342043,14.8714005 C130.900172,20.1892176 134.318769,26.7211375 136.597057,34.4694906 L94.6666206,34.4694906 C92.3106552,26.8741626 88.5510533,23.0749451 83.3862613,23.0749451 L83.0437026,23.0749451 C77.8027864,23.151846 73.0916324,26.4189712 68.9149011,32.8739901 C64.7366163,40.3947475 62.6478622,50.9169722 62.6478622,64.4367802 L62.6478622,65.1203442 C71.6872191,54.5623878 83.0809879,49.0542603 96.830722,48.5982921 L98.3120362,48.5982921 C114.79525,48.5982921 127.291265,56.8414523 135.800083,73.3238888 C136.067295,73.8435528 136.325185,74.3616632 136.578414,74.8805504 L158.335945,0 L99.3956405,0 C102.997557,0.679680096 106.361002,1.645991 109.478986,2.90747726 C116.239278,5.64173319 121.859262,9.6297076 126.342043,14.8714005 M54.3876129,145.000233 L0,145.000233 L22.7968588,64.7226343 C22.552174,68.3478537 22.4263361,72.1237679 22.4263361,76.0589215 C22.4263361,94.5174794 25.0844678,109.141865 30.4022849,119.92664 C36.0750892,131.447024 44.0727878,139.801263 54.3876129,145.000233" id="Fill-1" fill="#FFFFFF" mask="url(#mask-2)"></path>
            </g>
            <path d="M108.799306,143.982499 C100.781411,143.982499 99.2503832,138.362516 100.434192,134.467755 C101.477404,130.961382 106.777355,127.195566 111.723096,130.301898 L133.472082,143.982499 L108.799306,143.982499 Z" id="Fill-4" fill="#FFFFFF"></path>
            <path d="M109.985134,126.532354 C105.10775,123.365433 106.432155,117.217241 109.846868,114.7735 C112.703854,112.722808 119.04391,112.722808 121.345501,117.481345 C123.225302,121.378437 132.567602,141.338505 132.567602,141.338505 L109.985134,126.532354 Z" id="Fill-6" fill="#FFFFFF"></path>
            <path d="M135.703452,117.612155 C135.001246,122.235533 134.659464,123.762677 133.890454,128.647052 C133.338165,131.951463 132.567602,136.515806 132.567602,136.515806 L130.402724,131.824071 L125.804203,122.235533 L121.768845,113.382602 C119.81292,107.703584 124.901588,104.200319 128.107347,103.869411 C131.942297,103.472478 137.309828,106.379179 136.540818,111.796423 C136.540818,111.796423 136.193599,114.571072 135.703452,117.612155" id="Fill-8" fill="#FFFFFF"></path>
            <path d="M150.20433,120.520642 C147.832829,125.346759 145.319178,130.829253 145.319178,130.829253 L142.673474,136.515262 C142.673474,136.515262 141.561129,128.782445 140.579283,123.097989 C139.883291,118.866106 139.331002,117.150205 139.467715,115.036594 C139.608311,113.648493 142.817178,112.658879 143.234308,112.12834 C143.161291,111.796656 142.398495,111.731407 142.398495,111.731407 L138.840855,111.731407 C138.840855,107.966368 141.561129,104.329497 145.532792,103.868868 C149.018191,103.471935 152.84848,105.383583 153.757309,109.684599 C154.381061,112.658879 153.128896,114.70491 150.20433,120.520642" id="Fill-10" fill="#FFFFFF"></path>
            <path d="M166.507409,143.982499 L141.834633,143.982499 L163.582065,130.301898 C168.537128,127.195566 173.827757,130.961382 174.874076,134.467755 C176.060992,138.362516 174.526857,143.982499 166.507409,143.982499" id="Fill-12" fill="#FFFFFF"></path>
            <path d="M164.767661,126.996323 L153.683826,134.265404 L142.673785,141.269605 C142.673785,141.269605 148.459999,129.311896 149.505541,126.996323 C149.852761,126.144975 153.61547,118.342248 153.61547,118.342248 C156.47634,112.261635 163.021465,112.921896 165.671829,114.837429 C168.462013,116.818211 171.044021,122.900376 164.767661,126.996323" id="Fill-14" fill="#FFFFFF"></path>
            <g id="Group-18" transform="translate(158.374784, 42.857753)">
                <mask id="mask-4" fill="white">
                    <use xlink:href="#path-3"></use>
                </mask>
                <g id="Clip-17"></g>
                <polygon id="Fill-16" fill="#FFFFFF" mask="url(#mask-4)" points="55.1682741 22.1793209 37.1050958 22.1793209 37.1050958 4.11614266 37.1050958 0 32.9889532 0 26.2946868 0 22.1793209 0 22.1793209 4.11614266 22.1793209 22.1793209 4.11536589 22.1793209 0 22.1793209 0 26.2954636 0 32.9897299 0 37.1050958 4.11536589 37.1050958 22.1793209 37.1050958 22.1793209 55.1682741 22.1793209 59.2844167 26.2946868 59.2844167 32.9889532 59.2844167 37.1050958 59.2844167 37.1050958 55.1682741 37.1050958 37.1050958 55.1682741 37.1050958 59.2844167 37.1050958 59.2844167 32.9897299 59.2844167 26.2954636 59.2844167 22.1793209"></polygon>
            </g>
        </g>
    </g>
</svg>