<?xml version="1.0" encoding="UTF-8"?><svg id="Layer_2" xmlns="http://www.w3.org/2000/svg" viewBox="0 0 384.36 186.61"><defs><style>.cls-1{fill:#fff;}</style></defs><g id="Secondary_HZ_White"><g><g><path class="cls-1" d="M334.49,144.39c-15.21,19.43-38.86,31.95-65.38,31.95s-50.17-12.52-65.38-31.95h-12.65c16.69,25.41,45.43,42.22,78.04,42.22s61.35-16.81,78.04-42.22h-12.65Z"/><path class="cls-1" d="M203.73,42.22c15.21-19.43,38.86-31.95,65.38-31.95s50.17,12.52,65.38,31.95h12.65C330.46,16.81,301.71,0,269.11,0s-61.35,16.81-78.04,42.22h12.65Z"/></g><polygon class="cls-1" points="379.07 83.7 355.81 83.7 355.81 60.44 355.81 55.15 350.51 55.15 341.89 55.15 336.6 55.15 336.6 60.44 336.6 83.7 313.34 83.7 308.04 83.7 308.04 89 308.04 97.61 308.04 102.91 313.34 102.91 336.6 102.91 336.6 126.17 336.6 131.47 341.89 131.47 350.51 131.47 355.81 131.47 355.81 126.17 355.81 102.91 379.07 102.91 384.36 102.91 384.36 97.61 384.36 89 384.36 83.7 379.07 83.7"/><g><polygon class="cls-1" points="62.26 74.07 45.31 74.07 21.9 95.92 26.5 74.07 10.79 74.07 0 125.31 15.71 125.31 20.71 101.58 36.53 125.31 55.02 125.31 35.78 97.94 62.26 74.07"/><polygon class="cls-1" points="116.82 83.35 118.77 74.07 71.59 74.07 60.81 125.29 110.19 125.29 112.2 115.77 78.28 115.77 80.83 103.66 102.58 103.66 104.53 94.37 82.59 94.37 84.92 83.35 116.82 83.35"/><path class="cls-1" d="M164.26,74.07l-6.15,30.12c-.21-.35-15.73-30.12-15.73-30.12h-14.7l-10.79,51.24h14.12s6.31-31.81,6.53-33.28l17.46,33.28h12.59l10.79-51.24h-14.12Z"/><path class="cls-1" d="M212.55,95.61l-8.41-2.39c-4.08-1.12-8.37-2.6-7.6-6.24,.12-.56,1.24-4.98,9.29-4.98,5.46,0,9.41,2.67,10.96,5.75l12.79-5.61c-4.47-6.1-11.12-9.15-21.47-9.15-14.46,0-24.15,6.03-25.93,14.48-2.14,10.17,6.32,13.61,16.31,16.63,9.91,3.02,12.61,3.86,11.79,7.72-.99,4.7-7.26,5.82-10.62,5.82-6.04,0-10.17-2.67-11.84-7.02l-13.19,5.82c4.59,8.19,11.41,10.34,23.77,10.34,3.55,0,9.55-.76,14.05-2.56,10.89-4.37,12.33-11.21,12.82-13.53,1.02-4.84-1.34-8.21-2.03-9.05-2.19-2.81-6.73-4.91-10.72-6.03Z"/><path class="cls-1" d="M292.02,93.34l7.91-38.45H6.13l-1.73,10.99H240.24l-13.25,66.07h57.06s.14-.53,.14-.53c-.01,0-.02-.02-.03-.03l7.84-38.04s.01,0,.02,0Zm-57.66,17.67l13.71,.11c-.55,4.73,2.56,8.35,8.77,8.35,6.7,0,10.96-5.09,12.47-11.29,1.24-5.13-1.16-8.06-6.57-8.62-1.89-.2-7.17-.12-10.86,3.96l-10.88-1.9,14.46-31.55h34.72l-2.7,9.72h-23.32s-6.06,12.74-6.06,12.74c3.07-1.83,6.91-2.79,13.79-2.32,5.37,.37,9.7,3.12,11.46,7.96,1.6,4.77,1.16,15.28-6.92,22.53-.43,.39-.9,.76-1.38,1.12-.27,.21-.54,.42-.83,.63-.38,.27-.79,.53-1.2,.79-.45,.28-.91,.55-1.39,.82-.34,.19-.69,.37-1.05,.55-.61,.3-1.25,.58-1.92,.85-.32,.13-.63,.26-.96,.38-.73,.27-1.51,.51-2.3,.73-3.51,1-7.58,1.61-12.37,1.61-9.68,0-17.51-4.71-18.67-17.18Z"/></g></g></g></svg>