<?xml version="1.0" encoding="UTF-8" standalone="no"?>
<!DOCTYPE svg PUBLIC "-//W3C//DTD SVG 1.1//EN" "http://www.w3.org/Graphics/SVG/1.1/DTD/svg11.dtd">
<svg width="100%" height="100%" viewBox="0 0 734 161" version="1.1" xmlns="http://www.w3.org/2000/svg" xmlns:xlink="http://www.w3.org/1999/xlink" xml:space="preserve" xmlns:serif="http://www.serif.com/" style="fill-rule:evenodd;clip-rule:evenodd;stroke-linejoin:round;stroke-miterlimit:2;">
    <g id="NAVIGATION" transform="matrix(2.66667,0,0,2.66667,0,0)">
        <g transform="matrix(1,0,0,1,26.2207,28.3324)">
            <path d="M0,-7.972C-0.971,-9.533 -3.042,-12.782 -8.564,-12.782C-13.122,-12.782 -17.802,-10.166 -17.802,-3.712C-17.802,1.14 -13.667,4.807 -8.269,4.807C-4.683,4.807 -1.604,3.754 0.715,-0.255L3.669,1.392C1.729,4.767 -1.479,7.719 -8.351,7.719C-16.286,7.719 -21.221,2.573 -21.221,-4.049C-21.221,-11.644 -15.399,-15.691 -8.564,-15.691C-1.9,-15.691 1.264,-12.528 2.95,-9.66L0,-7.972Z" style="fill-rule:nonzero;"/>
        </g>
        <g transform="matrix(1,0,0,1,57.5981,13.993)">
            <path d="M0,21.383L-3.416,21.383L-3.416,18.178C-5.736,20.201 -8.774,22.059 -12.696,22.059C-15.439,22.059 -21.808,21.427 -21.808,13.876L-21.808,-0.676L-18.389,-0.676L-18.389,13.2C-18.475,18.431 -14.681,19.146 -12.276,19.146C-8.519,19.146 -5.398,16.829 -3.416,14.719L-3.416,-0.676L0,-0.676L0,21.383Z" style="fill-rule:nonzero;"/>
        </g>
        <g transform="matrix(1,0,0,1,-6,-25.913)">
            <rect x="70.596" y="30.624" width="3.419" height="30.665"/>
        </g>
        <g transform="matrix(1,0,0,1,89.2329,25.8016)">
            <path d="M0,-9.575L-8.774,-9.575L-8.774,3.754C-8.774,6.157 -7.721,7.338 -4.263,7.338C-2.618,7.338 -1.267,7.045 0.587,6.666L0.587,9.618C-1.857,9.997 -3.586,10.25 -4.981,10.25C-12.194,10.25 -12.194,5.863 -12.194,4.091L-12.194,-9.575L-16.876,-9.575L-16.876,-12.485L-12.194,-12.485L-12.194,-19.825L-8.774,-19.825L-8.774,-12.485L0,-12.485L0,-9.575Z" style="fill-rule:nonzero;"/>
        </g>
        <g transform="matrix(1,0,0,1,116.394,13.993)">
            <path d="M0,21.383L-3.416,21.383L-3.416,18.178C-5.739,20.201 -8.774,22.059 -12.699,22.059C-15.439,22.059 -21.808,21.427 -21.808,13.876L-21.808,-0.676L-18.392,-0.676L-18.392,13.2C-18.475,18.431 -14.678,19.146 -12.276,19.146C-8.522,19.146 -5.398,16.829 -3.416,14.719L-3.416,-0.676L0,-0.676L0,21.383Z" style="fill-rule:nonzero;"/>
        </g>
        <g transform="matrix(1,0,0,1,123.563,34.7009)">
            <path d="M0,-21.384L3.416,-21.384L3.416,-16.787C5.398,-19.024 8.178,-22.059 12.61,-22.059C13.369,-22.059 14.002,-22.018 14.635,-21.892L14.635,-18.474C14.215,-18.518 13.369,-18.77 11.895,-18.77C7.042,-18.77 3.541,-13.159 3.416,-12.527L3.416,0.675L0,0.675L0,-21.384Z" style="fill-rule:nonzero;"/>
        </g>
        <g transform="matrix(1,0,0,1,162.702,26.5624)">
            <path d="M0,-4.432C-0.676,-8.059 -3.793,-11.012 -9.024,-11.012C-14.044,-11.012 -16.87,-8.478 -17.841,-4.432L0,-4.432ZM3.078,4.218C0.804,6.62 -1.389,9.489 -8.899,9.489C-16.325,9.489 -21.388,4.427 -21.388,-2.322C-21.388,-9.324 -16.112,-13.921 -9.323,-13.921C-2.277,-13.921 3.882,-10.252 3.714,-1.52L-17.966,-1.52C-17.631,2.614 -14.297,6.577 -8.562,6.577C-2.868,6.577 -0.968,4.006 0.423,2.278L3.078,4.218Z" style="fill-rule:nonzero;"/>
        </g>
        <g transform="matrix(1,0,0,1,171.936,34.7009)">
            <path d="M0,-21.384L3.291,-21.384L3.291,-18.304C5.824,-20.458 8.439,-22.059 12.068,-22.059C16.873,-22.059 18.182,-19.739 19.068,-18.138C22.526,-21.046 24.804,-22.059 28.052,-22.059C30.077,-22.059 36.151,-21.64 36.151,-15.269L36.151,0.675L32.735,0.675L32.735,-14.005C32.735,-15.352 32.735,-19.15 27.882,-19.15C24.043,-19.15 21.217,-16.616 19.783,-15.269L19.783,0.675L16.368,0.675L16.368,-14.005C16.368,-15.352 16.368,-19.15 11.6,-19.15C7.678,-19.15 4.853,-16.616 3.416,-15.269L3.416,0.675L0,0.675L0,-21.384Z" style="fill:rgb(0,172,200);fill-rule:nonzero;"/>
        </g>
        <g transform="matrix(1,0,0,1,233.307,25.5075)">
            <path d="M0,-2.322C-10.036,-1.35 -16.786,-0.423 -16.786,3.839C-16.786,7.297 -12.904,7.76 -11.224,7.76C-6.451,7.76 -2.198,5.482 0,4.3L0,-2.322ZM3.419,6.451C3.419,7.76 3.583,8.686 3.794,9.868L0.375,9.868C0.213,9.194 -0.042,8.099 -0.042,7.213C-3.251,9.28 -6.835,10.544 -11.053,10.544C-14.679,10.544 -20.038,9.533 -20.038,3.839C-20.038,-3.797 -8.608,-4.093 0,-5.105L0,-5.949C0,-8.945 -3.583,-10.083 -7.089,-10.083C-12.95,-10.083 -15.017,-7.637 -16.113,-6.37L-18.686,-8.143C-17.422,-9.703 -15.017,-12.866 -7.339,-12.866C-2.32,-12.866 3.419,-11.39 3.419,-5.736L3.419,6.451Z" style="fill:rgb(0,172,200);fill-rule:nonzero;"/>
        </g>
        <g transform="matrix(1,0,0,1,247.477,26.9829)">
            <path d="M0,1.814C2.021,3.922 4.893,6.156 9.66,6.156C14.215,6.156 19.104,3.798 19.104,-2.912C19.104,-7.464 15.566,-11.432 9.575,-11.432C5.903,-11.432 2.109,-9.025 0,-6.749L0,1.814ZM-3.416,-13.666L0,-13.666L0,-10.333C3.166,-12.908 5.397,-14.341 10.464,-14.341C18.982,-14.341 22.523,-7.846 22.523,-2.826C22.523,2.275 19.32,9.069 9.867,9.069C5.312,9.069 3.035,7.592 0,5.356L0,16.155L-3.416,16.155L-3.416,-13.666Z" style="fill:rgb(0,172,200);fill-rule:nonzero;"/>
        </g>
        <g transform="matrix(1,0,0,1,79.1279,49.3244)">
            <path d="M0,2.411L-2.433,-2.469L-4.865,2.411L0,2.411ZM-3.105,-3.329L-1.757,-3.329L2.896,5.74L1.659,5.74L0.484,3.382L-5.361,3.382L-6.549,5.74L-7.773,5.74L-3.105,-3.329Z" style="fill-rule:nonzero;"/>
        </g>
        <g transform="matrix(1,0,0,1,106.648,49.9489)">
            <path d="M0,1.387C0,4.666 -2.558,5.34 -4.665,5.34C-6.771,5.34 -9.329,4.666 -9.329,1.387L-9.329,-3.953L-8.232,-3.953L-8.232,1.387C-8.232,3.47 -6.896,4.417 -4.665,4.417C-2.433,4.417 -1.096,3.47 -1.096,1.387L-1.096,-3.953L0,-3.953L0,1.387Z" style="fill-rule:nonzero;"/>
        </g>
        <g transform="matrix(1,0,0,1,121.612,48.5907)">
            <path d="M0,3.879C0.524,4.578 1.397,5.727 4.116,5.727C5.514,5.727 7.42,5.327 7.42,3.918C7.42,1.16 -0.487,3.578 -0.487,-0.099C-0.487,-2.033 1.297,-2.819 3.769,-2.819C6.162,-2.819 7.636,-1.834 8.26,-0.962L7.459,-0.313C7.085,-0.735 6.214,-1.896 3.745,-1.896C1.921,-1.896 0.637,-1.422 0.637,-0.275C0.637,2.471 8.546,-0.15 8.546,3.918C8.546,5.44 7.073,6.698 3.992,6.698C1.023,6.698 -0.076,5.465 -0.85,4.601L0,3.879Z" style="fill-rule:nonzero;"/>
        </g>
        <g transform="matrix(1,0,0,1,148.52,54.0913)">
            <path d="M0,-7.123L-4.378,-7.123L-4.378,-8.096L5.477,-8.096L5.477,-7.123L1.096,-7.123L1.096,0.973L0,0.973L0,-7.123Z" style="fill-rule:nonzero;"/>
        </g>
        <g transform="matrix(1,0,0,1,-6,35.061)">
            <rect x="178.07" y="10.935" width="1.096" height="9.069"/>
        </g>
        <g transform="matrix(1,0,0,1,192.855,55.0646)">
            <path d="M0,-9.069L1.562,-9.069L8.312,-1.61L8.312,-9.069L9.408,-9.069L9.408,0L8.312,0L1.05,-8.096L1.05,0L0,0L0,-9.069Z" style="fill-rule:nonzero;"/>
        </g>
    </g>
</svg>
