<?xml version="1.0" encoding="UTF-8"?>
<svg class="logo" xmlns="http://www.w3.org/2000/svg" viewBox="0 0 704 207" width="100%" height="100%">
  <path fill="#FFB700" d="M19.14 17.854h157.885v153.19H19.14z"></path>
  <g fill="#fff">
    <path d="M462.088 154.227h6.94c3.802 0 6.51.34 8.122 1.018 1.61.68 2.91 1.806 3.89 3.382.983 1.576 1.475 3.438 1.475 5.593 0 2.262-.542 4.152-1.626 5.674s-2.72 2.672-4.9 3.45l8.15 15.306h-7.16l-7.74-14.578h-.6v14.578h-6.552v-34.423zm6.552 13.453h2.054c2.083 0 3.518-.272 4.303-.82.785-.55 1.18-1.455 1.18-2.724 0-.752-.194-1.403-.584-1.96-.39-.556-.91-.956-1.562-1.197-.652-.243-1.85-.364-3.593-.364h-1.795l-.002 7.064zM488.663 154.227h18.79v6.412h-12.285v7.284h12.284v6.295h-12.284v7.99h12.284v6.436h-18.79M524.06 154.227h6.646l13.24 34.42h-6.812l-2.692-7.09h-14.044l-2.8 7.09h-6.812l13.274-34.42zm3.364 9.125l-4.618 11.816h9.208l-4.59-11.816zM547.404 154.227h6.55v28.17h9.548v6.25h-16.098M563.977 154.227H583v6.46h-6.27v27.96h-6.647v-27.96h-6.106M602.138 153.36c4.87 0 9.058 1.763 12.562 5.288 3.504 3.525 5.257 7.822 5.257 12.893 0 5.022-1.73 9.274-5.188 12.754-3.458 3.478-7.653 5.218-12.587 5.218-5.166 0-9.46-1.787-12.877-5.36-3.418-3.568-5.127-7.812-5.127-12.727 0-3.292.795-6.317 2.388-9.08 1.593-2.76 3.78-4.948 6.566-6.562s5.788-2.424 9.004-2.424m-.07 6.41c-3.188 0-5.864 1.107-8.035 3.322-2.17 2.216-3.256 5.032-3.256 8.447 0 3.807 1.365 6.816 4.1 9.03 2.123 1.73 4.56 2.598 7.307 2.598 3.108 0 5.756-1.123 7.94-3.37 2.187-2.244 3.28-5.013 3.28-8.306 0-3.275-1.103-6.05-3.304-8.318-2.2-2.27-4.878-3.403-8.033-3.403M624.266 154.227h6.94c3.802 0 6.51.34 8.122 1.018 1.612.68 2.91 1.806 3.89 3.382.983 1.576 1.476 3.438 1.476 5.593 0 2.262-.542 4.152-1.626 5.674s-2.72 2.672-4.9 3.45l8.152 15.306h-7.162l-7.74-14.578h-.6v14.578h-6.552v-34.423zm6.55 13.453h2.054c2.083 0 3.52-.272 4.303-.82.785-.55 1.18-1.455 1.18-2.724 0-.752-.194-1.403-.584-1.96-.39-.556-.91-.956-1.563-1.197-.653-.243-1.85-.364-3.592-.364h-1.796l-.003 7.064zM670.226 158.906l-4.854 4.28c-1.703-2.37-3.438-3.557-5.204-3.557-.857 0-1.562.23-2.11.69-.546.46-.818.978-.818 1.555s.194 1.123.587 1.638c.53.688 2.133 2.16 4.804 4.424 2.5 2.092 4.02 3.408 4.55 3.953 1.326 1.344 2.27 2.625 2.823 3.85.555 1.226.832 2.563.832 4.014 0 2.823-.976 5.155-2.928 6.996-1.952 1.842-4.498 2.76-7.637 2.76-2.45 0-4.587-.6-6.406-1.8-1.82-1.2-3.377-3.09-4.673-5.663l5.51-3.322c1.654 3.043 3.56 4.562 5.716 4.562 1.125 0 2.07-.328 2.836-.983.767-.653 1.15-1.41 1.15-2.27 0-.78-.29-1.56-.87-2.34-.577-.78-1.852-1.974-3.82-3.58-3.75-3.058-6.172-5.416-7.265-7.077-1.095-1.66-1.642-3.318-1.642-4.973 0-2.388.908-4.436 2.73-6.144s4.062-2.562 6.734-2.562c1.718 0 3.353.396 4.905 1.19 1.555.802 3.238 2.252 5.05 4.358M274.24 63.97l-11.994 11.86c-7.59-8.028-16.438-12.043-26.544-12.043-8.808 0-16.184 2.92-22.13 8.76-5.946 5.84-8.92 12.936-8.92 21.29 0 8.636 3.086 15.957 9.256 21.957 6.17 6.002 13.782 9.003 22.835 9.003 5.886 0 10.85-1.236 14.888-3.71s7.298-6.348 9.775-11.62h-25.913V93.472h45.012l.122 3.772c0 7.826-2.03 15.248-6.083 22.263-4.056 7.015-9.307 12.37-15.754 16.058-6.45 3.69-14.012 5.535-22.69 5.535-9.286 0-17.57-2.018-24.847-6.052-7.28-4.035-13.038-9.782-17.275-17.245-4.238-7.46-6.356-15.51-6.356-24.146 0-11.84 3.913-22.14 11.74-30.9 9.285-10.422 21.37-15.633 36.252-15.633 7.786 0 15.064 1.44 21.837 4.32 5.72 2.433 11.315 6.61 16.79 12.53M315.646 73.234c6.064 0 11.766 1.517 17.103 4.55 5.336 3.032 9.5 7.147 12.494 12.346 2.993 5.2 4.49 10.812 4.49 16.838 0 6.065-1.508 11.736-4.52 17.015s-7.12 9.403-12.318 12.377c-5.2 2.975-10.93 4.46-17.192 4.46-9.216 0-17.084-3.277-23.602-9.837-6.52-6.558-9.777-14.52-9.777-23.896 0-10.043 3.682-18.413 11.047-25.108 6.46-5.83 13.885-8.746 22.274-8.746m.266 15.183c-5.01 0-9.184 1.743-12.517 5.23-3.334 3.484-5 7.945-5 13.38 0 5.593 1.647 10.12 4.94 13.588 3.295 3.466 7.468 5.2 12.52 5.2 5.048 0 9.25-1.753 12.603-5.26 3.352-3.505 5.03-8.015 5.03-13.528 0-5.514-1.648-9.993-4.942-13.44-3.294-3.446-7.505-5.17-12.634-5.17"></path>
    <path d="M379.902 73.234c6.062 0 11.765 1.517 17.103 4.55 5.336 3.032 9.5 7.147 12.494 12.346 2.993 5.2 4.49 10.812 4.49 16.838 0 6.065-1.506 11.736-4.52 17.015-3.015 5.278-7.12 9.403-12.317 12.377-5.2 2.975-10.93 4.46-17.192 4.46-9.217 0-17.083-3.277-23.6-9.837-6.522-6.558-9.78-14.52-9.78-23.896 0-10.043 3.685-18.413 11.05-25.108 6.46-5.83 13.882-8.746 22.272-8.746m.265 15.183c-5.01 0-9.183 1.743-12.516 5.23-3.333 3.484-5 7.945-5 13.38 0 5.593 1.646 10.12 4.94 13.588 3.294 3.466 7.467 5.2 12.517 5.2s9.253-1.753 12.604-5.26c3.355-3.505 5.03-8.015 5.03-13.528 0-5.514-1.647-9.993-4.94-13.44-3.292-3.446-7.503-5.17-12.633-5.17"></path>
    <path d="M462.204 46.994v31.312c-.286-.174-.562-.356-.854-.523-5.338-3.032-11.04-4.55-17.104-4.55-8.39 0-15.812 2.916-22.27 8.745-7.367 6.696-11.05 15.065-11.05 25.108 0 9.374 3.258 17.34 9.777 23.896 6.52 6.56 14.385 9.838 23.603 9.838 6.264 0 11.992-1.487 17.19-4.46.243-.14.472-.294.708-.438v5.302h16.13v-94.23h-16.13zm-5.146 73.563c-3.354 3.506-7.558 5.258-12.605 5.258s-9.222-1.732-12.515-5.198c-3.295-3.466-4.942-7.995-4.942-13.59 0-5.435 1.667-9.895 5-13.38 3.333-3.485 7.506-5.228 12.518-5.228 5.13 0 9.34 1.723 12.635 5.17 3.293 3.446 4.94 7.925 4.94 13.438-.002 5.514-1.68 10.023-5.032 13.53M481.612 73.76h16.57l13.565 38.385 14.597-38.384h10.135l14.332 37.95 13.583-37.95h16.676l-24.616 67.465H545.73l-14.387-38.445-14.822 38.445h-10.6M594.156 47.12c2.967 0 5.512 1.077 7.635 3.225 2.123 2.15 3.186 4.755 3.186 7.813 0 3.02-1.052 5.592-3.153 7.72-2.103 2.13-4.616 3.193-7.54 3.193-3.013 0-5.577-1.084-7.7-3.254s-3.185-4.805-3.185-7.906c0-2.976 1.052-5.518 3.152-7.627 2.102-2.108 4.638-3.162 7.606-3.162m-8.464 26.64h16.928v67.465h-16.928V73.76zM668.416 92.315c-1.805-5.736-4.922-10.207-9.354-13.415s-10.236-4.813-17.415-4.813c-4.962 0-9.27.773-12.923 2.317V73.76h-16.928v67.465h17.455V109.16c0-6.176.343-10.207 1.026-12.092.925-2.526 2.34-4.442 4.25-5.745 1.91-1.303 4.232-1.955 6.966-1.955 2.735 0 5.037.662 6.905 1.986 1.87 1.323 3.226 3.177 4.07 5.564.844 2.386 1.266 6.648 1.266 12.784v31.523h16.604v-27.252c.002-10.467-.64-17.686-1.924-21.658M688.274 162.495c0 2.362-.825 4.373-2.478 6.03-1.648 1.658-3.646 2.486-5.988 2.486-2.342 0-4.345-.83-6.01-2.495-1.65-1.658-2.476-3.672-2.476-6.04 0-1.313.268-2.51.804-3.59.543-1.147 1.298-2.122 2.265-2.92 1.58-1.305 3.355-1.956 5.322-1.956 1.305 0 2.487.245 3.545.738 1.502.656 2.712 1.696 3.63 3.122.925 1.435 1.387 2.975 1.387 4.625m-8.528-7.247c-1.935 0-3.59.712-4.973 2.138-1.39 1.433-2.084 3.132-2.084 5.1 0 2.01.692 3.73 2.083 5.163 1.383 1.424 3.062 2.137 5.035 2.137 1.953 0 3.625-.71 5.017-2.127 1.382-1.425 2.073-3.146 2.073-5.163 0-1.08-.27-2.193-.814-3.344-.537-1.08-1.25-1.938-2.138-2.57-1.248-.892-2.648-1.335-4.2-1.335m.89 8.072l3.186 4.095h-2.286l-2.91-3.883v3.883h-1.872v-9.797h1.957c1.37 0 2.368.243 2.995.73.7.562 1.048 1.3 1.048 2.21 0 .613-.188 1.182-.56 1.703-.375.51-.853.85-1.43 1.017l-.128.043zm-2.022-1.354h.315c1.34 0 2.012-.462 2.012-1.386 0-.86-.65-1.29-1.947-1.29h-.38v2.676z"></path>
  </g>
  <path fill="#111820" d="M62.578 141.225h.014c9.3-.088 17.112-3.176 23.21-9.166 6.082-5.848 9.25-13.82 9.417-23.73V46.994H78.99v59.876c-.074 5.74-1.628 10.14-4.63 13.086-3.114 3.136-6.968 4.66-11.782 4.66-4.807 0-8.617-1.52-11.687-4.687-3.06-2.934-4.65-7.327-4.724-13.062l-.018-1.457h-16.21v2.965c.082 9.89 3.318 17.864 9.59 23.683 6.148 5.993 13.898 9.077 23.036 9.166h.014zm77.79 0c7.343 0 13.56-2.574 18.453-7.62 4.964-4.855 7.524-11.505 7.61-19.78 0-4.995-1.233-9.687-3.695-14-2.124-3.367-5.076-5.86-8.803-7.436 1.504-.91 2.84-1.88 3.983-2.897 1.865-1.568 3.323-3.26 4.356-5.072 1.935-3.632 2.87-7.5 2.782-11.463 0-7.714-2.368-14.025-7.038-18.758-4.63-4.693-11.572-7.116-20.642-7.204h-35.745v94.23h38.74zm-22.382-15.99v-24.51h19.146c4.522.074 7.833 1.275 9.835 3.56 2.088 2.423 3.103 5.266 3.103 8.693 0 3.344-1.015 6.146-3.11 8.576-2.01 2.365-5.315 3.604-9.803 3.68h-19.17zm0-39.743v-23.26h17.84c4.46.077 7.743 1.173 9.727 3.23 2.105 2.296 3.128 5.033 3.128 8.37 0 3.32-1.013 5.986-3.15 8.206-2 2.292-5.256 3.454-9.678 3.454h-17.866z"></path>
</svg>
