<?xml version="1.0" encoding="UTF-8"?>
<svg width="325px" height="85px" viewBox="0 0 325 85" version="1.1" xmlns="http://www.w3.org/2000/svg" xmlns:xlink="http://www.w3.org/1999/xlink">
    <!-- Generator: Sketch 52.5 (67469) - http://www.bohemiancoding.com/sketch -->
    <title>logo_NO_taglineWHITE</title>
    <desc>Created with Sketch.</desc>
    <g id="Symbols/Components" stroke="none" stroke-width="1" fill="none" fill-rule="evenodd">
        <g id="Footer" transform="translate(-964.000000, -89.000000)" fill="#FFFFFE">
            <path d="M1158.94023,146.755335 C1158.97991,145.793918 1159,144.80387 1159,143.784687 L1159,89 L1141.80325,89 L1141.80325,143.570202 C1141.80325,153.491783 1137.65411,157.363068 1127.00025,157.365077 C1116.34589,157.363068 1112.19675,153.491783 1112.19675,143.570202 L1112.19675,89 L1095,89 L1095,143.784687 C1095,148.031699 1095.34405,151.770374 1096.06679,155.039895 C1099.04316,168.511787 1108.47051,174 1126.99372,174 L1127.00678,174 C1148.94684,174 1158.12758,166.304144 1158.94023,146.755335 Z M1199.82299,132 L1183,132 L1183,105 L1199.57735,105 C1207.00776,105 1212,110.296648 1212,118.177587 C1212,126.316157 1206.99296,132 1199.82299,132 Z M1228.4395,165.061418 L1217.40302,142.128513 L1217.3731,142.067524 C1218.33153,141.563614 1219.59416,140.561793 1219.59416,140.561793 C1226.01149,135.345224 1229,128.115015 1229,117.810855 C1229,98.1563649 1219.4286,89 1198.87407,89 L1166,89 L1166,173 L1182.94219,173 L1182.94219,147.809998 L1199.66795,147.809998 L1212.33806,173 L1228.4395,173 L1228.4395,165.061418 Z M1090,156.910373 L1055.0395,156.910373 L1090,105.140118 L1090,89 L1034,89 L1034,105.089627 L1068.95999,105.089627 L1034,156.859882 L1034,173 L1090,173 L1090,156.910373 Z M996.500252,105 L1009,145 L984,145 L996.500252,105 Z M980.38549,160.972648 L1012.61401,160.972648 L1012.61401,173 L1029,173 L1029,157.063846 L1007.60213,89 L985.397363,89 L964,157.063846 L964,173 L980.38549,173 L980.38549,160.972648 Z M1289,105.112623 L1289,89 L1234,89 L1234,173 L1289,173 L1289,156.887377 L1250.91247,156.887377 L1250.91247,139.368006 L1283.6009,139.368006 L1283.6009,122.631494 L1250.91247,122.631494 L1250.91247,105.112623 L1289,105.112623 Z" id="logo_NO_taglineWHITE"></path>
        </g>
    </g>
</svg>