<?xml version="1.0" encoding="utf-8"?>
<!-- Generator: Adobe Illustrator 26.5.0, SVG Export Plug-In . SVG Version: 6.00 Build 0)  -->
<svg version="1.1" id="Layer_1" xmlns="http://www.w3.org/2000/svg" xmlns:xlink="http://www.w3.org/1999/xlink" x="0px" y="0px"
	 viewBox="0 0 157 36.5" style="enable-background:new 0 0 157 36.5;" xml:space="preserve">
<style type="text/css">
	.st0{fill:#415896;}
	.st1{fill:#F5BC41;}
	.st2{fill:#FFFFFF;}
</style>
<path class="st0" d="M18.1,36.3c10,0,18.1-8.1,18.1-18c0-10-8.1-18-18.1-18C8.1,0.2,0,8.3,0,18.3C0,28.2,8.1,36.3,18.1,36.3z"/>
<path class="st1" d="M13.7,20.3L3,28.2c0.6,1,1.4,1.9,2.3,2.7c0.9,0.9,1.8,1.6,2.8,2.3l8-10.6"/>
<path class="st2" d="M36.2,0.2c0,0-13.4,0.1-19.6,10.9c-3.2-0.9-4.2,0.5-4.2,0.5l-4.5,4.5l5.5,0.6c0.2,0,0.4,0.1,0.5,0.3
	c0.2,0.2,0.3,0.5,0.2,0.8c-0.2,0.8-0.3,1.6-0.4,2.5l1.2,1.2l1.2,1.2c0.9-0.1,1.7-0.2,2.5-0.4c0.3-0.1,0.6,0,0.8,0.2
	c0.1,0.1,0.2,0.3,0.3,0.5l0.6,5.4l4.5-4.5c0,0,1.4-1,0.5-4.2C36,13.6,36.2,0.2,36.2,0.2z M26.2,10.2c-1-1-1-2.5,0-3.5
	c1-1,2.5-1,3.5,0c1,1,1,2.5,0,3.5C28.7,11.2,27.2,11.2,26.2,10.2z"/>
<path class="st2" d="M53.3,20.1h-2.7v5.3h-2.4V11.7h4.8c1.6,0,2.8,0.4,3.7,1.1c0.9,0.7,1.3,1.7,1.3,3.1c0,0.9-0.2,1.7-0.7,2.3
	c-0.4,0.6-1.1,1.1-1.8,1.4l3.1,5.7v0.1h-2.6L53.3,20.1z M50.7,18.2h2.5c0.8,0,1.4-0.2,1.9-0.6c0.4-0.4,0.7-1,0.7-1.7
	c0-0.7-0.2-1.3-0.6-1.7c-0.4-0.4-1-0.6-1.9-0.6h-2.5L50.7,18.2L50.7,18.2z"/>
<path class="st2" d="M59.4,20.2c0-1,0.2-1.9,0.6-2.7c0.4-0.8,1-1.4,1.7-1.8c0.7-0.4,1.5-0.6,2.5-0.6c1.4,0,2.5,0.4,3.4,1.3
	c0.9,0.9,1.3,2.1,1.4,3.5l0,0.5c0,1-0.2,1.9-0.6,2.7c-0.4,0.8-0.9,1.4-1.7,1.8c-0.7,0.4-1.6,0.6-2.5,0.6c-1.4,0-2.6-0.5-3.5-1.4
	c-0.9-1-1.3-2.2-1.3-3.8L59.4,20.2L59.4,20.2z M61.7,20.4c0,1.1,0.2,1.9,0.6,2.5c0.4,0.6,1,0.9,1.8,0.9c0.8,0,1.4-0.3,1.8-0.9
	c0.4-0.6,0.6-1.5,0.6-2.7c0-1-0.2-1.8-0.7-2.5c-0.4-0.6-1-0.9-1.8-0.9c-0.7,0-1.3,0.3-1.8,0.9C62,18.3,61.7,19.2,61.7,20.4z"/>
<path class="st2" d="M74.8,23.8c0.6,0,1-0.2,1.4-0.5c0.4-0.3,0.6-0.7,0.6-1.2H79c0,0.6-0.2,1.2-0.6,1.8c-0.4,0.5-0.9,1-1.5,1.3
	c-0.6,0.3-1.3,0.5-2.1,0.5c-1.4,0-2.6-0.5-3.4-1.4c-0.8-0.9-1.3-2.2-1.3-3.8v-0.2c0-1.5,0.4-2.8,1.2-3.7c0.8-0.9,2-1.4,3.4-1.4
	c1.2,0,2.2,0.3,3,1.1c0.8,0.7,1.2,1.6,1.2,2.8h-2.2c0-0.6-0.2-1.1-0.6-1.4c-0.4-0.4-0.9-0.6-1.4-0.6c-0.7,0-1.3,0.3-1.7,0.8
	c-0.4,0.5-0.6,1.3-0.6,2.4v0.4c0,1.1,0.2,1.9,0.6,2.5C73.5,23.5,74.1,23.8,74.8,23.8z"/>
<path class="st2" d="M83.8,21l-1,1v3.3h-2.3V10.9h2.3v8.3l0.7-0.9l2.8-3.2h2.8l-3.8,4.2l4.2,5.9h-2.7L83.8,21z"/>
<path class="st2" d="M94.7,25.6c-1.5,0-2.6-0.5-3.5-1.4c-0.9-0.9-1.4-2.1-1.4-3.7v-0.3c0-1,0.2-1.9,0.6-2.7c0.4-0.8,0.9-1.4,1.7-1.9
	c0.7-0.4,1.5-0.7,2.4-0.7c1.4,0,2.5,0.4,3.2,1.3c0.8,0.9,1.1,2.1,1.1,3.8V21h-6.7c0.1,0.8,0.3,1.5,0.8,2c0.5,0.5,1.1,0.7,1.9,0.7
	c1.1,0,1.9-0.4,2.6-1.3l1.2,1.2c-0.4,0.6-1,1.1-1.6,1.4C96.3,25.4,95.5,25.6,94.7,25.6z M94.4,16.9c-0.6,0-1.1,0.2-1.5,0.7
	c-0.4,0.4-0.6,1.1-0.7,1.8h4.4v-0.2c0-0.8-0.2-1.3-0.6-1.7C95.5,17.1,95,16.9,94.4,16.9z"/>
<path class="st2" d="M103.2,12.7v2.5h1.8v1.7h-1.8v5.7c0,0.4,0.1,0.7,0.2,0.8c0.1,0.2,0.4,0.3,0.8,0.3c0.3,0,0.5,0,0.8-0.1v1.8
	c-0.5,0.1-1,0.2-1.5,0.2c-1.8,0-2.6-1-2.6-2.9v-5.8h-1.7v-1.7h1.7v-2.5L103.2,12.7L103.2,12.7z"/>
<path class="st2" d="M111.8,20.1h-2.7v5.3h-2.4V11.7h4.8c1.6,0,2.8,0.4,3.7,1.1s1.3,1.7,1.3,3.1c0,0.9-0.2,1.7-0.7,2.3
	c-0.4,0.6-1.1,1.1-1.8,1.4l3.1,5.7v0.1h-2.6L111.8,20.1z M109.1,18.2h2.5c0.8,0,1.4-0.2,1.9-0.6c0.4-0.4,0.7-1,0.7-1.7
	c0-0.7-0.2-1.3-0.6-1.7c-0.4-0.4-1-0.6-1.9-0.6h-2.5L109.1,18.2L109.1,18.2z"/>
<path class="st2" d="M122.8,25.6c-1.5,0-2.6-0.5-3.5-1.4c-0.9-0.9-1.4-2.1-1.4-3.7v-0.3c0-1,0.2-1.9,0.6-2.7
	c0.4-0.8,0.9-1.4,1.7-1.9c0.7-0.4,1.5-0.7,2.4-0.7c1.4,0,2.5,0.4,3.2,1.3c0.8,0.9,1.1,2.1,1.1,3.8V21h-6.7c0.1,0.8,0.3,1.5,0.8,2
	c0.5,0.5,1.1,0.7,1.9,0.7c1.1,0,1.9-0.4,2.6-1.3l1.2,1.2c-0.4,0.6-1,1.1-1.6,1.4C124.4,25.4,123.7,25.6,122.8,25.6z M122.5,16.9
	c-0.6,0-1.1,0.2-1.5,0.7c-0.4,0.4-0.6,1.1-0.7,1.8h4.4v-0.2c0-0.8-0.2-1.3-0.6-1.7C123.7,17.1,123.2,16.9,122.5,16.9z"/>
<path class="st2" d="M134.6,25.4c-0.1-0.2-0.2-0.5-0.3-1c-0.7,0.8-1.6,1.1-2.7,1.1c-1,0-1.9-0.3-2.5-0.9c-0.6-0.6-1-1.3-1-2.2
	c0-1.1,0.4-1.9,1.2-2.5c0.8-0.6,2-0.9,3.5-0.9h1.4v-0.7c0-0.5-0.1-1-0.4-1.3c-0.3-0.3-0.7-0.5-1.4-0.5c-0.5,0-1,0.1-1.3,0.4
	c-0.3,0.3-0.5,0.6-0.5,1h-2.3c0-0.6,0.2-1.1,0.6-1.6c0.4-0.5,0.9-0.9,1.5-1.1c0.6-0.3,1.4-0.4,2.1-0.4c1.2,0,2.1,0.3,2.9,0.9
	c0.7,0.6,1.1,1.4,1.1,2.5V23c0,0.9,0.1,1.6,0.4,2.2v0.2H134.6L134.6,25.4z M132,23.7c0.4,0,0.9-0.1,1.3-0.3s0.7-0.5,0.9-0.9v-1.9
	H133c-0.8,0-1.5,0.1-1.9,0.4c-0.4,0.3-0.6,0.7-0.6,1.3c0,0.4,0.1,0.8,0.4,1.1C131.1,23.6,131.5,23.7,132,23.7z"/>
<path class="st2" d="M142.9,23.8c0.6,0,1-0.2,1.4-0.5c0.4-0.3,0.6-0.7,0.6-1.2h2.2c0,0.6-0.2,1.2-0.6,1.8c-0.4,0.5-0.9,1-1.5,1.3
	c-0.6,0.3-1.3,0.5-2.1,0.5c-1.4,0-2.6-0.5-3.4-1.4c-0.8-0.9-1.3-2.2-1.3-3.8v-0.2c0-1.5,0.4-2.8,1.2-3.7c0.8-0.9,2-1.4,3.4-1.4
	c1.2,0,2.2,0.3,3,1.1c0.8,0.7,1.2,1.6,1.2,2.8h-2.2c0-0.6-0.2-1.1-0.6-1.4c-0.4-0.4-0.9-0.6-1.4-0.6c-0.7,0-1.3,0.3-1.7,0.8
	c-0.4,0.5-0.6,1.3-0.6,2.4v0.4c0,1.1,0.2,1.9,0.6,2.5C141.5,23.5,142.1,23.8,142.9,23.8z"/>
<path class="st2" d="M150.8,16.3c0.7-0.9,1.7-1.3,2.8-1.3c2.2,0,3.3,1.2,3.3,3.7v6.7h-2.3v-6.6c0-0.7-0.1-1.2-0.5-1.5
	c-0.3-0.3-0.8-0.4-1.3-0.4c-0.9,0-1.6,0.4-2.1,1.2v7.3h-2.3V10.9h2.3V16.3L150.8,16.3z"/>
</svg>
