<?xml version="1.0" encoding="UTF-8"?><svg id="Calque_1" xmlns="http://www.w3.org/2000/svg" viewBox="0 0 276.91 149.8"><defs><style>.cls-1{fill:#fff;}.cls-2{fill:#b7904b;}</style></defs><path class="cls-1" d="M108.18,74.86H37.39v70.79c0,2.31,1.85,4.15,4.15,4.15h29.16c2.31,0,4.15-1.85,4.15-4.15v-33.32h33.32c2.31,0,4.15-1.85,4.15-4.15v-29.16c0-2.31-1.85-4.15-4.15-4.15Z"/><g><path class="cls-1" d="M85.87,55.94c0-6.31,3.85-10.46,10.16-10.46,4.92,0,8.46,3.08,9,7.46h-4.39c-.54-2.23-2.15-3.77-4.69-3.77-3.46,0-5.54,2.77-5.54,6.69s2.08,6.69,5.54,6.69c2.31,0,4.69-1.23,5.16-4.08v-.23h-5.08v-3.46h9.16v11.39h-3.08l-.46-2.46c-1.08,1.46-3.08,2.62-6,2.62-5.85,0-9.77-4.08-9.77-10.39Z"/><path class="cls-1" d="M108.64,45.63h8.39c4.54,0,7.54,2.69,7.54,6.85,0,2.62-1.38,4.77-3.54,5.77l4.08,7.92h-4.85l-3.46-6.92h-3.69v6.92h-4.39v-20.54h-.08Zm4.46,3.69v6.31h3.62c2.08,0,3.39-1.23,3.39-3.15s-1.31-3.15-3.39-3.15h-3.62Z"/><path class="cls-1" d="M125.57,66.17l7.54-20.54h5.31l7.46,20.54h-4.77l-1.62-4.46h-7.77l-1.62,4.46h-4.54Zm7.31-8h5.46l-2.69-7.77-2.77,7.77Z"/><path class="cls-1" d="M147.73,66.17v-20.54h4l8.69,12.93v-12.93h4.31v20.54h-4l-8.69-12.93v12.93h-4.31Z"/><path class="cls-1" d="M168.27,66.17v-20.54h7.46c6.39,0,10.62,4.23,10.62,10.23s-4.23,10.31-10.62,10.31h-7.46Zm4.39-3.69h3.08c3.92,0,6.16-2.69,6.16-6.62s-2.23-6.54-6.16-6.54h-3.08v13.16Z"/><path class="cls-1" d="M192.51,59.48c.15,2,1.69,3.39,4.23,3.39,2,0,3.54-.85,3.54-2.46s-1.69-2.08-5.08-2.77c-3.46-.62-6.54-1.77-6.54-5.92,0-3.62,3-6.23,7.69-6.23s7.92,2.54,8,6.46h-4.31c-.23-1.69-1.54-2.92-3.69-2.92-1.85,0-3.23,.77-3.23,2.39s1.62,2,5,2.69c3.54,.62,6.62,1.69,6.62,5.85,0,3.85-3.23,6.46-8,6.46-5.23,0-8.46-2.77-8.54-6.92h4.31Z"/><path class="cls-1" d="M214.59,45.63h8.39c4.46,0,7.39,2.69,7.39,6.85s-2.92,6.77-7.39,6.77h-3.92v6.92h-4.39v-20.54h-.08Zm4.46,3.69v6.31h3.54c2.08,0,3.39-1.23,3.39-3.15s-1.31-3.15-3.39-3.15h-3.54Z"/><path class="cls-1" d="M232.9,45.63h8.39c4.54,0,7.54,2.69,7.54,6.85,0,2.62-1.38,4.77-3.54,5.77l4.08,7.92h-4.85l-3.46-6.92h-3.77v6.92h-4.39v-20.54Zm4.39,3.69v6.31h3.62c2.08,0,3.39-1.23,3.39-3.15s-1.31-3.15-3.39-3.15h-3.62Z"/><path class="cls-1" d="M251.6,45.63h4.39v20.54h-4.39v-20.54Z"/><path class="cls-1" d="M264.68,55.71l-6.39-10h5.23l4,6.54,4.15-6.54h4.92l-6.39,10,6.69,10.54h-5.23l-4.31-7-4.46,7h-4.92l6.69-10.54Z"/><path class="cls-1" d="M124.57,96.41v-20.54h7.46c6.39,0,10.62,4.23,10.62,10.23s-4.23,10.31-10.62,10.31h-7.46Zm4.39-3.62h3.08c3.92,0,6.16-2.69,6.16-6.62s-2.23-6.54-6.16-6.54h-3.08v13.16Z"/><path class="cls-1" d="M145.19,75.94h4.39v11.93c0,3.23,1.23,5,4,5s4.08-1.77,4.08-5v-11.93h4.39v11.69c0,5.85-2.92,9-8.46,9s-8.39-3.23-8.39-9v-11.69h0Z"/><path class="cls-1" d="M172.73,96.41v-20.54h7.46c6.39,0,10.62,4.23,10.62,10.23s-4.23,10.31-10.62,10.31h-7.46Zm4.39-3.62h3.08c3.92,0,6.16-2.69,6.16-6.62s-2.23-6.54-6.16-6.54h-3.08v13.16Z"/><path class="cls-1" d="M193.51,75.94h13.77v3.77h-9.39v4.62h7.62v3.62h-7.62v4.77h9.69v3.77h-14.08v-20.54Z"/><path class="cls-1" d="M213.74,89.79c.15,2,1.69,3.39,4.23,3.39,2,0,3.54-.85,3.54-2.46s-1.69-2.08-5.08-2.77c-3.46-.62-6.54-1.77-6.54-5.92,0-3.62,3-6.23,7.62-6.23,4.85,0,7.92,2.54,8,6.46h-4.31c-.23-1.69-1.54-2.92-3.69-2.92-1.85,0-3.23,.77-3.23,2.39s1.62,2,5,2.69c3.54,.62,6.62,1.69,6.62,5.85,0,3.85-3.23,6.46-8,6.46-5.23,0-8.46-2.77-8.54-6.92h4.39Z"/><path class="cls-1" d="M228.59,75.94h4.39v20.54h-4.39v-20.54Z"/><path class="cls-1" d="M235.67,86.17c0-6.31,3.85-10.46,10.16-10.46,4.92,0,8.46,3.08,9,7.46h-4.46c-.54-2.23-2.15-3.77-4.69-3.77-3.46,0-5.54,2.77-5.54,6.69s2.08,6.69,5.54,6.69c2.31,0,4.69-1.23,5.16-4.08v-.23h-5.08v-3.46h9.16v11.39h-3.08l-.46-2.46c-1.08,1.46-3.08,2.62-6,2.62-5.85,.08-9.69-4.08-9.69-10.39Z"/><path class="cls-1" d="M258.44,96.41v-20.54h4l8.69,12.93v-12.93h4.31v20.54h-4l-8.69-12.93v12.93h-4.31Z"/></g><path class="cls-2" d="M70.48,0h-29.08c-2.31,0-4.08,1.85-4.08,4.08V37.32H4.08c-2.31,0-4.08,1.85-4.08,4.08v29.08c0,2.31,1.85,4.08,4.08,4.08H74.63V4c0-2.15-1.85-4-4.15-4Z"/></svg>