<svg width="144" height="22" viewBox="0 0 144 22" fill="none" xmlns="http://www.w3.org/2000/svg">
<path fill-rule="evenodd" clip-rule="evenodd" d="M0.224609 0.529842L3.65435 0.529842L3.65435 4.01931L0.224609 4.01931L0.224609 0.529842ZM3.48101 6.6436L3.48101 20.1119L0.426143 20.1119L0.426143 6.6436L3.48101 6.6436Z" fill="black"/>
<path fill-rule="evenodd" clip-rule="evenodd" d="M19.601 12.0943L19.601 20.1135L16.5463 20.1135L16.5463 12.5265C16.5463 10.4497 15.4223 9.09364 13.1748 9.09364C11.1862 9.09364 9.37048 10.6227 9.37048 13.1902L9.37048 20.1135L6.31584 20.1135L6.31584 6.64165L9.37047 6.64165L9.37047 7.88227C10.1776 6.93063 11.7339 6.26644 13.6645 6.26644C17.2668 6.26644 19.601 8.5747 19.601 12.0943Z" fill="black"/>
<path fill-rule="evenodd" clip-rule="evenodd" d="M22.041 0.529842L25.4708 0.529842L25.4708 4.01931L22.041 4.01931L22.041 0.529842ZM25.2974 6.6436L25.2974 20.1119L22.2426 20.1119L22.2426 6.6436L25.2974 6.6436Z" fill="black"/>
<path fill-rule="evenodd" clip-rule="evenodd" d="M32.1904 3.27062L32.1904 6.64473L36.3972 6.64473L36.3972 9.32709L32.1904 9.32709L32.1904 15.4128C32.1904 16.7101 32.8528 17.4311 34.2361 17.4311L36.3972 17.4311L36.3972 20.1135L34.2069 20.1135C30.8358 20.1135 29.1357 18.4693 29.1357 15.9316L29.1357 9.32709L26.6577 9.3271L26.6577 6.64473L29.1357 6.64473L29.1357 3.27062L32.1904 3.27062Z" fill="black"/>
<path fill-rule="evenodd" clip-rule="evenodd" d="M37.8799 0.529842L41.3096 0.529842L41.3096 4.01931L37.8799 4.01931L37.8799 0.529842ZM41.1368 6.6436L41.1368 20.1119L38.0819 20.1119L38.0819 6.6436L41.1368 6.6436Z" fill="black"/>
<path fill-rule="evenodd" clip-rule="evenodd" d="M53.2757 14.0844L49.4711 14.0844C47.5691 14.0844 46.4162 14.6612 46.4162 15.959C46.4162 17.1705 47.4824 17.891 49.2404 17.891C51.5465 17.891 53.2757 16.7379 53.2757 14.8054L53.2757 14.0844ZM56.3306 11.633L56.3306 20.1119L53.2757 20.1119L53.2757 18.8722C52.2665 19.9385 50.6527 20.4871 48.7506 20.4871C45.5229 20.4871 43.3614 18.9296 43.3614 15.959C43.3614 12.6424 46.3583 11.633 49.4998 11.633L53.2757 11.633C53.2757 9.7872 51.6906 9.09495 49.7306 9.09495C48.1742 9.09495 46.7911 9.58554 46.3009 10.8258L43.0439 10.8258C43.8224 7.79769 46.6178 6.26848 49.7019 6.26848C53.6214 6.26848 56.3306 8.20104 56.3306 11.633L56.3306 11.633Z" fill="black"/>
<path fill-rule="evenodd" clip-rule="evenodd" d="M62.0623 0.820801L62.0623 20.1135L59.0039 20.1135L59.0038 0.820801L62.0623 0.820801Z" fill="black"/>
<path fill-rule="evenodd" clip-rule="evenodd" d="M64.6934 0.529842L68.1231 0.529842L68.1231 4.01931L64.6934 4.01931L64.6934 0.529842ZM67.9503 6.6436L67.9503 20.1119L64.8954 20.1119L64.8954 6.6436L67.9503 6.6436Z" fill="black"/>
<path fill-rule="evenodd" clip-rule="evenodd" d="M69.8981 20.1135L69.8981 17.4306L77.9665 9.32495L69.8981 9.32495L69.8981 6.64206L82.0006 6.64206L82.0006 9.32495L73.8743 17.4306L82.0581 17.4306L82.0581 20.1135L69.8981 20.1135Z" fill="black"/>
<path fill-rule="evenodd" clip-rule="evenodd" d="M86.236 12.0082L93.6427 12.0082C93.3545 10.2198 91.9714 9.00824 90.0401 9.00824C88.0806 9.00824 86.4955 10.2198 86.236 12.0082ZM93.3545 16.1899L96.6688 16.1899C95.6894 18.8429 93.1242 20.4871 90.1842 20.4871C86.0627 20.4871 83.0078 17.4877 83.0078 13.3634C83.0078 9.32588 85.9186 6.26848 90.0401 6.26848C94.0463 6.26848 96.8709 9.32588 96.8709 13.2479C96.8709 13.6518 96.8709 14.0557 96.8129 14.4595L86.1781 14.4595C86.5242 16.3628 88.1668 17.6606 90.1842 17.6606C91.5391 17.6606 92.6919 17.1988 93.3545 16.1899L93.3545 16.1899Z" fill="black"/>
<path fill-rule="evenodd" clip-rule="evenodd" d="M105.234 9.09496C102.871 9.09496 101.228 11.0563 101.228 13.3921C101.228 15.6998 102.871 17.6606 105.234 17.6606C107.338 17.6606 109.384 16.2474 109.384 13.3921C109.384 10.5082 107.338 9.09496 105.234 9.09496ZM112.324 0.818233L112.324 20.1119L109.269 20.1119L109.269 18.8722C108.318 19.881 106.733 20.4871 105.032 20.4871C100.651 20.4871 98.1729 17.0838 98.1729 13.3921C98.1729 9.67175 100.651 6.26848 105.032 6.26848C106.733 6.26848 108.318 6.87452 109.269 7.8839L109.269 0.818229L112.324 0.818233Z" fill="black"/>
<path fill-rule="evenodd" clip-rule="evenodd" d="M130.616 18.7038C127.06 17.9376 124.544 14.8165 124.544 10.783C124.544 6.74895 127.06 3.62785 130.616 2.86221L130.616 0.21117C125.489 1.00504 121.749 5.29463 121.749 10.783C121.749 16.2713 125.489 20.5604 130.616 21.3543L130.616 18.7038Z" fill="black"/>
<path fill-rule="evenodd" clip-rule="evenodd" d="M134.897 18.7038C138.454 17.9376 140.97 14.8165 140.97 10.783C140.97 6.74895 138.454 3.62785 134.897 2.86221L134.897 0.21117C140.024 1.00504 143.764 5.29463 143.764 10.783C143.764 16.2713 140.024 20.5604 134.897 21.3543L134.897 18.7038Z" fill="black"/>
</svg>
