<svg id="Layer_1" data-name="Layer 1" xmlns="http://www.w3.org/2000/svg" viewBox="0 0 391.4 415.41"><title>Logo</title><path d="M294.42,196.3a33.42,33.42,0,0,1,8.6,0c1.55-3.54,1.82-9.65.43-16.3-2.07-9.89-4.86-15.87-10.64-14.94s-6,8.09-3.93,18C290,188.6,292.11,193.36,294.42,196.3Z"/><path d="M244.82,204.12c4.14,1.82,6.68,3,7.67,2,.64-.66.45-1.91-.54-3.52-2-3.33-6.23-6.71-10.68-8.6a29.14,29.14,0,0,0-28.34,3.4c-2.77,2-5.39,4.83-5,6.54.12.55.53,1,1.5,1.1,2.28.26,10.25-3.77,19.42-4.33C235.32,200.28,240.69,202.31,244.82,204.12Z"/><path d="M236.51,208.87c-5.38.85-8.35,2.62-10.26,4.27-1.63,1.43-2.63,3-2.62,4.1a1.22,1.22,0,0,0,.41,1,1.27,1.27,0,0,0,.88.34,16.39,16.39,0,0,0,3.94-1.09,34.21,34.21,0,0,1,17.34-1.8c2.7.3,4,.47,4.57-.46a1.51,1.51,0,0,0-.15-1.72C249.36,211.44,243.92,208,236.51,208.87Z"/><path d="M277.67,226.28c3.66,1.8,7.68,1.09,9-1.57s-.59-6.28-4.24-8.08-7.69-1.09-9,1.57S274,224.49,277.67,226.28Z"/><path d="M301.17,205.75c-3-.05-5.43,3.21-5.5,7.28s2.28,7.42,5.25,7.47,5.43-3.21,5.5-7.29S304.14,205.8,301.17,205.75Z"/><path d="M101.72,279.18c-.74-.93-2-.65-3.13-.37a11.56,11.56,0,0,1-2.77.39,6,6,0,0,1-5.07-2.58c-1.36-2.07-1.28-5.17.22-8.72.2-.47.43-1,.69-1.58C94,261,98,252,93.55,243.51c-3.36-6.42-8.86-10.41-15.46-11.25a19.92,19.92,0,0,0-17,6.14c-6.56,7.25-7.59,17.11-6.32,20.6.46,1.27,1.19,1.63,1.72,1.7,1.12.15,2.77-.67,3.81-3.45.07-.2.17-.51.29-.91a27.72,27.72,0,0,1,2.73-6.41,11.7,11.7,0,0,1,7.44-5.14,12,12,0,0,1,9.1,1.7,11.63,11.63,0,0,1,4.4,14c-1,2.78-2.66,8.1-2.3,12.47.74,8.85,6.18,12.41,11.07,12.78,4.75.18,8.08-2.49,8.92-4.44A1.91,1.91,0,0,0,101.72,279.18Z"/><path d="M376.1,263c-.18-.64-1.36-4.95-3-10.14a82,82,0,0,0-3.3-8.85c6.5-9.72,6.62-18.42,5.75-23.35-.92-6.11-3.46-11.31-8.59-16.69s-15.6-10.89-30.33-15c-1.68-.48-7.24-2-7.73-2.15,0-.32-.4-18.22-.74-25.9-.24-5.56-.72-14.23-3.41-22.77C321.56,126.56,316,116.44,309,110,328.25,90,340.26,68,340.23,49.18c-.05-36.25-44.58-47.22-99.46-24.5l-11.62,4.93c-.05-.05-21-20.62-21.34-20.89C145.25-45.85-50.36,171.57,12.18,224.38L25.85,236A67.21,67.21,0,0,0,22,267c1.47,14.53,9,28.47,21.11,39.23,11.54,10.22,26.7,16.69,41.42,16.68,24.34,56.08,79.94,90.49,145.15,92.42,69.94,2.08,128.65-30.74,153.25-89.69,1.61-4.14,8.43-22.78,8.43-39.23S382.05,263,376.1,263ZM90,307.13a33.38,33.38,0,0,1-6.48.46C62.34,307,39.53,288,37.26,265.45,34.75,240.52,47.49,221.34,70,216.79a38.72,38.72,0,0,1,9.47-.68c12.64.7,31.26,10.4,35.51,37.93C118.79,278.41,112.8,303.24,90,307.13ZM66.36,201.88c-14,2.73-26.42,10.68-34,21.67-4.53-3.77-13-11.07-14.44-13.92C5.86,186.7,31.12,142.1,48.77,116.91,92.39,54.67,160.7,7.56,192.33,16.11c5.14,1.45,22.16,21.19,22.16,21.19s-31.61,17.54-60.92,42C114.07,109.7,84.23,153.91,66.36,201.88Zm221.73,95.93a1.26,1.26,0,0,0,.72-1.24,1.17,1.17,0,0,0-1.28-1s-33.09,4.9-64.35-6.54c3.4-11.07,12.46-7.07,26.14-6a191.1,191.1,0,0,0,63.11-6.82c14.16-4.07,32.76-12.08,47.2-23.47a95.11,95.11,0,0,1,6.59,22.47,11,11,0,0,1,6.92,1.27c3,1.83,5.17,5.64,3.67,15.49-3,18.4-10.85,33.33-24,47.07A99,99,0,0,1,324,360.58a121.86,121.86,0,0,1-18.83,7.95c-49.55,16.18-100.27-1.61-116.62-39.82a60.8,60.8,0,0,1-3.28-9c-7-25.18-1.05-55.39,17.44-74.41h0c1.14-1.21,2.3-2.63,2.3-4.43a7.77,7.77,0,0,0-1.78-4.2c-6.47-9.39-28.88-25.38-24.38-56.32,3.23-22.23,22.67-37.89,40.8-37l4.59.26c7.85.47,14.71,1.48,21.17,1.75,10.83.46,20.56-1.11,32.08-10.71,3.89-3.24,7-6,12.29-7a15.24,15.24,0,0,1,4.69-.45,15.53,15.53,0,0,1,7.9,2.52c9.24,6.15,10.55,21,11,31.94.27,6.22,1,21.26,1.28,25.58.59,9.88,3.18,11.27,8.43,13,3,1,5.7,1.7,9.74,2.83,12.23,3.44,19.49,6.92,24.06,11.4a15.13,15.13,0,0,1,4.38,8.6c1.45,10.52-8.17,23.52-33.61,35.33-27.81,12.91-61.56,16.18-84.87,13.58l-8.17-.92c-18.65-2.51-29.29,21.59-18.09,38.1,7.21,10.64,26.86,17.57,46.52,17.57,45.07,0,79.71-19.24,92.6-35.86.38-.5.42-.55,1-1.47s.11-1.48-.68-.94c-10.53,7.2-57.29,35.8-107.32,27.2a66.66,66.66,0,0,1-11.62-3.16c-4.41-1.72-13.64-6-14.76-15.43C262.67,309.61,288.09,297.81,288.09,297.81Zm-63.95-7.55h0v0Zm-77.23-173.6c15.51-17.92,34.6-33.5,51.7-42.24a.67.67,0,0,1,.9.92c-1.36,2.46-4,7.72-4.81,11.71a.71.71,0,0,0,1.08.74c10.64-7.25,29.14-15,45.37-16a.71.71,0,0,1,.48,1.27,38.79,38.79,0,0,0-7.14,7.17.69.69,0,0,0,.55,1.1c11.39.08,27.46,4.07,37.93,10,.71.39.21,1.77-.59,1.58-15.84-3.63-41.78-6.38-68.72.19-24,5.86-42.41,14.92-55.81,24.66A.7.7,0,0,1,146.91,116.66Z"/></svg>