<?xml version="1.0" encoding="utf-8"?>
<!-- Generator: Adobe Illustrator 25.2.3, SVG Export Plug-In . SVG Version: 6.00 Build 0)  -->
<svg version="1.1" id="Layer_1" xmlns="http://www.w3.org/2000/svg" xmlns:xlink="http://www.w3.org/1999/xlink" x="0px" y="0px"
	 viewBox="0 0 353 220" style="enable-background:new 0 0 353 220;" xml:space="preserve">
<style type="text/css">
	.st0{fill:#F5B2A8;}
	.st1{fill:#15163C;}
	.st2{fill:#6E638B;}
	.st3{fill:#E08738;}
	.st4{fill:#E82117;}
	.st5{fill:#BA7B6B;}
</style>
<g>
	<polygon class="st0" points="0,152.9 67.1,220 82.9,220 0,137.1 	"/>
	<polygon class="st0" points="220,110 217.1,110 220,112.9 	"/>
	<polygon class="st0" points="77.1,110 187.1,220 202.9,220 92.9,110 	"/>
	<polygon class="st0" points="220,117.1 212.9,110 197.1,110 220,132.9 	"/>
	<polygon class="st0" points="17.1,110 127.1,220 142.9,220 32.9,110 	"/>
	<polygon class="st0" points="0,110 0,112.9 107.1,220 122.9,220 12.9,110 	"/>
	<polygon class="st0" points="57.1,110 167.1,220 182.9,220 72.9,110 	"/>
	<polygon class="st0" points="37.1,110 147.1,220 162.9,220 52.9,110 	"/>
	<polygon class="st0" points="0,132.9 87.1,220 102.9,220 0,117.1 	"/>
	<polygon class="st0" points="0,212.9 7.1,220 22.9,220 0,197.1 	"/>
	<polygon class="st0" points="220,177.1 152.9,110 137.1,110 220,192.9 	"/>
	<polygon class="st0" points="220,197.1 132.9,110 117.1,110 220,212.9 	"/>
	<polygon class="st0" points="220,137.1 192.9,110 177.1,110 220,152.9 	"/>
	<polygon class="st0" points="220,157.1 172.9,110 157.1,110 220,172.9 	"/>
	<polygon class="st0" points="0,192.9 27.1,220 42.9,220 0,177.1 	"/>
	<polygon class="st0" points="0,172.9 47.1,220 62.9,220 0,157.1 	"/>
	<polygon class="st0" points="0,220 2.9,220 0,217.1 	"/>
	<polygon class="st0" points="112.9,110 97.1,110 207.1,220 220,220 220,217.1 	"/>
	<polygon class="st1" points="52.9,110 162.9,220 167.1,220 57.1,110 	"/>
	<polygon class="st1" points="72.9,110 182.9,220 187.1,220 77.1,110 	"/>
	<polygon class="st1" points="32.9,110 142.9,220 147.1,220 37.1,110 	"/>
	<polygon class="st1" points="12.9,110 122.9,220 127.1,220 17.1,110 	"/>
	<polygon class="st1" points="0,117.1 102.9,220 107.1,220 0,112.9 	"/>
	<polygon class="st1" points="0,137.1 82.9,220 87.1,220 0,132.9 	"/>
	<polygon class="st1" points="0,157.1 62.9,220 67.1,220 0,152.9 	"/>
	<polygon class="st1" points="0,177.1 42.9,220 47.1,220 0,172.9 	"/>
	<polygon class="st1" points="0,197.1 22.9,220 27.1,220 0,192.9 	"/>
	<polygon class="st1" points="92.9,110 202.9,220 207.1,220 97.1,110 	"/>
	<polygon class="st1" points="220,212.9 117.1,110 112.9,110 220,217.1 	"/>
	<polygon class="st1" points="220,192.9 137.1,110 132.9,110 220,197.1 	"/>
	<polygon class="st1" points="220,172.9 157.1,110 152.9,110 220,177.1 	"/>
	<polygon class="st1" points="220,152.9 177.1,110 172.9,110 220,157.1 	"/>
	<polygon class="st1" points="220,132.9 197.1,110 192.9,110 220,137.1 	"/>
	<polygon class="st1" points="220,112.9 217.1,110 212.9,110 220,117.1 	"/>
	<polygon class="st1" points="0,217.1 2.9,220 7.1,220 0,212.9 	"/>
</g>
<rect id="Rectangle_1717" class="st2" width="110" height="110"/>
<path id="Path_1380" class="st3" d="M220,0h133v124.8L220,0z"/>
<circle id="Ellipse_163" class="st4" cx="286.5" cy="153.5" r="66.5"/>
<path class="st5" d="M220,110V0H110c0,0.1,0,0.1,0,0.2C110,60.8,159.2,109.9,220,110z"/>
</svg>
