<svg xmlns:dc="http://purl.org/dc/elements/1.1/" xmlns:cc="http://creativecommons.org/ns#" xmlns:rdf="http://www.w3.org/1999/02/22-rdf-syntax-ns#" xmlns:svg="http://www.w3.org/2000/svg" xmlns="http://www.w3.org/2000/svg" xmlns:sodipodi="http://sodipodi.sourceforge.net/DTD/sodipodi-0.dtd" xmlns:inkscape="http://www.inkscape.org/namespaces/inkscape" width="284" height="140" viewBox="0 0 75.140421 37.041053" id="svg4" sodipodi:docname="miami-ad-school-logo-original.svg" inkscape:version="1.0.2 (e86c870879, 2021-01-15, custom)"><metadata></metadata><defs id="defs8"></defs><path style="line-height:1.25;-inkscape-font-specification:Obviously;fill:#700650;fill-opacity:1;stroke-width:0.999999" d="m 0.19724882,0 c 0.0417257,2.1811167 0.045519,4.6732797 0.045519,8.3223832 0,3.5390988 0,5.9667768 -0.045519,8.3679018 H 2.2645681 C 2.2418087,13.264983 2.200083,10.94731 2.200083,7.320966 2.1773235,5.7429753 2.0862856,4.0284278 2.0673194,2.3138804 h 0.064485 C 2.3973318,3.7591073 2.753897,5.4508953 3.0877027,6.7178396 L 5.8491861,16.694078 H 6.8961222 L 9.6310528,6.877156 C 9.9458925,5.6974563 10.275905,3.9184237 10.567985,2.3593993 h 0.06448 c -0.04173,1.6235096 -0.132764,3.3797827 -0.132764,4.8515624 0,3.6035843 -0.02276,6.0540213 -0.113797,9.4831163 h 2.363193 c -0.04552,-2.404918 -0.06828,-4.832596 -0.06828,-8.3716948 0,-3.6491035 0.02655,-6.1412665 0.04552,-8.3223832 H 9.9193394 C 9.4793229,1.5552311 8.3641088,5.5836589 7.3399318,9.2327619 7.0971641,10.078656 6.8506032,11.193871 6.6305949,12.259773 H 6.5167975 A 57.702866,57.702866 0 0 0 5.8491861,9.1910363 C 4.7794907,5.5646927 3.6680694,1.4907459 3.247019,0 Z M 15.188159,0 c 0.04552,2.1128383 0.04552,4.7832839 0.04552,8.3451423 0,3.5618587 0,6.2095447 -0.04552,8.3451427 h 2.450437 c -0.06828,-2.158357 -0.06828,-4.828803 -0.06828,-8.3451427 0,-3.5846179 0,-6.232304 0.06828,-8.3451423 z m 7.654772,0 C 22.39912,1.9573152 19.952477,12.821173 18.95106,16.690285 h 2.46561 c 0.136556,-0.777616 0.447603,-2.359399 0.849687,-4.248436 h 4.737765 c 0.402084,1.934555 0.694164,3.558065 0.781409,4.248436 h 2.670445 C 29.363521,12.639098 26.962397,1.9800747 26.473068,0 Z m 8.170653,0 c 0.04552,2.1811167 0.04552,4.6732797 0.04552,8.3223832 0,3.5390988 0,5.9667768 -0.04552,8.3679018 h 2.071113 C 33.06194,13.264983 33.016419,10.94731 33.016419,7.320966 32.993655,5.7429753 32.906414,4.0284278 32.883655,2.3138804 h 0.06828 c 0.265527,1.4452269 0.622092,3.1370149 0.955898,4.4039592 l 2.761483,9.9762384 H 37.71625 L 40.447388,6.877156 C 40.762227,5.6974563 41.096033,3.9184237 41.38432,2.3593993 h 0.06828 c -0.04552,1.6235096 -0.132763,3.3797827 -0.132763,4.8515624 0,3.6035843 -0.02276,6.0540213 -0.113798,9.4831163 h 2.363193 c -0.04552,-2.404918 -0.06828,-4.832596 -0.06828,-8.3716948 0,-3.6491035 0.02276,-6.1412665 0.04552,-8.3223832 H 40.739471 C 40.29566,1.5552311 39.18424,5.5836589 38.160063,9.2327619 37.913502,10.078656 37.666941,11.193871 37.446933,12.259773 H 37.333132 A 57.702866,57.702866 0 0 0 36.669314,9.1910363 C 35.599619,5.5646927 34.488197,1.4907459 34.063354,0 Z m 15.267817,0 c 0.04552,2.1128383 0.04552,4.7832839 0.04552,8.3451423 0,3.5618587 0,6.2095447 -0.04552,8.3451427 h 2.446644 c -0.06448,-2.158357 -0.06448,-4.828803 -0.06448,-8.3451427 0,-3.5846179 0,-6.232304 0.06448,-8.3451423 z m 10.617297,0 c -0.447603,1.9573152 -2.894247,12.821173 -3.895664,16.690285 h 2.469403 a 133.52228,133.52228 0 0 1 0.845894,-4.248436 h 4.741559 c 0.398291,1.934555 0.69037,3.558065 0.777615,4.248436 H 64.50795 C 63.419289,12.639098 61.018164,1.9800747 60.525042,0 Z m 8.455146,0 c 0.04552,1.89283 0.04173,4.8288029 0.04173,8.3679021 0,3.5390989 0,6.1450589 -0.04173,8.3223829 h 4.005669 c 4.07015,0 5.765732,-1.957315 5.765732,-8.4779061 C 75.121451,1.5552311 73.274144,0 69.442964,0 Z M 24.580238,1.3579823 h 0.08724 c 0.159317,0.7776155 0.379325,1.89283 0.73589,3.4253016 0.356565,1.7145474 0.800375,3.8311792 1.225218,5.8112541 -0.713129,0.02276 -1.449019,0.02276 -2.002833,0.02276 -0.534849,0 -1.289704,0 -1.980076,-0.02276 0.398291,-1.9611091 0.845894,-4.0284283 1.175907,-5.7429757 0.379325,-1.60075 0.60692,-2.7159645 0.75865,-3.49358 z m 34.051974,0 h 0.09104 c 0.15173,0.7776155 0.379324,1.89283 0.732096,3.4253016 0.356565,1.7145474 0.800375,3.8311792 1.225219,5.8112541 -0.71313,0.02276 -1.445227,0.02276 -2.002834,0.02276 -0.534848,0 -1.289704,0 -1.980075,-0.02276 0.398291,-1.9611091 0.845894,-4.0284283 1.1797,-5.7429757 0.379324,-1.60075 0.599333,-2.7159645 0.758649,-3.49358 z m 10.814546,0.7586492 c 2.249397,0 3.338058,0.8421008 3.338058,6.1412663 0,5.3864102 -1.046934,6.3195492 -3.425303,6.3195492 -0.603126,0 -1.069696,0 -1.623509,-0.04552 -0.02276,-1.225219 -0.02276,-3.027011 -0.02276,-6.095748 0,-2.2266355 0.02276,-4.5898281 0.04173,-6.2778228 0.534847,-0.02276 1.069696,-0.045519 1.691788,-0.045519 z M 4.631554,19.853853 c -2.9587322,0 -4.47603089,1.471779 -4.47603089,4.028427 0,2.560442 1.04693599,4.161192 4.13843199,5.40917 2.2266357,0.891413 2.8525212,2.093872 2.8525212,3.630137 0,1.403501 -0.6448518,2.112838 -2.3138802,2.112838 -1.7828259,0 -2.4959562,-0.758649 -2.4959562,-2.848728 0,-0.29208 0,-0.71313 0.022759,-1.092455 A 19.637637,19.637637 0 0 1 0.04551896,31.074276 C 0.02275948,31.590157 0,31.923963 0,32.591574 c 0,2.75769 1.3807417,4.449478 4.8288029,4.449478 3.0725296,0 4.5177566,-1.60075 4.5177566,-4.248436 0,-2.651479 -1.3124636,-4.320508 -4.1611915,-5.454688 -2.3366399,-0.955899 -2.738724,-2.093872 -2.738724,-3.451854 0,-1.357983 0.7131303,-2.025594 2.2038763,-2.025594 1.7145474,0 2.3821591,0.804168 2.3821591,2.495956 0,0.398291 -0.022757,0.910379 -0.045519,1.380742 0.2920799,0 0.6903708,-0.02276 1.1152141,-0.02276 0.3982909,0 0.7776153,0 1.0431428,0.02276 0.022757,-0.557607 0.045521,-0.959691 0.045521,-1.49454 0,-2.913213 -1.335222,-4.384992 -4.559482,-4.384992 z m 10.897998,0.02276 c -3.5391,0 -5.295373,2.359399 -5.295373,8.477906 0,6.456106 2.002834,8.659981 5.272613,8.659981 3.140808,0 4.741558,-2.16215 4.741558,-5.966777 v -1.065901 c -0.398291,0.02276 -0.777616,0.02276 -1.15694,0.02276 -0.398291,0 -0.754856,0 -1.156941,-0.02276 0.02276,0.379324 0.02276,0.735889 0.02276,1.092455 0,2.556648 -0.758649,3.781866 -2.469404,3.781866 -1.760065,0 -2.848727,-1.266944 -2.848727,-6.54335 0,-5.185368 1.069695,-6.296789 2.780449,-6.296789 1.604544,0 2.492164,0.819341 2.492164,3.626343 0,0.311047 0,0.796582 -0.01896,1.266945 h 2.268361 c 0.02276,-0.512088 0.04552,-1.001417 0.04552,-1.513506 0,-3.383576 -1.289705,-5.519173 -4.677073,-5.519173 z m 23.791242,0 c -3.205293,0 -5.321925,2.116632 -5.321925,8.367902 0,6.277823 2.006627,8.769985 5.321925,8.769985 3.315297,0 5.36365,-2.492162 5.36365,-8.769985 0,-6.25127 -2.16215,-8.367902 -5.36365,-8.367902 z m 11.32284,0 c -3.205293,0 -5.318131,2.116632 -5.318131,8.367902 0,6.277823 2.002834,8.769985 5.318131,8.769985 3.315298,0 5.367444,-2.492162 5.367444,-8.769985 0,-6.25127 -2.16215,-8.367902 -5.367444,-8.367902 z m -28.411416,0.223802 c 0.08724,2.135597 0.06448,4.806043 0.06448,8.345142 0,3.539099 0.02276,5.944017 -0.06828,8.345142 h 2.469403 c -0.04552,-1.934556 -0.06448,-5.295372 -0.06448,-7.207168 0.777616,-0.02655 1.691788,-0.02655 2.537682,-0.02655 0.868653,0 1.779033,0 2.556648,0.02276 0,1.915589 -0.01897,5.253646 -0.08724,7.210961 h 2.492163 a 302.05622,302.05622 0 0 1 -0.06828,-8.345142 c 0,-3.539099 0,-6.209544 0.06828,-8.345142 h -2.492163 c 0.06828,1.733513 0.08724,5.295372 0.08724,7.275446 a 89.634418,89.634418 0 0 1 -2.556648,0.04552 c -0.845894,0 -1.760066,-0.02276 -2.541475,-0.04552 0,-1.980074 0.02655,-5.538139 0.06828,-7.275446 z m 35.933424,0 c 0.06828,1.55523 0.04552,4.248435 0.04552,8.345142 0,3.561858 -0.04552,7.301999 -0.04552,8.345142 h 6.744392 c 0,-0.352772 -0.02276,-0.732096 -0.02276,-1.111421 0,-0.356566 0.02276,-0.73589 0.02276,-1.069696 -1.422467,0.04552 -3.095288,0.04552 -4.362233,0.04552 -0.02276,-1.467986 -0.04552,-4.073946 -0.04552,-6.255063 0,-4.028428 0.04552,-6.899915 0.113798,-8.299623 z M 39.33976,22.016001 c 1.828345,0 2.939766,1.464193 2.939766,6.338515 0,4.855355 -1.092455,6.501624 -2.939766,6.501624 -1.847311,0 -2.981492,-1.627302 -2.981492,-6.501624 0,-4.893288 1.137974,-6.338515 2.981492,-6.338515 z m 11.326634,0 c 1.824551,0 2.935973,1.464193 2.935973,6.338515 0,4.855355 -1.088662,6.501624 -2.935973,6.501624 -1.847311,0 -2.981492,-1.627302 -2.981492,-6.501624 0,-4.893288 1.137974,-6.338515 2.981492,-6.338515 z" font-weight="400" font-size="10.583px" font-family="Obviously" id="path2"></path></svg>