<svg width="136" height="40" viewBox="0 0 136 40" fill="none" xmlns="http://www.w3.org/2000/svg">
<g clip-path="url(#clip0_1_438)">
<path d="M6.98016 16.5628C6.98016 18.9176 9.19284 19.5013 13.9099 21.0712C20.6183 23.275 23.5149 25.6902 23.5149 30.9935C23.5149 36.2968 18.7677 39.9094 12.1699 39.9094C8.55921 39.9094 5.56203 38.9031 3.57061 38.9031C2.55772 38.9187 1.58658 39.3095 0.844985 40L0.271698 30.5104H0.382332C3.47003 36.176 7.62385 39.0541 12.18 39.0541C14.6441 39.0541 16.5349 37.9572 16.5349 35.6426C16.5349 33.0765 14.3524 32.5029 10.5808 31.245C4.03326 29.1519 0.311929 26.465 0.311929 21.1818C0.311929 16.2006 5.51174 12.7992 11.0133 12.7992C14.3122 12.7992 16.4142 14.0068 18.295 14.0068C19.4225 13.9792 20.4988 13.5305 21.3123 12.7489V21.1919H21.2117C18.7979 16.6333 14.6139 13.6948 10.9932 13.6948C8.88105 13.6848 6.98016 14.7314 6.98016 16.5628Z" fill="#ED2C1D"/>
<path d="M56.1822 37.3243C54.3367 38.9629 51.9406 39.8435 49.4738 39.7898C44.8673 39.7898 42.6647 37.9583 42.1417 35.0701C42.085 34.707 42.0514 34.3407 42.0411 33.9733C41.0957 37.4853 38.1086 39.6388 33.6631 39.6388C29.5797 39.6388 25.8584 37.5457 25.8584 33.0374C25.8584 25.8724 33.3815 25.9931 36.9218 24.9868C43.2682 23.3063 42.5541 18.4759 42.5541 18.4759C42.5541 16.2721 41.0655 13.6054 38.4003 13.6054C36.2479 13.6054 34.9907 15.2859 34.9907 17.4797C34.9907 21.6559 38.4003 20.8307 38.8931 20.71C38.2009 21.8353 37.2404 22.771 36.0976 23.4332C34.9548 24.0953 33.6655 24.4632 32.3456 24.5038C29.4691 24.5038 26.7535 22.7025 26.7535 20.1766C26.7535 15.145 31.8427 12.6594 38.6517 12.6594C47.7036 12.6594 52.2195 15.2759 52.2195 21.8874C52.2195 24.7654 52.1189 27.9253 52.1189 31.7895C52.1189 35.3519 52.3804 37.2941 55.0558 37.2941C55.424 37.3099 55.7928 37.276 56.152 37.1935V37.2941L56.1822 37.3243ZM39.9894 25.4799C37.0525 26.1139 35.906 28.1567 35.906 31.4575C35.906 33.9733 36.7408 35.7544 38.6316 35.7544C40.8845 35.7544 41.8299 33.3997 41.8802 30.8235V25.007L39.9894 25.4799Z" fill="#ED2C1D"/>
<path d="M68.6538 33.5406C68.6538 37.0023 68.7544 37.5659 70.957 39.1458V39.2464H55.8706V39.1458C58.0732 37.576 58.1738 36.9923 58.1738 33.5406V5.81652C58.1738 2.20384 57.5502 1.35854 55.0861 0.100638V0H68.6538V33.5507V33.5406Z" fill="#ED2C1D"/>
<path d="M72.184 26.2045C72.184 17.9225 78.9428 12.6796 86.9587 12.6796C94.9747 12.6796 101.733 17.9225 101.733 26.2045C101.733 34.4865 94.9244 39.7797 86.9587 39.7797C78.993 39.7797 72.184 34.4865 72.184 26.2045ZM90.68 26.2045C90.68 17.6608 89.8453 13.5752 86.9587 13.5752C84.0722 13.5752 83.2374 17.6608 83.2374 26.2045C83.2374 34.7481 84.0722 38.9344 86.9587 38.9344C89.8453 38.9344 90.67 34.7984 90.67 26.2045H90.68Z" fill="#ED2C1D"/>
<path d="M116.045 13.2028V19.915C117.303 15.2457 120.652 12.6796 125.097 12.6796C130.961 12.6796 133.425 16.8759 133.425 21.7364V33.5305C133.425 36.9922 133.526 37.5558 135.728 39.1357V39.2363H120.642V39.1357C122.844 37.5658 122.945 36.9822 122.945 33.5305V21.2836C122.945 19.1904 121.939 17.5602 119.857 17.5602C117.604 17.5602 116.035 19.3414 116.035 23.7994V33.5506C116.035 37.0123 116.136 37.5759 118.339 39.1558V39.2564H103.252V39.1558C105.455 37.586 105.555 37.0023 105.555 33.5506V19.0294C105.555 15.3564 105.294 14.8331 102.88 13.3135V13.2129H116.045V13.2028Z" fill="#ED2C1D"/>
</g>
<defs>
<clipPath id="clip0_1_438">
<rect width="136" height="40" fill="white"/>
</clipPath>
</defs>
</svg>
