<svg width="196" height="48" viewBox="0 0 196 48" fill="none" xmlns="http://www.w3.org/2000/svg">
<path fill-rule="evenodd" clip-rule="evenodd" d="M10.1287 10.498L14.3527 10.498L14.3527 14.7927L10.1287 14.7927L10.1287 10.498ZM14.1391 18.0227L14.1391 34.5991L10.3768 34.5991L10.3768 18.0227L14.1391 18.0227Z" fill="black"/>
<path fill-rule="evenodd" clip-rule="evenodd" d="M33.9916 24.7313L33.9916 34.601L30.2296 34.601L30.2296 25.2632C30.2296 22.7072 28.8453 21.0381 26.0773 21.0381C23.6282 21.0381 21.392 22.9201 21.392 26.0801L21.392 34.601L17.6299 34.601L17.6299 18.0203L21.392 18.0203L21.392 19.5472C22.386 18.376 24.3027 17.5585 26.6804 17.5585C31.1169 17.5585 33.9916 20.3994 33.9916 24.7313Z" fill="black"/>
<path fill-rule="evenodd" clip-rule="evenodd" d="M36.9973 10.498L41.2213 10.498L41.2213 14.7927L36.9973 14.7927L36.9973 10.498ZM41.0079 18.0227L41.0079 34.5991L37.2455 34.5991L37.2455 18.0227L41.0079 18.0227Z" fill="black"/>
<path fill-rule="evenodd" clip-rule="evenodd" d="M49.4973 13.8713L49.4973 18.0241L54.6783 18.0241L54.6783 21.3255L49.4973 21.3255L49.4973 28.8156C49.4973 30.4123 50.3131 31.2997 52.0168 31.2997L54.6783 31.2997L54.6783 34.601L51.9808 34.601C47.829 34.601 45.7352 32.5774 45.7352 29.4541L45.7352 21.3255L42.6834 21.3255L42.6834 18.0241L45.7352 18.0241L45.7352 13.8713L49.4973 13.8713Z" fill="black"/>
<path fill-rule="evenodd" clip-rule="evenodd" d="M56.5043 10.498L60.7283 10.498L60.7283 14.7927L56.5043 14.7927L56.5043 10.498ZM60.5154 18.0227L60.5155 34.5991L56.7531 34.5991L56.7531 18.0227L60.5154 18.0227Z" fill="black"/>
<path fill-rule="evenodd" clip-rule="evenodd" d="M75.4655 27.1806L70.7798 27.1806C68.4373 27.1806 67.0175 27.8905 67.0175 29.4878C67.0175 30.9789 68.3305 31.8657 70.4956 31.8657C73.3358 31.8657 75.4655 30.4465 75.4655 28.068L75.4655 27.1806ZM79.2278 24.1635L79.2278 34.5991L75.4655 34.5991L75.4655 33.0732C74.2226 34.3856 72.235 35.0608 69.8925 35.0608C65.9173 35.0608 63.2552 33.1439 63.2552 29.4877C63.2552 25.4058 66.9461 24.1635 70.8152 24.1635L75.4655 24.1635C75.4655 21.8917 73.5133 21.0397 71.0994 21.0397C69.1826 21.0397 67.4792 21.6435 66.8754 23.17L62.8643 23.17C63.823 19.4431 67.2657 17.561 71.064 17.561C75.8912 17.561 79.2278 19.9395 79.2278 24.1635L79.2278 24.1635Z" fill="black"/>
<path fill-rule="evenodd" clip-rule="evenodd" d="M86.2863 10.8562L86.2863 34.601L82.5196 34.601L82.5196 10.8562L86.2863 10.8562Z" fill="black"/>
<path fill-rule="evenodd" clip-rule="evenodd" d="M89.527 10.498L93.751 10.498L93.751 14.7927L89.527 14.7927L89.527 10.498ZM93.5381 18.0227L93.5381 34.5991L89.7758 34.5991L89.7758 18.0227L93.5381 18.0227Z" fill="black"/>
<path fill-rule="evenodd" clip-rule="evenodd" d="M95.9369 34.601L95.9369 31.299L105.874 21.3228L95.9369 21.3228L95.9369 18.0208L110.842 18.0208L110.842 21.3228L100.834 31.299L110.913 31.299L110.913 34.601L95.9369 34.601Z" fill="black"/>
<path fill-rule="evenodd" clip-rule="evenodd" d="M116.059 24.6252L125.181 24.6252C124.826 22.4241 123.123 20.933 120.744 20.933C118.331 20.933 116.379 22.4241 116.059 24.6252ZM124.826 29.7719L128.908 29.7719C127.702 33.0372 124.542 35.0608 120.922 35.0608C115.846 35.0608 112.083 31.3692 112.083 26.2932C112.083 21.324 115.668 17.561 120.744 17.561C125.678 17.561 129.157 21.324 129.157 26.1511C129.157 26.6482 129.157 27.1452 129.085 27.6423L115.988 27.6423C116.414 29.9848 118.437 31.5821 120.922 31.5821C122.59 31.5821 124.01 31.0136 124.826 29.7719L124.826 29.7719Z" fill="black"/>
<path fill-rule="evenodd" clip-rule="evenodd" d="M139.456 21.0397C136.546 21.0397 134.523 23.4536 134.523 26.3286C134.523 29.1688 136.546 31.5821 139.456 31.5821C142.048 31.5821 144.568 29.8427 144.568 26.3286C144.568 22.7791 142.048 21.0397 139.456 21.0397ZM148.189 10.853L148.189 34.5991L144.426 34.5991L144.426 33.0732C143.255 34.3149 141.303 35.0608 139.208 35.0608C133.813 35.0608 130.76 30.8722 130.76 26.3286C130.76 21.7496 133.813 17.561 139.208 17.561C141.303 17.561 143.255 18.3069 144.426 19.5492L144.426 10.853L148.189 10.853Z" fill="black"/>
<path fill-rule="evenodd" clip-rule="evenodd" d="M170.716 32.866C166.336 31.9231 163.237 28.0817 163.237 23.1174C163.237 18.1524 166.336 14.3111 170.716 13.3687L170.716 10.1059C164.402 11.083 159.796 16.3625 159.796 23.1174C159.796 29.8723 164.402 35.1511 170.716 36.1282L170.716 32.866Z" fill="black"/>
<path fill-rule="evenodd" clip-rule="evenodd" d="M175.989 32.866C180.37 31.9231 183.468 28.0817 183.468 23.1174C183.468 18.1524 180.37 14.3111 175.989 13.3687L175.989 10.1059C182.303 11.083 186.909 16.3625 186.909 23.1174C186.909 29.8723 182.303 35.1511 175.989 36.1282L175.989 32.866Z" fill="black"/>
</svg>
