<?xml version="1.0" encoding="UTF-8" standalone="no"?>
<!DOCTYPE svg PUBLIC "-//W3C//DTD SVG 1.1//EN" "http://www.w3.org/Graphics/SVG/1.1/DTD/svg11.dtd">
<svg width="100%" height="100%" viewBox="0 0 801 121" version="1.1" xmlns="http://www.w3.org/2000/svg" xmlns:xlink="http://www.w3.org/1999/xlink" xml:space="preserve" xmlns:serif="http://www.serif.com/" style="fill-rule:evenodd;clip-rule:evenodd;stroke-miterlimit:10;">
    <g id="BODY" transform="matrix(2.66667,0,0,2.66667,0,0)">
        <g>
            <clipPath id="_clip1">
                <rect x="-6" y="-6" width="312" height="57" clip-rule="nonzero"/>
            </clipPath>
            <g clip-path="url(#_clip1)">
                <g transform="matrix(1,0,0,1,58.0542,29.1754)">
                    <path d="M0,-18.484L4.748,-5.078L9.471,-18.484L14.473,-18.484L14.473,0L10.651,0L10.651,-5.052L11.032,-13.774L6.043,0L3.428,0L-1.549,-13.761L-1.168,-5.052L-1.168,0L-4.977,0L-4.977,-18.484L0,-18.484Z" style="fill-rule:nonzero;"/>
                </g>
                <g transform="matrix(1,0,0,1,87.1772,20.3526)">
                    <path d="M0,-0.838C0,-2.776 -0.347,-4.249 -1.041,-5.256C-1.735,-6.263 -2.726,-6.767 -4.012,-6.767C-5.29,-6.767 -6.275,-6.27 -6.97,-5.275C-7.664,-4.28 -8.015,-2.823 -8.023,-0.901L-8.023,-0C-8.023,1.887 -7.677,3.351 -6.982,4.392C-6.288,5.433 -5.29,5.954 -3.986,5.954C-2.708,5.954 -1.727,5.453 -1.041,4.45C-0.355,3.447 -0.009,1.985 0,0.063L0,-0.838ZM3.859,-0C3.859,1.82 3.538,3.415 2.895,4.786C2.251,6.157 1.331,7.215 0.133,7.96C-1.064,8.704 -2.438,9.077 -3.986,9.077C-5.519,9.077 -6.885,8.709 -8.087,7.973C-9.289,7.236 -10.22,6.184 -10.88,4.818C-11.54,3.451 -11.874,1.879 -11.883,0.101L-11.883,-0.813C-11.883,-2.632 -11.555,-4.234 -10.898,-5.618C-10.243,-7.002 -9.316,-8.064 -8.119,-8.804C-6.921,-9.545 -5.552,-9.915 -4.012,-9.915C-2.472,-9.915 -1.103,-9.545 0.096,-8.804C1.293,-8.064 2.22,-7.002 2.875,-5.618C3.531,-4.234 3.859,-2.636 3.859,-0.825L3.859,-0Z" style="fill-rule:nonzero;"/>
                </g>
                <g transform="matrix(1,0,0,1,103.389,15.5412)">
                    <path d="M0,8.785C0,8.066 -0.254,7.514 -0.762,7.128C-1.27,6.743 -2.184,6.337 -3.504,5.91C-4.824,5.482 -5.869,5.061 -6.64,4.646C-8.738,3.512 -9.788,1.985 -9.788,0.063C-9.788,-0.935 -9.507,-1.826 -8.944,-2.609C-8.381,-3.392 -7.573,-4.004 -6.519,-4.444C-5.466,-4.883 -4.282,-5.104 -2.971,-5.104C-1.65,-5.104 -0.474,-4.864 0.559,-4.386C1.591,-3.908 2.394,-3.233 2.964,-2.361C3.536,-1.49 3.821,-0.5 3.821,0.609L0.013,0.609C0.013,-0.237 -0.254,-0.895 -0.787,-1.365C-1.32,-1.835 -2.069,-2.069 -3.034,-2.069C-3.965,-2.069 -4.688,-1.873 -5.205,-1.479C-5.722,-1.086 -5.979,-0.567 -5.979,0.076C-5.979,0.677 -5.677,1.181 -5.071,1.587C-4.467,1.993 -3.576,2.374 -2.399,2.729C-0.232,3.381 1.346,4.189 2.336,5.154C3.326,6.119 3.821,7.321 3.821,8.76C3.821,10.359 3.216,11.614 2.006,12.524C0.796,13.433 -0.834,13.889 -2.882,13.889C-4.304,13.889 -5.599,13.628 -6.767,13.108C-7.935,12.587 -8.825,11.874 -9.438,10.969C-10.053,10.063 -10.359,9.014 -10.359,7.82L-6.538,7.82C-6.538,9.86 -5.319,10.88 -2.882,10.88C-1.977,10.88 -1.27,10.696 -0.762,10.327C-0.254,9.959 0,9.445 0,8.785" style="fill-rule:nonzero;"/>
                </g>
                <g transform="matrix(1,0,0,1,123.702,26.0904)">
                    <path d="M0,-12.314L-5.662,-12.314L-5.662,3.085L-9.471,3.085L-9.471,-12.314L-15.057,-12.314L-15.057,-15.399L0,-15.399L0,-12.314Z" style="fill-rule:nonzero;"/>
                </g>
                <g transform="matrix(1,0,0,1,136.156,20.2891)">
                    <path d="M0,-0.711L3.402,-0.711C4.409,-0.711 5.178,-0.948 5.707,-1.422C6.235,-1.896 6.5,-2.573 6.5,-3.453C6.5,-4.359 6.233,-5.091 5.7,-5.649C5.167,-6.208 4.431,-6.496 3.491,-6.513L0,-6.513L0,-0.711ZM0,2.374L0,8.887L-3.809,8.887L-3.809,-9.598L3.402,-9.598C4.79,-9.598 6.012,-9.344 7.064,-8.836C8.119,-8.328 8.929,-7.607 9.496,-6.671C10.063,-5.736 10.347,-4.672 10.347,-3.479C10.347,-1.668 9.727,-0.239 8.486,0.806C7.247,1.852 5.531,2.374 3.339,2.374L0,2.374Z" style="fill-rule:nonzero;"/>
                </g>
                <g transform="matrix(1,0,0,1,160.442,20.3526)">
                    <path d="M0,-0.838C0,-2.776 -0.347,-4.249 -1.041,-5.256C-1.735,-6.263 -2.726,-6.767 -4.012,-6.767C-5.29,-6.767 -6.275,-6.27 -6.97,-5.275C-7.664,-4.28 -8.015,-2.823 -8.023,-0.901L-8.023,-0C-8.023,1.887 -7.677,3.351 -6.982,4.392C-6.288,5.433 -5.29,5.954 -3.986,5.954C-2.708,5.954 -1.727,5.453 -1.041,4.45C-0.355,3.447 -0.009,1.985 0,0.063L0,-0.838ZM3.859,-0C3.859,1.82 3.538,3.415 2.895,4.786C2.251,6.157 1.331,7.215 0.133,7.96C-1.064,8.704 -2.438,9.077 -3.986,9.077C-5.519,9.077 -6.885,8.709 -8.087,7.973C-9.289,7.236 -10.22,6.184 -10.88,4.818C-11.54,3.451 -11.874,1.879 -11.883,0.101L-11.883,-0.813C-11.883,-2.632 -11.555,-4.234 -10.898,-5.618C-10.243,-7.002 -9.316,-8.064 -8.119,-8.804C-6.921,-9.545 -5.552,-9.915 -4.012,-9.915C-2.472,-9.915 -1.103,-9.545 0.096,-8.804C1.293,-8.064 2.22,-7.002 2.875,-5.618C3.531,-4.234 3.859,-2.636 3.859,-0.825L3.859,-0Z" style="fill-rule:nonzero;"/>
                </g>
                <g transform="matrix(1,0,0,1,170.877,20.2891)">
                    <path d="M0,-0.711L3.402,-0.711C4.409,-0.711 5.178,-0.948 5.707,-1.422C6.235,-1.896 6.5,-2.573 6.5,-3.453C6.5,-4.359 6.233,-5.091 5.7,-5.649C5.167,-6.208 4.431,-6.496 3.491,-6.513L0,-6.513L0,-0.711ZM0,2.374L0,8.887L-3.809,8.887L-3.809,-9.598L3.402,-9.598C4.79,-9.598 6.012,-9.344 7.064,-8.836C8.119,-8.328 8.929,-7.607 9.496,-6.671C10.063,-5.736 10.347,-4.672 10.347,-3.479C10.347,-1.668 9.727,-0.239 8.486,0.806C7.247,1.852 5.531,2.374 3.339,2.374L0,2.374Z" style="fill-rule:nonzero;"/>
                </g>
                <g transform="matrix(1,0,0,1,197.83,29.4294)">
                    <path d="M0,-18.738L0,-6.563C0,-4.54 -0.633,-2.941 -1.898,-1.764C-3.163,-0.588 -4.892,0 -7.084,0C-9.242,0 -10.956,-0.571 -12.226,-1.714C-13.495,-2.856 -14.143,-4.426 -14.168,-6.424L-14.168,-18.738L-10.359,-18.738L-10.359,-6.538C-10.359,-5.327 -10.069,-4.445 -9.49,-3.891C-8.91,-3.337 -8.108,-3.059 -7.084,-3.059C-4.942,-3.059 -3.855,-4.185 -3.821,-6.436L-3.821,-18.738L0,-18.738Z" style="fill-rule:nonzero;"/>
                </g>
                <g transform="matrix(1,0,0,1,204.761,13.7512)">
                    <path d="M0,12.365L8.087,12.365L8.087,15.425L-3.809,15.425L-3.809,-3.06L0,-3.06L0,12.365Z" style="fill-rule:nonzero;"/>
                </g>
                <g transform="matrix(1,0,0,1,219.818,17.5852)">
                    <path d="M0,4.697L4.621,4.697L2.297,-2.222L0,4.697ZM5.648,7.782L-1.029,7.782L-2.299,11.591L-6.348,11.591L0.533,-6.894L4.062,-6.894L10.98,11.591L6.932,11.591L5.648,7.782Z" style="fill-rule:nonzero;"/>
                </g>
                <g transform="matrix(1,0,0,1,236.334,20.5432)">
                    <path d="M0,-1.219L3.072,-1.219C4.029,-1.219 4.77,-1.462 5.295,-1.949C5.818,-2.436 6.082,-3.106 6.082,-3.961C6.082,-4.833 5.834,-5.518 5.338,-6.018C4.844,-6.517 4.084,-6.767 3.061,-6.767L0,-6.767L0,-1.219ZM3.035,1.866L0,1.866L0,8.633L-3.809,8.633L-3.809,-9.852L3.061,-9.852C5.244,-9.852 6.928,-9.365 8.113,-8.392C9.297,-7.419 9.891,-6.043 9.891,-4.266C9.891,-3.005 9.617,-1.953 9.07,-1.111C8.525,-0.269 7.697,0.402 6.59,0.901L10.588,8.455L10.588,8.633L6.5,8.633L3.035,1.866Z" style="fill-rule:nonzero;"/>
                </g>
                <g transform="matrix(1,0,0,1,89.5,36.5)">
                    <path d="M0,0L121,0" style="fill:none;fill-rule:nonzero;stroke:rgb(232,2,76);stroke-width:5px;"/>
                </g>
            </g>
        </g>
    </g>
</svg>
