<svg id="Layer_1" data-name="Layer 1" xmlns="http://www.w3.org/2000/svg" viewBox="0 0 702.74 179.11"><defs><style>.cls-1{fill:#fff;}</style></defs><path class="cls-1" d="M76.33,177h25V1.65H69.5l-13,92.61L43.81,1.65H9.64V177h23.8V63.63L49.7,177H60.3l16-113.35V177Zm29.38,0h61.51V150.35H132.34V99.68h31.81V73.29H132.34V27.34H166V1.65H105.71ZM218.51,27.1H240.9V1.65H169.73V27.1h22.39V177h26.39ZM288,61.27c0,7.78-2.36,12.49-9.66,12.49h-7.07V25.45h7.07c8,0,9.66,3.77,9.66,11.31ZM290.55,177h26.39V175.8c-1.18-2.59-2.59-5.89-2.59-13V101.33c0-11.78-5.66-16.5-11.55-19.09,4.71-2.12,11.55-7.78,11.55-22.39V28.75c0-19.56-9-27.1-26.63-27.1H244.59V177h26.63V98.74h6.83c8.48,0,9.9,3.3,9.9,11.08v52.79c0,9.42,1.42,12.48,2.6,14.37m73.68-37.23c0,7.54-1.89,13.43-9,13.43-7.54,0-9.66-5.89-9.66-13.43V38.88c0-9,2.59-13.43,9.43-13.43,6.13,0,9.19,4.24,9.19,13.43Zm27.1-1.89V40.06C391.33,16,383.08,0,357.16,0h-4.48c-25,0-34.17,16-34.17,40.3v97.56c0,24.51,8.95,41.24,34.41,41.24h4.48c25.68,0,33.93-16.73,33.93-41.24m47.06-71.64c0,7.07-1.18,12.73-9.19,12.73h-6.83V25.45h6.83c7.78,0,9.19,5.18,9.19,12Zm26.86,5.89V30.63c0-21-8.48-29-27.34-29H395.73V177h26.63V104.15h15.55c18.15,0,27.34-11.3,27.34-32m49.65,67.64c0,7.54-1.89,13.43-9,13.43-7.54,0-9.66-5.89-9.66-13.43V38.88c0-9,2.59-13.43,9.43-13.43,6.13,0,9.19,4.24,9.19,13.43Zm27.1-1.89V40.06C542,16,533.75,0,507.83,0h-4.48c-25,0-34.17,16-34.17,40.3v97.56c0,24.51,9,41.24,34.41,41.24h4.48c25.68,0,33.93-16.73,33.93-41.24M546.37,177h59.15v-27.1H573V1.65H546.37Zm63.08,0h26.63V1.65H609.45ZM668.77,39.12v-3.3c0-8.25,1.41-12.26,7.78-12.26s7.54,4.48,7.54,10.37V59.14h25.69V30.39c0-20.74-8.48-30.4-30.4-30.4h-5c-21,0-32.76,10.84-32.76,34.17v5.66c0,17.44,3.3,28.75,14.61,43.36l17,21.68c9.66,12.49,10.84,17,10.84,29.46v4c0,10.84-2.36,15.08-8.72,15.08-6.13,0-8.72-4.24-8.72-12.25V110.52H640.26v35.11c0,21.68,11.31,33.23,32.52,33.23H678c23.33,0,34.41-15.32,34.41-41v-5.66c0-19.8-3.77-28.75-15.79-44.31L679.62,66c-9-11.52-10.85-16.94-10.85-26.84" transform="translate(-9.64 0.01)"/></svg>