<svg width="372" height="68" xmlns="http://www.w3.org/2000/svg" xmlns:xlink="http://www.w3.org/1999/xlink"><defs><path d="M99.94 6c3.182 0 6.539 1.923 6.743 5.683l-4.145.175c-.263-1.487-1.167-2.332-2.685-2.332-2.452 0-3.182 2.215-3.182 4.313 0 2.07.584 4.488 3.094 4.488 1.577 0 2.715-1.02 2.89-2.594l4.174.204c-.788 4.168-3.444 6.033-7.152 6.033-4.816 0-7.472-3.293-7.472-7.927 0-4.72 2.86-8.043 7.735-8.043Zm15.442 0c4.641 0 7.56 3.41 7.56 7.927 0 4.662-3.269 8.043-7.969 8.043-4.729 0-7.677-3.264-7.677-7.898 0-4.895 3.182-8.072 8.086-8.072Zm43.998 0c4.116 0 6.86 1.195 6.86 5.683v6.527c0 1.545.117 2.536.496 3.206l.088.117h-4.525l-.204-1.37c-1.43.933-2.306 1.807-4.73 1.807-2.772 0-5.283-1.661-5.283-4.867 0-3.293 2.569-4.43 5.4-4.837l2.044-.292c1.284-.175 2.335-.291 2.335-1.253 0-1.253-1.605-1.399-2.306-1.399-1.576 0-2.656.583-2.656 1.894h-3.97c.262-5.012 5.05-5.216 6.45-5.216Zm11.643.448v8.655c0 1.662.318 3.264 2.345 3.264 2.141 0 2.575-1.777 2.575-4.05V6.448h4.14v15.096h-4.053v-1.661c-.84 1.37-2.72 2.04-4.254 2.04-4.689 0-5.008-3.818-5.008-6.674v-8.8h4.255ZM92.097 17.207v4.342h-4.35v-4.342h4.35Zm39.807-11.12c1.81 0 3.327.846 4.028 2.594.934-1.632 2.656-2.564 4.525-2.564 1.138 0 2.48.35 3.386 1.078 1.538 1.257 1.63 2.781 1.634 4.573v9.765h-4.29v-7.927c0-1.632-.147-3.614-2.19-3.614-2.18 0-2.328 1.81-2.335 3.46v8.08h-4.32v-8.538c0-1.282-.322-3.002-2.219-3.002-2.19 0-2.394 2.07-2.394 3.497v8.044h-4.261V6.437h4.261v2.011c.905-1.69 2.277-2.36 4.175-2.36Zm19.04 11.104v4.342h-4.349V17.19h4.35Zm11.034-2.885c-.409.145-.671.262-1.051.35-1.197.32-4.495.349-4.495 2.301 0 1.253 1.138 1.632 2.014 1.632.321 0 2.423-.029 3.532-1.952v-2.331Zm-46.8-4.867c-2.599 0-3.474 2.215-3.474 4.458 0 2.186.817 4.576 3.415 4.576 2.657 0 3.415-2.477 3.415-4.721 0-2.157-.817-4.313-3.356-4.313Z" id="a"/><path id="b" d="M0 0h40v18.933H0z"/></defs><g fill="none" fill-rule="evenodd"><g transform="translate(187.697 22.6)"><path d="M30.007 0c6.971 0 10.276 5.31 10.276 11.747v1.006H25.655c.362 2.575 1.773 4.466 4.513 4.466 1.854 0 3.022-.644 3.909-2.213l5.964.402c-1.491 4.466-5.44 6.638-10.034 6.638-6.61 0-10.558-4.626-10.558-11.023C19.449 4.787 23.599 0 30.007 0Zm47.027 0c4.594 0 8.906 1.971 9.148 7.08l-5.562.282c-.12-2.213-1.934-3.017-3.666-3.017-1.129 0-2.902.201-2.902 1.77 0 3.178 12.734.684 12.734 8.931 0 5.391-4.876 7-9.43 7-4.432 0-9.671-1.971-9.671-7.483v-.241l5.642-.201c.362 2.695 1.773 3.46 4.433 3.46 1.289 0 2.982-.282 2.982-1.931 0-3.742-12.412-.724-12.412-9.052C68.33 1.69 72.803 0 77.034 0ZM11.566.12c1.571 0 3.143.403 4.392 1.368 2.378 1.81 2.78 4.345 2.78 7.161v12.794h-6.084V9.173c0-2.012-.766-3.983-3.103-3.983-2.821 0-3.587 2.494-3.587 4.707v11.546H0V.603h5.803v2.414C7.253 1.167 9.148.121 11.566.121Zm33.11.483 3.183 13.035L51.123.603h5.239l3.224 13.035L62.769.603h6.045l-6.045 20.84h-5.52L53.741 7.362l-3.465 14.08h-5.602L38.59.604h6.085ZM30.167 4.667c-2.539 0-3.828 1.207-4.473 3.58h8.342c-.202-2.092-1.733-3.58-3.869-3.58Z" fill="#000"/><use fill="#A1A6A9" xlink:href="#a"/></g><g transform="translate(130 10)"><rect fill="#C90000" x="19.84" width="8.4" height="8.4" rx="1.2"/><rect fill="#00838D" x="19.833" y="39.6" width="8.414" height="8.4" rx="1.2"/><rect fill="#7C28B6" y="19.8" width="8.414" height="8.4" rx="1.2"/><rect fill="#81888C" x="39.667" y="19.8" width="8.414" height="8.4" rx="1.2"/></g><g transform="rotate(45 76.97 185.924)"><rect fill="#F46A00" x="19.833" width="8.414" height="8.4" rx="1.2"/><rect fill="#1691DB" x="19.833" y="39.6" width="8.414" height="8.4" rx="1.2"/><rect fill="#D51387" y="19.8" width="8.414" height="8.4" rx="1.2"/><rect fill="#4AA90F" x="39.667" y="19.8" width="8.414" height="8.4" rx="1.2"/></g><path d="M113 10h1v48h-1z" fill="#E0E1E2"/><g transform="translate(57 10)"><mask id="c" fill="#fff"><use xlink:href="#b"/></mask><path d="M35.067 18.437c-.533.032-.99.06-1.445.086-.053.003-.109.006-.156-.01-.028-.01-.063-.06-.06-.087.019-.134.195-.278.337-.28.241-.002.483.004.725-.004.293-.01.547-.117.72-.359a.629.629 0 0 0 .126-.313c.018-.362.144-.692.242-1.034a3.03 3.03 0 0 0 .114-.692c.026-.571.045-1.143.036-1.714-.006-.32-.123-.623-.282-.906-.116-.209-.191-.448-.337-.632-.192-.242-.35-.515-.62-.701-.193-.135-.347-.33-.507-.509-.185-.206-.427-.317-.67-.43-.114-.054-.228-.108-.346-.15-.037-.014-.087.006-.131.011.014.041.015.095.043.12.108.097.23.179.336.277.115.107.224.22.326.339.193.221.387.439.474.733.044.147.137.278.197.421.15.359.056.693-.099 1.026-.16.346-.379.648-.629.933a4.114 4.114 0 0 0-.363.489c-.067.104-.105.226-.15.343-.11.287-.22.575-.324.864-.056.157-.098.319-.152.477-.054.161-.119.32-.173.48-.072.218-.152.435-.205.658-.067.276-.168.529-.386.717a.306.306 0 0 1-.197.069c-.739-.042-1.477-.09-2.216-.141-.045-.003-.115-.034-.125-.067-.014-.046 0-.13.033-.154.084-.063.184-.14.28-.144.398-.016.797-.014 1.196-.005a.638.638 0 0 0 .506-.213c.274-.304.497-.64.6-1.05.039-.152.15-.286.214-.434.118-.272.228-.548.338-.823.2-.503.215-1.04.293-1.566.019-.126.088-.244.139-.364.072-.173.172-.339.217-.518a.905.905 0 0 0-.106-.698c-.114-.192-.202-.406-.345-.573-.287-.335-.596-.639-1.08-.701-.366-.048-.719-.19-1.084-.243-.38-.056-.665-.29-.998-.433-.343-.147-.588-.405-.83-.672-.043-.046-.082-.1-.134-.132a.763.763 0 0 1-.304-.369c-.013-.028-.028-.061-.052-.077-.273-.177-.351-.497-.542-.735-.097-.122-.136-.291-.193-.442-.101-.264-.205-.527-.291-.795a1.208 1.208 0 0 1 .007-.77c.116-.35.212-.705.33-1.053.051-.153.142-.292.203-.442.122-.305.223-.62.355-.92.229-.522.267-1.072.284-1.628.004-.154.01-.308-.001-.461a.451.451 0 0 0-.267-.385c-.323-.145-.66-.26-.989-.39-.048-.018-.089-.056-.133-.085.038-.039.07-.101.115-.114.272-.074.545-.147.822-.201.201-.04.368-.096.451-.31.08-.206.304-.209.474-.264.247-.08.487.012.718.107.01.004.022.008.026.016.107.19.265.37.307.575.084.406-.006.81-.127 1.207-.059.194-.11.396-.125.597-.03.401-.217.751-.33 1.125-.056.184-.132.37-.146.558-.025.328-.011.659-.01.988 0 .045.012.102.04.133.187.205.347.46.579.59.244.135.554.182.84.204.273.021.552-.04.829-.066.015-.001.03-.006.046-.007.475-.035.952-.058 1.425-.109.285-.03.563-.113.847-.157.457-.072.908-.193 1.383-.071.41.105.834.157 1.25.24.1.02.198.065.294.107.139.06.272.133.411.193.205.088.4.183.522.385.025.042.085.06.122.097.101.101.2.206.297.311.064.069.124.14.188.21.046.05.103.09.143.144.3.396.595.795.892 1.193a.292.292 0 0 1 .034.053c.14.313.284.625.417.942.05.119.07.25.107.374.1.34.21.678.296 1.022.041.165.038.342.047.514.005.11-.065.15-.154.1-.21-.113-.41-.247-.62-.36a2.672 2.672 0 0 0-.402-.165 16.17 16.17 0 0 0-.73-.232c-.21-.06-.423-.147-.637-.156-.572-.023-1.144-.013-1.716-.01-.148.001-.192.09-.125.243.081.187.148.387.266.55.156.214.147.477.26.7.296.588.21 1.203.126 1.816-.054.395.043.771.108 1.151.071.418.1.834-.007 1.247-.118.45-.262.893-.253 1.369.006.31-.065.387-.37.417-.25.024-.503.005-.68.005m-7.057-11.2h.055c-.134.63.267 1.055.573 1.51.12.18.281.332.428.493.276.302.59.56.97.715.294.12.605.2.909.291.125.038.253.07.382.09.33.048.614-.075.893-.237.203-.118.416-.277.635-.297.457-.04.923-.019 1.383.01.36.023.715.11 1.075.14.662.055 1.327.086 1.99.13.212.015.396-.031.535-.204.187-.234.24-.517.214-.794-.017-.18-.125-.361-.223-.524-.096-.16-.229-.299-.349-.444-.165-.2-.332-.397-.502-.592-.034-.039-.084-.063-.13-.09-.116-.068-.23-.145-.353-.2-.203-.093-.408-.188-.62-.25-.184-.055-.385-.049-.57-.099a2.654 2.654 0 0 0-1.09-.08c-.159.023-.315.067-.475.09-.27.036-.54.062-.81.095-.484.06-.965.132-1.45.178-.355.033-.713.044-1.07.043-.321 0-.631-.072-.921-.22-.124-.064-.272-.087-.387-.163-.16-.106-.3-.245-.45-.367-.187-.153-.44-.095-.512.137-.064.206-.088.425-.13.64M12.832 0c.154.113.26.226.39.277.233.092.352.282.484.468.03.043.066.082.105.116.071.063.138.049.184-.03.025-.044.035-.097.05-.147.052-.172.103-.337.296-.418.082-.035.14-.124.211-.186.102-.091.143-.075.186.047.1.28.048.548-.058.811-.076.192-.034.264.173.3.155.027.308.066.46.102a.13.13 0 0 1 .07.035c.13.161.277.314.383.49.08.133.183.219.299.312.134.107.251.248.34.395.069.111-.122.377-.257.396-.42.06-.842.108-1.258.186-.29.054-.58.175-.669.48-.063.215-.044.464-.02.694.028.257.08.517.163.762.116.34.093.692.125 1.038.042.454-.054.874-.326 1.26-.247.35-.451.735-.446 1.182.002.17.034.348.1.503.103.243.24.473.373.704.268.467.333.943-.079 1.384-.072.077-.127.075-.164-.019-.041-.105-.09-.214-.097-.323a8.197 8.197 0 0 1 .002-.74.493.493 0 0 0-.158-.378c-.157-.162-.31-.327-.46-.496-.1-.113-.185-.15-.333-.049-.375.258-.7.565-.979.922a.469.469 0 0 0-.088.166c-.078.304-.244.56-.421.813a.247.247 0 0 0-.032.19c.127.4.192.807.146 1.224-.028.249-.083.494-.123.742-.056.348-.227.645-.402.943a.924.924 0 0 0-.11.326c-.075.496-.135.994-.21 1.49-.041.283-.12.562-.147.846-.03.307-.037.618-.021.925.01.18.311.386.538.398.697.036 1.394.067 2.091.094.267.01.535-.002.803.001.43.005.821.141 1.177.381.034.023.053.07.078.105-.04.02-.078.051-.119.056-.187.023-.376.052-.564.054-.588.004-1.182.041-1.764-.02a8.144 8.144 0 0 0-1.507-.035c-.382.03-.765.046-1.147.058-.194.006-.344-.076-.474-.232-.175-.213-.116-.43-.064-.656.084-.365.199-.728.24-1.099.059-.528-.165-.99-.445-1.425a.854.854 0 0 1-.113-.267.452.452 0 0 0-.271-.325c-.045-.02-.134-.002-.17.032-.227.222-.453.447-.589.743-.024.052-.063.097-.094.145-.22.343-.45.68-.655 1.031-.111.191-.172.41-.269.612-.09.187-.197.367-.3.548-.017.03-.054.048-.082.071-.12.1-.23.217-.362.297a2.743 2.743 0 0 1-.494.227c-.235.084-.473.172-.718.219-.39.074-.785.156-1.18.163-1.176.022-2.354.013-3.531.006a1.483 1.483 0 0 1-.457-.103c-.12-.041-.094-.337.033-.44a.717.717 0 0 1 .545-.161c.379.042.756.098 1.135.137.15.016.301.004.452 0 .068-.001.136-.01.203-.022.365-.057.73-.119 1.095-.173.222-.033.452-.036.67-.088.267-.065.526-.168.79-.254.099-.032.2-.06.297-.097.2-.075.33-.236.486-.373.37-.323.503-.768.685-1.18.134-.301.144-.657.08-.992-.163-.845-.154-1.694-.12-2.548.014-.332-.036-.668-.074-1-.05-.436-.075-.857.121-1.279.127-.272.252-.532.449-.764.143-.17.222-.392.355-.572.232-.314.455-.643.734-.91.277-.265.62-.46.931-.689.093-.067.178-.144.267-.218l.01-.011.77-.606c.025-.019.059-.028.08-.05.168-.176.332-.355.5-.53.066-.069.132-.137.206-.195.298-.239.608-.464.898-.712.23-.197.444-.414.655-.63.194-.2.38-.405.56-.616.186-.218.298-.46.314-.764.02-.372.125-.74.156-1.112.012-.15-.054-.315-.117-.459-.076-.175-.192-.333-.282-.503-.161-.303-.17-.626-.124-1.011m.86 6.192c-.044-.295-.076-.591-.138-.882-.016-.075-.119-.176-.194-.188-.257-.039-.5.007-.684.223-.064.074-.15.131-.226.194l-.994.81-.796.659c-.2.163-.36.367-.582.512-.229.15-.418.359-.632.533-.147.118-.326.2-.455.333-.26.266-.497.552-.738.835-.102.12-.187.252-.28.378-.161.215-.324.429-.482.645-.024.033-.032.078-.05.115-.054.102-.121.198-.162.305-.06.158-.138.322-.143.485-.007.231.06.464.07.697.02.503.03 1.005.03 1.508-.001.25.216.652.427.738.33.134.67.147 1.005.052a2.738 2.738 0 0 0 1.444-.95c.126-.16.264-.326.325-.513.08-.245.108-.512.123-.77.02-.34.005-.682.007-1.023 0-.058-.006-.122.017-.17.154-.332.266-.698.486-.98.389-.498.83-.957 1.276-1.407.364-.367.735-.717 1.026-1.152.207-.31.328-.615.32-.987" fill="#006561" mask="url(#c)"/></g><path d="M83.758 22.791c-.046-.645-.51-1.14-1.04-1.104a.877.877 0 0 0-.662.402c-.16.232-.235.529-.214.836.044.623.48 1.106.985 1.106.018 0 .036 0 .055-.002.528-.037.92-.592.876-1.238m-.452-4.352c-.063-.718-.586-1.26-1.166-1.21-.58.05-1 .675-.938 1.393.03.342.165.656.378.884a.976.976 0 0 0 .788.326c.58-.05 1-.676.938-1.393m-2.092 3.622c.036-1.04-.295-2.029-.932-2.784-.643-.762-1.524-1.2-2.482-1.233-.957-.034-1.868.341-2.562 1.056-.688.71-1.088 1.673-1.124 2.713-.075 2.147 1.456 3.95 3.414 4.018l.114.002c1.907 0 3.498-1.667 3.572-3.772m-2.587-6.326c0-.655-.586-1.188-1.306-1.188-.72 0-1.306.533-1.306 1.188 0 .655.586 1.187 1.306 1.187.72 0 1.306-.532 1.306-1.187m-3.98 2.366c.088-.715-.367-1.361-1.014-1.44-.647-.08-1.245.438-1.333 1.153-.088.715.367 1.361 1.014 1.44a1.132 1.132 0 0 0 .882-.283c.248-.217.408-.526.45-.87m-1.939 3.982c-.554 0-1.005.514-1.005 1.146 0 .632.45 1.146 1.005 1.146.555 0 1.006-.514 1.006-1.146 0-.632-.451-1.146-1.006-1.146m1.642 5.572c0 .548.486.995 1.083.995s1.082-.447 1.082-.995c0-.549-.485-.995-1.082-.995-.597 0-1.083.446-1.083.995m4.735-.452c0 .655.451 1.188 1.005 1.188.555 0 1.006-.533 1.006-1.188 0-.655-.451-1.188-1.006-1.188-.554 0-1.005.533-1.005 1.188M86.966 31.832a.397.397 0 0 0 0-.793.399.399 0 0 0-.398.395.4.4 0 0 0 .398.398M85.203 35.485a.383.383 0 0 0-.38.395.4.4 0 0 0 .398.398.397.397 0 0 0 .394-.398c0-.218-.197-.395-.412-.395M78.56 32.207h-.528a.102.102 0 0 0-.103.07l-.405 1.114c-.04.108-.046.228-.046.345l-.033.02-.572-1.479a.101.101 0 0 0-.101-.07h-.528c-.066 0-.097.055-.07.103l.943 2.238c-.105.268-.196.37-.358.37a.52.52 0 0 1-.198-.045c-.049-.013-.088-.015-.12.044l-.14.314c-.024.05-.013.093.033.121a.925.925 0 0 0 .482.136c.38 0 .68-.252.847-.687l.968-2.49c.02-.046.002-.104-.07-.104M64.439 34.56h.486c.057 0 .09-.03.09-.088v-.749c0-.112-.022-.193-.114-.232l-.084-.038v-.046h.825c.673 0 1.124-.42 1.124-1.01 0-.595-.455-.986-1.124-.986H64.44c-.055 0-.088.033-.088.09v2.971c0 .058.033.088.088.088m.576-2.578h.627c.304 0 .475.208.475.428 0 .215-.162.426-.475.426h-.627v-.854M91.407 33.086c-.235-.05-.453-.08-.453-.218 0-.1.124-.182.348-.182.198 0 .392.07.56.169.04.018.09.035.122-.03l.143-.304c.022-.046.026-.088-.022-.122a1.423 1.423 0 0 0-.834-.244c-.565 0-.937.268-.937.727 0 .456.372.625.889.722.224.046.418.081.418.233 0 .123-.132.21-.36.21-.243 0-.507-.102-.665-.225-.044-.029-.093-.036-.128.021l-.18.297c-.025.042-.029.083.013.123.202.182.537.336.966.336.63 0 .974-.364.974-.809v-.002c0-.445-.339-.595-.854-.702M86.72 32.207c-.055 0-.088.033-.088.088v2.177c0 .057.033.087.088.087h.488c.055 0 .089-.03.089-.087v-2.177c0-.055-.034-.088-.089-.088h-.488M82.997 33.28c0-.697-.35-1.125-.9-1.125-.378 0-.67.188-.862.452H81.2a.813.813 0 0 0-.75-.452.959.959 0 0 0-.735.331l-.036-.01-.02-.18c-.01-.056-.033-.089-.087-.089h-.458c-.053 0-.086.033-.086.088v2.177c0 .057.033.087.086.087h.488c.055 0 .088-.03.088-.087v-1.079c.025-.445.245-.626.533-.626.295 0 .464.19.464.512v1.193c0 .057.035.087.09.087h.477c.058 0 .088-.03.088-.087v-1.079c.027-.445.245-.626.533-.626.295 0 .46.19.46.512v1.193c0 .057.033.087.088.087h.488c.055 0 .086-.03.086-.087v-1.193M89.924 34.072l-.299-.246c-.046-.035-.081-.026-.123.009-.068.057-.211.195-.469.195-.371 0-.602-.283-.602-.648 0-.362.23-.65.6-.65.21 0 .346.093.451.198.035.035.073.048.123.013l.302-.255c.06-.044.046-.09.017-.123-.18-.233-.508-.41-.915-.41-.721 0-1.212.555-1.212 1.227s.488 1.226 1.208 1.226c.407 0 .77-.183.941-.418.029-.046.027-.08-.022-.118M74.377 34.56c.055 0 .086-.03.086-.088v-2.176c0-.055-.03-.088-.086-.088h-.455c-.055 0-.077.033-.088.088l-.028.22-.036.004a1.021 1.021 0 0 0-.778-.369c-.55 0-1.08.448-1.08 1.236 0 .782.525 1.228 1.095 1.228a.936.936 0 0 0 .76-.373h.036l.009.081c.033.138.167.237.35.237h.215Zm-1.19-.494c-.34 0-.63-.228-.63-.683 0-.453.29-.679.62-.679.34 0 .635.24.635.694 0 .464-.302.668-.625.668ZM85.064 32.146a1.05 1.05 0 0 0-.777.36l-.035-.009-.022-.204c-.013-.055-.033-.088-.088-.088h-.451c-.055 0-.088.033-.088.088v2.97c0 .054.033.087.088.087h.482c.055 0 .085-.033.085-.088v-.993l.036-.008c.175.208.426.349.748.349.567 0 1.093-.446 1.093-1.228 0-.788-.532-1.236-1.071-1.236m-.205 1.915c-.324 0-.625-.205-.625-.668 0-.454.295-.694.636-.694.348 0 .636.227.636.681 0 .453-.288.681-.647.681M68.815 34.242h.035l.009.081c.033.138.167.237.35.237h.216c.054 0 .085-.03.085-.088v-2.176c0-.055-.03-.088-.085-.088h-.456c-.055 0-.077.033-.088.088l-.028.22-.036.004a1.022 1.022 0 0 0-.778-.37c-.55 0-1.08.45-1.08 1.237 0 .782.525 1.228 1.095 1.228a.936.936 0 0 0 .761-.373m-1.21-.859c0-.452.288-.679.618-.679.341 0 .636.24.636.694 0 .464-.301.668-.625.668-.34 0-.629-.228-.629-.683M75.162 34.56h.489c.055 0 .088-.031.088-.088v-3.09c0-.055-.033-.088-.088-.088h-.489c-.055 0-.088.033-.088.088v3.09c0 .057.033.087.088.087M71.502 32.82l.308-.51c.037-.062.008-.104-.046-.122a1.359 1.359 0 0 0-.302-.026.788.788 0 0 0-.651.354l-.035-.011-.024-.21c-.011-.054-.033-.087-.088-.087h-.454c-.054 0-.087.033-.087.088l.002 2.176c0 .057.033.088.088.088h.477c.057 0 .088-.03.088-.088v-1.06c.042-.376.192-.567.506-.567.09 0 .11.017.148.017.03 0 .054-.013.07-.041M77.533 39.053c.209 0 .407-.04.572-.123.05-.026.064-.061.044-.114l-.118-.292c-.018-.05-.06-.066-.113-.05-.05.015-.094.035-.2.035-.193 0-.33-.075-.33-.356v-.635c0-.114-.02-.19-.112-.233l-.084-.037v-.046h.795c.054 0 .087-.033.087-.088v-.373c0-.055-.033-.088-.087-.088h-.599v-.512c0-.055-.033-.088-.086-.088h-.48c-.055 0-.088.033-.088.088v.512h-.305c-.058 0-.09.033-.09.088v.373c0 .055.032.088.09.088h.305v.887c0 .624.22.964.8.964M79.982 36.607a.787.787 0 0 0-.65.353l-.036-.01-.025-.21c-.01-.054-.033-.087-.088-.087h-.453c-.055 0-.088.033-.088.088l.003 2.176c0 .057.033.088.087.088h.478c.057 0 .088-.03.088-.088v-1.06c.042-.376.191-.567.506-.567.09 0 .11.018.147.018.031 0 .055-.014.07-.042l.309-.512c.037-.061.009-.103-.046-.12a1.353 1.353 0 0 0-.302-.027M75.094 39.044c.632 0 .975-.33.975-.775s-.339-.63-.854-.738c-.235-.05-.453-.079-.453-.217 0-.101.123-.182.348-.182.198 0 .392.07.561.169.04.017.088.035.12-.031l.144-.303c.022-.046.026-.088-.022-.123a1.424 1.424 0 0 0-.834-.244c-.565 0-.937.268-.937.727 0 .457.372.626.889.723.224.046.417.08.417.232 0 .123-.131.211-.358.211-.244 0-.508-.103-.667-.226-.044-.028-.092-.035-.127.022l-.18.297c-.025.041-.029.083.013.123.202.182.537.335.965.335M82.903 36.653h-.455c-.055 0-.077.033-.088.088l-.028.22-.036.004a1.02 1.02 0 0 0-.778-.369c-.55 0-1.08.448-1.08 1.236 0 .782.525 1.228 1.095 1.228a.937.937 0 0 0 .76-.373h.036l.01.08c.032.14.166.238.349.238h.215c.055 0 .086-.03.086-.088v-2.176c0-.055-.03-.088-.086-.088m-1.19 1.858c-.34 0-.629-.229-.629-.683 0-.453.288-.679.618-.679.342 0 .636.24.636.694 0 .464-.301.668-.625.668M88.52 36.653h-.455c-.055 0-.077.033-.088.088l-.028.22-.035.004a1.021 1.021 0 0 0-.78-.369c-.55 0-1.08.448-1.08 1.236 0 .782.526 1.228 1.096 1.228a.937.937 0 0 0 .761-.373h.036l.008.08c.033.14.167.238.35.238h.216c.055 0 .086-.03.086-.088v-2.176c0-.055-.031-.088-.086-.088m-1.19 1.858c-.342 0-.63-.229-.63-.683 0-.453.288-.679.619-.679.34 0 .635.24.635.694 0 .464-.301.668-.625.668M85.463 36.653h-.489c-.054 0-.087.033-.087.088v2.176c0 .057.033.088.087.088h.489c.055 0 .088-.03.088-.088v-2.176c0-.055-.033-.088-.088-.088M83.695 39.005h.488c.055 0 .088-.03.088-.088l-.008-3.02c0-.054-.039-.087-.094-.087h-.488c-.055 0-.083.033-.083.088l.009 3.019c0 .057.033.088.088.088M69.789 35.922c-.018-.044-.062-.066-.11-.066h-.313c-.046 0-.07.02-.09.066l-1.324 2.98c-.027.061 0 .103.068.103h.561a.098.098 0 0 0 .095-.055l.099-.222c.033-.074.026-.13-.016-.167l-.097-.068v-.046h1.442l.2.492c.017.046.05.066.099.066h.559c.067 0 .098-.04.07-.103l-1.243-2.98Zm-.682 2.02.442-1.157h.035c-.002.099.002.274.042.386l.28.77h-.8ZM72.975 38.726h.037l.009.064c.037.131.156.22.33.22h.175c.055 0 .089-.031.089-.089v-2.18c0-.055-.034-.088-.089-.088h-.488c-.055 0-.09.033-.09.088v1.111c-.022.446-.244.628-.53.628-.295 0-.46-.189-.46-.516V36.74c0-.055-.035-.088-.088-.088h-.488c-.055 0-.088.033-.088.088v1.19c0 .736.325 1.127.92 1.127.336 0 .589-.126.76-.332" fill="#006561"/><path d="M77.324 43.627c-1.415-.325-3.348.033-5.174 1.086-2.858 1.647-4.372 4.369-3.382 6.08.633 1.094 2.134 1.51 3.882 1.238-.8-.184-1.434-.585-1.791-1.202-.99-1.712.524-4.434 3.381-6.08 1.032-.595 2.097-.968 3.084-1.122" fill="#DA3233"/><path d="M77.35 50.38c.425 1.386 1.702 2.878 3.528 3.93 2.858 1.647 5.976 1.594 6.966-.117.632-1.093.242-2.6-.867-3.974.24.783.21 1.532-.148 2.149-.99 1.711-4.108 1.764-6.965.117-1.032-.595-1.888-1.33-2.515-2.106" fill="#009949"/><path d="M75.412 47.02c-.99 1.061-1.646 2.912-1.646 5.017 0 3.293 1.605 5.963 3.584 5.963 1.265 0 2.377-1.09 3.015-2.737-.559.6-1.224.947-1.939.947-1.98 0-3.584-2.67-3.584-5.963 0-1.189.21-2.297.57-3.227" fill="#0074B0"/><path d="M16.543 39.523c-.189-2.48-2.203-4.432-4.66-4.432-2.581 0-4.674 2.156-4.674 4.815 0 2.66 2.093 4.816 4.674 4.816.137 0 .272-.007.404-.019a4.93 4.93 0 0 1 .003-.806c-.133.015-.27.022-.407.022-2.151 0-3.895-1.797-3.895-4.013s1.744-4.013 3.895-4.013c2.071 0 3.764 1.665 3.889 3.765a4.162 4.162 0 0 1-.036.847c-.22 1.514-1.261 2.75-2.641 3.216a4.206 4.206 0 0 0-.036.847c1.884-.503 3.308-2.186 3.48-4.239a4.942 4.942 0 0 0 .004-.806" fill="#0081C8"/><path d="M20.835 44.568c-.123 2.1-1.817 3.765-3.888 3.765-2.07 0-3.764-1.664-3.888-3.765a4.216 4.216 0 0 1 .036-.847c.22-1.514 1.26-2.751 2.64-3.215a4.216 4.216 0 0 0 .037-.847c-1.885.503-3.308 2.186-3.482 4.238a4.973 4.973 0 0 0-.003.806c.19 2.48 2.204 4.432 4.66 4.432 2.457 0 4.47-1.951 4.66-4.432a4.525 4.525 0 0 1-.772-.135" fill="#FCB131"/><path d="M18.123 39.659a4.529 4.529 0 0 0-1.58-.136 4.924 4.924 0 0 1-.003.807 3.775 3.775 0 0 1 .815 0c.277.029.547.089.804.176 1.38.465 2.42 1.701 2.64 3.215.258.086.527.147.805.176-.173-2.052-1.597-3.735-3.48-4.238" fill="#FCB131"/><path d="M22.419 43.897a3.785 3.785 0 0 1-1.62-.176c-1.38-.465-2.42-1.702-2.64-3.216a3.807 3.807 0 0 0-.804-.176c.174 2.053 1.596 3.735 3.48 4.239a4.589 4.589 0 0 0 1.58.135 5.32 5.32 0 0 1 .004-.806" fill="#231F20"/><path d="M26.671 39.523c-.19-2.48-2.203-4.432-4.66-4.432-2.456 0-4.47 1.952-4.66 4.432.265.023.523.07.773.135.123-2.1 1.817-3.765 3.887-3.765 2.072 0 3.764 1.665 3.888 3.765a4.098 4.098 0 0 1-.036.847c-.22 1.514-1.26 2.75-2.64 3.216a4.206 4.206 0 0 0-.036.847c1.884-.503 3.308-2.186 3.48-4.239a4.942 4.942 0 0 0 .004-.806" fill="#231F20"/><path d="M30.964 44.568c-.124 2.1-1.818 3.765-3.889 3.765-2.07 0-3.764-1.664-3.888-3.765a4.216 4.216 0 0 1 .036-.847c.22-1.514 1.261-2.751 2.641-3.215a4.216 4.216 0 0 0 .036-.847c-1.885.503-3.308 2.186-3.481 4.238a4.973 4.973 0 0 0-.003.806c.189 2.48 2.203 4.432 4.66 4.432 2.456 0 4.47-1.951 4.66-4.432a4.525 4.525 0 0 1-.772-.135" fill="#00A651"/><path d="M28.252 39.659a4.525 4.525 0 0 0-1.58-.136 4.924 4.924 0 0 1-.004.807 3.775 3.775 0 0 1 .815 0c.278.029.547.089.804.176 1.38.465 2.42 1.701 2.64 3.215.258.086.527.147.805.176-.173-2.052-1.596-3.735-3.48-4.238" fill="#00A651"/><path d="M32.14 35.091c-2.457 0-4.47 1.952-4.66 4.432.264.023.522.07.771.136.125-2.101 1.817-3.765 3.889-3.765 2.151 0 3.895 1.796 3.895 4.013 0 2.216-1.744 4.012-3.895 4.012a3.797 3.797 0 0 1-1.213-.198c-1.379-.465-2.42-1.702-2.64-3.215a3.802 3.802 0 0 0-.804-.177c.173 2.053 1.596 3.736 3.48 4.239a4.602 4.602 0 0 0 1.177.153c2.581 0 4.675-2.156 4.675-4.814 0-2.66-2.094-4.816-4.675-4.816" fill="#EE334F"/><path d="M14.706 10.472c.042-.673.019-.683 1.023.338.242.246.333.36.375.686a.567.567 0 0 1 .05-.017c.108-.768.246-.896.63-1.214.35-.288.379-.278.406.112.013.182.013.437-.01.644-.034.27-.05.318-.225.523l.025.008c.194.067.647.235.737.303a.44.44 0 0 1 .176.276c.027.135.092.24.202.314.367.252.893.627.945.703.073.108.039.723-.33.794-.32.06-1.01.102-1.33.16-.588.11-.793.29-.693 1.302.11 1.095.17 1.61.17 1.61.045.52.106 1.231-.263 1.884l-.051.092c-.213.377-.503.89-.814 1.34 0 0 1.302 1.984 1.468 2.35.152.34.242.993-.11 1.363a.762.762 0 0 1-.14.112.728.728 0 0 1-.361.138.694.694 0 0 1-.596-.28.537.537 0 0 0 .6-.612 1.699 1.699 0 0 0-.347-.746c-.102-.128-.601-.612-.93-.949l-.203-.208c-.235-.289-1.06-.826-1.114-1.733-.363.887.598 1.894.621 1.919l-.105.126-.211.254c-.455.548-.872 1.06-.878 1.067l-.151.186c-.051.048-.105.111-.156.17.162.359.29 1.08.26 1.512-.08 1.147-.725 2.773-.895 5.34a58.54 58.54 0 0 1-.024.429c-.032.486.023.742.164.892.141.151.391.2.695.195.303-.005 1.754-.095 2.09-.108.762-.028 1.466.1 1.796.271.472.247.58.664.58.664H11.95c-.313-.002-.571-.056-.71-.25-.286-.405-.073-1.311-.04-2.03.024-.488.078-1.894-.696-2.446-.662.495-1.465 2.182-2.214 3.131-.701.89-1.885 1.595-3.61 1.595H.698c-.287-.001-.674-.014-.695-.203-.061-.542.888-.53 1.19-.54 1.47-.055 2.899-.173 3.587-.366 1.609-.452 2.114-.942 2.47-2.047.353-1.096.152-2.605.149-2.96-.014-.968-.036-2.586.03-3.2.103-.98.638-2.158 1.331-2.932.508-.567 1.152-.988 1.776-1.396.258-.168.528-.344.783-.527.51-.366 1.594-1.516 3.239-3.405.243-.278.482-.715.48-.987-.005-.655.187-1.149.244-1.314.057-.165.185-.438-.132-.749-.467-.46-.477-1.051-.444-1.584Zm7.266 8.9.843 2.272 2.235-.731-1.206 2.032 1.87 1.273-2.17.284.163 2.307-1.735-1.659-1.686 1.63.11-2.268-2.177-.272 1.9-1.305-1.215-2.006.653.21 1.55.497.865-2.263Zm13.984 4.22c1.053-.032 3.725.246 4.766 1.099l-.002-.002c.166.132.268.06.276-.09a6.474 6.474 0 0 0-.87-3.524c-.751-1.324-2.583-3.567-6.25-3.483-1.744.04-3.66.83-4.685.302-.494-.253-1.126-.686-.953-1.667.305-1.739 1.043-3.528.945-4.435-.03-.266-.087-1.134-1.28-1.058a.997.997 0 0 0-.806.52l-.01.019-.021.03c-.035.054-.08.121-.191.148a4.391 4.391 0 0 0-.872.32l-.061.03c-.136.061-.127.156-.122.185.004.018.028.109.15.109h.023l.039-.002c.191 0 .447.038.757.11.54.128.828.574.77 1.19-.039.422-.492 1.699-.947 2.777-.795 1.88-1.013 2.59-.526 3.811.846 2.111 2.92 3.599 5.12 3.752.818.198 1.276 1.062 1.452 1.362.112.227.216.465.275.61.117.29.084.633.017.883-.11.4-1.694 4.572-1.922 4.89-.177.243-.306.407-.67.443-.227.022-1.006.062-1.211.064-.43.006-.796.366-.796.7l2.787-.003c.545 0 .652-.529.981-1.407.184-.492 1.106-2.8 1.41-3.468.233-.476.433-.868.539-1.086 0 0 .074-.153.205-.438.107-.237-.031-.828-.186-1.207-.09-.172-.643-1.486-1.49-1.75 1.062-.238 2.682 2.25 2.682 2.25h-.001c.028.043.056.088.081.13.457.79.502 1.676.5 2.26-.001.317-.061 2.872-.08 3.149-.018.277-.06.543-.3.704-.274.184-1.024.174-1.39.17-.468-.005-.816.408-.816.693h2.874c.572 0 .609-.61.609-1.004 0 0-.014-1.592.008-2.415.024-.822.201-2.597.242-3.114.041-.516-.077-.614-.266-1.026l-.784-1.531ZM8.73 54.742l-.652 1.78h1.299l-.647-1.78Zm-1.105 3.124c-.018.052-.052.075-.114.075h-.488c-.045 0-.061-.023-.061-.053 0-.016.005-.034.01-.057l1.395-3.808c.017-.053.051-.076.107-.076h.522c.063 0 .09.023.114.076l1.377 3.808c.005.017.018.04.018.057 0 .03-.018.053-.068.053h-.5c-.062 0-.095-.023-.113-.075l-.29-.817H7.92l-.294.817Zm5.867-3.825c0-.04.034-.076.068-.076h.5c.033 0 .067.035.067.076v2.329c0 .456-.125.836-.363 1.115-.282.329-.725.515-1.292.515-.561 0-1.003-.186-1.287-.515-.238-.28-.363-.659-.363-1.115v-2.33c0-.04.029-.075.068-.075h.493c.04 0 .073.035.073.076v2.26c0 .343.08.606.239.794.181.216.442.315.771.315.34 0 .6-.1.781-.315.165-.188.245-.45.245-.795v-2.26Zm1.35 3.585c-.04-.024-.052-.058-.03-.1l.2-.432c.017-.035.045-.052.09-.022.25.156.59.367 1.071.367.24 0 .42-.058.539-.152a.536.536 0 0 0 .21-.449c0-.269-.21-.422-.488-.532-.322-.135-.702-.199-1.065-.408-.312-.181-.533-.432-.533-.883 0-.326.125-.607.368-.799.238-.193.59-.304 1.055-.304.527 0 .924.146 1.18.291.04.024.044.06.028.1l-.2.427c-.022.04-.055.051-.095.03a1.876 1.876 0 0 0-.947-.282c-.255 0-.442.058-.556.158a.431.431 0 0 0-.164.35c0 .257.21.392.527.502.363.135.77.2 1.106.422.26.168.476.443.476.875 0 .392-.16.696-.42.906-.249.204-.606.309-1.016.309a2.45 2.45 0 0 1-1.337-.374m6.305-3.661c.039 0 .068.034.068.075v.432c0 .041-.029.07-.068.07H19.92v3.33c0 .04-.034.07-.073.07h-.494c-.039 0-.067-.03-.067-.07v-3.33h-1.232c-.039 0-.068-.029-.068-.07v-.432c0-.04.029-.075.068-.075h3.09Zm1.298.555v1.406h.919c.243 0 .437-.024.596-.121.163-.1.277-.287.277-.578 0-.287-.102-.473-.267-.579-.153-.105-.347-.128-.556-.128h-.969Zm1.536 1.898.947 1.401c.034.06.045.122-.034.122h-.55c-.06 0-.102-.011-.136-.076l-.912-1.39h-.85v1.396a.07.07 0 0 1-.069.07h-.499a.07.07 0 0 1-.067-.07v-3.83c0-.04.034-.076.067-.076h1.593c.374 0 .703.058.958.245.284.21.455.56.455 1.01 0 .403-.154.73-.443.959a1.22 1.22 0 0 1-.46.239Zm3.028-1.677-.652 1.781h1.299l-.647-1.78Zm-1.105 3.125c-.018.052-.051.075-.114.075h-.488c-.045 0-.063-.023-.063-.053 0-.016.007-.034.012-.057l1.395-3.808c.018-.053.051-.076.108-.076h.521c.063 0 .091.023.114.076l1.377 3.808c.005.017.018.04.018.057 0 .03-.018.053-.068.053h-.499c-.062 0-.096-.023-.114-.075l-.29-.817h-1.616l-.293.817Zm3.917-3.901c.034 0 .068.034.068.075v3.324h1.81c.038 0 .067.034.067.07v.438c0 .04-.029.07-.068.07h-2.376a.07.07 0 0 1-.068-.07V54.04c0-.04.034-.075.068-.075h.499Zm3.13 0c.033 0 .068.034.068.075v3.832a.07.07 0 0 1-.069.07h-.498a.07.07 0 0 1-.068-.07V54.04c0-.04.033-.075.068-.075h.498Zm2.296.776-.652 1.781h1.299l-.647-1.78Zm-1.105 3.125c-.018.052-.051.075-.114.075h-.488c-.045 0-.063-.023-.063-.053 0-.016.007-.034.012-.057l1.395-3.808c.016-.053.05-.076.108-.076h.521c.063 0 .091.023.114.076l1.377 3.808c.005.017.018.04.018.057 0 .03-.018.053-.068.053h-.499c-.063 0-.096-.023-.114-.075l-.29-.817h-1.616l-.293.817Z" fill="#005055"/></g></svg>