<svg id="popup-logo" xmlns="http://www.w3.org/2000/svg" width="185.332" height="110.818" viewBox="0 0 185.332 110.818">
  <g id="Group_3258" data-name="Group 3258">
    <path id="Path_18" data-name="Path 18" d="M238.409,667.126v-22.44q-2.883,6.52-9.855,6.519-14.178,0-14.177-18.876,0-9.625,3.9-14.175t11.712-4.549q6.29,0,8.869,4.773l.53-4.017h17.285v1.365H252.51v51.4m-22.742-21.87q.757,2.694,2.957,2.692t3.942-2.729a13.866,13.866,0,0,0,1.744-7.5v-14.1a10.822,10.822,0,0,0-1.329-5.533A4.086,4.086,0,0,0,233.4,615.8q-2.655,0-3.525,3.374t-.871,11.635v3.944q0,7.806.759,10.5Z" transform="translate(-123.117 -579.407)" fill="#fff"/>
    <g id="Group_27" data-name="Group 27" transform="translate(115.305 59.714)">
      <path id="Path_19" data-name="Path 19" d="M268.251,682.1v36.18q0,7.6.832,10.029a3.141,3.141,0,0,0,3.142,2.429,3.5,3.5,0,0,0,3.177-1.336q.871-1.336-.34-3.239h-2.874a13.465,13.465,0,0,1-.456-3.52,4.691,4.691,0,0,1,1.477-3.343,5.93,5.93,0,0,1,4.427-1.51,7.377,7.377,0,0,1,4.919,1.654,5.854,5.854,0,0,1,1.968,4.751,6.8,6.8,0,0,1-2.913,5.42q-2.915,2.325-9.2,2.324-9.687,0-13.963-6.054t-4.276-17.6V680.838h14.1" transform="translate(-254.175 -680.838)" fill="#fff"/>
    </g>
    <path id="Path_135" data-name="Path 135" d="M71.324,597.173q0-19.238,8.623-29.706T103.622,557q10.268,0,15.75,4.137a12.929,12.929,0,0,1,5.483,10.814,9.485,9.485,0,0,1-2.442,6.529,8.2,8.2,0,0,1-6.43,2.743,9.207,9.207,0,0,1-6.38-2.143A6.613,6.613,0,0,1,107.211,574a15,15,0,0,1,.8-5.135h3.19a10.157,10.157,0,0,0,.6-3.589q0-6.283-7.078-6.28t-10.367,7.327q-3.29,7.329-3.389,25.272,5.184-8.075,15.053-8.074t15.551,5.331q5.682,5.333,5.682,16T119.771,622.2q-7.476,6.674-20.037,6.675Q71.324,628.874,71.324,597.173Zm29.607-10.367a7.5,7.5,0,0,0-5.732,2.542,13.412,13.412,0,0,0-3.19,5.981,38.715,38.715,0,0,0-.846,8.972q0,5.532.05,7.673t.3,5.084a17.715,17.715,0,0,0,.748,4.289,17.164,17.164,0,0,0,1.4,2.84,5.525,5.525,0,0,0,5.084,2.591,8.491,8.491,0,0,0,5.234-1.346,7.952,7.952,0,0,0,2.542-4.536,48.02,48.02,0,0,0,1.2-11.663q0-6.978-.05-9.271t-.25-4.833a16.344,16.344,0,0,0-.648-3.838,14.042,14.042,0,0,0-1.148-2.492Q104.32,586.806,100.931,586.806Z" transform="translate(-71.324 -557)" fill="#fff"/>
    <path id="Path_136" data-name="Path 136" d="M180.146,650.3q7.794,0,7.794-4.27,0-2.4-2.7-3.934a26.309,26.309,0,0,0-6.523-2.509q-3.821-.974-7.529-2.248a14.105,14.105,0,0,1-6.143-4.048,9.143,9.143,0,0,1-1.985-7.267,10.061,10.061,0,0,1,4.607-7.416,17.431,17.431,0,0,1,10.265-2.919,21.407,21.407,0,0,1,9.851,1.947q3.745,1.948,4.2,5.244a5.848,5.848,0,0,1-.636,3.746,3.378,3.378,0,0,1-3.07,1.8,4.914,4.914,0,0,1-3.522-1.124,3.354,3.354,0,0,1-1.311-2.772,4.389,4.389,0,0,1,1.2-2.81,3.466,3.466,0,0,0,1.124-1.985q0-1.273-2.435-1.91a22.327,22.327,0,0,0-5.619-.637,8.844,8.844,0,0,0-5.207,1.423,4.2,4.2,0,0,0-2.023,3.522q0,2.1,2.51,3.6a23.4,23.4,0,0,0,6.106,2.435q3.6.936,7.154,2.1a14.837,14.837,0,0,1,6.068,3.709,8.8,8.8,0,0,1,2.51,6.443,10.3,10.3,0,0,1-3.671,8.277q-3.671,3.111-11.088,3.11t-12.023-2.248q-4.607-2.246-5.057-5.767a5.711,5.711,0,0,1,.674-3.747,3.43,3.43,0,0,1,3.072-1.8,4.85,4.85,0,0,1,3.482,1.121,3.354,3.354,0,0,1,1.311,2.772,4.388,4.388,0,0,1-1.2,2.809,3.464,3.464,0,0,0-1.124,1.985q0,1.5,3.484,2.435A28.655,28.655,0,0,0,180.146,650.3Z" transform="translate(-104.56 -580.232)" fill="#fff"/>
    <g id="Group_42" data-name="Group 42" transform="translate(134.089 11.002)">
      <path id="Path_27" data-name="Path 27" d="M308.062,576.584q-3.082,0-4.052,2.311a20.585,20.585,0,0,0-.972,7.414v12.964h10.694v1.458H303.038v22.015H287.967V600.731h-4.7v-1.458h4.7v-.324q0-11.667,4.457-17.7t14.909-6.037q6.887,0,9.885,2.715a8.264,8.264,0,0,1,3,6.281,7.075,7.075,0,0,1-1.864,5.347,6.855,6.855,0,0,1-4.943,1.782,6.61,6.61,0,0,1-4.741-1.58,4.9,4.9,0,0,1-1.661-3.646,16.466,16.466,0,0,1,.487-4.01h3.082Q312.193,576.584,308.062,576.584Z" transform="translate(-283.267 -575.21)" fill="#fff"/>
    </g>
    <g id="Group_46" data-name="Group 46" transform="translate(130.086 34.768)">
      <path id="Path_30" data-name="Path 30" d="M285.28,641.785V614.548h15.137v27.314a17.248,17.248,0,0,1-.741,5.5,7.025,7.025,0,0,1-2.469,3.452,10.826,10.826,0,0,1-4.524,1.821,37.146,37.146,0,0,1-6.826.531h-9.215v-.6a9.024,9.024,0,0,0,2.879-.493,7.477,7.477,0,0,0,2.8-1.744,9.182,9.182,0,0,0,2.139-3.3A14.168,14.168,0,0,0,285.28,641.785Z" transform="translate(-276.642 -614.548)" fill="#fff"/>
    </g>
    <path id="Path_137" data-name="Path 137" d="M345.389,632.6a14.477,14.477,0,0,0,.719,4.961,8.821,8.821,0,0,0,1.869,3.127,6.513,6.513,0,0,0,2.446,1.654,7.373,7.373,0,0,0,2.516.467v.575h-8.052a30,30,0,0,1-5.967-.5,9.1,9.1,0,0,1-3.955-1.725,6.67,6.67,0,0,1-2.156-3.27,17.608,17.608,0,0,1-.648-5.213V606.789h-5.392v-.575h2.3a12.331,12.331,0,0,0,5.86-1.51,19.893,19.893,0,0,0,5-3.739,21.126,21.126,0,0,0,3.488-4.708,9.48,9.48,0,0,0,1.329-4.349h.647v14.307h6.326v.575h-6.327Z" transform="translate(-167.606 -570.818)" fill="#fff"/>
  </g>
</svg>
