<?xml version="1.0" encoding="utf-8"?>
<!-- Generator: Adobe Illustrator 25.4.1, SVG Export Plug-In . SVG Version: 6.00 Build 0)  -->
<svg version="1.1" xmlns="http://www.w3.org/2000/svg" xmlns:xlink="http://www.w3.org/1999/xlink" x="0px" y="0px"
	 viewBox="0 0 66 65" style="enable-background:new 0 0 66 65;" xml:space="preserve">
<style type="text/css">
	.st0{fill:#FFFFFF;}
	.st1{fill:none;stroke:#D9D9D9;}
	.st2{fill:#EE7523;}
</style>
<g id="Layer_1">
	<g>
		<circle class="st0" cx="33" cy="29" r="29"/>
		<circle class="st1" cx="33" cy="29" r="28.5"/>
	</g>
</g>
<g id="Layer_2">
	<path class="st2" d="M26.7,31.6v4.1v6.4h12.7v-6.4v-4.1H26.7z"/>
	<path class="st2" d="M39.3,15.8H26.7v4.7h12.6V15.8z"/>
	<path class="st2" d="M45.3,22H20.7c-0.8,0-1.5,0.7-1.5,1.5v11.9c0,0.8,0.7,1.5,1.5,1.5h4.7v-6.6h15.1v6.6h4.7
		c0.8,0,1.5-0.7,1.5-1.5V23.5C46.8,22.7,46.1,22,45.3,22z M40.9,25.7c-0.6,0-1.1-0.5-1.1-1.1c0-0.6,0.5-1.1,1.1-1.1S42,24,42,24.6
		C42,25.2,41.6,25.7,40.9,25.7z M44,25.7c-0.6,0-1.1-0.5-1.1-1.1c0-0.6,0.5-1.1,1.1-1.1s1.1,0.5,1.1,1.1
		C45.1,25.2,44.6,25.7,44,25.7z"/>
</g>
</svg>
