<?xml version="1.0" encoding="UTF-8"?> <svg xmlns="http://www.w3.org/2000/svg" width="225.507" height="114.79" viewBox="0 0 225.507 114.79"><g id="Group_140" data-name="Group 140" transform="translate(-123 -24.225)"><rect id="Rectangle_42" data-name="Rectangle 42" width="219" height="45" rx="2" transform="translate(124.938 59.266) rotate(-9)" fill="#fff"></rect><g id="Group_37" data-name="Group 37" transform="translate(78.231 -236.033)"><path id="Path_1" data-name="Path 1" d="M74.984,437.786h4.8c3.159.04,5.2.061,6.861,1.62a7.17,7.17,0,0,1,1.962,5.382c0,2.982-1.122,5.8-3.963,6.743a12.025,12.025,0,0,1-3.782.38H74.984Zm4.482,3.3v7.584h1.7a2.568,2.568,0,0,0,1.879-.662,4.419,4.419,0,0,0,1.062-3.16,5.827,5.827,0,0,0-.36-2.083,2.425,2.425,0,0,0-2.6-1.679Z" transform="translate(-16.38 -96.241)" fill="#fff"></path><path id="Path_2" data-name="Path 2" d="M109.033,437.786h4.48v8.822a2.147,2.147,0,0,0,.522,1.7,1.925,1.925,0,0,0,1.42.52,2.041,2.041,0,0,0,1.421-.5,2.152,2.152,0,0,0,.539-1.721v-8.822h4.5v7.523c0,1.62,0,3.721-1.66,5.3a6.951,6.951,0,0,1-4.84,1.681,7.2,7.2,0,0,1-4.922-1.681c-1.4-1.359-1.422-2.94-1.46-4.422Z" transform="translate(-34.838 -96.241)" fill="#fff"></path><path id="Path_3" data-name="Path 3" d="M143.7,437.786h6.382l1.739,6.522c.32,1.4.38,1.721.581,3a31.431,31.431,0,0,1,.66-3.461l1.6-6.063h6.4v14.126h-4.262v-8.164c.02-1.039.039-1.3.12-2.5-.24,1.06-.281,1.261-.559,2.28l-2.343,8.384H150.7l-2.18-7.942c-.3-1.14-.321-1.162-.661-2.642.06.879.079,1.1.079,1.9v8.684H143.7Z" transform="translate(-53.634 -96.241)" fill="#fff"></path><path id="Path_4" data-name="Path 4" d="M188.82,437.74H196.9c1.542.061,2.882.142,4.023,1.321a4.609,4.609,0,0,1,1.181,3.3,4.889,4.889,0,0,1-1.341,3.6c-1.18,1.22-2.481,1.281-4.022,1.32H193.3v4.6H188.82Zm4.481,2.983v3.6h2.563a3.208,3.208,0,0,0,.738-.1,1.668,1.668,0,0,0,1.082-1.722c0-1.661-1.3-1.742-1.86-1.78Z" transform="translate(-78.092 -96.216)" fill="#fff"></path><path id="Path_5" data-name="Path 5" d="M221.575,446.484a3.123,3.123,0,0,0,1.962,1.542,6.3,6.3,0,0,0,1.981.319c.359,0,2.12-.038,2.12-1.058,0-.1,0-.622-.779-.88-.5-.182-3.1-.641-3.682-.783-1.3-.338-3.842-1.141-3.842-4.121a4.407,4.407,0,0,1,.4-1.821c.922-2.079,3.3-2.9,5.844-2.9a9.642,9.642,0,0,1,4.26.9,6.726,6.726,0,0,1,2.082,1.6l-2.8,2.343a2.865,2.865,0,0,0-1.078-.92,6.461,6.461,0,0,0-2.623-.521c-.759,0-1.6.2-1.6.919,0,.68.72.862,1.942,1.081,3.14.542,6.262,1.1,6.262,4.6a4.482,4.482,0,0,1-1.26,3.184c-1.783,1.82-4.624,1.82-5.4,1.82a11.691,11.691,0,0,1-3.282-.42,7.321,7.321,0,0,1-3.923-2.681Z" transform="translate(-93.995 -95.696)" fill="#fff"></path><path id="Path_6" data-name="Path 6" d="M249.721,437.74h11.626v3.5h-3.581v10.643H253.3V441.244h-3.582Z" transform="translate(-111.108 -96.216)" fill="#fff"></path><path id="Path_7" data-name="Path 7" d="M277.516,437.786H288.7v3.1H282v2.1h6.262v3.06H282v2.8h7.3v3.061H277.516Z" transform="translate(-126.176 -96.241)" fill="#fff"></path><path id="Path_8" data-name="Path 8" d="M308.558,437.74H315.6a9.894,9.894,0,0,1,3.483.44,4.3,4.3,0,0,1,2.44,4.084,3.964,3.964,0,0,1-1.079,2.84,4.428,4.428,0,0,1-1.822,1.08l3.441,5.7H317.1l-2.743-4.982H313.04v4.982h-4.482Zm4.482,2.962V444h1.86c.739,0,2.161-.04,2.161-1.642,0-1.62-1.4-1.66-2.181-1.66Z" transform="translate(-143.004 -96.216)" fill="#fff"></path><path id="Path_9" data-name="Path 9" d="M353.194,437.786H358c3.162.04,5.2.061,6.863,1.62a7.165,7.165,0,0,1,1.96,5.382c0,2.982-1.121,5.8-3.963,6.743a12.014,12.014,0,0,1-3.779.38h-5.884Zm4.483,3.3v7.584h1.7a2.568,2.568,0,0,0,1.88-.662,4.423,4.423,0,0,0,1.06-3.16,5.806,5.806,0,0,0-.361-2.083,2.422,2.422,0,0,0-2.6-1.679Z" transform="translate(-167.202 -96.241)" fill="#fff"></path><path id="Path_10" data-name="Path 10" d="M387.331,437.786h4.48v14.126h-4.48Z" transform="translate(-185.708 -96.241)" fill="#fff"></path><path id="Path_11" data-name="Path 11" d="M403.768,437.74h7.043a9.883,9.883,0,0,1,3.481.44,4.307,4.307,0,0,1,2.44,4.084,3.961,3.961,0,0,1-1.08,2.84,4.415,4.415,0,0,1-1.821,1.08l3.442,5.7h-4.962l-2.742-4.982H408.25v4.982h-4.482Zm4.482,2.962V444h1.86c.739,0,2.161-.04,2.161-1.642,0-1.62-1.4-1.66-2.18-1.66Z" transform="translate(-194.619 -96.216)" fill="#fff"></path><path id="Path_12" data-name="Path 12" d="M437.429,437.786h11.186v3.1h-6.7v2.1h6.263v3.06h-6.263v2.8h7.3v3.061H437.429Z" transform="translate(-212.867 -96.241)" fill="#fff"></path><path id="Path_13" data-name="Path 13" d="M479.852,447.654a7.458,7.458,0,0,1-1.378,2,7.763,7.763,0,0,1-5.482,2.081c-5.042,0-7.324-3.8-7.324-7.422,0-3.8,2.541-7.665,7.324-7.665a7.8,7.8,0,0,1,5.661,2.281,6.584,6.584,0,0,1,1.181,1.66l-3.74,1.86a3.17,3.17,0,0,0-2.923-2.34,2.642,2.642,0,0,0-1.9.76,4.4,4.4,0,0,0-1.062,3.181c0,2.1.781,4.081,2.983,4.081a3.021,3.021,0,0,0,2.861-2.321Z" transform="translate(-228.176 -95.624)" fill="#fff"></path><path id="Path_14" data-name="Path 14" d="M498.2,437.74h11.623v3.5H506.24v10.643H501.78V441.244H498.2Z" transform="translate(-245.811 -96.216)" fill="#fff"></path><path id="Path_15" data-name="Path 15" d="M76.423,479.321h5.823a10.715,10.715,0,0,1,1.9.1,3.581,3.581,0,0,1,3.12,3.521A3.084,3.084,0,0,1,85.108,486a3.394,3.394,0,0,1,2.6,3.541,3.585,3.585,0,0,1-1.6,3.16c-1.1.722-2.082.722-4.162.74H76.423Zm1.783,1.661v4.281h2.941c2.141,0,3.142,0,3.78-.961a2.241,2.241,0,0,0,.362-1.261c0-2.021-1.942-2.06-2.7-2.06Zm0,5.88v4.922h4.181a8.035,8.035,0,0,0,1.742-.119,2.063,2.063,0,0,0,1.638-2.261,2.373,2.373,0,0,0-1.359-2.262,6.809,6.809,0,0,0-2.742-.281Z" transform="translate(-17.819 -118.757)" fill="#fff"></path><path id="Path_16" data-name="Path 16" d="M113.727,495.755a4.279,4.279,0,0,1-4.262,3.18c-2.8,0-4.624-1.9-4.624-5.082a4.539,4.539,0,0,1,4.562-4.922,4.108,4.108,0,0,1,4.142,3.341,8.486,8.486,0,0,1,.181,1.921h-7.165c-.039,1.581.8,3.542,3.042,3.542a2.5,2.5,0,0,0,2.5-2.2Zm-1.742-2.7a2.716,2.716,0,0,0-2.7-2.9c-1.361,0-2.5,1-2.682,2.9Z" transform="translate(-33.225 -123.967)" fill="#fff"></path><path id="Path_17" data-name="Path 17" d="M131.077,494.518c-1.521-.361-3.381-.78-3.381-2.74,0-1.721,1.459-2.8,3.641-2.8,1.8,0,3.722.86,4.042,3.082l-1.721.218a1.673,1.673,0,0,0-.681-1.519,2.93,2.93,0,0,0-1.821-.559c-1.24,0-1.86.74-1.86,1.377,0,.9,1.02,1.183,2.261,1.483l.9.219c1.119.261,3.141.74,3.141,2.722,0,1.539-1.361,2.979-3.962,2.979a5.178,5.178,0,0,1-2.922-.759,3.609,3.609,0,0,1-1.4-2.561l1.8-.28a2.147,2.147,0,0,0,.7,1.841,2.786,2.786,0,0,0,1.9.541c1.4,0,2.223-.541,2.223-1.561,0-1.081-.821-1.281-1.962-1.5Z" transform="translate(-45.408 -123.991)" fill="#fff"></path><path id="Path_18" data-name="Path 18" d="M150.743,486.059h1.721v1.321h-1.721v5.4c0,1.119,0,1.6.681,1.6a3.948,3.948,0,0,0,1.04-.221v1.32a10.612,10.612,0,0,1-1.539.16c-1.841,0-1.841-.9-1.821-2.142V487.38h-1.5v-1.321h1.5v-2.98h1.639Z" transform="translate(-56.407 -120.794)" fill="#fff"></path><path id="Path_19" data-name="Path 19" d="M176.613,487.464v5.981h-1.82V479.321h6.1a7.26,7.26,0,0,1,2.241.24,3.752,3.752,0,0,1,2.422,3.76,3.909,3.909,0,0,1-2.6,3.923,7.381,7.381,0,0,1-2.26.219Zm0-1.661h3.943c1.08,0,1.821,0,2.46-.64a2.627,2.627,0,0,0,.681-1.881,2.255,2.255,0,0,0-.741-1.8,2.829,2.829,0,0,0-1.979-.541h-4.365Z" transform="translate(-71.147 -118.757)" fill="#fff"></path><path id="Path_20" data-name="Path 20" d="M203.238,489.444v1.721a3.435,3.435,0,0,1,3.242-1.842v1.721a6.542,6.542,0,0,0-.662-.04,2.424,2.424,0,0,0-2.18,1.122,4.483,4.483,0,0,0-.4,2.38v4.361h-1.6v-9.423Z" transform="translate(-85.699 -124.179)" fill="#fff"></path><path id="Path_21" data-name="Path 21" d="M217.037,479.321v1.841H215.5v-1.841Zm0,4.7v9.423H215.5v-9.423Z" transform="translate(-93.213 -118.757)" fill="#fff"></path><path id="Path_22" data-name="Path 22" d="M232.383,495.253a4.606,4.606,0,0,1-.539,1.6,4.043,4.043,0,0,1-3.864,2.08c-3.46,0-4.7-2.581-4.7-4.9,0-2.682,1.42-5.1,4.561-5.1a4.113,4.113,0,0,1,4.362,3.162l-1.761.158a2.418,2.418,0,0,0-2.539-2.159c-2.743,0-2.863,2.981-2.863,3.822a4.63,4.63,0,0,0,.62,2.54A2.62,2.62,0,0,0,228,497.717a2.564,2.564,0,0,0,2.66-2.623Z" transform="translate(-97.432 -123.967)" fill="#fff"></path><path id="Path_23" data-name="Path 23" d="M254.943,495.755a4.278,4.278,0,0,1-4.262,3.18c-2.8,0-4.623-1.9-4.623-5.082a4.537,4.537,0,0,1,4.56-4.922,4.107,4.107,0,0,1,4.143,3.341,8.465,8.465,0,0,1,.182,1.921h-7.165c-.039,1.581.8,3.542,3.043,3.542a2.5,2.5,0,0,0,2.5-2.2Zm-1.743-2.7a2.715,2.715,0,0,0-2.7-2.9c-1.361,0-2.5,1-2.682,2.9Z" transform="translate(-109.781 -123.967)" fill="#fff"></path><path id="Path_25" data-name="Path 25" d="M292.354,479.321h5.823a10.686,10.686,0,0,1,1.9.1,3.582,3.582,0,0,1,3.122,3.521A3.085,3.085,0,0,1,301.038,486a3.394,3.394,0,0,1,2.6,3.541,3.586,3.586,0,0,1-1.6,3.16c-1.1.722-2.082.722-4.162.74h-5.524Zm1.782,1.661v4.281h2.941c2.142,0,3.141,0,3.779-.961a2.239,2.239,0,0,0,.363-1.261c0-2.021-1.943-2.06-2.7-2.06Zm0,5.88v4.922h4.182a8.013,8.013,0,0,0,1.741-.119,2.063,2.063,0,0,0,1.639-2.261,2.374,2.374,0,0,0-1.359-2.262,6.815,6.815,0,0,0-2.741-.281Z" transform="translate(-134.22 -118.757)" fill="#fff"></path><path id="Path_26" data-name="Path 26" d="M329.657,495.755a4.279,4.279,0,0,1-4.261,3.18c-2.8,0-4.624-1.9-4.624-5.082a4.538,4.538,0,0,1,4.561-4.922,4.109,4.109,0,0,1,4.144,3.341,8.527,8.527,0,0,1,.18,1.921h-7.165c-.038,1.581.8,3.542,3.043,3.542a2.5,2.5,0,0,0,2.5-2.2Zm-1.742-2.7a2.715,2.715,0,0,0-2.7-2.9c-1.36,0-2.5,1-2.681,2.9Z" transform="translate(-149.625 -123.967)" fill="#fff"></path><path id="Path_27" data-name="Path 27" d="M347.008,494.518c-1.522-.361-3.382-.78-3.382-2.74,0-1.721,1.46-2.8,3.64-2.8,1.8,0,3.723.86,4.043,3.082l-1.72.218a1.674,1.674,0,0,0-.683-1.519,2.927,2.927,0,0,0-1.819-.559c-1.241,0-1.86.74-1.86,1.377,0,.9,1.019,1.183,2.26,1.483l.9.219c1.119.261,3.142.74,3.142,2.722,0,1.539-1.362,2.979-3.963,2.979a5.173,5.173,0,0,1-2.921-.759,3.6,3.6,0,0,1-1.4-2.561l1.8-.28a2.144,2.144,0,0,0,.7,1.841,2.782,2.782,0,0,0,1.9.541c1.4,0,2.223-.541,2.223-1.561,0-1.081-.821-1.281-1.961-1.5Z" transform="translate(-161.809 -123.991)" fill="#fff"></path><path id="Path_28" data-name="Path 28" d="M366.672,486.059h1.721v1.321h-1.721v5.4c0,1.119,0,1.6.681,1.6a3.948,3.948,0,0,0,1.04-.221v1.32a10.619,10.619,0,0,1-1.54.16c-1.842,0-1.842-.9-1.82-2.142V487.38h-1.5v-1.321h1.5v-2.98h1.639Z" transform="translate(-172.805 -120.794)" fill="#fff"></path><path id="Path_29" data-name="Path 29" d="M394.742,486.5c-2.039-.42-5.041-1.1-5.041-4.021a3.523,3.523,0,0,1,1.3-2.74,5.645,5.645,0,0,1,3.781-1.2,6.306,6.306,0,0,1,3.8,1.041,4.747,4.747,0,0,1,1.822,3.32l-1.9.121a2.894,2.894,0,0,0-1.141-2.341,4.236,4.236,0,0,0-2.519-.679c-1.7,0-3.2.7-3.2,2.218,0,1.561,1.559,1.922,2.781,2.2l1.561.4a14.151,14.151,0,0,1,2.22.621,3.661,3.661,0,0,1,2.443,3.521,3.99,3.99,0,0,1-1.8,3.421,6.9,6.9,0,0,1-3.84,1c-1.282,0-5.664-.2-5.983-4.861l2.02-.26a3.63,3.63,0,0,0,1.14,2.72,4.33,4.33,0,0,0,2.9.941c2,0,3.52-.98,3.52-2.821,0-1.642-1.3-2.082-2.68-2.362Z" transform="translate(-186.624 -118.33)" fill="#fff"></path><path id="Path_30" data-name="Path 30" d="M427.152,495.755a4.277,4.277,0,0,1-4.261,3.18c-2.8,0-4.623-1.9-4.623-5.082a4.538,4.538,0,0,1,4.56-4.922,4.11,4.11,0,0,1,4.144,3.341,8.569,8.569,0,0,1,.18,1.921h-7.164c-.039,1.581.8,3.542,3.044,3.542a2.5,2.5,0,0,0,2.5-2.2Zm-1.741-2.7a2.714,2.714,0,0,0-2.7-2.9c-1.361,0-2.5,1-2.681,2.9Z" transform="translate(-202.479 -123.967)" fill="#fff"></path><path id="Path_31" data-name="Path 31" d="M443.783,489.444v1.721a3.435,3.435,0,0,1,3.242-1.842v1.721a6.531,6.531,0,0,0-.661-.04,2.422,2.422,0,0,0-2.179,1.122,4.47,4.47,0,0,0-.4,2.38v4.361h-1.6v-9.423Z" transform="translate(-215.445 -124.179)" fill="#fff"></path><path id="Path_32" data-name="Path 32" d="M460.192,489.587h1.643l-3.4,9.423h-1.443l-3.44-9.423h1.66l2.5,7.223Z" transform="translate(-221.607 -124.323)" fill="#fff"></path><path id="Path_33" data-name="Path 33" d="M476.687,479.321v1.841h-1.54v-1.841Zm0,4.7v9.423h-1.54v-9.423Z" transform="translate(-233.314 -118.757)" fill="#fff"></path><path id="Path_34" data-name="Path 34" d="M492.033,495.253a4.584,4.584,0,0,1-.539,1.6,4.042,4.042,0,0,1-3.864,2.08c-3.458,0-4.7-2.581-4.7-4.9,0-2.682,1.42-5.1,4.561-5.1a4.112,4.112,0,0,1,4.362,3.162l-1.761.158a2.417,2.417,0,0,0-2.539-2.159c-2.742,0-2.863,2.981-2.863,3.822a4.635,4.635,0,0,0,.622,2.54,2.618,2.618,0,0,0,2.341,1.262,2.563,2.563,0,0,0,2.659-2.623Z" transform="translate(-237.534 -123.967)" fill="#fff"></path><path id="Path_35" data-name="Path 35" d="M514.591,495.755a4.278,4.278,0,0,1-4.261,3.18c-2.8,0-4.625-1.9-4.625-5.082a4.539,4.539,0,0,1,4.562-4.922,4.109,4.109,0,0,1,4.142,3.341,8.5,8.5,0,0,1,.181,1.921h-7.164c-.04,1.581.8,3.542,3.042,3.542a2.492,2.492,0,0,0,2.5-2.2Zm-1.741-2.7a2.716,2.716,0,0,0-2.7-2.9c-1.361,0-2.5,1-2.682,2.9Z" transform="translate(-249.88 -123.967)" fill="#fff"></path><g id="Group_1" data-name="Group 1" transform="translate(55.086 271.189)"><path id="Path_36" data-name="Path 36" d="M69.2,350.1l.215-.25-.15-.4.4-.15,1.944-.18.109.153.065-.138.248-.04.333.206.006-.216.337-.056.34.246-.337.311.251.218.055-.182.209-.031.1-.189.313.08.245-.337.426-.283.02.125.783.09.1-.185.466-.034.273-.171.391.323.3-.005-.046-.29.479.051.288.169.094-.187-.127-.538.453-.115,1.065-.041.443.36.069.161,1.389,8.17-.255.3.252-.041.065.416-.128.279.066.417-.59.31.192.4.245-.085.219-.505,1.714,9.961-.21.035.248.216.271,2.485-.108.144-.143.711-.442-.1-.027.39.358.072.043.8-.4-.063.274-.428-.207-.225-.17.539-.488.163.27.085v.258l.3.254.168-.028-.008-.3.211-.033.5.176-.037-.508.6.03.079.247.522.044.179-.239.5.217.582.168.323.674-.006.512-.321.4-.665.406-.966.369-5.175.569-1.709.314.136-.238-.124-.49.2-.077-.948.237-.393-.322-1.033.506-.688.537-.149-.147-.291.6-.425.024-1.258-.1-.294-.25-.283-.685-.031-.464.149-.152,1.235-.841.294-.3.233-2.307-.033-.208.085-.527-.248-.217.133-.234.606.03.156-.626-.27-.084.2-.334.009-.472-.2-.182-.032-.207-.44-.063,0,.516-.334.056.277-.133-.624-.157-.518-3.256.151-.113-.126.021-.045-.292.4-.19-.194-.656-.144-.106.078-.313-.152-.145.614.073-.432-.275.149-.409-.3.006.223-.466-.233-.135-.088-.543.144-.194-.257-.513-.071-.461-.172-.012.067-.1-.052-.334.2-.073-.158-.447-.184-.354-.424-.237-.375-2.336.2-.077-.045-.548.085-.017-.095-.326-.239.124-.208-1.038.18-.2.079-.055.312.076.142-.453.009-.211-.081-.247-.113-.154-.342-.285.312-.178L70.5,353.7l-.089-.286.216.007-.132-.277.276-.431.167-.026-1-.655-.091-.027-.564.217L68.815,352l-1.147-.2-.368-.713.029-.645.276-.388.838-.388.494-.124Zm1.392,1.748.053.332.27.085.006-.511.143-.153-.364-.153.093-.234.125-.017-.168-.23-.325-.163-.166.839-.109-.15-.331.093-.239-.434-.23.168.062.115.581.424Zm-.743-1.981.194-.118-.194-.139-.355.185Zm.3,0,.241-.122-.011-.3-.29.047Zm7.592,25.854.139-.194-.236-.132-.364.4Zm1.44-.359.284.17.266-.212.007-.218-.367-.155-.4.447Zm-3.083-24.174.1-.187-.162-.233-.519.513.028.165.1.114.1.069.133.023.349-.228Zm.351,2.983.258-.511-.011-.341-.084.015-.117-.2.2.14.253-.043-.027-.419-.369-.161.124.242-.478-.055-.059.441.435.315-.364.142-.12.317Zm.462-1.655.25-.038-.025-.17-.223-.05.19-.417-.152-.145-.193.118-.118.619Zm.263-1.028.052-.224-.215-.009-.089.271Zm4.354,23.544-.347-.284-.212.033-.062.137.118.195Zm-4.152-23.877-.029-.208-.17.028.035.208Zm2.207,8.729.12-.062.054-.18-.221-.309.482.056.206-.337-.03-.165-.2-.183-.7.708-.01.474Zm6.241-12.687.565.04.156.189.816-.259-.029.092.741-.206.485.1.439.055-.039-.25.262.3.6.034.289.464.109-.143-.2-.142.375-.059.212.781.912.368-.062.141.408.144.212.527.2.179.011.344.316.08.093.326.215.008.151.148-.118.318.166-.026-.065.394.334-.055.115.2.264.045.023.127-.294.048-.028-.17-1.326,0-.04.307.179.313-.128.275.163.492-.289.046.21.521.1.114.032.207.525.046-.036-.211-.208.034-.04-.251.208-.032.028.169.579-.137-.087-.543-.118.062-.03-.165-.26-.048-.069-.156.591-.05-.174-.276-.359-.114.543-.085.13.533-.027.648.1.109.315-.177.141.881-.075,1.679-.264,1.027-.316.436-.156-.191-.206.077-.065.4-.13-.28-.419.326-.018-.127.138-.195-.221-.05-.713.63-.183.2-.016.174.083.244-.392-.324-.358.443.2.183-.135.235.408.664-.477.247-.156.367.508.216,1.26.657.914.885.662.924-.286.088.279.424.4.365.016.639.262.044-.152.112.33.461-.008.217.34.242-.018.434.243.174-.06.182.133.018.1.372.167-.028.143.362-.127.28.072.16-.313.217.315.081.013.082.167-.026.222.307-.1.148.076.2.561-.218.067-.653.12.491.519.565,1,1.421.214.268.373.2,1.549.566.061.119.157.445-.06.694-.355.486-1.439.613-.5.083-.048-.294-.2-.223-.323.135-.419.066-.411.109-.219-.565-.695.2-.481-.054-.106.146L95.4,372.6l-.445-.1.066.417-.333.056.239.689-2.065.2.062-.141-.185-.1-.073.1-.494.121-.606.226v.256l-1.659.348-.85.051-1.265-.14-.475-.309-.251-.773-.014-.339,1.2-1.35.1-.187.079-.571-.158-1,.449-.119-.009-.6-.31-.333-.566-.85-.047-.3-.309-.335-.557-1.069-.291-.21.127-.019-.076-.459-.424.026.05-.225.115-.1-.242-.691.163-.067-.062-.119-.236-.135-.54-1.244-.435-.057-.046.262.192.14.218.008.008.6.155-.108.32.118-.276.174-.435-.317.032-.347-.168.026-.315-.378-1.689-1.185-.106-.412-.054-.592.06-.694.174-.245,1.164-1.037.493-1.751.1.11.175-.239-.038-.512-.286.089-.154-.445v-.258l.241-1.15-.144-.107-.018-.126.2-.116.052-.479.127-.022.114.452,0,.556-.065.14.069.161-.1.187.073.2-.175.241.075.2-.071.355.206-.033.093-.233.042-.559.356-.445-.013-.6-.382-1.61.272-.172.042-.263.315-.178.22-.25.3.039-.482-.611-.75.421-.616-.12-.157.115-.109.1.012.6-.371.1.029-.349-.227-.347-.354-.885-.337-.5-.683-.538-1.131-.372-.24-.434-.206-.739.056-.733.244-.339,1.955-.655,2.572-.241Zm-.364,15.434-.348-.288-.1-.412-.347-.027-.191.156.114.455-.148.152.046.293Zm-.968-9.567.165-.026.029.164-.334.055Zm6.211,6.464.309-.223-.146-.364-.506-.217.1.368Zm2.674,14.088.239-.122.061-.138.027-.092-.06-.12-.1-.07-.242.084.03.207-.3,0-.089.23Zm.979-.844-.633.063v.256Zm1.168-4.508-.16.367.58-.134-.007-.3-.165.027,0-.3-.306-.037.023-.39-.259.258-.067.653Zm-2.167-14.388-.074-.2-.228-.095.062.121Zm3.226,18.375-.1-.371-.333.054-.031.347Zm.238-3.082.047-.519-.2.073Z" transform="translate(-67.3 -318.125)" fill="#ff6900"></path><path id="Path_37" data-name="Path 37" d="M135.963,348.173l.4.108-.045-.551-.156-.447.194-.114-.215-.01-.111-.154.3-.043.042-.267.343-.27.237.174-.005.218.61.072-.04-.25.1-.143.212-.034.029-.347-.221-.051-.107-.411-.322.135-.2.377-.337.05.013-.474-.1-.326.293-.045-.076-.758.283-.089.2-.373.235-.122.717-.072-.45-.4-.131-.28.046-.52.426-.022-.125-.494.08-.057-.076-.2.377-.059.147-.669.118-.059-.024-.169.181.06.121-.321-.239-.134.328-.352.939-.837,2.02-1.3,2.755-1,.549-.042.612.074.2.18.418,1.562.007.3-1.082,1.8-.125.318.728,7.764-.641.016v.258l.244.474-.054.18.172.276-.06.433.129.539.038.506.221.31-.124.576.354.071-.086.271.028.168-.224.206-.045.267.2.141-.22.5.018.384.386.022.008.3.229.093v.255l.118.194.081.5.232.137-.1.4.31.076.712,2.843-.03.348-.239,1.194.359.369.225-.466.2.444.3.509,1.418,1.1.461,1.3-.072.61-.274.428-.525.214-.611-.075.02.123-.723.033-.275-.13-.231.167-.394-.325-.342.269-.259,0-.136-.32.247-.08.217-.51.642.543-.006-.3-.463-.23-.069-.16.054-.22.035-.049.214.006-.136-.577-.411.112-.175.24.2.44-.25.038-.134.232.186.1-.065.393-.347-.03.047.293-.66-.107-1.657-.463-1.713-.8-.617-.377.333-.05-.127-.281-.274.17-.075-.2.071-.355-.833-.122.055-.739-.673-.192-.054-.334.121-.063-.293-.209L140,361.4l-.038.3-.216-.007-.011-.34-.153-.148.162-.066.225-.209-.252.038.12-.317-.157-.7.162-.069,0-.3-.242-.174.071-.1-.5-.437-.6.01.013-.174-.319-.417.081-.015-.087-.284-.224-.051-.486.162-.5.122-.163-.487-1.02-3.178-.181-1.129-.351-3.283.173-1.614.334-.566Zm-.046,2.664.108.153-.1.446-.167.027.149.659.088-.228.289-.089-.293-1.283-.385-.28-.193.673Zm.513,1.63.251-.04-.511-.261-.315.176Zm-.467-2.667.075-.055.06-.18-.06-.118-.279-.127-.211.547Zm.955-2.336.085.243.159-.068.033.209.033-.607-.488.164Zm4.658,13.9.132.28.174.015-.017.432.2-.333-.092-.284-.212-.009.287-.345-.034-.211-.22-.049-.446.157-.045.263Zm.524,1.672.521-.212.035.212.171-.283-.125-.241.07-.093-.365-.415-.324.135-.047.225-.253.037.225.052-.219.249-.038.3Zm-.148-.4.158-.065-.027-.17.127-.02-.033.348-.207.033Zm6.166,2.144.042-.263.245-.084-.431-.271.06.376-.1.144Zm5.072-5.52.18-.2-.043-.55.25-.04-.133-.836.013-.729-.14-.064.039-.564-.155-.7.126-.276.023-.391.241-.379-.186-.1.063-.14.065-.4.169-.539-.373-.455.2-.375-.382-.495.4-.75-.241-.174-.2.077-.2-.228.059-.135-.638.016-.2-.183-.008.513-.194-.7.2-.074-.06-.376.13.021-.178-1.384-.245-.475-.36-.373.076-.054.257,0,.042-.264-.163-.231-.162.326-.463-2.369.165-.026.014.342.145.106.1.627-.109.143.033.209.4.109.026-.389-.171-.529.339-.313.441.1.2-.077-.074-.2.1-.149-.155-.185.106-.148-.087-.543-.2-.139.107-.4-.138-.621.061-.4-.164-.232-.5-.178-.473-.008-.036.3.307.333-.188.161.013.6-.551-.212-.054-.075-.418-1.818-.417-1-.379-.5-1.268-.953-.159-.189-.18-.616-.022-.381.016-.991.175-.241.285-.087.218.007.485.355.1-.149.167-.024.31.334.226.092.045-.006.212-.547.248-.043.206-.331.206.224.475.01-.156.108.4.37.266.042.241-.124.29-.306,2.367.609-.231.163.363.115.25-.039.137.063-.2.333.178.057-.033.347.307.037.118.192-.061.142.128.279.725-.031.283.169.1-.146.215.266.5.179.058.377.435.014.489.392.182.357.06.634.333.205.248.217.065.115-.016.178.4.064.353.888.326.159.033.211-.118.059.154.148.189-.158.357.373.187.912.2.4.171.015.2,1.209.333-.05.122.752.229.649.035,1.019.179.059.036,1.023.327.717.051,1.407-.06,1.762-.361,2.286-.251.853-.217.506-.147-.106.023-.389-.535-.386-.214.249.044.292-.367.36-.008.515-.443.71.043.252-.36.187.157.705.206-.034-.106.4-.5.08-.082-.244-.791-.132-.364.4-.1.4-.127.018.027.168-.339.567.346.288.131.277-.027.391-.161.323-.9.787-1.65.948-1.449.577-.949.235-.825-.084-.478-.307-.24-.691-.054-1.148.941-1.348.27-1.8.34-.269ZM151.4,344l.253-.038.343.544-.065.4-.012.472-.167.028-.165-.23,0-.257-.162-.233Zm7.233,16.363.315.121-.289.045Zm1.141-.1.055.077-.356.185-.145-.1Z" transform="translate(-104.183 -312.437)" fill="#ff6900"></path><path id="Path_38" data-name="Path 38" d="M205.061,329.214l.124.238-.183.2.615-.182.2.182.893-.316.025.168.282-.127.4.106.433-.242.413.191.213-.034-.041-.251.233.134.653.069.116.2,0,.511-.091.487-.42.326-1.162,1.041-.093.741.3,1.922-.252.3-.4.152.085,1.355.281-.131.284.169.138-.193-.085.272.223.048-.356.186.15.407-.211.031-.09.226.175.572.51-.038-.37.359.024.426.16-.068-.191.419-.242.081-.125-.237-.326.1.332.457.368.157.207-.292.022.681.232.093.017.383.188.656-.172-.015-.09-.286-.3-.293-.241.123.03.165-.21.033-.208-.224-.114-.453-.4-.065.2.438.082-.012-.484.722.309.589.237-.121-.09.228.21.521-.409.666.13.281-.013.172-.1.188-.333.311.254.513.347-.223.03-.649.292-.045.3-.264.262.046-.111-.413.2-.072-.155-.446-.4-.623-.1-.37.7.06.016.126-.166.283.429.018.125.236.328-.093-.131,1.605.011.085.426.233.018.379-.215-.007.319.12.284.982.023.425-.16.068.045.551.2-.12.081.5-.209.032-.092,1.046.468-.035.351,1.957-.193.118-.345-.287-.183.459.141.36-.086.272.2.183.158-.368.322-.139.179.316.778,4.626-.078.871-.175.242-.763.292-.746.162-.6-.032-.326-.16-.178.238-.125.021-.107-.152-.484.2-.583.093-.033-.207-.385.019-.835.391-.453.114-.018-.381.125.233.141-.191-.276-.384-.441.2-.585.093-1.192.575-.223-.051-.3.22-.3-.254-.466.292-.5-.179-.553.3-.586.093-.736-.056-.242-.174-.156-.449-.011-.6.094-.228,1.487-1.138.115-.1.112-.359-.039-.508.454-.118-.07-.158h-.257l-.033-.211.532-.17.035-.3-.169.026-.109-.154.177-.243-.071-.161.3-.26.016-.173-.076-.2-.495-.437-.261.513-.238.127-.118-.458v-.552l-.159-.192.217-.246-.489-1.979.158-.108-.191-.4-.119-1.271-.269-1.155.142-.707-.446-.656-.14-.879.225.049-.006-.3-.333-.2.335-.57-.251-.512.161-.072-.033-.206-.228-.092.177-.5.576.125-.128-.538-.486-.1-.167-1.043-.334-1.017.183-.2-.426-.789.141-.194-.119-.2v-.554l-.176-.016-.038-.251.355-.187.1-.444-.5-.135-.029-.466-.179-1.128.084-.529-.5-.176.008-.215-.521-.3.223.053.142-.2.5-.08-.05-.291-.193-.142-1.384.438-.661-.113-.524-.343-.214-.52.073-.614.283-.388,1.078-.472,1.984-.443,4.54-.551,1.354-.347.49-.161Zm-4.577,17.22.005.3.207.227.313.078.087.287.353.074-.073-.461-.3-.808-.218-.821-.3-.255-.354.487.007.554Zm-.531-3.856.053.337.168-.028-.071-.459-.248-.219-.117.36Zm.217,1.08,0,.855.224-.207.023.125.209-.032.007-.216-.405-.663.112-.1-.212-.267-.219.247Zm.142,1.435.352-.23-.077-.2-.36-.112Zm1.663,6.415.186-.459-.326-.161-.1.441-.114.1Zm4.365,5.343-.12-.2-.3.262Zm-3.81-25.773.384.237.129.024.239-.125.181-.2.023-.132-.154-.405-.777.211-.031-.208-.171.026.022.682Zm4.374,25.812.136-.194-.259-.3-.018.434Zm-2.375-26.99.091-.228-.424.026Zm1.982,7.609.457-.374-.07-.159.208-.031-.038-.508-.407.407-.361.143Zm.634,3.71.348.287-.108.146-.2-.181Zm.49.65.082.244-.375-.2Zm1.242,8.622.187-.97-.066-.161-.421-.233.162.744,0,.558Zm.217.525-.14-.318-.126.275Zm.953,1.176-.331-.2-.036.045-.02.132.152.148Zm.027,1.237.186.355-.2.119.28.427.2-.117.2-.332-.141-.621-.269-.084-.076-.2-.281-.127.052.335-.206.033.035.208Zm-1.538-11.789.189.1.141-.192-.177.5Zm6.195,11.175.423-.023.365-.147-.065-.672.3-.3,1.437-1.988.423-1.093.451-1.484.411-.369-.088-.283.215.009.033.206.385-.276.063.119.169-.025-.066-.678.71-.112.443.1.153.143.247.734.1,1.142-.231.163-.361.143.043.549.216.008-.483.208.078-.315-.355.445.2.694.313-.178.408-.406.052.075.206-.075.534,4.153-.484.207-.317.694.375-.062.147.109.09-.233.16-.067.04.253.169-.028,0,.515-.131.234-.189.158-.571.179-2.234.223-.047-.291-.451-.14-.683.021-.436-.058-.1.147.269.086.06.375-.138-.061-.65.228-2.682.644-.3-.038-.2-.182-.289-.723-.206-1.038.125-.533.368-.4.962-.41.459-.076Zm1.58-1.109-.144-.1-.168.026-.071.1-.023.131.022.128.362.109Zm3.346-5.07-.061-.378-.208.034.023.127Z" transform="translate(-136.593 -308.536)" fill="#ff6900"></path><path id="Path_39" data-name="Path 39" d="M259.037,320.619l.122.238-.178.2.612-.184.2.184.9-.316.027.169.276-.13.405.106.432-.24.414.192.21-.034-.041-.248.238.131.651.066.119.2-.006.516-.093.484-.421.324-1.16,1.041-.1.745.307,1.919-.254.3-.4.149.086,1.353.277-.127.284.17.141-.194-.087.27.225.05-.359.184.154.405-.211.033-.093.227.177.573.51-.037-.372.358.026.425.161-.068-.192.415-.245.082-.124-.237-.325.1.331.462.369.152.206-.289.027.683.227.093.017.38.192.657-.174-.018-.088-.283-.306-.3-.234.123.027.169-.213.033-.205-.222-.115-.454-.4-.067.2.44.079-.013-.483.72.309.592.239-.123-.094.23.212.52-.408.669.13.276-.014.176.225-3.419-.66,3.917.25.516.353-.226.026-.646.29-.049.3-.262.263.044-.111-.41.2-.076-.157-.445-.4-.622-.1-.37.694.062.021.124-.169.287.43.015.125.236.325-.095-.13,1.607.014.083.424.233.02.384-.217-.007.32.118.284.981.024.424-.162.07.045.549.2-.118.078.5-.21.034-.087,1.041.463-.029.354,1.955-.2.119-.343-.29-.185.457.143.362-.084.27.2.183.158-.368.319-.135.178.312.781,4.631-.073.868-.18.242-.766.3-.745.162-.6-.035-.325-.161-.177.242-.124.021-.11-.157-.483.209-.586.092-.03-.21-.383.019-.838.39-.452.114-.019-.381.122.237.141-.2-.275-.384-.439.2-.584.093-1.193.573-.226-.051-.3.224-.3-.253-.467.288-.5-.178-.551.3-.583.09-.738-.054-.244-.174-.154-.447-.014-.6.094-.227,1.489-1.138.114-.1.11-.359-.037-.51.455-.115-.069-.16h-.258l-.033-.21.528-.169.038-.3-.167.027-.111-.156.176-.241-.07-.161.3-.262.019-.173-.077-.2-.5-.435-.262.514-.237.125-.114-.455v-.555l-.162-.19.221-.249-.488-1.978.152-.111-.191-.4-.113-1.266-.272-1.157.143-.708-.446-.653-.141-.881.222.05-.006-.3-.333-.2.339-.567-.25-.516.158-.067-.035-.209-.224-.092.174-.5.579.122-.13-.538-.484-.093-.168-1.046-.334-1.017.185-.2-.426-.792.14-.19-.116-.2,0-.555-.174-.014-.038-.251.352-.187.1-.445-.49-.132-.033-.468-.179-1.126.087-.529-.5-.176.009-.213-.521-.3.225.051.14-.195.5-.081-.048-.291-.192-.142-1.389.438-.659-.111-.525-.342-.212-.525.077-.612.279-.387,1.083-.471,1.979-.443,4.541-.554,1.359-.343.486-.164Zm-4.579,17.217.005.3.21.225.311.08.086.283.356.073-.072-.459-.3-.807-.215-.824-.3-.251-.353.484.006.554Zm-.524-3.854.051.333.164-.028-.071-.459-.248-.217-.115.362Zm.214,1.075.006.858.219-.209.022.124.208-.029.009-.214-.406-.665.114-.1-.212-.267-.219.247Zm.141,1.435.35-.224-.075-.2-.361-.114Zm1.661,6.417.185-.457-.323-.162-.1.441-.109.107Zm4.366,5.342-.114-.2-.305.261Zm-3.805-25.771.378.238.133.021.239-.124.179-.2.022-.133-.152-.4-.78.21-.03-.21-.168.027.018.685Zm4.368,25.809.142-.194-.262-.3-.019.432ZM258.5,321.3l.1-.228-.427.023Zm1.983,7.6.459-.37-.073-.161.21-.033-.037-.51-.408.407-.362.148Zm.635,3.71.345.288-.1.146-.2-.184Zm.488.652.086.244-.375-.2Zm1.25,8.622.188-.972-.072-.158-.42-.232.161.743.005.556Zm.211.523-.136-.319-.126.277Zm.958,1.174-.33-.2-.035.049-.025.129.153.15Zm.026,1.238.184.355-.193.118.28.427.195-.117.206-.331-.141-.623-.272-.084-.075-.2-.277-.129.052.334-.206.031.033.21Zm-1.537-11.788.189.1.139-.2-.176.5Zm6.19,11.174.427-.023.361-.144-.063-.675.3-.3,1.439-1.987.424-1.095.447-1.486.414-.365-.09-.287.215.01.036.211L273,337.8l.06.119.169-.028-.066-.677.713-.113.443.1.15.148.245.73.1,1.142-.23.163-.365.146.043.55.219.008-.482.2.08-.308-.358.44.194.7.316-.183.4-.405.057.08.2-.077.531,4.153-.481.205-.315.692.374-.059.147.106.089-.23.16-.066.042.249.168-.026,0,.513-.136.236-.19.156-.567.179-2.235.223-.046-.29-.453-.141-.68.024-.437-.059-.107.146.271.085.062.376-.141-.063-.646.233-2.682.642-.307-.041-.2-.177-.286-.729-.207-1.038.131-.533.36-.4.962-.411.462-.071Zm1.581-1.106-.143-.106-.167.027-.071.1-.022.131.02.128.361.114Zm3.345-5.072-.058-.376-.209.031.017.125Z" transform="translate(-165.854 -303.878)" fill="#ff6900"></path><path id="Path_40" data-name="Path 40" d="M305.338,340.061l-.22-.05-.122-.5.085-.529.316-.435.754-.379.62-.14-.059.183.357.069.731-.244,1.008-.122.278-.125h.516l.056-.179.176.016.068-.1.583.164.049-.223,1.421-.227.091-.228.319.119,1.235-.326.311.08-.169.026.041.249.6-.008.058-.44,2.277-.487,1.686.073.52.346.435.829.119.754-.7.194-.039.821.544-.087.038.248.312.081-.061.44-.121.318-.264.212-.92.4-.454.115-.1-.625-.419.065-.115-.2-.6.01-.384.277-.891.054-.411.11.177.572.368-.1.082.245-1.863.385-.028-.17-.473-.007-.318-.122-1.409.311-.144-.105-.5.119-.393-.064.055-.182-.29.045-.042.264-.183.2.072.2-.792.122-.071.1-.526-.084.094-.186.369.152.348-.224.048.033-.155-.444-.268.469-.088-.283-.7-.063-.068.356-.228-.351-.123.021-.257.256.1.37-.486.161-1.044-.089-.581-.421-.257-.561,0-.3.1-.441-.325-.422Zm6.22-1.808-.293-.25-.35-.034.046.292Zm1.453,2.937.593-.051.014.085.52.045-.076-.2.155-.113.038.253.43.017.065-.139h-.258l-.061-.378.4-.19-.444-.1-.158.368-.862.22-.291-.207-.174.241Zm2.858-.069.429-.024.525-.17.125.236.638-.314.067.159-1.617.342h-.257Zm1.563-1.489.285-.088.155-.111.062-.14.011-.471-.621.141-.051.478-.238.124Zm1.2-1.606L318.8,338l-.016-.381-.306-.038Z" transform="translate(-196.159 -312.377)" fill="#ff6900"></path><path id="Path_41" data-name="Path 41" d="M341.663,315.39l.4.106-.043-.546-.157-.45.194-.115-.215-.012-.11-.15.294-.046.041-.265.346-.269.241.176-.009.217.613.071-.041-.251.1-.145.211-.033.032-.347-.224-.05-.108-.41-.32.136-.194.375-.336.054.01-.474-.1-.327.3-.048-.078-.76.283-.088.2-.371.236-.124.719-.071-.45-.4-.128-.281.042-.523.427-.024-.123-.494.078-.054-.075-.2.376-.061.148-.668.12-.06-.027-.169.181.061.122-.321-.236-.134.329-.354.936-.834,2.022-1.3,2.754-1,.544-.043.617.076.2.179.417,1.563.011.3-1.085,1.8-.125.318.727,7.764-.641.015v.259l.248.474-.058.181.173.273-.058.434.128.537.037.509.223.309-.125.575.355.071-.085.272.026.165-.225.207-.043.266.193.139-.217.505.019.385.388.021,0,.3.229.091v.257l.117.2.082.5.231.139-.1.4.312.076.71,2.845-.033.347-.237,1.189.36.371.226-.461.2.44.3.507,1.419,1.1.462,1.3-.077.613-.272.428-.524.211-.61-.072.02.123-.723.034-.277-.132-.232.167-.395-.32-.341.269-.257-.005-.139-.321.246-.082.219-.5.643.538-.006-.3-.465-.225-.069-.164.053-.22.036-.049.213.008-.136-.576-.411.108-.176.242.2.441-.248.039-.135.236.188.1-.067.394-.347-.028.048.293-.665-.112-1.654-.461-1.713-.8-.617-.378.335-.05-.13-.279-.271.171-.078-.2.074-.355-.832-.122.052-.736-.67-.2-.054-.334.119-.059-.293-.211-.213-.01-.038.3-.215-.007-.013-.341-.152-.147.162-.066.225-.207-.25.037.118-.317-.155-.7.163-.07,0-.3-.242-.174.069-.1-.5-.435-.6.01.016-.176-.321-.419.079-.012-.087-.284-.225-.05-.484.163-.5.12-.163-.487-1.023-3.178-.179-1.127-.351-3.283.17-1.613.337-.567Zm-.048,2.662.108.153-.1.446-.168.028.15.66.091-.228.285-.089-.289-1.282-.386-.279-.193.673Zm.516,1.633.25-.042-.512-.258-.315.174Zm-.468-2.665.077-.054.058-.183-.063-.119-.277-.127-.212.546Zm.956-2.336.083.241.16-.067.033.208.033-.608-.49.167Zm4.657,13.9.131.28.173.017-.017.43.2-.332-.086-.288-.218-.006.291-.348-.035-.211-.222-.045-.447.155L347,328.5Zm.523,1.672.524-.212.033.21.169-.282-.123-.242.066-.092-.365-.416-.319.139-.05.222-.25.038.223.051-.219.249-.036.3Zm-.149-.4.162-.065-.028-.17.126-.021-.029.347-.212.034Zm6.165,2.144.042-.262.245-.084-.429-.273.06.376-.106.145Zm5.073-5.519.183-.2-.043-.551.248-.041-.134-.832.011-.732-.138-.063.04-.562-.153-.7.122-.278.023-.386.242-.381-.186-.1.064-.138.063-.394.171-.544-.373-.452.2-.376-.378-.495.394-.75-.241-.173-.2.074-.2-.226.064-.137-.643.017-.2-.18,0,.511-.2-.7.2-.072-.057-.376.129.021-.177-1.385-.247-.474-.357-.371.075-.055.258,0,.042-.263-.163-.231-.163.325-.464-2.365.168-.03.012.342.145.106.1.627-.107.143.033.212.4.1.021-.39-.169-.528.337-.307.443.1.2-.077-.075-.2.107-.147-.159-.187.1-.146-.085-.541-.2-.142.108-.4-.141-.622.065-.395-.168-.233-.5-.173-.472-.013-.039.3.31.333-.189.161.011.6-.545-.212-.057-.076-.419-1.817-.415-1-.38-.5-1.267-.957-.158-.188-.183-.613-.018-.381.013-.989.176-.241.288-.09.216.008.482.352.108-.145.166-.026.311.334.23.092.042,0,.208-.55.252-.042.2-.332.2.224.476.009-.154.114.4.364.26.044.239-.123.3-.309,2.366.611-.231.168.361.112.249-.041.142.063-.2.331.179.059-.03.348.3.036.117.2-.061.137.129.278.724-.026.284.164.1-.143.215.267.5.178.063.377.43.017.491.391.182.357.06.632.333.2.25.218.062.118-.016.176.4.064.352.886.324.162.034.208-.116.062.152.147.188-.157.358.372.189.91.191.4.17.015.2,1.208.333-.05.121.752.229.649.037,1.02.179.058.036,1.022.33.719.051,1.4-.061,1.767-.361,2.286-.251.85-.217.508-.148-.109.023-.385-.533-.386-.217.246.048.295-.372.356v.516l-.447.712.042.25-.353.186.153.706.208-.033-.106.4-.5.078-.086-.242-.792-.133-.361.4-.108.4-.123.02.024.166-.337.567.347.289.131.28-.024.389-.163.326-.9.785-1.647.945-1.451.577-.947.236-.826-.081-.477-.311-.242-.691-.054-1.147.942-1.349.271-1.8.339-.269Zm-1.792-15.26.253-.038.344.546-.066.394-.013.474-.163.024-.167-.229,0-.257-.169-.233Zm7.233,16.363.321.121-.294.048Zm1.143-.1.056.08-.359.181-.144-.1Z" transform="translate(-215.696 -294.665)" fill="#ff6900"></path><path id="Path_42" data-name="Path 42" d="M407.711,316.458l-.052-.332-.085.013,0-.258.251-.04.039.25.385-.274.07.158.291-.047-.288.345-.065.4.458-.075.358-.183.062-.953.274-.426-.468.029-1.1.6-.754.12-.4.191-.191-.139-.288.088-.066-.161.446-.157.25-.3-.749.119-.139-.877.163-.025-.078-.505-.381-.793-.052-1.919-.271-.9-.065-.932.189.1.032.208.544-.083-.169-.789.332-.607-.216-.267.074-.1-.048-.293.1-.486-.542-.169-.255-.259.362-.143-.28-.686.033-.606-.444-.356-.067-.161.009-1.287-.69-.317-.3-1.578-.057-.634-.457-2.069-.263-.3-1.949-.673-.162-.486-.017-.385.056-.438.325-.392.753-.377,1.447-.317.348.031.382.239.436-.458.736.57,1.22-.409-.079-.242,1.746-.321.136.059.1-.141.426-.027-.057.181.25-.043-.033-.208.283.169.985-.283-.025-.127,1.112-.305,1.04.093.29.209.206.481.475,2.963-.319.435.351.59-.212.292.02.383-.3.261.31.334-.336.055-.036.3.264.044.02.125-.082.013.2.44-.235.122.081.8.491-.16.386.022-.189.413-.16.326-.071.4-.44.159.056.376.712-.114-.06.179.271.341.011.343.369.157.044.546-.245.085.041.25.126-.021.11.41.255.264-.275.427.2-.077,1.192,7.478-.264-.044-.254.3.151.149.034.207.118.2.238-.122.111.152.308,2.222.3,1.366-.347-.029-.332-1.019-.058.435-.036.309.079.243.235.649.806-.044.744.1,1.033.31.346.287.149.4-.017.437-.131.533-.152.108-.183-.054-.4.406-.926.361-1.173.187-.43-.275-.358-.111-.828.169-1.46-.023-.091.23-.478-.308-1.31.122.013.34-.606-.034-.022.392-.441.2-1.747.32-.022-.127-.5.081-.111-.154-.242.079.007.3-.8.083-.033-.21-.478-.051L405.33,323l-.1-.069-.331-.718.066-.652,1.355-.9.262-.26.134-.233-.055-1.4-.336-1.831Zm-.543,2.784.288-.084.015-.174-.654-.068-.015.174Zm.261-4.024.16-.069.062-.136-.066-.161-.524.212-.015.174Zm5.318.052c-.041-.25-.089-.287-.345-.287l.047.292Zm.489-.163.242-.082-.17-.53-.306-.035.06.375Zm.745-1.488-.042-.254-.233-.131-.023.131Zm.2-1.448.005-.216-.435-.315-.014.174Zm1.474,1.737.069-.1.016-.174-.07-.159-.192-.141-.131-.022-.16.068-.083.314.06.076.24.174.131.025Zm.759-20.2.7-.2.534.386.41-.108.565.038.44-.2.033.208.278-.128.353.07.255-.3-.058-.332,2.015-.537.294-.048.567.082.29.468.144.361.026.17-.364,1.212.1.071-.057.182.2.14.165-.283.36,1.183.023.127-.359.441.224.606-.085.27.294.211.248-.041.109.67.463,1.853-.042.262-.211.29-.65.235-1.083-.087-.235-.134-1.408-1.575-1.532-1.3-.382-.239.26-.256-.241-.432-.3-.294-.222-.054-.313.178-.247.344-2.817-.755-.256-.257-.395-1.135.014-.991.109-.143.478-.2,1.207-.235Zm1.684,10.564.557-1.888.225-.464.44-.2.571-.177.477.055.293.212.395,1.134.068.415-.418.069.031.212.084-.013-.084.269.161.489.139-.2.033.208.126-.02.054.332-.165.028-.049.222.338.246-.02.431-.279.385-.072.357.4.922.081,1.056.086.544.169-.028.014-.174.12-.06.206.225-.024.647.295,1.321-.042,1.081-.134.233-.4.194-.367.1-.519-.045-.514-.261-.423-.488-.292-.771.286-.087-.042-.253-.132-.021-.177-.313-.494.122-.145-.363-.349-.03-.629-.457-1.045-.649-.15-.143-.263-.859-.112-1.223Zm.754-6.844-.362.141-.134-.019-.051-.078.1-.189Z" transform="translate(-248.217 -288.701)" fill="#ff6900"></path><path id="Path_43" data-name="Path 43" d="M460.592,308.031l-.053-.333-.085.01,0-.258.251-.038.038.25.385-.276.07.162.289-.047-.285.347-.067.394.46-.071.357-.187.06-.951.276-.429-.467.029-1.1.607-.755.119-.4.19-.192-.14-.289.088-.066-.159.445-.157.252-.3-.751.118-.141-.874L459,306.1l-.077-.5-.389-.791-.048-1.922-.271-.9-.062-.931.184.1.034.209.547-.087-.173-.786.335-.611-.217-.264.072-.094-.047-.3.1-.487-.542-.169-.26-.259.366-.143-.282-.684.034-.6-.44-.36-.072-.158.009-1.287-.694-.318-.293-1.581-.058-.635-.457-2.065-.263-.3-1.949-.672-.161-.489-.022-.381.062-.438.322-.395.75-.376,1.45-.318.349.033.381.239.442-.458.733.57,1.218-.412-.082-.241,1.747-.321.14.062.1-.145.428-.023-.058.179.253-.043-.036-.206.284.167.984-.283-.02-.124,1.106-.308,1.041.092.29.212.208.477.473,2.968-.32.435.352.585-.208.292.016.386-.3.257.313.339-.332.05-.037.3.263.047.019.123-.082.013.2.44-.234.125.084.8.485-.162.388.023-.188.417-.16.325-.069.4-.446.157.063.376.707-.112-.054.179.265.344.012.338.369.16.043.547-.242.08.038.251.125-.017.108.41.256.259-.273.427.2-.072,1.189,7.476-.262-.047-.254.3.154.148.037.21.113.194.239-.121.109.152.308,2.222.3,1.363-.347-.03-.333-1.018-.06.439-.035.3.081.245.23.65.81-.042.741.092,1.033.309.346.288.15.4-.018.43-.13.537-.151.108-.182-.055-.408.406-.928.359-1.167.187-.427-.275-.364-.111-.826.172-1.462-.024-.093.233-.477-.312-1.308.122.013.343-.6-.034-.024.39-.437.2-1.749.323-.02-.127-.5.08-.107-.154-.248.081.005.3-.8.085-.033-.212-.478-.049-1.245-.018-.1-.068-.327-.719.063-.652,1.357-.9.261-.256.132-.234-.052-1.406-.334-1.83Zm-.543,2.782.288-.086.016-.175-.655-.065-.012.173Zm.259-4.024.163-.066.062-.14-.066-.161-.526.217-.013.169Zm5.322.052c-.04-.25-.089-.287-.344-.288l.048.3Zm.488-.161.243-.08-.173-.535-.3-.034.056.373Zm.745-1.491-.043-.255-.231-.13-.024.13Zm.2-1.445.006-.217-.436-.315-.013.173Zm1.476,1.733.068-.1.016-.171-.07-.161-.193-.139-.133-.025-.157.069-.079.313.052.078.242.176.133.022Zm.761-20.2.7-.2.531.39.412-.109.567.037.435-.2.031.211.282-.131.353.071.252-.3-.053-.335,2.011-.538.294-.046.571.082.284.467.148.359.028.17-.364,1.215.093.071-.054.179.191.14.169-.282.364,1.183.018.127-.359.443.228.608-.088.265.292.212.25-.039.108.666.466,1.854-.044.264-.21.29-.65.233-1.084-.084-.235-.136-1.408-1.572-1.533-1.3-.382-.237.26-.258-.239-.432-.3-.292-.221-.05-.317.177-.244.339-2.816-.749-.258-.261-.4-1.136.016-.989.1-.141.484-.207,1.2-.237Zm1.681,10.566.558-1.888.228-.465.437-.2.571-.177.483.054.289.208.394,1.135.067.419-.417.068.034.207.085-.013-.088.27.163.487.14-.193.036.208.125-.022.056.336-.171.027-.049.224.339.246-.019.43-.277.386-.078.357.406.921.082,1.056.087.543.168-.027.01-.177.121-.06.206.225-.026.649.3,1.319-.043,1.08-.132.235-.4.192-.369.1-.52-.047-.515-.257-.421-.492-.293-.766.287-.089-.038-.25-.132-.023-.181-.316-.493.124-.145-.363-.346-.032-.627-.457-1.05-.645-.15-.147-.267-.859-.108-1.223Zm.755-6.844-.362.141-.135-.021-.052-.075.1-.187Z" transform="translate(-276.882 -284.131)" fill="#ff6900"></path></g><g id="Group_5" data-name="Group 5" transform="translate(44.769 260.258)"><g id="Group_4" data-name="Group 4"><g id="Group_3" data-name="Group 3"><g id="Group_2" data-name="Group 2"><path id="Path_44" data-name="Path 44" d="M531.925,331.437c.206,1.164.264,2.2.147,1.768.508,2.358.372,2.432.666,2.7.366,1.507.46,3.162.081,1.442l.856,4.376-.383-2.637c.319.684.612,4.214.985,5.01l-.783-4.761.105.227c-.247-1.073-.554-3.185-.643-3.923.053.11.1.027.236.867-.907-5.754-.607-1.492-1.439-6.253C531.806,330.551,531.864,330.922,531.925,331.437Z" transform="translate(-308.771 -298.204)" fill="#ff6900"></path><path id="Path_45" data-name="Path 45" d="M529.142,312.217l-.577-1.966-.474-3.376c-.095-.025-.559-2.464-.371-.792.066.322.2.96.27,1.479-.25-.345-.812-4.461-.847-3.44.477,2.653.5,3.069.918,4.682.374,2.444.615,4.228.728,5.378.146.719.278.8.45,1.719l-.108-.624.271-.146c-.184-.758-.271-1.489-.413-2.339l.966,3.886c.066-1.313-.713-5.159-.848-6.724C529.171,311.913,528.74,308.448,529.142,312.217Z" transform="translate(-306.271 -283.95)" fill="#ff6900"></path><path id="Path_46" data-name="Path 46" d="M531.719,330.041l.016.1Z" transform="translate(-308.752 -298.089)" fill="#ff6900"></path><path id="Path_47" data-name="Path 47" d="M72.652,425.877a4.38,4.38,0,0,0,1.191-.286l-7.794,1.168-.072-.5a4.938,4.938,0,0,0,.012.579c.5-.016,1.208-.066.229.112a10.828,10.828,0,0,0,1.5-.2l.938-.186a4.079,4.079,0,0,0,.595-.159l-.667.217c2.155-.473,3.685-.4,2.278-.106l.184-.029,5.944-1.468C74.774,425.321,75.316,425.474,72.652,425.877Z" transform="translate(-56.263 -349.58)" fill="#ff6900"></path><path id="Path_48" data-name="Path 48" d="M502.915,364.248c-1.221.209-1.367.259-1.224.266C502.126,364.427,502.54,364.341,502.915,364.248Z" transform="translate(-292.449 -316.633)" fill="#ff6900"></path><path id="Path_49" data-name="Path 49" d="M93.074,423.729l1.862-.46C94.187,423.429,93.531,423.593,93.074,423.729Z" transform="translate(-70.956 -348.629)" fill="#ff6900"></path><path id="Path_50" data-name="Path 50" d="M62.186,434.6c-.013.011-.051.026.016.029l1.361-.3-.033.006Z" transform="translate(-54.199 -354.628)" fill="#ff6900"></path><path id="Path_51" data-name="Path 51" d="M186.479,408.708l.617-.1Z" transform="translate(-121.592 -340.679)" fill="#ff6900"></path><path id="Path_52" data-name="Path 52" d="M50.779,376.444l.78,4.178c-.163-.548.155,1.476-.067.6.06.319.309,1.816.291,1.4l-.129-.857a30.676,30.676,0,0,1,1.165,4.475,24.492,24.492,0,0,0-.745-4.475l-.192-1.1-.836-3.447Z" transform="translate(-48.027 -323.244)" fill="#ff6900"></path><path id="Path_53" data-name="Path 53" d="M376.972,386.261l-.043.025C376.97,386.273,376.977,386.266,376.972,386.261Z" transform="translate(-224.838 -328.566)" fill="#ff6900"></path><path id="Path_54" data-name="Path 54" d="M376.071,386.418l.172-.1C376.023,386.387,375.164,386.552,376.071,386.418Z" transform="translate(-224.152 -328.596)" fill="#ff6900"></path><path id="Path_55" data-name="Path 55" d="M90.759,424.529a2.456,2.456,0,0,1,.671-.256l-1.389.343Z" transform="translate(-69.312 -349.173)" fill="#ff6900"></path><path id="Path_56" data-name="Path 56" d="M79.069,427l-3.533.561-1.286.318Z" transform="translate(-60.751 -350.654)" fill="#ff6900"></path><path id="Path_57" data-name="Path 57" d="M132.437,405.979c7.324-1.131-1.759.547,1.618.112,2.031-.338,2.729-.576,3.992-.808-5.8.982.723-.552-5.13.393a37.785,37.785,0,0,1,6.188-1.122c2.286-.107-1.942.461-2.418.764a13.917,13.917,0,0,0,2.906-.647c3.7-.5,7.6-1.423,9.854-1.435a34.925,34.925,0,0,0,3.995-.885c.269-.291-4,.466-5.017.419.208-.009.614-.028.5.024l-2.319.294c2.207-.242-.269.291-1.439.486a16.006,16.006,0,0,1-2.322.293l1.283-.245c-1.674.17-3.642.727-5.417.856-.1-.042.56-.167.656-.215-1.942.461-3.841.734-6.736,1.288l1.652-.5a101.014,101.014,0,0,1-11.253,1.732c.411-.018,1.147-.1.715.015-2.138.38-3.786.454-2.81.177-2.067.514-8.018,1.022-10.837,1.712l-12.96,3.2c.488-.1,1.01-.208,1.552-.3,1.227.035,1.867-.086-.2.429a36.072,36.072,0,0,1,4.314-.946c-1.194.289-1.464.58,1.5.163,7.363-1.318,12.174-2.659,19.036-4,.279.125,5.7-.73,8.338-1.085a42.118,42.118,0,0,1-4.954,1.01l5.1-.737Z" transform="translate(-73.16 -337.253)" fill="#ff6900"></path><path id="Path_58" data-name="Path 58" d="M136.9,417.1l.578-.055C137.371,417.047,137.2,417.062,136.9,417.1Z" transform="translate(-94.714 -345.255)" fill="#ff6900"></path><path id="Path_59" data-name="Path 59" d="M160.379,413.026c-.024.009-.014.014-.022.021l.641-.108Z" transform="translate(-107.431 -343.029)" fill="#ff6900"></path><path id="Path_60" data-name="Path 60" d="M94.11,425.081l-1.186.287.929-.184C94.162,425.117,94.306,425.073,94.11,425.081Z" transform="translate(-70.875 -349.611)" fill="#ff6900"></path><path id="Path_61" data-name="Path 61" d="M91.858,424.809l.224-.1-.49.058C91.547,424.808,91.605,424.83,91.858,424.809Z" transform="translate(-70.145 -349.407)" fill="#ff6900"></path><path id="Path_62" data-name="Path 62" d="M235.882,404.311l.7-.142A4.645,4.645,0,0,0,235.882,404.311Z" transform="translate(-148.374 -338.274)" fill="#ff6900"></path><path id="Path_63" data-name="Path 63" d="M162.373,407.708c-2.546.4-.268.291-3.873.831l1.06-.143c-2.572.492-7.126,1.122-10.2,1.59.331-.151-1.882.159-1.545-.048-2.1.35-4.173.695-5.232,1.014-1.31.143-3.267.576-4.931.758.712-.012-2.31.663,1.7-.05-.324.061-.116.052-.435.113,2.614-.26,3.621-.633,5.857-.969,1.349-.109-2.164.473-.9.321,2.779-.5,8.775-1.2,8.539-1.512a17.418,17.418,0,0,1,2.935-.322c3.158-.844,11.948-1.624,11.849-2.085-1.17.193-3.083.468-4.789.825Z" transform="translate(-94.891 -339.92)" fill="#ff6900"></path><path id="Path_64" data-name="Path 64" d="M104.856,423.552l.5-.07Z" transform="translate(-77.343 -348.744)" fill="#ff6900"></path><path id="Path_65" data-name="Path 65" d="M64.5,400.851l.459,1.023c.442,2.817.73,4.8.988,6.653l.484,3.534.212-.033c.064.034-.08.082-.165.109l.332-.06.9-.139,3.323-.5c2.2-.335,4.273-.664,5.62-.936,1.189-.174,4.319-.543,3.153-.277.574-.114,1.231-.239,1.9-.328.192.084-1.482.254-1.507.349a4.959,4.959,0,0,0,.852-.133c-.872.226.975.234-3.158.844-1.639-.017,2.861-.457,1.875-.6-1.371.2-1.2.288-1.309.34-1.747.255-1.713.177-1.629.1-.657.187-2.872.4-3.777.665-3.393.529.154-.24-2.065.1l-1.235.477-1.848.248-.873.117-.313.033a5.46,5.46,0,0,0-.7.183c-.113-.23-.192.008-.288.117-.049.046-.1.048-.179-.138a3.368,3.368,0,0,1-.134-.437c-.056-.239-.093-.361-.216-1.095.266.782.162-1.7-.191-4.556l.576,3.322.3,1.8a5.356,5.356,0,0,1,.076.66c.025-.651.091-.209.159.185.409-.072.8-.149.6-.245a3.427,3.427,0,0,1-.538.168,5.67,5.67,0,0,1-.118-.638l-.2-1.674.121.649c-.276-2.12-.807-3.678-1.115-6.614-.219-1.451-.1-1.19,0-.944A17.55,17.55,0,0,1,64.5,400.851ZM65.015,404l.253,1.945A18.284,18.284,0,0,0,65.015,404Z" transform="translate(-55.458 -336.476)" fill="#ff6900"></path><path id="Path_66" data-name="Path 66" d="M521.172,260.282l.16-.021.095.711-.093-.714Z" transform="translate(-303.034 -260.258)" fill="#ff6900"></path><path id="Path_67" data-name="Path 67" d="M143.141,321l1.122-.172Z" transform="translate(-98.098 -293.095)" fill="#ff6900"></path><path id="Path_68" data-name="Path 68" d="M197.769,309.864l1.628-.332C198.751,309.641,198.248,309.75,197.769,309.864Z" transform="translate(-127.713 -286.97)" fill="#ff6900"></path><path id="Path_69" data-name="Path 69" d="M488.857,265.434l-.055.007-.256.057Z" transform="translate(-285.347 -263.064)" fill="#ff6900"></path><path id="Path_70" data-name="Path 70" d="M308.24,293.779c.254-.016.537-.04.923-.085A5.168,5.168,0,0,0,308.24,293.779Z" transform="translate(-187.601 -278.381)" fill="#ff6900"></path><path id="Path_71" data-name="Path 71" d="M197.117,310.317l.1-.011.2-.051Z" transform="translate(-127.359 -287.363)" fill="#ff6900"></path><path id="Path_72" data-name="Path 72" d="M117.792,323.3l-.714.145C117.415,323.385,117.622,323.341,117.792,323.3Z" transform="translate(-83.969 -294.435)" fill="#ff6900"></path><path id="Path_73" data-name="Path 73" d="M121.554,324.51l-.693.141Z" transform="translate(-86.02 -295.09)" fill="#ff6900"></path><path id="Path_74" data-name="Path 74" d="M48.651,352.851l.26,1.508C48.8,353.615,48.718,353.173,48.651,352.851Z" transform="translate(-46.873 -310.454)" fill="#ff6900"></path><path id="Path_75" data-name="Path 75" d="M113.313,325.512l-.227.077C113.293,325.546,113.39,325.514,113.313,325.512Z" transform="translate(-81.805 -295.633)" fill="#ff6900"></path><path id="Path_76" data-name="Path 76" d="M523.382,283.967l-.015-.091-.04-.033Z" transform="translate(-304.203 -273.044)" fill="#ff6900"></path><path id="Path_77" data-name="Path 77" d="M525.642,291.986l.236,1.324C525.8,292.816,525.715,292.338,525.642,291.986Z" transform="translate(-305.458 -277.458)" fill="#ff6900"></path><path id="Path_78" data-name="Path 78" d="M356.294,286.91c.406-.023,1.352-.126.922-.008C357.972,286.719,357.9,286.583,356.294,286.91Z" transform="translate(-213.651 -274.599)" fill="#ff6900"></path><path id="Path_79" data-name="Path 79" d="M517.091,269.385a2.526,2.526,0,0,1,.176.479C517.161,269.466,517.1,269.284,517.091,269.385Z" transform="translate(-300.822 -265.191)" fill="#ff6900"></path><path id="Path_80" data-name="Path 80" d="M517.475,270.465l.2.808Z" transform="translate(-301.03 -265.792)" fill="#ff6900"></path><path id="Path_81" data-name="Path 81" d="M334.368,295.907a3.014,3.014,0,0,0-.469.034A1.131,1.131,0,0,0,334.368,295.907Z" transform="translate(-201.511 -279.584)" fill="#ff6900"></path><path id="Path_82" data-name="Path 82" d="M525.845,290.21c.105.227,1.179,5.971.436,1.114.241.153.6,3.1.856,4.382-.1-.947.211.446.24.148-.128-.637-.31-1.39-.465-2.453.019-.5.342,1.1.507,2.358-.137-1.566.482,1.937.217-.267-.826-4.672-1.434-7.97-2.27-11.214.478,2.662,1.02,5.638,1.286,7.841l-.33-.891c-.235-2.5-.6-4.009-.973-6.446l.779,5.483c.258,2.586-.052.878-.408-1.135A8.075,8.075,0,0,1,525.845,290.21Z" transform="translate(-305.299 -273.28)" fill="#ff6900"></path><path id="Path_83" data-name="Path 83" d="M521.631,289.749l.011.093.055.228Z" transform="translate(-303.283 -276.246)" fill="#ff6900"></path><path id="Path_84" data-name="Path 84" d="M56.678,351.055l.137.461C56.727,351.127,56.689,351.009,56.678,351.055Z" transform="translate(-51.225 -309.475)" fill="#ff6900"></path><path id="Path_85" data-name="Path 85" d="M522.421,282.283v0C522.414,282.25,522.413,282.241,522.421,282.283Z" transform="translate(-303.708 -272.183)" fill="#ff6900"></path><path id="Path_86" data-name="Path 86" d="M64.864,340.9l-.06.026A.3.3,0,0,0,64.864,340.9Z" transform="translate(-55.63 -303.973)" fill="#ff6900"></path><path id="Path_87" data-name="Path 87" d="M70.1,331.152a.245.245,0,0,0-.084-.012C69.767,331.191,69.89,331.18,70.1,331.152Z" transform="translate(-58.381 -298.684)" fill="#ff6900"></path><path id="Path_88" data-name="Path 88" d="M64.94,340.855c0,.005.01.01-.006.018C64.942,340.866,64.962,340.857,64.94,340.855Z" transform="translate(-55.701 -303.951)" fill="#ff6900"></path><path id="Path_89" data-name="Path 89" d="M188.179,319.32l-.473.013C187.6,319.368,187.713,319.37,188.179,319.32Z" transform="translate(-122.238 -292.277)" fill="#ff6900"></path><path id="Path_90" data-name="Path 90" d="M163.949,322.689l-.208.013Z" transform="translate(-109.266 -294.103)" fill="#ff6900"></path><path id="Path_91" data-name="Path 91" d="M348.645,286.279l-1.322.223C347.73,286.442,348.167,286.37,348.645,286.279Z" transform="translate(-208.788 -274.365)" fill="#ff6900"></path><path id="Path_92" data-name="Path 92" d="M64.155,340.952c-.114.038-.277.085-.549.154C63.9,341.031,64.062,340.985,64.155,340.952Z" transform="translate(-54.981 -304.004)" fill="#ff6900"></path><path id="Path_93" data-name="Path 93" d="M225.392,311.26l-.341.076.206-.024Z" transform="translate(-142.503 -287.907)" fill="#ff6900"></path><path id="Path_94" data-name="Path 94" d="M229.192,308.193c-.2.053-.285.09-.393.126,2.076-.414,5.926-.952,6.349-1.22-.708.12-4.4.6-3.793.384-1.449.284-3.623.5-4.4.654,2.408-.28.285.122-1.318.449-1.477.181.25-.2-1.018-.033l-3.392.57,2.962-.452-.869.332.3-.066C228.607,308.041,224.087,309.143,229.192,308.193Z" transform="translate(-140.428 -285.651)" fill="#ff6900"></path><path id="Path_95" data-name="Path 95" d="M236.825,309.764c-.312.062-.585.121-.8.176A5.01,5.01,0,0,0,236.825,309.764Z" transform="translate(-148.454 -287.096)" fill="#ff6900"></path><path id="Path_96" data-name="Path 96" d="M282.527,303.012l.881-.173Z" transform="translate(-173.661 -283.342)" fill="#ff6900"></path><path id="Path_97" data-name="Path 97" d="M66.762,428.96a13.46,13.46,0,0,0-1.7.157c-.062-.447-.128-.784-.176-.724l.1.822,1.467-.188Z" transform="translate(-55.677 -351.403)" fill="#ff6900"></path><path id="Path_98" data-name="Path 98" d="M402.492,281.716l-.978.154-.185.053C401.531,281.913,402.17,281.782,402.492,281.716Z" transform="translate(-238.066 -271.891)" fill="#ff6900"></path><path id="Path_99" data-name="Path 99" d="M244.239,307.472a7.632,7.632,0,0,0-.889.213A7.962,7.962,0,0,0,244.239,307.472Z" transform="translate(-152.423 -285.854)" fill="#ff6900"></path><path id="Path_100" data-name="Path 100" d="M404.389,281.815a6.686,6.686,0,0,1,1.136-.02c.846-.136,1.428-.307,2.286-.474C406.841,281.5,405.715,281.667,404.389,281.815Z" transform="translate(-239.724 -271.677)" fill="#ff6900"></path><path id="Path_101" data-name="Path 101" d="M411.932,281.291l-.069.014Z" transform="translate(-243.776 -271.66)" fill="#ff6900"></path><path id="Path_102" data-name="Path 102" d="M57.5,337.662l.772-.147-.4.1,2.017-.256.824-.147a1.489,1.489,0,0,0-.288.081l.647-.081c1.577-.387,5.544-1.091,6.679-1.351,1.511-.291,3.366-.6,4.534-.766-1.082.158-2.513.4-2.07.42a49.941,49.941,0,0,0,7.072-.933l-2.223.335,4.949-1.066c1.771-.128-2.469.533-3.147.752,3.864-.74,7.16-.8,8.92-1.346.278.126.745.337,3.293-.06-1.866.089,1.511-.348-.027-.324.866-.226,2.853-.365,2.981-.511l-.228.1a38.223,38.223,0,0,0,7.6-1.423c5.2-.846,7.615-1.1,11.863-1.761a8.449,8.449,0,0,0,3.091-.05c.772-.268,4.609-.912,4.974-1.161a32.87,32.87,0,0,0-4.291.85,10.32,10.32,0,0,0-2.261.012c1.687-.172,7.556-1.234,9.418-1.321l-.644.123c2.947-.324,3.577.067,8.414-.949l2.311-.464a.8.8,0,0,0-.176.086c3.814-.549,2.806-.177,6.989-.977-.324.062-.116.052-.445.115,2.414-.251,4.8-.828,6.608-1.144,1.131-.006-.239.2-.907.414,4.229-.569,8.741-1.521,11.334-2.108l2.733-.312c-1.6.306-3.55.768-3.042.792,1.49-.255,1.19-.288,3.31-.573-.346.156-1.219.384-2.195.661,4.4-.483.924-.509,4.033-.652a6.011,6.011,0,0,0,2.283-.617l2.515-.212a47.006,47.006,0,0,1,5.338-.99,10.018,10.018,0,0,0-2.4.249,23.028,23.028,0,0,1,3.646-.728c.555.254,9.019-1.4,7.448-.764,6.176-1.032,14.87-2.364,18.936-3.111,1.361-.11,4.109-.516,2.486-.115,4.985-.743,7.5-1.465,12.465-2.114.416-.02-2.236.337-2.044.421,3.214-.615,5.9-.74,10.91-1.577a4.335,4.335,0,0,0-1.193.288c-.1-.041,2.038-.419,3.33-.666.733-.081-.966.185-.55.165,9.715-1.288,17.034-2.838,26.675-4.262-2.752.408-3.761.781-3.778.874l2.7-.4c1.023-.264,3.049-.566,4.73-.9.214.01,1.044-.069.212.109,5.36-.575,8.262-1.641,14.807-2.5l-7.839,1.62,1.978-.139-3.446.719c2.094-.19,3.858-.738,4.133-.61a10.322,10.322,0,0,0-1.512.349c2-.233,2.142-.379,3.635-.635-3.9.925-11.638,2.076-15.792,2.78-.651.125.549-.165.66-.217-1.7.265-2.734.312-4.865.69-1.308.341,1.029-.047,2.087-.19a5.433,5.433,0,0,1-1.83.411c-.28-.127-6.456.9-8,.929-6.268.989,1.066.277-5.07,1.12l-1.858.085c-3.534.676-8.115,1.493-12.145,2.053l.848-.133c.551-.165-.39-.075-.809-.055-3.054.374-5.751,1.011-7.622,1.1-3.438.718-9.2,1.731-13.149,2.426-1.107-.089,5.142-.983,6.768-1.385l-3.61.54a35.283,35.283,0,0,0,4.414-.9c-3.171.427-4.178.8-7.169,1.31.223-.1-.183-.085-1.567.12l-.368.223a3.376,3.376,0,0,0-.611.054l-5.322.9a25.013,25.013,0,0,0,2.6-.167c-.506-.023.66-.217,2.04-.42-1.193.288,1.359-.111,1.342-.017-2.766.409-6.161.938-7.967,1.255l-.611-.065c-2.642.356-5.414.855-7.208,1.079l.551-.165c-3.169.426-6.269.989-9.1,1.26-2.794.6-6.323,1.27-8.6,1.8-1.2.38-8.313.989-11.453,1.741-.218.01,2.163-.474,3.236-.711a36.233,36.233,0,0,1-4.458.673c4.757-.639-.281-.126,1.85-.5-2.223.336-4.56.723-5.64.959,3.6-.539-1.235.476,2.393-.158-2.8.594-6.636,1.239-10.008,1.674.02-.094-.4-.075-1.66.077l-.992.279c-1.577.212,3.02-.608-.154-.181-3.226.708-9.834,1.341-11.2,1.962-2.507.209,4.7-.869.929-.508,2.156-.473,5.187-.752,5.873-1.064-2.126.377-.8-.056-2.183.149l-2.361.48.527-.07c-3.967.789-10.31,1.641-15.407,2.435-4.291.852-7.221,1.592-12.408,2.345,1.511-.35-4.322.526-1.093-.181a27.383,27.383,0,0,0-4.8.826c2.115-.284.747-.082,2.531-.3a49.517,49.517,0,0,1-5.1.794c.527-.071.325-.062.435-.113a19.794,19.794,0,0,0-3.006.6c-.6-.064-4.027.561-5.7.731L81.792,336c1.3-.34-2.319.294-2.718.219-1.714.358-3.137.75-5.777,1.106,1.077-.237-2.418.251-2.486.114-4.529.537-7.409,1.508-11.71,1.94.128-.054.975-.277-.278-.125-.488.093-1.164.2-1.848.3l-2.842.434.052-.011L54.1,340a8.5,8.5,0,0,0-1.344.262l-.328.066L51.7,336.7l-.362-1.826-.4-2.138a8.386,8.386,0,0,0,.168,1.9l.581,3.606.418,1.742c.005.227.019.473.039.734.9-.07,2.143-.282,3.264-.481l1.549-.272a5.416,5.416,0,0,1,.712-.1c-.19.055-.413.112-.666.171L55.6,340.3l-3.617.618-1.005-6.368c-.236-1.451-.473-2.86-.7-4.02.036.87.157,2.122.328,3.575l.343,2.667.656,4.652,5.587-.84-3.324.394,3.662-.55-.557.039-.983.1-1.915.2,7.106-1.065c-2.229.337-3.131.239-1.865.087a41.364,41.364,0,0,0,4.473-.765c-1.06.142-2.434.345-1.561.119,3.773-.362,4.765-.643,8.2-.939-.462-.212,4.251-.663,4.727-.964l-1.583.213,3.327-.667c3.126-.237-2.7.638,2.026.093,4.346-.622,4.191-.892,7.6-1.424a59.026,59.026,0,0,1-6.542,1.282l1.68-.171c-.869.226-4.681.774-6.585,1.049,3.114-.655-1.478.163-2.93.231-.239.2,1.774-.131-.588.351,2.231-.335,2.555-.4,5.4-.762-6.147.844-5.436,1.37-10.812,2.037,2.457-.439-.9-.1-1.2-.13l-4.473.766.912.1a30.775,30.775,0,0,1-3.547.414l-.8.065-1.6.2c-1.121.15-2.351.334-3.871.6l-.194-1.106c-.084-.26-.016.345.1,1.229,1.719-.242,4.563-.7,3.724-.559l-3.751.594c-.254-1.735-.461-3.279-.638-4.7l-.119-.984-.05-.531-.087-1.043c-.109-1.389-.2-2.8-.4-4.693a3.9,3.9,0,0,1-.582-1.679c.206.461.112-.682.461,1.026-.155-1.472-.505-3.191-.745-4.475.361,3.058-.377-1.219-.54-1.769-.2-1.581.206.462.386,1.428a17.294,17.294,0,0,0-.473-3.5,38.984,38.984,0,0,1,1.268,5.831l-.206-1.587a27.385,27.385,0,0,1,.446,2.863c-.112-1.555.033-1.422.187-1.077.008.2-.05-.107-.043.088.147,1.27.327,2.235.361,1.931.357,1.11-.134-1.773-.162-2.645l-.318-1.927-1.572-6.486c-.478-2.8-.513-4.084-.725-6.208l-.25-.555c-.336-2.447-.618-4.762-.18-3.225a3.637,3.637,0,0,0,.085.949,1.716,1.716,0,0,1,.1.34l.047.117-.732-4.39c.885,4.411.333.179.734.88l-.745-4.476c.3,2.735-.136.07-.317-.89a1.237,1.237,0,0,0,0-.426l-.046-.405-.1-.711-.551-3.537,2.463-.412-.157.06,3.469-.524,3.038-.532c-.092-.043,2.191-.689,3.282-1.032-3.121.442-1.285.077-1.55.015a9.619,9.619,0,0,0,.966-.166c.438-.119-.615.034-.712-.006l-4.747.878-1.971.4c-.977.2-1.763.368-2.3.514a23.311,23.311,0,0,0,2.369-.386,11.8,11.8,0,0,1,1.506-.272l-.9.214-.489.1-.847.153-3.878.648.543,3.783.039.764c.009.148.011.239.008.3v.23l.476,2.762a8,8,0,0,0-.289-1.008c-.049-.163-.1-.382-.174-.741l-.12-.655-.179-1.126a3.215,3.215,0,0,0,.024.422l.045.416.18,1.168c.148.895.333,1.964.44,2.858l.315.885c-.153-.336.379,3.479-.153.791l-.787-4.386.051,1.243-.686-4.485.333,1.63c-.422-2.694-.663-4.4-.779-5.379,1.605-.222,1.843-.18,2.71-.271.432-.045,1.016-.122,2-.281l1.284-.221,1.437-.276a58.507,58.507,0,0,1,7.556-1.419c-2.658.48-.249.2-1.23.491a36.809,36.809,0,0,0,5.018-.994c.711.006,1.219.022-1.212.4-.264.294,3.188-.56,3.451-.343,8.043-1.309,6.315-1.859,15.77-3.064l-.337.159c5.952-1.092,9.416-1.528,14.933-2.5l4.4-.445c-.968.2-3.553.815-2.312.742-2.16.08-4.392.535-6.7.764-.223.106.715.005,1.127-.018-1.377.22-2.087.214-3.9.554.1.04,2.091-.216.6.058l-2.5.239c-3.3.612-1.567.65-5.468,1.205a24.141,24.141,0,0,1,3.643-.986c-1.781.256,2.354-.47.719-.294-2.525.627-3.788.658-7.17,1.342a13.2,13.2,0,0,1,1.329-.3l-4.953.708c1.242-.073-4.057.8-3.567.908,5.275-.775,3.71-.637,9.724-1.5a43.742,43.742,0,0,0-4.848,1.2c-.052,0-.141.01-.324.036-.887.332.054.23.088.554,2.7-.671,4.561-.779,7.77-1.432.578-.274-1.91.079-3.508.384l2.826-.576-.546.171,7.23-1.109a18.311,18.311,0,0,0-2.517.6c.934-.144,1.864-.247,2.854-.355-.234-.134-.123-.273.786-.417,4.652-.712,7.259-.979,9.005-1.065l.539-.1c-.807-.046,3.248-.843,4.66-1.252-.044.19,2.411-.28,3.765-.406.679-.319-.317-.446-1.974-.35a10.252,10.252,0,0,0-3.171.978l-5.011.991,1.1-.344c-2.527.335-4.907.94-4.757.7,1.306-.356,3.515-.625,4.809-.98l-1.675.191c2.9-.682,1.537-.043,5.066-.762-1.337.031.32-.065,1.823-.432-1.242.072-6.249,1.063-5.23.585,1.827-.432,6.275-.647,8.671-1.347l-.114.054a51.025,51.025,0,0,0,6.186-1.252c1.551-.149,3.648-.631,5.309-.911l-.027.1L122.25,282c-1.091.342-2.751.44-4.763.79l.277.125a30.14,30.14,0,0,0-5.637,1.163c2.6-.567,7.414-1.158,7.979-1.58l1.649-.1.766-.185c1.229-.071.027.325-2.311.742-.414.024-.622.036-.5-.018a42.907,42.907,0,0,1-4.694.927l1.391-.315a74.126,74.126,0,0,0-7.347,1.408c4.744-.7,9.4-1.435,13.845-2.161a32.154,32.154,0,0,0,3.384-1.5c2.971-.546,7.012-1.249,9.623-1.54l-.227.107c1.269-.169,2.431-.376,3.4-.572,1.349-.125-.885.331.054.23l4.252-.807a53.237,53.237,0,0,1-5.537,1.069c.32-.065.966-.2.753-.184-2,.256-5.651,1.122-6.556,1.034-.961.2,1.938-.485-1.339.033a9.767,9.767,0,0,0-3.106.693c-.021.095,3.461-.434,2.272-.132,1.7-.288,2.366-.512,4.563-.779-1.69.284-3.958.836-4.882.844-3.318.706-2.771,1.047-1.19.814-.4-.07,6.075-1.147,1.662-.609,1.943-.487,5.542-1.071,8.1-1.593l-.112.053,3.193-.56a7.571,7.571,0,0,0-1.421.409l4.393-.955c-2.469.564,1.565-.139,2.711-.251.452-.213,2.167-.593.494-.4a22.963,22.963,0,0,0-2.772.534l2.37-.6.209-.012,1.419-.409c3.276-.517-1.365.639,2.8-.211l-.585-.151c4.864-.751,11.146-1.49,14.56-2.156-.924.289-1.306.576.016.495-1.486.2-4.46.688-6.578,1.054a31.482,31.482,0,0,1,4.92-1.033c-1.18-.212-5.762,1.174-6.1.821-5.9.812-4.322,1.092-9.347,1.665-.041.189-1.4.316-1.641.515,1.523.051,6.666-1.088,9.919-1.511-.315.064-.948.194-1.068.248,2.322-.322,3.271-.516,4.878-.844l-.207.012c2.8-.63,1.768-.15,3.444-.341.639-.13,2.959-.453,2.567-.523l3.038-.318-.179-.175c1.7-.287,2.09-.216,3.609-.586l.042-.188-4.226.62c2.127-.4.568-.266,2.911-.683-2.593.618,1.87-.2,2.156-.079l1.711-.379-.434.118c1.37-.128,1.6-.327,3.188-.559a42.718,42.718,0,0,0-5.48.787c1.715-.38,5.129-1.046,5.971-1.188,1.805-.368,3.1-.438,4.8-.694-3.251.6,1.231.353-5.329,1.283a4.437,4.437,0,0,1,.855-.144,31.6,31.6,0,0,0-5.322.964c.386.072-1.092.343,1.434.009-.838.05,2.07-.632,4.479-.913l-.376.347,3.488-.53-.323.066c1.338-.032,3.708-.636,6.125-.918,1.715-.38,8.368-1.375,5.464-1.2,2.18-.174,4.033-.7,6.375-1.119l-2.946.359c3.428-.76,2.452-.47,5.17-1.235.293.031.92-.006.37.165,4.652-.737,11.3-1.732,13.995-2.4,3.28-.518,3.848-.272,8.425-1.145.962-.2-.8-.138,2.26-.551.208-.013-2.9.681.49.111,2.38-.605,5.69-.8,8.8-1.493,1.67-.191,4.544-.685,3.972-.419-2.634.386-6.346,1.023-6.9,1.2.346-.161-1.884.2.038-.189-3.99.513-2.56.522-6.137,1.01a11.751,11.751,0,0,0,2.616-.293c.054.229-7.007,1.249-3.8,1.015,3.811-.6,4.863-1.262,8.2-1.551-1.3.355-3.386.57-5.027,1.085l2.725-.346,1.941-.485-.112.053c4.823-.561,4.391-.955,8.656-1.765-2.508.24.509-.5-1.374-.292,2.86-.493,4.968-.8,5.026-.573-5.33,1.056-.264.295-5.182,1.328.826-.049-1.125.53,1.832.078,3.3-.7-1.026-.032,2.279-.646.2-.011.407-.023.3.03,1.507-.367,1.788-.245,3.613-.676l-.43.117c2.3-.228,2.466-.563,4.449-.726-.811-.045,1.294-.354,2.492-.658-2,.256-3.112.182-7.031.831-.451.213-.152.242-1.752.568l2.546-.429-1.459.323-2.46.325c3.088-.6,1.642-.515,2.937-.869,2.849-.4,2.337-.417,4.13-.662a13.968,13.968,0,0,0,3.121-.236l2.913-.359,4.042-.552-2.207.349c-3.159.63,1.46-.072,2.2-.142a1.066,1.066,0,0,1,.01.143l.478,2.34c-.088-.459-.23-1.048-.092-.006a22.133,22.133,0,0,0,.568,2.669,21.911,21.911,0,0,1,.5,2.25c-.081.193-.565-1.758-.39-.294a24.623,24.623,0,0,0,.579,5.249c.078.214.231,1.016.4,1.947l-.076-.348.211,2.084c-.469-1.729-.48-3.572-.953-5.31l-.2-.122c-.221-1.376-.6-3.232-.829-4.077.305,2.1.423,2.538.837,4.877-.06.347-.409-1.292-.459-1.528l.157.334c-.3-2.844-.833-4.106-1.374-7.694-.081-.548-.016-.23.034-.131l-.246-1.207c-2.518.472-4.874.7-7.194,1.279l.878-.239-9.09,1.9-.019.075a9.515,9.515,0,0,1-1.7.285h0l-4.985,1.033c.467-.031,1.06-.09,1.737-.189.558-.174,3.919-.649,3.43-.761,1.565-.138,4.033-.7,5.181-.815-2.09.216,1.413-.408,1.76-.57.715,0,3.067-.5,2.821-.3a14.943,14.943,0,0,0-1.9.3c-2.146.5,3.992-.513,1.312.063l3.752-.679,3.45-.6.6,3.129-.227-1.831.487,3.116c.182,1.165.334,2.169.317,2.314l-.7-4.03c-.189-.043.578,3.6.495,3.785l.992,4.3-.3-1.907c.3,1.183.809,5.189,1.257,8.146-.515-1.655-.72-4.455-1.316-7.547-.453-2.242-.011,1.432-.411-.7a19.621,19.621,0,0,0,.434,2.633l.09.85c-.527-1.87-1.162-6.151-1.808-8.964a3.882,3.882,0,0,0,.163.534c-.212-1.676-.3-2.34-.466-3.3l-1.42.27a6.671,6.671,0,0,0,1.39-.228v0l0,0c-.085.065-1.256.28-1.669.407,1.124-.115.2.1.862.031-.361.086-.61.136-.985.2l-2.068.312c-.83.049.658-.224.473-.306-1.611.329-2.4.187-4.751.7,3.166-.465-.794.372-1.87.622l.53-.078a8.923,8.923,0,0,1-2.541.428c1.284-.262,2.541-.428,2.152-.5-.853.144-1.7.287-2.665.482l.864-.236-4.24.714c-.653.224-1.75.568-2.31.832a27,27,0,0,0-3.4.573l.442-.121a60.71,60.71,0,0,0-6.376,1.119c-1.352.125,9.35-2.177-.088-.553-3.6.582-2.187.686-4.22,1.131,0,0,.11-.052-.1-.04-1.577.23-1.715.379-3,.641a26.312,26.312,0,0,0,2.752-.44c-.452.212-3.278.517-4.467.82,1.531-.462-3.053.412-1.856.109a67.6,67.6,0,0,0-8.086,1.5c-2.165.081-3.718.637-7.183,1.073.531-.078,1.486-.272,2.231-.364,1.937-.484-3.583.49-.586-.151-.642.131-.031.1.628-.037,1.156-.206,2.236-.456,1.932-.485l-2.831.306.973-.2-4.294.485c-.111.052.3.029.5.017-4.957.709-10.59,1.737-14.924,2.41-.738.6-10.627,1.925-14.08,2.78.916-.287,1.392-.608.8-.612.777-.146,2.343-.594,4.119-.841.294.03,2.493-.238,1.1.076,4.882-.844-.695-.1.719-.508-5.409.922-8.544,1.711-11.945,2.376l-.1-.042-2.566.522c2.115-.31,2.055-.026-.681.321l.33-.066c-1.569.139-4.777.793-7.2,1.167l-1.619.42a8.7,8.7,0,0,1-3.4.061c-3.808.594-5.966,1.185-8.646,1.762-1.241.072-6.944.964-3.95.324-3.414.665-2.612,1.225-8.558,1.8l1.508-.368c-5.623.935-13.608,2.474-16.222,2.766,2.006-.77-7.1.7-8.169.431a15.776,15.776,0,0,1-2.114.528,9.988,9.988,0,0,0-2.054.321c2.207-.27-1.472.691,2.7-.159a66.955,66.955,0,0,1-9.426,2.043l.041-.189,3.688-.541c-.392-.071,1.5-.367,2.27-.553-6.861,1.007.829-.56-6.165.594a9.042,9.042,0,0,1-2.039.446c.855-.144.989-.291-.39-.07l-1.3.355c-2.493.1,4.013-.847,1.9-.717,2.679-.577,7.347-1.408,6.438-1.493-4.425.632-3.9,1.066-8.531,1.71l-.506-.017a22.593,22.593,0,0,0-2.723.765,5.716,5.716,0,0,0-1.553.136c-2.7.671-4.515,1.01-7,1.668,6.7-1.275,5.779-.756,12.7-2.046-1.077.25-5.956,1.094-6.217,1.387l.036-.188c-2.243.457-4.485.913-7.329,1.314l1.715-.38c-3.739.731-6.292.74-9.21,1.516q1.576-.23,2.541-.428c-1.922.392-4.351.766-6.458,1.077l-4.3,1c.023-.094-2.734.346-1.426-.009a63.256,63.256,0,0,0-6.392,1.212c-3.238.33,2.765-.533,3.04-.83-4.432.633-9.1,1.464-11.571,2.027a4.6,4.6,0,0,1,1.31-.1c-.143-.034-1.92.268-2.914.427l-.326.112-.119.079c-.647.024-.691-.038-.072-.228a8.642,8.642,0,0,0-1.041.237,3.681,3.681,0,0,1,.133,1.154c-.1-.371-.18-.812-.25-1.24l1.341-.218c.853-.137,1.578-.26,2.058-.368a24.854,24.854,0,0,1-3.515.5l.026.705.023.411c.014.174.012.226.056.591.141,1.215.348,2.724.7,4.867-.043.1-.326-1.1-.128.279.506,3.193.36.8.633,1.782a33.783,33.783,0,0,1-.584-5.059l.189.643c-.034.106.186,1.654.206,2.116l.249.37c-.239-.153-.042,2.344.319,4.278-.131-1.987-.063-1.455.1-2.025.624,2.7.223,3.118.908,6.148-.1-.22-.54-2.888-.257-.569a26.976,26.976,0,0,0,.634,2.912c-.385-1.419-.463-1.03-.9-2.566-.515-3.4-.2-1.372-.755-4.685l.259,2.835c-.447-2.876-.505-2.066-.608-2.293.533,4.947.8,3.669,1.217,6.842.342,1.509-.4-2.969.069-.6.4,2.964.212.658.769,3.97l-.16-.544a28.506,28.506,0,0,0,.5,3.189c.241,1.285.4-1.553,1.183,3.76-.087-.253-.132-.344-.152-.341l-2.233-4.97,1.214,8.6,1.191,8.987c-.035.781-.231-.155-.445-1.348a16.3,16.3,0,0,0-.476-2.408l-.352-2.853c.145.142.9,5.953.745,3.354-.815-5.011-1-7.309-1.947-12.038-.075,1.523.96,6.268,1.184,9.4-.169-1.3-.359-2.4-.556-3.458l1.248,9.479.178.734-.527-4.11c.245,1.8.552,3.539.778,4.436a4.014,4.014,0,0,0,1.226-.4l-.471.063.984-.215Zm191.7-28.574a2.9,2.9,0,0,0-.414.137C248.89,309.179,248.766,309.177,249.2,309.088Zm-189.5-15-12.154,1.849,2.909-.315,2.1-.2c1.246-.111,2.143-.175,2.468-.161s.079.108-.962.311l-2.183.394-3.387.56-.557.116.02.111-.011-.1c.719-.092,1.626-.225,2.637-.385l3.5-.583c1.93-.465,8.15-2.03,8.073-2.067-.711-.006-1.7.286-2.964.454Zm2.913.249c2.239-.314,1.716-.325,2.049-.464l-2.34.411C62.624,294.255,62.775,294.261,62.615,294.336Zm1.9-.526c-.25.038-.466.07-.579.076ZM51.506,323.1l-.038-.228.214,1.614C51.664,324.272,51.615,323.863,51.506,323.1Zm-.451-4.569-.229-.508.2,1.512A2.787,2.787,0,0,0,51.054,318.534Zm-1.608-14.665c-.316-.893-.771-3.973-1.01-4.132-.084-.189-.011.463.076,1.192l.359,2.6a1.652,1.652,0,0,1,.163.507c-.1-.911-.14-1.525.043-1.176.053,2.374.505,2.061.8,4.593C50.14,308.233,49.618,304.624,49.446,303.869Zm184.089-37.343.683.018-1.755.391a80.657,80.657,0,0,0-8.551,1.292,19.876,19.876,0,0,1-2.777.121l1.776-.249C230.824,266.426,227.135,267.831,233.535,266.525Zm-36.395,5.5a2.166,2.166,0,0,0,.436-.119c-7,1.531-12.794,2.584-16.6,3.185.764.034,4.2-.4,5.829-.6l-1.408.408-.92.007-2.468.563c.717.006,2.727-.345,4.089-.472l5.577-1.258-3.465.436c.939-.1,5.5-.881,7.308-1.219a14.372,14.372,0,0,0-3.487.531c-.392-.071,3.207-.655.908-.427,2.676-.575,6.987-1.153,8.99-1.411l.374.165c2.2-.268,1.433-.5,4.05-.8-3.185.559.579.154-1.958.581a6.938,6.938,0,0,0,2.6-.2c2.07-.633,2.71-.252,4.671-.832,1.352-.125-1.412.408,1.228.021,2.994-.641,2.8-.722,2.955-.964-2.833.4-3.127.788-5.445,1.11l4.534-1.1c-.856.086-1.482.182-2.006.282.919-.171,1.7-.351,2.354-.533l1.044-.279c-2.6.419-4.915.788-5.339.764l.342-.161a18.944,18.944,0,0,0-3.107.558c-2.328.388-4.632.908-5.163.857l.869-.237Zm-93.967,14.957c1.8.1,3.765.118,11.856-1.258l-.634.129c4.121-.424,7.911-1.6,12.922-2.141-2.388.532-2.26.5-4.869,1.252l2.568-.524c-.683.321,1.88-.2,3.779-.5l-1.636.515c-1.15.114-4.107.566-4.012.608a55.57,55.57,0,0,0-6.4.793c.28.124,5.483-.786,3.2-.14,2.033-.445,2.315-.321,4.45-.726-2.039.445-.473.307-1.985.675l3.508-.625c.1.04-5.1.951-2.188.688,1.4-.315,5.175-.815,5.214-1l.094.041c2.643-.388,1.119-.439,4.373-.862.023-.1-.6-.057-1.761.149-.973.2-1.1.344-3.119.7-.927.006,2.438-.377,1-.385-.716-.005-5.314.963-3.879.46l2.636-.387c.038-.189,1.946-.486,1.869-.621,1.6-.325,3.149-.371,4.767-.791.663-.226-.562-.246,2.171-.593,2.166-.08,8.418-1.144,10.756-1.561l2.034-.445c-.192-.081-3.918.649-2.623.294l3.192-.56-.235.108c1.062-.156,2.135-.4,3.1-.6-.976.289-3.29.61-2.8.722,1.507-.207,1.747-.175,3.124-.435-.3.062-.556.122-.515.142a12.175,12.175,0,0,0,3.656-.865c3.018-.735-3.118.275-2.757.021l8.908-1.545c-.752.183-1.51.367-1.209.4a23.783,23.783,0,0,0,3.144-.37c-.26-.217,3.845-.784,5.993-1.281,1.03-.061,1.243-.074-.974.288a35.741,35.741,0,0,0,4.31-.577l2.306-.478c-.9.062-.539-.1,1.372-.484l.107-.052c-3.16.464-8.089,1.077-10.039,1.565l.546-.172c-3.672.448-7.893,1.58-9.625,1.541.135-.147-.738.09-.7-.1l-2.665.573.546-.171-4.564.779.115-.053-5.169,1.246c.007.078.152.079-.562.253-.721.157-1.271.251-1.764.32,0,0,0,0,0,0h0c-1.125.159-1.89.169-3.278.346l4.246-.706c.325-.188-.058-.266-2.155-.021.85-.143,1.19-.3.134-.148-.111.053-2.772.534-1.737.475-4.03.7-10.621,1.413-16.711,2.654,4.38-.863-3.558.394,1.322-.451-3.447.342-2.9.683-6.387,1.212-.308-.027,1.9-.3,2.671-.575-5.8.852-9.7,1.919-15.309,2.76l-.265-.126Zm-11.035,2-3.269.587.322-.048-3.213.656c2-.258,3.337-.289.568.245.224-.106-.6-.058.358-.254-1.88.2-5.986.769-4.88.844,3.545-.814.886.181,3.673-.448-1.484.406-2.994.576-4.408.878,1.463-.375-.4-.25-2.637.046-.965.2-3.6.583-5.2.91.6.058-.792.373,1.844-.015-.958.2-2.446.469-4.13.662a12.993,12.993,0,0,0,1.725-.381c-1.1.035-2.365.246-3.071.3l-1.66.293a3.357,3.357,0,0,1,.413-.013l-1.827.433c2.451-.47,1.15-.114,1.133-.02.037-.189-1.589.233-2.431.375l1.862-.109c-.87.237-3.146.37-2.654.481,3.9-.554,5.383-.827,8.886-1.451l-1.45.085c3.946-.744,2.484-.146,6.929-.871,1.827-.432,6.684-1.091,6.733-1.372a21.012,21.012,0,0,0,4.311-.578c1.644-.516,6.731-1.372,5.17-1.234a40.031,40.031,0,0,1-4.338.674l2.66-.482-1.772.151C92.7,289.224,92.586,289.108,92.139,288.981ZM48.117,312l.011.1-.015-.115Z" transform="translate(-44.769 -260.287)" fill="#ff6900"></path><path id="Path_103" data-name="Path 103" d="M523.945,287.281c.184.758.479,2.658.549,2.265C524.358,289.616,523.929,286.158,523.945,287.281Z" transform="translate(-304.537 -274.786)" fill="#ff6900"></path><path id="Path_104" data-name="Path 104" d="M524.227,290.823c.056.129.1.027.237.877l-.412-2.339Z" transform="translate(-304.596 -276.035)" fill="#ff6900"></path><path id="Path_105" data-name="Path 105" d="M522.791,298.033a34.368,34.368,0,0,1,.778,3.849c-.235.769-.6-3.092-1.06-3.9.525,3.484,1,4.5,1.49,7.361C523.917,303.9,523.074,298.095,522.791,298.033Z" transform="translate(-303.759 -280.708)" fill="#ff6900"></path><path id="Path_106" data-name="Path 106" d="M521.606,294.642l.389,1.922-.01-.194-.389-1.923Z" transform="translate(-303.264 -278.792)" fill="#ff6900"></path><path id="Path_107" data-name="Path 107" d="M455.472,269.181a10.422,10.422,0,0,0-2.023.353C453.977,269.456,454.717,269.366,455.472,269.181Z" transform="translate(-266.321 -265.088)" fill="#ff6900"></path><path id="Path_108" data-name="Path 108" d="M396.809,383.271l14.769-2.313Z" transform="translate(-235.615 -325.691)" fill="#ff6900"></path><path id="Path_109" data-name="Path 109" d="M349.112,285.783c3.945-.743,5.675-1.217,9.7-1.918-5.345.638-6.956,1.479-11.45,1.973Z" transform="translate(-208.812 -273.056)" fill="#ff6900"></path><path id="Path_110" data-name="Path 110" d="M350.981,285.654c.69.1-3.017.736-2.418.794,2.661-.482,1.211-.4,3.638-.772Z" transform="translate(-209.425 -274.026)" fill="#ff6900"></path><path id="Path_111" data-name="Path 111" d="M392.936,286.751l-1.184.3.96-.2Z" transform="translate(-232.874 -274.62)" fill="#ff6900"></path><path id="Path_112" data-name="Path 112" d="M312.693,292.293l.431-.117-2,.256Z" transform="translate(-189.165 -277.561)" fill="#ff6900"></path><path id="Path_113" data-name="Path 113" d="M315.919,291.918l-.429.118Z" transform="translate(-191.53 -277.422)" fill="#ff6900"></path><path id="Path_114" data-name="Path 114" d="M391.121,287.69l1.793-.245.868-.237Z" transform="translate(-232.532 -274.868)" fill="#ff6900"></path><path id="Path_115" data-name="Path 115" d="M356.043,291.03l1.587-.325C357.314,290.769,355.115,291.038,356.043,291.03Z" transform="translate(-213.392 -276.764)" fill="#ff6900"></path><path id="Path_116" data-name="Path 116" d="M285.734,296.513l-1.93.394.2-.012,1.924-.392Z" transform="translate(-174.354 -279.907)" fill="#ff6900"></path><path id="Path_117" data-name="Path 117" d="M327.345,297.069c1.13-.02-3.179.558-.886.331C328.475,297.049,327.643,297.1,327.345,297.069Z" transform="translate(-197.107 -280.214)" fill="#ff6900"></path><path id="Path_118" data-name="Path 118" d="M276.662,303.007c-.261.043-.538.093-.8.153Z" transform="translate(-170.047 -283.433)" fill="#ff6900"></path><path id="Path_119" data-name="Path 119" d="M277.61,302.59c.846-.136,1.7-.213,2.275-.353A17.41,17.41,0,0,0,277.61,302.59Z" transform="translate(-170.996 -283.016)" fill="#ff6900"></path><path id="Path_120" data-name="Path 120" d="M256.372,305.889l.77-.113c-.771.2-.4.133.289-.043.813-.136.758-.18.85-.23l.49-.142-.658.164C256.852,305.729,256.085,305.862,256.372,305.889Z" transform="translate(-159.449 -284.71)" fill="#ff6900"></path><path id="Path_121" data-name="Path 121" d="M176.83,312c2.844-.4,3.582-.49,3.447-.342a33.045,33.045,0,0,0,3.86-.853C181.1,311.317,180.466,311.361,176.83,312Z" transform="translate(-116.361 -287.658)" fill="#ff6900"></path><path id="Path_122" data-name="Path 122" d="M192.789,310.586l1.062-.181Z" transform="translate(-125.013 -287.444)" fill="#ff6900"></path><path id="Path_123" data-name="Path 123" d="M279.624,305.445l-1.731.473.641-.131Z" transform="translate(-171.149 -284.755)" fill="#ff6900"></path><path id="Path_124" data-name="Path 124" d="M167.533,314.435c.527-.077,1.369-.219,1.789-.244A8.669,8.669,0,0,0,167.533,314.435Z" transform="translate(-111.281 -289.481)" fill="#ff6900"></path><path id="Path_125" data-name="Path 125" d="M192.347,315.688c.3.028,2.106-.31,2.849-.4A13.942,13.942,0,0,0,192.347,315.688Z" transform="translate(-124.773 -290.091)" fill="#ff6900"></path><path id="Path_126" data-name="Path 126" d="M150.042,318.416c.527-.077,1.348-.125,1.015.033C151.81,318.265,152.809,317.88,150.042,318.416Z" transform="translate(-101.839 -291.638)" fill="#ff6900"></path><path id="Path_127" data-name="Path 127" d="M181.028,317.45l.411-.024,1.927-.393Z" transform="translate(-118.637 -291.037)" fill="#ff6900"></path><path id="Path_128" data-name="Path 128" d="M193.28,318.842c2.157-.5-3.518.206.219-.526-4.872.63.406.148-3.173.7C192.427,318.729,193.483,318.748,193.28,318.842Z" transform="translate(-123.678 -291.732)" fill="#ff6900"></path><path id="Path_129" data-name="Path 129" d="M189.149,319.849l-.995.147Z" transform="translate(-122.5 -292.563)" fill="#ff6900"></path><path id="Path_130" data-name="Path 130" d="M122.944,328.466l.725-.168Z" transform="translate(-87.149 -297.144)" fill="#ff6900"></path><path id="Path_131" data-name="Path 131" d="M160.621,323.26l3.234-.749c-2.161.5-7.657,1.379-7.279,1.543a47.882,47.882,0,0,0,4.782-.885Z" transform="translate(-105.372 -294.006)" fill="#ff6900"></path><path id="Path_132" data-name="Path 132" d="M81.624,328.344l1.4-.315-1.768.26C81.765,328.24,80.877,328.548,81.624,328.344Z" transform="translate(-64.548 -296.997)" fill="#ff6900"></path><path id="Path_133" data-name="Path 133" d="M80.506,328.646l.342-.051C80.772,328.6,80.664,328.617,80.506,328.646Z" transform="translate(-64.143 -297.305)" fill="#ff6900"></path><path id="Path_134" data-name="Path 134" d="M136.4,325.666c1.059-.156,1.9-.3,2.86-.493A17.244,17.244,0,0,0,136.4,325.666Z" transform="translate(-94.439 -295.45)" fill="#ff6900"></path><path id="Path_135" data-name="Path 135" d="M60.192,332.436l2.325-.415-2.541.428Z" transform="translate(-53.012 -299.162)" fill="#ff6900"></path><path id="Path_136" data-name="Path 136" d="M47.6,353.777l.017.409.36,1.927-.019-.415Z" transform="translate(-46.302 -310.956)" fill="#ff6900"></path><path id="Path_137" data-name="Path 137" d="M68.332,339.638c1.585-.232,2.787-.629,2.367-.6l-3.063.5a15.021,15.021,0,0,0,2.633-.386Z" transform="translate(-57.166 -302.964)" fill="#ff6900"></path><path id="Path_138" data-name="Path 138" d="M146.393,413.842a25.574,25.574,0,0,1-4.23.57c.445-.115,2.258-.433,1.1-.331l-2.616.68c-3.561.352,2.631-.773,4.362-1.134-3.607.5-4.647.845-8.476,1.417,1.133-.143,1.858-.18,2.463-.209.161.182-3.423.625-5.971,1.022,1.637-.156.708.057-.463.312a4.424,4.424,0,0,0-.451.1l-.4.087.306-.046c-.017.027.054.043.28.048,2.132-.379,3.8-.457,5.173-.659-1.409-.121,4.682-.777,6.4-1.135l2-.331.748-.113c.156.014-.05.09-1.182.324.943-.205,4.122-.657,3.814-.717l7.248-1.087c.228-.021.456-.038.626-.039.248-.059.288-.082.253-.093l31.581-4.736-4.532.538c2.379-.576-2.64.354-1.964.045a35.541,35.541,0,0,1,3.615-.541c.337-.155-1.024-.044-.886-.191-4,.466-4.539,1.049-8.444,1.555.135-.147,1.322-.433-1.224-.037l.644-.124c-4.061.747-3.221.2-5.74.919l.041-.187c-1.831.409-5.433.949-7.46,1.276l.117-.051c-5.665,1.054-3.191.52-9.573,1.56l2.913-.647c-2.219.245-2.683.543-4.27.756.109-.051-.278-.125,1.213-.382l-7.713,1.475C143.866,414.146,146.093,413.81,146.393,413.842Z" transform="translate(-91.905 -340.146)" fill="#ff6900"></path><path id="Path_139" data-name="Path 139" d="M140.552,423.831l-1.43.206Z" transform="translate(-95.919 -348.934)" fill="#ff6900"></path><path id="Path_140" data-name="Path 140" d="M258.955,407.221l-2.219.332C257.425,407.461,258.143,407.358,258.955,407.221Z" transform="translate(-159.679 -339.929)" fill="#ff6900"></path><path id="Path_141" data-name="Path 141" d="M116.645,427.592c1.359-.109-.989.279-1.212.383l4.817-.723c-.032-.067.434-.213.327-.263Z" transform="translate(-83.077 -350.646)" fill="#ff6900"></path><path id="Path_142" data-name="Path 142" d="M127.368,427.015a9.819,9.819,0,0,1,1.225-.317l-2.639.4C125.978,427.143,126.281,427.145,127.368,427.015Z" transform="translate(-88.781 -350.488)" fill="#ff6900"></path><path id="Path_143" data-name="Path 143" d="M126.737,419.12l.852-.134,1.283-.246Z" transform="translate(-89.205 -346.174)" fill="#ff6900"></path><path id="Path_144" data-name="Path 144" d="M151.714,415.875a33.57,33.57,0,0,0-3.6.539C150.342,416.078,149.382,416.261,151.714,415.875Z" transform="translate(-100.794 -344.62)" fill="#ff6900"></path><path id="Path_145" data-name="Path 145" d="M149.6,413.895l2.138-.379-.2.009Z" transform="translate(-101.598 -343.341)" fill="#ff6900"></path><path id="Path_146" data-name="Path 146" d="M297.17,400.143l1.048-.169Z" transform="translate(-181.599 -336)" fill="#ff6900"></path><path id="Path_147" data-name="Path 147" d="M254.734,401.164c5.153-.566-3.331.667-1.683.682l2.774-.5-.227.105,3.4-.531c-.715-.014-1.241.058-1.107-.089,4.544-.628,1.453-.067,4.8-.408l5.07-.781-.4.1a5.645,5.645,0,0,0,.756-.154l17.083-2.629c3.1-.562-1.753.035.514-.489-3.6.54-8.981,1.208-9.251,1.5.116-.051.344-.156-.39-.075l-2.055.512,2-.232c-2.066.515-8.843,1.48-10.086,1.538,3.839-.643,1.872-.6,7.255-1.267-.25-.026-1.25.011-.047-.2C266.863,399.253,261.213,399.982,254.734,401.164Z" transform="translate(-157.565 -334.101)" fill="#ff6900"></path><path id="Path_148" data-name="Path 148" d="M394.554,385.9l-.046.03C394.62,385.9,394.656,385.888,394.554,385.9Z" transform="translate(-234.368 -328.368)" fill="#ff6900"></path><path id="Path_149" data-name="Path 149" d="M386.412,386.227l-3.027.7,4.772-.733.321-.221a22.094,22.094,0,0,1-2.736.472Z" transform="translate(-228.338 -328.41)" fill="#ff6900"></path><path id="Path_150" data-name="Path 150" d="M375.663,388.419c2.456-.44,2.292-.619.934-.509,2.251-.43,1.227.036,2.755-.407a22.868,22.868,0,0,0-3.488.487Z" transform="translate(-224.152 -329.227)" fill="#ff6900"></path><path id="Path_151" data-name="Path 151" d="M334.67,395.017l.681-.186-1.711.234Z" transform="translate(-201.371 -333.212)" fill="#ff6900"></path><path id="Path_152" data-name="Path 152" d="M337.378,394.455l1.7-.232a1.418,1.418,0,0,0-.534-.086Z" transform="translate(-203.397 -332.836)" fill="#ff6900"></path><path id="Path_153" data-name="Path 153" d="M350.828,392.6l2.483-.339Z" transform="translate(-210.688 -331.818)" fill="#ff6900"></path><path id="Path_154" data-name="Path 154" d="M346.574,393.239l.062.018,1.886-.256Z" transform="translate(-208.382 -332.22)" fill="#ff6900"></path><path id="Path_155" data-name="Path 155" d="M341.09,393.91c.3.1.64.2,3.086-.207l-.513-.143Z" transform="translate(-205.409 -332.523)" fill="#ff6900"></path><path id="Path_156" data-name="Path 156" d="M183.531,409.271l1.928-.368-.208.009-1.927.368Z" transform="translate(-119.881 -340.841)" fill="#ff6900"></path><path id="Path_157" data-name="Path 157" d="M208.258,406.037l1.162-.251C208.917,405.877,208.519,405.96,208.258,406.037Z" transform="translate(-133.399 -339.151)" fill="#ff6900"></path><path id="Path_158" data-name="Path 158" d="M217.811,400.48c2.3-.2-3.12.654,1.114.086.391.075-1.564.539-3.562.771.14-.147,1.926-.368.685-.31-1.3.339-1.816.317-1.329.433-2.2.447-2.433.615-3.923.962,2.674-.482,8.344-1.134,11.719-1.881,1.846-.5.66-.637.62-.96A33.015,33.015,0,0,0,217.811,400.48Z" transform="translate(-134.774 -335.786)" fill="#ff6900"></path><path id="Path_159" data-name="Path 159" d="M215.777,402.013c-1.058.142-1.378.2-2.022.326A12.089,12.089,0,0,0,215.777,402.013Z" transform="translate(-136.379 -337.106)" fill="#ff6900"></path><path id="Path_160" data-name="Path 160" d="M270.515,398.874c.194-.076,2.1-.418,1.674-.435l-2.887.49A4.9,4.9,0,0,1,270.515,398.874Z" transform="translate(-166.492 -335.168)" fill="#ff6900"></path><path id="Path_161" data-name="Path 161" d="M266.535,399.723l1.267-.214C267.484,399.552,267.091,399.617,266.535,399.723Z" transform="translate(-164.992 -335.748)" fill="#ff6900"></path><path id="Path_162" data-name="Path 162" d="M272.071,399.4l-.142-.007C271.89,399.406,271.9,399.413,272.071,399.4Z" transform="translate(-167.906 -335.683)" fill="#ff6900"></path><path id="Path_163" data-name="Path 163" d="M366.2,390.558a9.5,9.5,0,0,0,1.9-.274C367.57,390.355,366.826,390.437,366.2,390.558Z" transform="translate(-219.021 -330.747)" fill="#ff6900"></path><path id="Path_164" data-name="Path 164" d="M472.182,374.164l1.15-.1A10.487,10.487,0,0,0,472.182,374.164Z" transform="translate(-276.476 -321.954)" fill="#ff6900"></path><path id="Path_165" data-name="Path 165" d="M509.766,363.2a.942.942,0,0,1,.224-.079A.82.82,0,0,0,509.766,363.2Z" transform="translate(-296.851 -316.019)" fill="#ff6900"></path><path id="Path_166" data-name="Path 166" d="M510.256,362.013c.769-.19,3.191-.435,4.039-.675l-.1.05,1.6-.306C514.282,361.317,511.115,361.776,510.256,362.013Z" transform="translate(-297.117 -314.916)" fill="#ff6900"></path></g></g></g></g><rect id="Rectangle_46" data-name="Rectangle 46" width="1.5" height="14.47" transform="translate(150.769 360.564)" fill="#fff"></rect></g></g></svg> 