<svg xmlns="http://www.w3.org/2000/svg" width="22" height="22" viewBox="0 0 22 22">
    <g fill="none" fill-rule="evenodd">
        <rect width="22.059" height="22" fill="#F26522" fill-rule="nonzero" rx="4"/>
        <g fill="#FFF">
            <path d="M7.41 5.563c-.67 0-1.213.542-1.213 1.21 0 .668.544 1.21 1.214 1.21 4.271 0 7.734 3.454 7.734 7.714 0 .668.544 1.21 1.213 1.21.67 0 1.214-.542 1.214-1.21.012-5.584-4.55-10.134-10.161-10.134z"/>
            <path d="M7.41 9.722c-.67 0-1.213.542-1.213 1.21 0 .669.544 1.21 1.214 1.21 1.971 0 3.576 1.59 3.576 3.555 0 .668.544 1.21 1.214 1.21.67 0 1.213-.542 1.213-1.21 0-3.29-2.692-5.975-6.003-5.975zM7.41 13.882c-1.01 0-1.832.819-1.832 1.815 0 1.02.821 1.84 1.833 1.84 1.01 0 1.845-.82 1.845-1.84a1.848 1.848 0 0 0-1.845-1.815z"/>
        </g>
    </g>
</svg>
