<svg width="341" height="100" viewBox="0 0 341 100" fill="none" xmlns="http://www.w3.org/2000/svg">
<g clip-path="url(#clip0_1_418)">
<path d="M17.3383 41.3726C17.3383 47.2832 22.8922 48.7482 34.7321 52.6886C51.5706 58.2203 58.8411 64.2824 58.8411 77.5939C58.8411 90.9053 46.9255 99.9733 30.3647 99.9733C21.3018 99.9733 13.7788 97.4474 8.78025 97.4474C6.23785 97.4865 3.80027 98.4675 1.93884 100.201L0.499878 76.3815H0.777574C8.5278 90.6022 18.954 97.8263 30.39 97.8263C36.575 97.8263 41.3211 95.073 41.3211 89.2635C41.3211 82.8225 35.8429 81.3827 26.376 78.2254C9.94152 72.9715 0.600858 66.2274 0.600858 52.9665C0.600858 40.4633 13.6525 31.9258 27.4616 31.9258C35.7419 31.9258 41.0181 34.9569 45.739 34.9569C48.5689 34.8876 51.2706 33.7613 53.3125 31.7995V52.9917H53.06C47.0012 41.5494 36.4993 34.1738 27.4111 34.1738C22.1096 34.1486 17.3383 36.7755 17.3383 41.3726Z" fill="#ED2C1D"/>
<path d="M140.837 93.4847C136.205 97.5976 130.19 99.808 123.999 99.6731C112.436 99.6731 106.908 95.076 105.595 87.8267C105.453 86.9152 105.368 85.9956 105.342 85.0735C102.969 93.8888 95.4716 99.2942 84.3133 99.2942C74.0639 99.2942 64.7232 94.0404 64.7232 82.7244C64.7232 64.74 83.6065 65.0431 92.4927 62.5173C108.422 58.299 106.63 46.1747 106.63 46.1747C106.63 40.643 102.894 33.9494 96.2038 33.9494C90.8013 33.9494 87.6457 38.1677 87.6457 43.6741C87.6457 54.1566 96.2038 52.0853 97.4408 51.7822C95.7035 54.6068 93.2924 56.9555 90.4239 58.6175C87.5555 60.2796 84.3194 61.203 81.0062 61.3048C73.7862 61.3048 66.97 56.7835 66.97 50.4435C66.97 37.8141 79.744 31.5751 96.8349 31.5751C119.555 31.5751 130.89 38.1424 130.89 54.7375C130.89 61.9616 130.638 69.8928 130.638 79.5923C130.638 88.5339 131.294 93.4089 138.01 93.4089C138.934 93.4484 139.859 93.3635 140.761 93.1563V93.4089L140.837 93.4847ZM100.192 63.7549C92.8209 65.3462 89.943 70.4738 89.943 78.7588C89.943 85.0735 92.0383 89.5443 96.7844 89.5443C102.439 89.5443 104.812 83.6337 104.939 77.1674V62.5678L100.192 63.7549Z" fill="#ED2C1D"/>
<path d="M172.141 83.9873C172.141 92.6764 172.393 94.0909 177.922 98.0566V98.3091H140.054V98.0566C145.583 94.1162 145.835 92.6511 145.835 83.9873V14.3991C145.835 5.3311 144.27 3.20938 138.085 0.0520124V-0.200592H172.141V84.0126V83.9873Z" fill="#ED2C1D"/>
<path d="M181.002 65.5736C181.002 44.7855 197.966 31.6256 218.087 31.6256C238.207 31.6256 255.172 44.7855 255.172 65.5736C255.172 86.3617 238.081 99.6479 218.087 99.6479C198.093 99.6479 181.002 86.3617 181.002 65.5736ZM227.427 65.5736C227.427 44.1288 225.332 33.8737 218.087 33.8737C210.841 33.8737 208.746 44.1288 208.746 65.5736C208.746 87.0184 210.841 97.5261 218.087 97.5261C225.332 97.5261 227.402 87.1447 227.402 65.5736H227.427Z" fill="#ED2C1D"/>
<path d="M291.095 32.9391V49.7868C294.251 38.0666 302.658 31.6256 313.816 31.6256C328.534 31.6256 334.719 42.1586 334.719 54.3587V83.9621C334.719 92.6512 334.971 94.0656 340.5 98.0313V98.2839H302.632V98.0313C308.161 94.0909 308.413 92.6259 308.413 83.9621V53.222C308.413 47.9681 305.889 43.8762 300.663 43.8762C295.008 43.8762 291.07 48.347 291.07 59.5367V84.0126C291.07 92.7017 291.323 94.1162 296.851 98.0818V98.3344H258.984V98.0818C264.512 94.1414 264.765 92.6764 264.765 84.0126V47.564C264.765 38.3445 264.108 37.031 258.05 33.2169V32.9644H291.095V32.9391Z" fill="#ED2C1D"/>
</g>
<defs>
<clipPath id="clip0_1_418">
<rect width="341" height="100" fill="white"/>
</clipPath>
</defs>
</svg>
