<?xml version="1.0" encoding="UTF-8"?>
<svg width="25px" height="25px" viewBox="0 0 25 25" version="1.1" xmlns="http://www.w3.org/2000/svg" xmlns:xlink="http://www.w3.org/1999/xlink">
    <!-- Generator: Sketch 52.6 (67491) - http://www.bohemiancoding.com/sketch -->
    <title>Level 1/Account Symbol</title>
    <desc>Created with Sketch.</desc>
    <g id="Symbols" stroke="none" stroke-width="1" fill="none" fill-rule="evenodd">
        <g id="Level-2/Person-Symbol-with-Frame" transform="translate(-18.000000, -17.000000)" fill="#FFFFFF">
            <g id="Group">
                <g id="Level-1/Thin-Account-Symbo" transform="translate(18.000000, 17.000000)">
                    <g id="Level-1/Outlined-Account">
                        <path d="M12.5,12 C11.1208333,12 10,10.878125 10,9.5 C10,8.121875 11.1208333,7 12.5,7 C13.8791667,7 15,8.121875 15,9.5 C15,10.878125 13.8791667,12 12.5,12 M19.975,19.8625 C19.9,19.9395833 19.81875,20.0104167 19.7416667,20.084375 C19.5677083,20.25 19.39375,20.4145833 19.209375,20.5677083 C19.1427083,20.6229167 19.0729167,20.6739583 19.0041667,20.7270833 C18.8041667,20.8864583 18.6010417,21.0427083 18.3895833,21.1864583 C18.325,21.23125 18.25625,21.26875 18.190625,21.3114583 C17.9708333,21.4541667 17.75,21.59375 17.51875,21.7197917 C17.4395833,21.7635417 17.35625,21.7979167 17.2760417,21.8395833 C17.053125,21.9541667 16.8302083,22.0677083 16.6,22.165625 C16.4739583,22.21875 16.34375,22.259375 16.2166667,22.3083333 C16.0239583,22.38125 15.8333333,22.459375 15.6354167,22.521875 C15.41875,22.5895833 15.1958333,22.6395833 14.975,22.69375 C14.8583333,22.721875 14.74375,22.759375 14.625,22.7833333 C14.303125,22.85 13.978125,22.8979167 13.65,22.934375 C13.625,22.9364583 13.6020833,22.9427083 13.5760417,22.9447917 C13.2208333,22.98125 12.8625,23 12.5,23 C12.1375,23 11.7791667,22.98125 11.4239583,22.9447917 C11.3979167,22.9427083 11.375,22.9364583 11.35,22.934375 C11.021875,22.8979167 10.696875,22.85 10.375,22.7833333 C10.2583333,22.759375 10.1447917,22.721875 10.0291667,22.6947917 C9.80625,22.640625 9.58333333,22.5895833 9.36458333,22.521875 C9.16666667,22.459375 8.97604167,22.38125 8.78333333,22.3083333 C8.65625,22.259375 8.52604167,22.21875 8.4,22.165625 C8.16979167,22.0677083 7.946875,21.9541667 7.72395833,21.8395833 C7.64375,21.7979167 7.56041667,21.7635417 7.48125,21.7197917 C7.25104167,21.59375 7.03020833,21.4541667 6.81041667,21.3114583 C6.74479167,21.26875 6.675,21.23125 6.61041667,21.1864583 C6.39895833,21.0427083 6.196875,20.8864583 5.996875,20.728125 C5.928125,20.6739583 5.85729167,20.6239583 5.790625,20.5677083 C5.60625,20.4145833 5.43125,20.25 5.25833333,20.084375 C5.18125,20.0104167 5.1,19.9395833 5.025,19.8625 C4.97708333,19.8135417 4.93541667,19.7614583 4.88854167,19.7125 C6.31979167,16.8302083 9.24270833,15 12.5,15 C15.7572917,15 18.6802083,16.8302083 20.1114583,19.7125 C20.0645833,19.7614583 20.0229167,19.8135417 19.975,19.8625 M12.5,2 C18.290625,2 23,6.71041667 23,12.5 C23,14.5125 22.4208333,16.3875 21.4354167,17.9864583 C19.96875,15.6020833 17.6260417,13.9166667 14.9197917,13.28125 C16.1677083,12.4802083 17,11.0885417 17,9.5 C17,7.01875 14.98125,5 12.5,5 C10.01875,5 8,7.01875 8,9.5 C8,11.0885417 8.83229167,12.4802083 10.0802083,13.28125 C7.37395833,13.9166667 5.03125,15.6020833 3.56458333,17.9864583 C2.57916667,16.3875 2,14.5125 2,12.5 C2,6.71041667 6.709375,2 12.5,2 M25,12.5 C25,5.60729167 19.3927083,0 12.5,0 C5.60729167,0 0,5.60729167 0,12.5 C0,15.3395833 0.9625,17.9520833 2.56354167,20.053125 L2.54895833,20.0885417 L2.93854167,20.5510417 C3.07916667,20.71875 3.234375,20.8666667 3.38333333,21.025 C3.49895833,21.1489583 3.6125,21.2770833 3.73333333,21.396875 C3.91458333,21.575 4.10416667,21.740625 4.29479167,21.9072917 C4.425,22.0208333 4.55416667,22.134375 4.68854167,22.2427083 C4.88229167,22.3979167 5.07916667,22.54375 5.27916667,22.6854167 C5.42916667,22.7916667 5.578125,22.89375 5.73229167,22.99375 C5.92916667,23.1208333 6.12916667,23.2427083 6.33333333,23.359375 C6.50729167,23.4583333 6.68541667,23.5510417 6.86458333,23.6427083 C7.05833333,23.740625 7.253125,23.8385417 7.45208333,23.9260417 C7.66041667,24.0177083 7.871875,24.0989583 8.084375,24.1791667 C8.26770833,24.2479167 8.44791667,24.3208333 8.63541667,24.38125 C8.88020833,24.4614583 9.13333333,24.5260417 9.38541667,24.590625 C9.54895833,24.6333333 9.71145833,24.6822917 9.87708333,24.7177083 C10.171875,24.78125 10.4729167,24.825 10.775,24.8666667 C10.9072917,24.8854167 11.0375,24.9125 11.1708333,24.9270833 C11.6083333,24.9739583 12.05,25 12.5,25 C12.95,25 13.3916667,24.9739583 13.8291667,24.9270833 C13.9625,24.9125 14.0927083,24.8854167 14.225,24.8666667 C14.5270833,24.825 14.828125,24.78125 15.1229167,24.7177083 C15.2885417,24.6822917 15.4510417,24.6333333 15.6145833,24.590625 C15.8666667,24.5260417 16.1197917,24.4614583 16.3645833,24.38125 C16.5520833,24.3208333 16.7322917,24.2489583 16.915625,24.1791667 C17.128125,24.0989583 17.340625,24.0177083 17.5479167,23.9260417 C17.746875,23.8375 17.9416667,23.740625 18.1354167,23.6427083 C18.3145833,23.5510417 18.4927083,23.4583333 18.6666667,23.359375 C18.8708333,23.2427083 19.0708333,23.1208333 19.2677083,22.99375 C19.421875,22.89375 19.5708333,22.7916667 19.7208333,22.6854167 C19.9208333,22.54375 20.1177083,22.3979167 20.3114583,22.2427083 C20.4458333,22.134375 20.575,22.0208333 20.7052083,21.9072917 C20.8958333,21.740625 21.0854167,21.575 21.2666667,21.396875 C21.3875,21.2770833 21.5010417,21.1489583 21.6166667,21.025 C21.765625,20.8666667 21.9208333,20.71875 22.0614583,20.5510417 L22.4510417,20.0885417 L22.4364583,20.053125 C24.0375,17.9520833 25,15.3395833 25,12.5" id="Level-1/Outlined-Account-Icon"></path>
                    </g>
                </g>
            </g>
        </g>
    </g>
</svg>