<?xml version="1.0" encoding="UTF-8"?><svg id="Layer_1" xmlns="http://www.w3.org/2000/svg" xmlns:xlink="http://www.w3.org/1999/xlink" viewBox="0 0 22 22"><defs><style>.cls-1{fill:#fff;}.cls-2{fill:url(#radial-gradient-2);}.cls-3{fill:url(#radial-gradient);}</style><radialGradient id="radial-gradient" cx="-860.33" cy="987.61" fx="-860.33" fy="987.61" r="11" gradientTransform="translate(-1812.88 -1680.51) rotate(-90) scale(1.98 1.84)" gradientUnits="userSpaceOnUse"><stop offset="0" stop-color="#fd5"/><stop offset=".1" stop-color="#fd5"/><stop offset=".5" stop-color="#ff543e"/><stop offset="1" stop-color="#c837ab"/></radialGradient><radialGradient id="radial-gradient-2" cx="563.85" cy="408.5" fx="563.85" fy="408.5" r="11" gradientTransform="translate(1361.67 -782.58) rotate(78.94) scale(.89 3.65) skewX(1.3)" gradientUnits="userSpaceOnUse"><stop offset="0" stop-color="#3771c8"/><stop offset=".13" stop-color="#3771c8"/><stop offset="1" stop-color="#60f" stop-opacity="0"/></radialGradient></defs><g id="instagram"><path class="cls-3" d="m11.05,0h-6.2c-.75.03-1.49.22-2.17.55-.47.23-.9.54-1.26.92C.72,2.21.27,3.15.14,4.16c-.13,1.07-.18,2.16-.14,3.24v9.79c.03.73.21,1.45.52,2.12.6,1.22,1.69,2.11,3,2.46.55.13,1.11.21,1.67.23h11.63c.56,0,1.12-.08,1.66-.21,1.31-.34,2.41-1.24,3-2.46.32-.67.49-1.39.52-2.13V4.77c-.03-.73-.21-1.44-.53-2.1-.23-.49-.55-.92-.94-1.29-.73-.7-1.67-1.15-2.68-1.27-1.07-.13-2.15-.17-3.22-.11h-3.58Z"/><path class="cls-2" d="m11.05,0h-6.2c-.75.03-1.49.22-2.17.55-.47.23-.9.54-1.26.92C.72,2.21.27,3.15.14,4.16c-.13,1.07-.18,2.16-.14,3.24v9.79c.03.73.21,1.45.52,2.12.6,1.22,1.69,2.11,3,2.46.55.13,1.11.21,1.67.23h11.63c.56,0,1.12-.08,1.66-.21,1.31-.34,2.41-1.24,3-2.46.32-.67.49-1.39.52-2.13V4.77c-.03-.73-.21-1.44-.53-2.1-.23-.49-.55-.92-.94-1.29-.73-.7-1.67-1.15-2.68-1.27-1.07-.13-2.15-.17-3.22-.11h-3.58Z"/><path class="cls-1" d="m11,2.86c-2.21,0-2.48,0-3.35.05-.68.01-1.36.14-2,.38-.54.2-1.04.52-1.44.94-.41.4-.73.89-.94,1.43-.24.64-.36,1.32-.37,2,0,.87-.05,1.15-.05,3.35s0,2.49.05,3.35c0,.68.13,1.36.37,2,.21.54.53,1.03.94,1.44.41.41.9.73,1.44.94.64.24,1.32.37,2,.38.87,0,1.14.05,3.35.05s2.48,0,3.35-.05c.68-.01,1.36-.14,2-.38.54-.21,1.03-.53,1.44-.94.41-.4.73-.9.93-1.44.24-.64.37-1.32.38-2,0-.86.05-1.14.05-3.35s0-2.48-.05-3.34c-.01-.68-.14-1.36-.38-2-.2-.54-.52-1.03-.93-1.43-.4-.42-.9-.74-1.44-.94-.64-.24-1.32-.37-2-.38-.87,0-1.15-.05-3.35-.05h0Zm-.73,1.47h4.01c.52,0,1.03.1,1.51.28.35.13.67.34.93.61.27.26.48.58.61.93.18.48.27.99.28,1.51,0,.86.05,1.11.05,3.28s0,2.43-.05,3.28c0,.52-.1,1.03-.28,1.51-.28.7-.84,1.26-1.54,1.54-.48.18-.99.27-1.51.28-.85,0-1.11.05-3.28.05s-2.43,0-3.28-.05c-.52,0-1.03-.1-1.51-.28-.35-.13-.67-.34-.93-.61-.27-.26-.48-.58-.61-.93-.18-.48-.27-.99-.28-1.51v-6.56c0-.52.1-1.03.28-1.51.13-.35.34-.67.61-.93.26-.27.58-.48.93-.61.48-.18.99-.27,1.51-.28.75,0,1,0,2.55,0Zm5.07,1.34c-.54-.12-1.07.21-1.2.75-.12.54.21,1.07.75,1.2.15.03.3.03.44,0,.54-.12.88-.66.75-1.2-.09-.37-.38-.67-.75-.75Zm-4.34,1.14c-2.3.02-4.15,1.91-4.13,4.21.02,2.3,1.91,4.15,4.21,4.13,2.28-.02,4.12-1.87,4.13-4.15.01-2.3-1.85-4.18-4.15-4.19-.02,0-.04,0-.06,0Zm0,1.47c1.5-.02,2.73,1.17,2.75,2.67s-1.17,2.73-2.67,2.75c-1.5.02-2.73-1.17-2.75-2.67,0,0,0-.02,0-.03-.01-1.49,1.18-2.7,2.67-2.72Z"/></g></svg>