<?xml version="1.0" encoding="UTF-8" standalone="no"?><!DOCTYPE svg PUBLIC "-//W3C//DTD SVG 1.1//EN" "http://www.w3.org/Graphics/SVG/1.1/DTD/svg11.dtd"><svg width="100%" height="100%" viewBox="0 0 3541 854" version="1.1" xmlns="http://www.w3.org/2000/svg" xmlns:xlink="http://www.w3.org/1999/xlink" xml:space="preserve" xmlns:serif="http://www.serif.com/" style="fill-rule:evenodd;clip-rule:evenodd;stroke-linejoin:round;stroke-miterlimit:1.41421;"><path d="M678.008,767.943l-511.263,0l0,-671.68l185.989,0l0,485.846l325.274,0l0,185.834Zm-257.696,-384.414l185.86,0l0,173.19l-185.86,0l0,-173.19Zm22.865,-164.141l70.925,-118.906l75.182,118.906c11.081,15.065 17.734,33.698 17.734,53.854c0,50.143 -40.651,90.755 -90.794,90.755c-50.104,0 -90.755,-40.612 -90.755,-90.755c0,-20.156 6.549,-38.789 17.708,-53.854Zm-443.177,-213.555l0,847.292l844.831,0l0,-847.292l-844.831,0Z" style="fill:#fff;fill-rule:nonzero;"/><path d="M1058.45,77.643c0,-28.984 1.093,-30.078 49.218,-32.812l0,-16.94l-149.831,0l0,16.94c44.844,2.734 45.938,3.828 45.938,32.812l0,257.552c0,28.438 -1.094,29.532 -45.938,32.813l0,16.94l265.756,0l12.031,-100.065l-18.047,0c-12.031,70 -39.375,80.937 -93.502,80.937c-59.063,0 -65.625,-9.843 -65.625,-43.75l0,-244.427Z" style="fill:#fff;fill-rule:nonzero;"/><path d="M1472.38,251.536c11.484,0 21.328,-3.828 21.328,-20.781c0,-31.172 -10.391,-104.44 -104.44,-104.44c-80.938,0 -119.206,57.409 -119.206,134.518c0,80.925 32.8,130.677 119.206,130.677c57.409,0 86.94,-31.158 101.159,-72.174l-16.407,-8.75c-14.218,29.531 -32.812,53.594 -73.268,53.594c-63.437,0 -76.562,-59.61 -75.469,-112.644l147.097,0Zm-146.55,-21.328c0,-21.875 7.657,-84.752 60.703,-84.752c46.472,0 52.487,48.112 52.487,68.346c0,10.391 -3.281,16.406 -17.5,16.406l-95.69,0Z" style="fill:#fff;fill-rule:nonzero;"/><path d="M1737.04,196.849c0,-30.625 -10.937,-70.534 -89.14,-70.534c-59.05,0 -100.612,30.612 -100.612,59.05c0,16.406 18.047,24.609 28.437,24.609c10.938,0 15.313,-6.016 17.5,-15.313c11.484,-38.281 29.531,-49.205 50.3,-49.205c25.156,0 45.39,12.565 45.39,53.034l0,18.046c-13.125,13.672 -62.33,26.797 -102.799,39.375c-37.188,11.485 -48.125,38.269 -48.125,62.878c0,38.828 25.703,72.721 74.375,72.721c31.706,0 59.596,-19.674 76.002,-30.065c6.563,20.235 15.86,30.065 33.907,30.065c19.687,0 42.096,-6.562 54.674,-14.752l-2.187,-15.86c-7.11,1.641 -14.766,1.094 -20.235,0c-9.284,-2.187 -17.487,-11.484 -17.487,-43.75l0,-120.299Zm-48.125,115.378c0,41.015 -30.625,50.859 -50.312,50.859c-31.159,0 -47.018,-21.875 -47.018,-51.406c0,-24.61 10.937,-37.188 38.828,-48.112c20.768,-7.657 47.018,-17.5 58.502,-24.61l0,73.269Z" style="fill:#fff;fill-rule:nonzero;"/><path d="M1996.77,53.581l0,84.765c-14.219,-7.109 -32.813,-12.031 -56.328,-12.031c-41.55,0 -73.268,13.672 -94.597,35.534c-22.422,22.969 -36.093,57.422 -36.093,102.266c0,76.549 36.093,127.395 105.533,127.395c27.344,0 53.594,-12.018 81.485,-33.893l0,27.331l88.581,0l0,-18.034c-36.094,-2.187 -38.282,-3.281 -38.282,-29.531l0,-334.649l-3.828,-2.734l-84.752,12.578l0,14.766l22.421,2.734c12.579,1.094 15.86,4.375 15.86,23.503Zm0,245.521c0,10.937 0,19.14 -3.828,27.89c-9.844,25.703 -31.719,35.547 -57.422,35.547c-46.472,0 -70.534,-44.844 -70.534,-104.44c0,-66.719 23.516,-112.643 74.362,-112.643c24.062,0 43.75,11.471 53.047,31.705c3.828,8.75 4.375,16.407 4.375,30.079l0,91.862Z" style="fill:#fff;fill-rule:nonzero;"/><path d="M2322.67,251.536c11.485,0 21.328,-3.828 21.328,-20.781c0,-31.172 -10.39,-104.44 -104.44,-104.44c-80.924,0 -119.205,57.409 -119.205,134.518c0,80.925 32.812,130.677 119.205,130.677c57.409,0 86.94,-31.158 101.159,-72.174l-16.406,-8.75c-14.219,29.531 -32.813,53.594 -73.268,53.594c-63.438,0 -76.563,-59.61 -75.469,-112.644l147.096,0Zm-146.549,-21.328c0,-21.875 7.656,-84.752 60.703,-84.752c46.484,0 52.487,48.112 52.487,68.346c0,10.391 -3.281,16.406 -17.487,16.406l-95.703,0Z" style="fill:#fff;fill-rule:nonzero;"/><path d="M2465.38,220.365c0,-38.829 18.047,-52.5 30.078,-52.5c8.203,0 16.953,3.281 30.078,12.578c3.828,2.734 7.656,3.281 10.937,3.281c13.125,0 24.61,-15.859 24.61,-31.719c0,-12.018 -7.657,-25.69 -27.891,-25.69c-18.594,0 -34.453,12.578 -67.812,42.643l-6.016,-42.096l-79.284,13.125l0,15.299l19.141,2.188c13.125,1.641 16.406,4.922 16.406,23.516l0,157.487c0,25.703 -2.734,26.796 -38.281,29.531l0,16.94l136.705,0l0,-16.94c-45.937,-2.188 -48.671,-3.828 -48.671,-29.531l0,-118.112Z" style="fill:#fff;fill-rule:nonzero;"/><path d="M2754.1,205.599l0,-63.425c-17.5,-10.39 -43.75,-15.859 -67.266,-15.859c-55.768,0 -93.503,26.237 -93.503,75.456c0,46.484 30.625,62.344 74.909,77.643c31.719,12.031 56.875,24.609 56.875,51.953c0,25.703 -21.328,41.016 -47.031,41.016c-41.003,0 -62.331,-28.985 -72.721,-72.735l-16.407,0l5.469,67.813c19.141,16.953 49.766,24.049 80.378,24.049c61.25,0 96.25,-33.346 96.25,-77.643c0,-45.39 -25.157,-61.237 -79.844,-80.377c-21.875,-7.11 -54.675,-20.782 -54.675,-47.579c0,-26.25 19.688,-40.455 44.831,-40.455c36.094,0 52.5,28.424 56.328,60.143l16.407,0Z" style="fill:#fff;fill-rule:nonzero;"/><path d="M2837.76,338.477c0,25.156 -1.64,26.796 -37.734,29.531l0,16.94l125.768,0l0,-16.94c-34.453,-2.735 -37.734,-4.375 -37.734,-29.531l0,-118.112c0,-12.579 0.547,-20.235 4.375,-27.344c10.937,-20.781 33.906,-37.188 60.703,-37.188c34.44,0 53.581,18.594 53.581,61.797l0,120.847c0,25.156 -3.281,26.796 -38.268,29.531l0,16.94l126.315,0l0,-16.94c-35,-2.188 -38.282,-4.375 -38.282,-29.531l0,-130.144c0,-51.953 -27.89,-82.018 -76.015,-82.018c-37.722,0 -60.69,17.5 -92.956,38.815l0,-162.396l-3.828,-2.734l-81.471,12.578l0,14.766l19.687,2.734c13.125,2.188 15.859,4.922 15.859,23.503l0,284.896Z" style="fill:#fff;fill-rule:nonzero;"/><path d="M3181.71,20.781c-19.141,0 -32.266,14.219 -32.266,32.8c0,18.593 13.125,31.719 32.266,31.719c19.14,0 31.718,-13.126 31.718,-31.719c0.547,-18.581 -12.578,-32.8 -31.171,-32.8l-0.547,0Zm-24.61,317.696c0,25.703 -1.64,27.343 -38.281,29.531l0,16.94l126.315,0l0,-16.94c-36.08,-2.735 -38.268,-3.828 -38.268,-29.531l0,-208.334l-3.828,-3.281l-81.485,13.672l0,14.752l19.141,2.188c13.125,2.187 16.406,4.922 16.406,23.516l0,157.487Z" style="fill:#fff;fill-rule:nonzero;"/><path d="M3303.65,459.87c0,26.25 -2.735,26.797 -38.281,29.531l0,16.94l134.518,0l0,-16.94c-43.203,-2.734 -45.924,-3.281 -45.924,-29.531l0,-79.284c10.377,5.456 34.439,10.924 57.408,10.924c69.44,0 129.597,-32.252 129.597,-138.333c0,-39.375 -9.297,-126.862 -100.066,-126.862c-37.187,0 -66.718,24.609 -86.939,37.721l-7.11,-37.174l-78.75,13.125l0,14.753l19.687,2.734c12.579,1.641 15.86,4.375 15.86,22.969l0,279.427Zm50.313,-239.505c0,-12.579 1.627,-19.688 6.002,-28.985c12.031,-23.515 33.359,-35.547 60.703,-35.547c20.234,0 65.065,12.578 65.065,101.172c0,74.362 -22.955,115.378 -73.815,115.378c-26.25,0 -47.031,-12.578 -54.688,-36.094c-3.267,-9.297 -3.267,-19.687 -3.267,-31.172l0,-84.752Z" style="fill:#fff;fill-rule:nonzero;"/><path d="M1057.9,536.966c0,-28.971 1.64,-30.065 45.937,-32.799l0,-16.953l-146.003,0l0,16.953c44.844,2.734 45.938,3.828 45.938,32.799l0,257.552c0,28.438 -1.094,29.531 -45.938,32.813l0,16.953l146.003,0l0,-16.953c-44.297,-3.282 -45.937,-4.375 -45.937,-32.813l0,-257.552Z" style="fill:#fff;fill-rule:nonzero;"/><path d="M1418.8,667.656c0,-51.94 -27.891,-82.018 -75.456,-82.018c-37.734,0 -61.25,18.594 -93.515,38.828l-7.097,-38.281l-76.562,13.125l0,14.766l18.047,2.734c13.125,1.64 16.406,4.922 16.406,23.515l0,157.474c0,25.704 -1.641,26.797 -38.281,29.532l0,16.953l126.315,0l0,-16.953c-35.547,-2.735 -38.281,-3.282 -38.281,-29.532l0,-118.111c0,-12.579 0.546,-20.235 4.921,-27.891c10.391,-20.222 33.36,-36.628 60.157,-36.628c34.453,0 53.58,19.141 53.58,63.425l0,119.205c0,26.25 -2.187,26.797 -38.268,29.532l0,16.953l126.315,0l0,-16.953c-36.093,-2.735 -38.281,-3.828 -38.281,-30.078l0,-129.597Z" style="fill:#fff;fill-rule:nonzero;"/><path d="M1680.18,664.922l0,-63.425c-17.5,-10.39 -43.75,-15.859 -67.265,-15.859c-55.769,0 -93.503,26.25 -93.503,75.456c0,46.484 30.625,62.343 74.922,77.656c31.706,12.031 56.862,24.609 56.862,51.94c0,25.703 -21.328,41.016 -47.031,41.016c-41.003,0 -62.331,-28.985 -72.722,-72.722l-16.406,0l5.469,67.8c19.14,16.953 49.765,24.062 80.377,24.062c61.25,0 96.25,-33.359 96.25,-77.656c0,-45.378 -25.156,-61.237 -79.843,-80.377c-21.862,-7.11 -54.675,-20.782 -54.675,-47.566c0,-26.25 19.688,-40.468 44.831,-40.468c36.094,0 52.5,28.437 56.328,60.143l16.406,0Z" style="fill:#fff;fill-rule:nonzero;"/><path d="M1901.63,615.169l0,-22.968l-65.065,0l0,-64.519l-15.86,0l-32.265,64.519l-38.829,0l0,22.968l36.641,0l0,176.615c0,51.953 38.828,59.062 57.422,59.062c26.237,0 45.924,-10.937 63.424,-21.875l-4.375,-14.218c-12.031,5.468 -20.234,6.562 -32.812,6.562c-17.487,0 -33.346,-12.031 -33.346,-50.859l0,-155.287l65.065,0Z" style="fill:#fff;fill-rule:nonzero;"/><path d="M2015.91,480.104c-19.128,0 -32.253,14.219 -32.253,32.813c0,18.58 13.125,31.705 32.253,31.705c19.14,0 31.718,-13.125 31.718,-31.705c0.547,-18.594 -12.578,-32.813 -31.172,-32.813l-0.546,0Zm-24.597,317.695c0,25.704 -1.64,27.344 -38.281,29.532l0,16.953l126.315,0l0,-16.953c-36.094,-2.735 -38.281,-3.828 -38.281,-29.532l0,-208.333l-3.828,-3.281l-81.472,13.672l0,14.765l19.141,2.188c13.125,2.187 16.406,4.922 16.406,23.515l0,157.474Z" style="fill:#fff;fill-rule:nonzero;"/><path d="M2284.95,615.169l0,-22.968l-65.065,0l0,-64.519l-15.86,0l-32.265,64.519l-38.828,0l0,22.968l36.64,0l0,176.615c0,51.953 38.828,59.062 57.422,59.062c26.237,0 45.925,-10.937 63.425,-21.875l-4.375,-14.218c-12.032,5.468 -20.235,6.562 -32.813,6.562c-17.487,0 -33.346,-12.031 -33.346,-50.859l0,-155.287l65.065,0Z" style="fill:#fff;fill-rule:nonzero;"/><path d="M2624.52,844.284l0,-16.953c-35,-2.188 -38.281,-3.828 -38.281,-29.532l0,-206.692l-3.281,-3.281l-82.018,9.296l0,14.766l19.14,2.734c13.125,1.641 15.859,4.922 15.859,23.516l0,115.378c0,14.205 -1.093,25.69 -3.828,30.612c-11.484,23.515 -35,37.734 -61.796,37.734c-29.519,0 -51.394,-18.594 -51.394,-58.503l0,-172.252l-3.828,-3.281l-82.018,9.296l0,15.313l19.674,2.187c13.125,1.641 15.86,4.922 15.86,23.516l0,135.599c0,59.062 35.547,77.109 73.281,77.109c43.737,0 78.737,-28.984 94.049,-36.093l4.922,29.531l83.659,0Z" style="fill:#fff;fill-rule:nonzero;"/><path d="M2829.57,615.169l0,-22.968l-65.065,0l0,-64.519l-15.859,0l-32.266,64.519l-38.815,0l0,22.968l36.628,0l0,176.615c0,51.953 38.828,59.062 57.422,59.062c26.25,0 45.924,-10.937 63.424,-21.875l-4.375,-14.218c-12.031,5.468 -20.234,6.562 -32.799,6.562c-17.5,0 -33.36,-12.031 -33.36,-50.859l0,-155.287l65.065,0Z" style="fill:#fff;fill-rule:nonzero;"/><path d="M3093.68,710.859c11.484,0 21.328,-3.828 21.328,-20.781c0,-31.172 -10.391,-104.44 -104.44,-104.44c-80.938,0 -119.206,57.422 -119.206,134.518c0,80.925 32.8,130.69 119.206,130.69c57.409,0 86.94,-31.172 101.159,-72.187l-16.407,-8.75c-14.218,29.531 -32.812,53.594 -73.281,53.594c-63.424,0 -76.549,-59.597 -75.455,-112.644l147.096,0Zm-146.55,-21.328c0,-21.875 7.657,-84.752 60.704,-84.752c46.471,0 52.487,48.112 52.487,68.346c0,10.391 -3.282,16.406 -17.501,16.406l-95.69,0Z" style="fill:#fff;fill-rule:nonzero;"/></svg>