<?xml version="1.0" encoding="UTF-8"?>
<svg id="Layer_2" data-name="Layer 2" xmlns="http://www.w3.org/2000/svg" viewBox="0 0 767.48 122.35">
  <defs>
    <style>
      .cls-1 {
        fill: #fff;
        stroke-width: 0px;
      }
    </style>
  </defs>
  <g id="Layer_1-2" data-name="Layer 1">
    <g>
      <path class="cls-1" d="M43.19,28.02c-.75-1.62-1.46-3.15-2.17-4.67-.8-1.72-1.62-3.43-2.4-5.16-1.14-2.13-.34-4.79,1.79-5.93.13-.07.27-.13.4-.19,8.25-3.87,16.52-7.73,24.79-11.56,2.16-1.14,4.83-.31,5.97,1.85.08.15.15.3.21.45,1.41,2.93,2.77,5.89,4.15,8.83.14.29.3.58.49.93l6.77-3.14c4.18-1.94,8.32-3.99,12.56-5.81,8.7-3.77,18.83-.06,23.04,8.43,3.66,7.4,7.03,14.94,10.52,22.41,3.67,7.89,7.47,15.73,10.96,23.71,3.71,8.68.01,18.75-8.43,22.97-1.42.73-2.88,1.38-4.32,2.06-.26.12-.52.28-.99.51,2.52.97,4.3,3.26,4.61,5.95.16,1.45-.16,2.92-.92,4.17-1.63,2.81-4.99,4.13-8.1,3.18-1.82-.54-3.33-1.81-4.16-3.51-.87-1.68-1.01-3.65-.38-5.44l-.19-.14-43.01,20.07c2.35.82,4.1,2.83,4.58,5.28.32,1.55.08,3.17-.67,4.57-1.53,2.94-4.92,4.4-8.11,3.48-1.85-.52-3.4-1.79-4.27-3.5-.85-1.77-.99-3.79-.4-5.66-.54.23-.91.37-1.27.53-2.42,1.28-4.99,2.28-7.64,2.97-4.51.91-9.2.06-13.1-2.37-.53-.32-1.14-.49-1.76-.51-12.91-.03-25.83-.04-38.74-.03-.45,0-.9-.04-1.34-.14-1.09-.22-1.81-1.26-1.63-2.36.16-1.02,1-1.79,2.03-1.88.28-.02.55,0,.81,0h35.36c-.5-.92-.94-1.69-1.34-2.49-.47-.94-.96-1.88-1.34-2.86-.18-.65-.82-1.06-1.49-.96-6.4.03-12.8.02-19.2.02h-.9c-1.13-.05-2.05-.94-2.14-2.07-.03-1.07.72-2,1.77-2.2.38-.08.77-.12,1.16-.12h18.27c-.5-1.11-.92-2.06-1.38-3-.52-1.08-.83-2.53-1.7-3.1s-2.27-.17-3.45-.19c-.57,0-1.15.02-1.72,0-1.14-.05-2.03-1.02-1.98-2.16-.07-1.08.74-2.01,1.82-2.08h0c.06,0,.13,0,.19,0,1.02-.03,2.03,0,3.23,0-.2-.51-.31-.83-.46-1.14-3.85-8.28-7.75-16.54-11.56-24.83-3.09-6.08-2.43-13.39,1.7-18.82,1.84-2.53,4.33-4.52,7.19-5.77,5.66-2.62,11.31-5.26,16.96-7.9.39-.2.79-.4,1.33-.66ZM53.65,105.38c.99-.23,1.97-.54,2.92-.92,23.24-10.82,46.48-21.66,69.7-32.52.69-.29,1.34-.68,1.94-1.14,2.77-2.17,3.6-6.01,1.97-9.13-6.85-14.72-13.72-29.43-20.59-44.14-.3-.69-.69-1.35-1.16-1.94-2.26-2.77-6.17-3.55-9.32-1.85l-9.25,4.33c-20.07,9.36-40.13,18.73-60.19,28.11-1.21.54-2.28,1.34-3.15,2.33-1.96,2.29-2.28,5.57-.8,8.2,4.86,10.36,9.7,20.73,14.52,31.12,2.13,4.56,4.21,9.13,6.44,13.65,1.37,2.54,4.09,4.05,6.97,3.87v.03ZM46.01,17.42l3.04,6.47,20.39-9.51-3.03-6.48-20.4,9.51Z"/>
      <g>
        <path class="cls-1" d="M180.65,79.54c5.28,2.24,13.26,4.16,21.91,4.16,9.1,0,13.6-2.81,13.6-7.64s-3.93-6.63-12.92-8.65c-15.51-3.37-24.38-9.55-24.38-24.61s8.88-25.62,29.44-25.62c10,0,15.62,1.35,21.91,3.93l-1.01,19.1c-6.4-2.02-12.58-3.37-19.89-3.37-7.87,0-11.8,2.58-11.8,6.97,0,3.71,2.81,5.73,12.14,7.87,15.84,3.48,25.17,9.1,25.17,23.93s-9.44,25.39-31.12,25.39c-11.46,0-17.19-1.91-23.93-4.5l.91-16.97Z"/>
        <path class="cls-1" d="M248.06,55.16h-9.44v-16.63h10.78l1.91-15.39h14.16v15.39h15.95v16.63h-15.95v20.56c0,6.74,3.03,9.21,8.2,9.21,3.14,0,5.5-.45,7.75-1.01l1.23,15.51c-3.14,1.01-7.87,1.57-12.14,1.57-17.19,0-22.47-9.77-22.47-24.27v-21.57h.01Z"/>
        <path class="cls-1" d="M312.33,54.94c-7.3,0-14.16,2.14-19.55,4.61l-1.24-17.42c5.28-2.81,13.26-5.06,22.59-5.06,19.1,0,27.3,8.88,27.3,25.28v37.19h-17.75v-7.41c-4.5,5.4-9.67,8.88-18.65,8.88-10.11,0-17.42-5.28-17.42-15.51,0-13.04,10.45-16.85,23.48-18.99,4.94-.9,7.64-1.57,10-2.47,1.91-.79,2.36-1.69,2.36-3.26,0-3.59-3.58-5.84-11.12-5.84ZM315.25,75.84c-5.84,1.35-9.44,2.81-9.44,7.87,0,4.04,3.37,5.96,7.64,5.96,4.94,0,8.54-3.03,10.22-6.74v-9.89c-1.8.89-4.72,2.02-8.43,2.8Z"/>
        <path class="cls-1" d="M352.44,121.01l1.24-14.27c2.13.56,3.82,1.01,6.85,1.01,5.4,0,7.98-1.46,9.33-5.28l.79-2.13-24.39-61.8h20.9l13.04,45.4,12.59-45.4h19.55l-23.59,62.81c-4.27,11.24-10,21.01-24.38,21.01-5.18,0-8.89-.56-11.92-1.35Z"/>
        <path class="cls-1" d="M477.05,45.28l-15.39,54.27h-21.8l-25.51-80.9h20.79l16.74,61.12,15.95-61.12h20l16.41,61.12,15.95-61.12h19.44l-24.61,80.9h-21.91l-16.07-54.27Z"/>
        <path class="cls-1" d="M565.13,54.94c-7.3,0-14.16,2.14-19.55,4.61l-1.24-17.42c5.28-2.81,13.26-5.06,22.59-5.06,19.1,0,27.3,8.88,27.3,25.28v37.19h-17.75v-7.41c-4.5,5.4-9.67,8.88-18.65,8.88-10.11,0-17.42-5.28-17.42-15.51,0-13.04,10.45-16.85,23.48-18.99,4.94-.9,7.64-1.57,10-2.47,1.91-.79,2.36-1.69,2.36-3.26,0-3.59-3.59-5.84-11.12-5.84ZM568.05,75.84c-5.84,1.35-9.44,2.81-9.44,7.87,0,4.04,3.37,5.96,7.64,5.96,4.94,0,8.54-3.03,10.22-6.74v-9.89c-1.79.89-4.72,2.02-8.43,2.8Z"/>
        <path class="cls-1" d="M610.75,55.16h-9.44v-16.63h10.78l1.91-15.39h14.16v15.39h15.95v16.63h-15.95v20.56c0,6.74,3.03,9.21,8.2,9.21,3.14,0,5.5-.45,7.75-1.01l1.23,15.51c-3.14,1.01-7.87,1.57-12.14,1.57-17.19,0-22.47-9.77-22.47-24.27v-21.57h.01Z"/>
        <path class="cls-1" d="M698.84,97.52c-4.04,2.02-9.78,3.48-15.62,3.48-20,0-33.37-11.68-33.37-32.02,0-18.99,12.25-31.91,32.47-31.91,6.18,0,12.14,1.35,16.41,3.26l-1.35,17.42c-3.6-1.8-7.87-2.81-12.81-2.81-10.34,0-16.41,6.18-16.41,15.17s6.29,14.83,16.29,14.83c4.38,0,9.21-1.01,13.15-3.03l1.23,15.61Z"/>
        <path class="cls-1" d="M738.5,54.6c-8.09,0-11.8,5.51-11.8,14.04v30.9h-17.42V14.15h17.08v31.46h.45c3.6-5.28,9.1-8.54,17.75-8.54,15.17,0,22.92,10.11,22.92,24.95v37.53h-17.31v-31.01c0-8.31-3.48-13.93-11.68-13.93Z"/>
      </g>
    </g>
  </g>
</svg>