<svg width="200" height="48" viewBox="0 0 200 48" fill="none" xmlns="http://www.w3.org/2000/svg">
<path d="M49 41C58.3888 41 66 33.3888 66 24C66 14.6112 58.3888 7 49 7C39.6112 7 32 14.6112 32 24C32 33.3888 39.6112 41 49 41Z" fill="url(#paint0_linear)"/>
<path d="M39.6023 24.0382C44.465 21.9435 47.6894 20.5471 49.3017 19.8748C53.9304 17.9612 54.8925 17.625 55.5166 17.625C55.6466 17.625 55.9587 17.6509 56.1667 17.806C56.3227 17.9353 56.3747 18.1163 56.4007 18.2456C56.4267 18.3749 56.4527 18.6594 56.4267 18.8921C56.1667 21.5039 55.1005 27.8654 54.5285 30.7875C54.2944 32.0288 53.8263 32.4425 53.3843 32.4943C52.4221 32.5718 51.694 31.8478 50.7579 31.253C49.3017 30.2962 48.4696 29.7014 47.0393 28.7705C45.4011 27.6844 46.4673 27.0896 47.4034 26.1328C47.6374 25.8742 51.9021 22.0211 51.9801 21.685C51.9801 21.6332 52.0061 21.4781 51.9021 21.4005C51.8241 21.3229 51.668 21.3488 51.564 21.3746C51.408 21.4005 49.0676 22.9521 44.543 25.9776C43.8669 26.4431 43.2688 26.65 42.7487 26.65C42.1506 26.65 41.0065 26.3138 40.1743 26.0294C39.1342 25.6932 38.3021 25.5122 38.3801 24.9433C38.4061 24.6588 38.7961 24.3485 39.6023 24.0382Z" fill="white"/>
<path d="M79.52 17.418V32H81.705V17.418H87.179V15.578H74.046V17.418H79.52ZM94.3755 24.916H87.5445C87.5752 24.456 87.6748 24.0267 87.8435 23.628C88.0122 23.214 88.2422 22.8537 88.5335 22.547C88.8248 22.2403 89.1698 22.0027 89.5685 21.834C89.9825 21.65 90.4425 21.558 90.9485 21.558C91.4392 21.558 91.8838 21.65 92.2825 21.834C92.6965 22.0027 93.0492 22.2403 93.3405 22.547C93.6472 22.8383 93.8848 23.191 94.0535 23.605C94.2375 24.019 94.3448 24.456 94.3755 24.916ZM96.2615 28.228H94.3295C94.1608 29.01 93.8082 29.5927 93.2715 29.976C92.7502 30.3593 92.0755 30.551 91.2475 30.551C90.6035 30.551 90.0438 30.4437 89.5685 30.229C89.0932 30.0143 88.7022 29.7307 88.3955 29.378C88.0888 29.01 87.8665 28.596 87.7285 28.136C87.5905 27.6607 87.5292 27.1623 87.5445 26.641H96.4455C96.4762 25.9203 96.4072 25.1613 96.2385 24.364C96.0852 23.5667 95.7938 22.8307 95.3645 22.156C94.9505 21.4813 94.3908 20.9293 93.6855 20.5C92.9955 20.0553 92.1215 19.833 91.0635 19.833C90.2508 19.833 89.4995 19.9863 88.8095 20.293C88.1348 20.5997 87.5445 21.029 87.0385 21.581C86.5478 22.133 86.1645 22.7847 85.8885 23.536C85.6125 24.2873 85.4745 25.1153 85.4745 26.02C85.5052 26.9247 85.6355 27.7603 85.8655 28.527C86.1108 29.2937 86.4712 29.953 86.9465 30.505C87.4218 31.057 88.0045 31.4863 88.6945 31.793C89.3998 32.0997 90.2278 32.253 91.1785 32.253C92.5278 32.253 93.6472 31.9157 94.5365 31.241C95.4258 30.5663 96.0008 29.562 96.2615 28.228ZM98.587 15.578V32H100.542V15.578H98.587ZM111.828 24.916H104.997C105.027 24.456 105.127 24.0267 105.296 23.628C105.464 23.214 105.694 22.8537 105.986 22.547C106.277 22.2403 106.622 22.0027 107.021 21.834C107.435 21.65 107.895 21.558 108.401 21.558C108.891 21.558 109.336 21.65 109.735 21.834C110.149 22.0027 110.501 22.2403 110.793 22.547C111.099 22.8383 111.337 23.191 111.506 23.605C111.69 24.019 111.797 24.456 111.828 24.916ZM113.714 28.228H111.782C111.613 29.01 111.26 29.5927 110.724 29.976C110.202 30.3593 109.528 30.551 108.7 30.551C108.056 30.551 107.496 30.4437 107.021 30.229C106.545 30.0143 106.154 29.7307 105.848 29.378C105.541 29.01 105.319 28.596 105.181 28.136C105.043 27.6607 104.981 27.1623 104.997 26.641H113.898C113.928 25.9203 113.859 25.1613 113.691 24.364C113.537 23.5667 113.246 22.8307 112.817 22.156C112.403 21.4813 111.843 20.9293 111.138 20.5C110.448 20.0553 109.574 19.833 108.516 19.833C107.703 19.833 106.952 19.9863 106.262 20.293C105.587 20.5997 104.997 21.029 104.491 21.581C104 22.133 103.617 22.7847 103.341 23.536C103.065 24.2873 102.927 25.1153 102.927 26.02C102.957 26.9247 103.088 27.7603 103.318 28.527C103.563 29.2937 103.923 29.953 104.399 30.505C104.874 31.057 105.457 31.4863 106.147 31.793C106.852 32.0997 107.68 32.253 108.631 32.253C109.98 32.253 111.099 31.9157 111.989 31.241C112.878 30.5663 113.453 29.562 113.714 28.228ZM126.182 30.988V20.109H124.342V21.811H124.319C123.966 21.1517 123.476 20.661 122.847 20.339C122.218 20.0017 121.528 19.833 120.777 19.833C119.75 19.833 118.883 20.0323 118.178 20.431C117.473 20.8143 116.905 21.3127 116.476 21.926C116.047 22.524 115.74 23.1987 115.556 23.95C115.372 24.686 115.28 25.4067 115.28 26.112C115.28 26.9247 115.387 27.699 115.602 28.435C115.832 29.1557 116.169 29.792 116.614 30.344C117.059 30.8807 117.611 31.31 118.27 31.632C118.929 31.954 119.704 32.115 120.593 32.115C121.36 32.115 122.08 31.9463 122.755 31.609C123.445 31.2563 123.959 30.712 124.296 29.976H124.342V30.758C124.342 31.4173 124.273 32.023 124.135 32.575C124.012 33.127 123.805 33.5947 123.514 33.978C123.223 34.3767 122.855 34.6833 122.41 34.898C121.965 35.128 121.421 35.243 120.777 35.243C120.455 35.243 120.118 35.2047 119.765 35.128C119.412 35.0667 119.083 34.9593 118.776 34.806C118.485 34.6527 118.232 34.4533 118.017 34.208C117.818 33.9627 117.71 33.6637 117.695 33.311H115.74C115.771 33.955 115.939 34.4993 116.246 34.944C116.553 35.3887 116.936 35.749 117.396 36.025C117.871 36.301 118.393 36.5003 118.96 36.623C119.543 36.7457 120.11 36.807 120.662 36.807C122.563 36.807 123.959 36.324 124.848 35.358C125.737 34.392 126.182 32.9353 126.182 30.988ZM120.708 30.413C120.064 30.413 119.527 30.2827 119.098 30.022C118.669 29.746 118.324 29.3933 118.063 28.964C117.802 28.5193 117.618 28.0287 117.511 27.492C117.404 26.9553 117.35 26.4187 117.35 25.882C117.35 25.3147 117.411 24.7703 117.534 24.249C117.672 23.7277 117.879 23.2677 118.155 22.869C118.446 22.4703 118.814 22.156 119.259 21.926C119.704 21.6807 120.24 21.558 120.869 21.558C121.482 21.558 122.004 21.6807 122.433 21.926C122.862 22.1713 123.207 22.501 123.468 22.915C123.744 23.3137 123.943 23.766 124.066 24.272C124.189 24.778 124.25 25.2917 124.25 25.813C124.25 26.365 124.181 26.917 124.043 27.469C123.92 28.021 123.721 28.5193 123.445 28.964C123.169 29.3933 122.801 29.746 122.341 30.022C121.896 30.2827 121.352 30.413 120.708 30.413ZM129.062 20.109V32H131.017V26.71C131.017 25.9433 131.094 25.2687 131.247 24.686C131.401 24.088 131.646 23.582 131.983 23.168C132.321 22.754 132.765 22.4397 133.317 22.225C133.869 22.0103 134.536 21.903 135.318 21.903V19.833C134.26 19.8023 133.386 20.017 132.696 20.477C132.006 20.937 131.424 21.65 130.948 22.616H130.902V20.109H129.062ZM147.324 31.954C146.987 32.1533 146.519 32.253 145.921 32.253C145.415 32.253 145.009 32.115 144.702 31.839C144.411 31.5477 144.265 31.08 144.265 30.436C143.729 31.08 143.1 31.5477 142.379 31.839C141.674 32.115 140.907 32.253 140.079 32.253C139.543 32.253 139.029 32.1917 138.538 32.069C138.063 31.9463 137.649 31.7547 137.296 31.494C136.944 31.2333 136.66 30.896 136.445 30.482C136.246 30.0527 136.146 29.539 136.146 28.941C136.146 28.2663 136.261 27.7143 136.491 27.285C136.721 26.8557 137.02 26.5107 137.388 26.25C137.772 25.974 138.201 25.767 138.676 25.629C139.167 25.491 139.665 25.376 140.171 25.284C140.708 25.1767 141.214 25.1 141.689 25.054C142.18 24.9927 142.609 24.916 142.977 24.824C143.345 24.7167 143.637 24.571 143.851 24.387C144.066 24.1877 144.173 23.904 144.173 23.536C144.173 23.1067 144.089 22.7617 143.92 22.501C143.767 22.2403 143.56 22.041 143.299 21.903C143.054 21.765 142.77 21.673 142.448 21.627C142.142 21.581 141.835 21.558 141.528 21.558C140.7 21.558 140.01 21.719 139.458 22.041C138.906 22.3477 138.607 22.938 138.561 23.812H136.606C136.637 23.076 136.79 22.455 137.066 21.949C137.342 21.443 137.71 21.0367 138.17 20.73C138.63 20.408 139.152 20.178 139.734 20.04C140.332 19.902 140.969 19.833 141.643 19.833C142.18 19.833 142.709 19.8713 143.23 19.948C143.767 20.0247 144.25 20.1857 144.679 20.431C145.109 20.661 145.454 20.9907 145.714 21.42C145.975 21.8493 146.105 22.409 146.105 23.099V29.217C146.105 29.677 146.128 30.0143 146.174 30.229C146.236 30.4437 146.42 30.551 146.726 30.551C146.895 30.551 147.094 30.5127 147.324 30.436V31.954ZM144.15 25.859C143.905 26.043 143.583 26.181 143.184 26.273C142.786 26.3497 142.364 26.4187 141.919 26.48C141.49 26.526 141.053 26.5873 140.608 26.664C140.164 26.7253 139.765 26.8327 139.412 26.986C139.06 27.1393 138.768 27.3617 138.538 27.653C138.324 27.929 138.216 28.3123 138.216 28.803C138.216 29.125 138.278 29.401 138.4 29.631C138.538 29.8457 138.707 30.022 138.906 30.16C139.121 30.298 139.366 30.3977 139.642 30.459C139.918 30.5203 140.21 30.551 140.516 30.551C141.16 30.551 141.712 30.4667 142.172 30.298C142.632 30.114 143.008 29.8917 143.299 29.631C143.591 29.355 143.805 29.0637 143.943 28.757C144.081 28.435 144.15 28.136 144.15 27.86V25.859ZM149.144 20.109V32H151.099V24.594C151.099 24.364 151.153 24.0803 151.26 23.743C151.383 23.3903 151.567 23.053 151.812 22.731C152.073 22.409 152.402 22.133 152.801 21.903C153.215 21.673 153.706 21.558 154.273 21.558C154.718 21.558 155.078 21.627 155.354 21.765C155.645 21.8877 155.875 22.0717 156.044 22.317C156.213 22.547 156.328 22.823 156.389 23.145C156.466 23.467 156.504 23.8197 156.504 24.203V32H158.459V24.594C158.459 23.674 158.735 22.938 159.287 22.386C159.839 21.834 160.598 21.558 161.564 21.558C162.039 21.558 162.423 21.627 162.714 21.765C163.021 21.903 163.258 22.0947 163.427 22.34C163.596 22.57 163.711 22.846 163.772 23.168C163.833 23.49 163.864 23.835 163.864 24.203V32H165.819V23.283C165.819 22.6697 165.719 22.1483 165.52 21.719C165.336 21.2743 165.068 20.914 164.715 20.638C164.378 20.362 163.964 20.1627 163.473 20.04C162.998 19.902 162.461 19.833 161.863 19.833C161.081 19.833 160.36 20.0093 159.701 20.362C159.057 20.7147 158.536 21.213 158.137 21.857C157.892 21.121 157.47 20.5997 156.872 20.293C156.274 19.9863 155.607 19.833 154.871 19.833C153.2 19.833 151.919 20.5077 151.03 21.857H150.984V20.109H149.144Z" fill="#5F6368"/>
<defs>
<linearGradient id="paint0_linear" x1="48.9996" y1="6.99838" x2="48.9996" y2="40.7468" gradientUnits="userSpaceOnUse">
<stop stop-color="#2AABEE"/>
<stop offset="1" stop-color="#229ED9"/>
</linearGradient>
</defs>
</svg>
