<?xml version="1.0" encoding="utf-8"?>
<!-- Generator: Adobe Illustrator 25.4.1, SVG Export Plug-In . SVG Version: 6.00 Build 0)  -->
<svg version="1.1" id="Layer_1" xmlns="http://www.w3.org/2000/svg" xmlns:xlink="http://www.w3.org/1999/xlink" x="0px" y="0px"
	 viewBox="0 0 231 88" style="enable-background:new 0 0 231 88;" xml:space="preserve">
<style type="text/css">
	.st0{fill-rule:evenodd;clip-rule:evenodd;fill:#FFFFFF;}
	.st1{fill:#E79933;}
	.st2{fill:#067AB9;}
</style>
<path id="XMLID_00000034800386616852179330000010928719206613456574_" class="st0" d="M968.2,77.6l4.5-1.8V31.9l-4-1.9v-2h14v4.1
	c2.3-3,5.2-5.2,9.3-5.2c9.1,0,14.1,7.7,14.1,18.5c0,10.2-5.6,18.1-14.7,18.1c-4.1,0-6.8-1.9-8.6-5v17l5,1.8v1.9h-19.5L968.2,77.6
	C968.3,77.6,968.2,77.6,968.2,77.6z M994,54.7c0.8-2.6,1.1-5.9,1.1-9c0-3.5-0.3-7.1-1-9.6c-1-3.3-3.1-4.3-5.4-4.3
	c-2.9,0-4.9,2.1-6,3.8v19.9c1.2,1.8,2.9,3.5,5.9,3.5C991,58.9,992.9,57.6,994,54.7L994,54.7z"/>
<g>
	<path class="st1" d="M220.5,38.7c-1.5,1.7-3,3.6-3.7,5.5c-0.7,1.8-2.1,3-3.2,4.5c-1.1,1.6-1.4,3.6-2.4,5.1c-0.7,1-1.6,1.7-2.4,2.6
		c-1.1,1.2-1.7,2.6-2.5,4.1c-1.9,3.8-3.9,7.5-6.1,11.2c-0.4,0.8-1.2,1.7-2.1,1.6c-0.7-0.1-1.1-0.9-1.4-1.6l-4.7-9.8
		c-0.1-0.3-0.3-0.6-0.3-0.9c0-0.4,0.2-0.8,0.5-1.2c1-1.6,1.9-3.1,2.9-4.6c0.5-0.8,1.3-1.7,2.2-1.6c0.7,0.2,1.1,0.9,1.2,1.6
		s0.1,1.4,0.2,2.1c0.4,1.7,2.5,2.7,4.2,2.1c1.4-0.6,2.1-1.9,2.8-3.2c3.7-6.7,8.1-13.1,13.1-18.9c-4.5-3.4-10.1-5.4-16.1-5.4
		c-15,0-27.1,12.2-27.1,27.1s12,27.2,27,27.2s27.1-12.2,27.1-27.1C229.7,51,226.1,43.7,220.5,38.7z"/>
</g>
<circle class="st2" cx="144.5" cy="59.1" r="27.2"/>
<g>
	<path class="st0" d="M147.7,70.2c5.7,0,9.2-4.9,9.2-11.3c0-6.7-3.1-11.5-8.8-11.5c-2.6,0-4.4,1.3-5.8,3.2V48h-8.7v1.2l2.5,1.2v21.9
		c2.1,0,4.1,0,6.2,0.2v-5.4C143.5,69,145.1,70.2,147.7,70.2z M142.4,52.7c0.6-1.1,1.9-2.4,3.7-2.4c1.5,0,2.8,0.6,3.4,2.7
		c0.4,1.6,0.6,3.8,0.6,6c0,1.9-0.2,4-0.7,5.6c-0.7,1.8-1.9,2.6-3.3,2.7c-1.9,0-3-1.1-3.7-2.2V52.7z"/>
	<path class="st0" d="M136.1,74.8l-2.8,1.1l-0.1,1.1h12.2v-1.2l-3.1-1.1v-5.2c-2.1-0.1-4.1-0.2-6.2-0.2V74.8z"/>
</g>
<circle class="st2" cx="86.6" cy="59.1" r="27.2"/>
<path id="XMLID_00000119112639000084192570000015370643964428732049_" class="st0" d="M74.4,69.1l2.4-1.2v-17l-2.5-1.1v-1.2H83v3.5
	c1.8-2.6,4-4.2,6.9-4.2c4.1,0,6.7,2.4,6.7,5.4V68l2.3,1.2v1.1H88v-1.1l2.5-1.2V54.1c0-1.7-1.1-2.6-2.9-2.6c-2.2,0-3.8,1.6-4.6,2.7
	v13.7l2.5,1.2v1.1H74.4V69.1L74.4,69.1z"/>
<circle class="st2" cx="28.2" cy="59.1" r="27.2"/>
<path id="XMLID_00000023981107752803788570000018372241019960477327_" class="st0" d="M22.9,67.5V51.8l-2.7-1.1v-1.3h2.5
	c1.7-1.2,3.8-3.5,4.7-6.6h1.7v6.6h4.7v2.2h-4.6v14.3c0,1.4,0.2,2.2,1.9,2.2c1.6,0,2.5-0.3,3.2-0.4v1.4c-1.6,1.1-3.9,2.4-6.8,2.4
	C24.7,71.5,22.9,69.6,22.9,67.5L22.9,67.5z"/>
</svg>
