<?xml version="1.0" encoding="utf-8"?>
<!-- Generator: Adobe Illustrator 25.4.1, SVG Export Plug-In . SVG Version: 6.00 Build 0)  -->
<svg version="1.1" id="Layer_1" xmlns="http://www.w3.org/2000/svg" xmlns:xlink="http://www.w3.org/1999/xlink" x="0px" y="0px"
	 viewBox="0 0 231 59.6" style="enable-background:new 0 0 231 59.6;" xml:space="preserve">
<style type="text/css">
	.st0{fill-rule:evenodd;clip-rule:evenodd;fill:#FFFFFF;}
</style>
<g>
	<path class="st0" d="M221,10.1c-1.5,1.7-3,3.6-3.7,5.5c-0.7,1.8-2.1,3-3.2,4.5c-1.1,1.6-1.4,3.6-2.4,5.1c-0.7,1-1.6,1.7-2.4,2.6
		c-1.1,1.2-1.7,2.6-2.5,4.1c-1.9,3.8-3.9,7.5-6.1,11.2c-0.4,0.8-1.2,1.7-2.1,1.6c-0.7-0.1-1.1-0.9-1.4-1.6l-4.7-9.8
		c-0.1-0.3-0.3-0.6-0.3-0.9c0-0.4,0.2-0.8,0.5-1.2c1-1.6,1.9-3.1,2.9-4.6c0.5-0.8,1.3-1.7,2.2-1.6c0.7,0.2,1.1,0.9,1.2,1.6
		s0.1,1.4,0.2,2.1c0.4,1.7,2.5,2.7,4.2,2.1c1.4-0.6,2.1-1.9,2.8-3.2c3.7-6.7,8.1-13.1,13.1-18.9c-4.5-3.4-10.1-5.4-16.1-5.4
		c-15,0-27.1,12.2-27.1,27.1s12,27.2,27,27.2s27.1-12.2,27.1-27.1C230.2,22.4,226.6,15.1,221,10.1z"/>
	<path class="st0" d="M146.6,21.6c-1.8,0-3.1,1.3-3.7,2.4v12.4c0.7,1.1,1.8,2.2,3.7,2.2c1.4-0.1,2.6-0.9,3.3-2.7
		c0.5-1.6,0.7-3.7,0.7-5.6c0-2.2-0.2-4.4-0.6-6C149.4,22.2,148.1,21.6,146.6,21.6z"/>
	<path class="st0" d="M145,3.3c-15,0-27.2,12.2-27.2,27.2c0,15,12.2,27.2,27.2,27.2c15,0,27.2-12.2,27.2-27.2
		C172.2,15.4,160,3.3,145,3.3z M148.2,41.5c-2.6,0-4.2-1.2-5.4-3.1v2.4v3V46l3.1,1.1v1.2h-12.2l0.1-1.1l2.8-1.1v-2.5v-3V21.7
		l-2.5-1.2v-1.2h8.7v2.6c1.4-1.9,3.2-3.2,5.8-3.2c5.7,0,8.8,4.8,8.8,11.5C157.4,36.6,153.9,41.5,148.2,41.5z"/>
	<path class="st0" d="M87.1,3.3c-15,0-27.2,12.2-27.2,27.2c0,15,12.2,27.2,27.2,27.2s27.2-12.2,27.2-27.2
		C114.3,15.4,102.1,3.3,87.1,3.3z M99.4,41.7H88.5v-1.1l2.5-1.2V25.5c0-1.7-1.1-2.6-2.9-2.6c-2.2,0-3.8,1.6-4.6,2.7v13.7l2.5,1.2
		v1.1H74.9v-1.1l2.4-1.2v-17l-2.5-1.1V20h8.7v3.5c1.8-2.6,4-4.2,6.9-4.2c4.1,0,6.7,2.4,6.7,5.4v14.7l2.3,1.2V41.7z"/>
	<path class="st0" d="M28.7,3.3c-15,0-27.2,12.2-27.2,27.2c0,15,12.2,27.2,27.2,27.2c15,0,27.2-12.2,27.2-27.2
		C55.9,15.4,43.7,3.3,28.7,3.3z M34.8,40.4c-1.6,1.1-3.9,2.4-6.8,2.4c-2.8,0-4.6-1.9-4.6-4V23.1L20.7,22v-1.3h2.5
		c1.7-1.2,3.8-3.5,4.7-6.6h1.7v6.6h4.7v2.2h-4.6v14.3c0,1.4,0.2,2.2,1.9,2.2c1.6,0,2.5-0.3,3.2-0.4V40.4z"/>
</g>
</svg>
