<svg width="48" height="49" viewBox="0 0 48 49" fill="none" xmlns="http://www.w3.org/2000/svg">
<rect x="0.65625" y="0.674805" width="47" height="47" rx="23.5" fill="#F1F2EF"/>
<path d="M31.919 19.3286C31.3358 19.5866 30.7174 19.756 30.0841 19.8312C30.7516 19.4321 31.2511 18.8038 31.4897 18.0636C30.8633 18.4364 30.1765 18.6976 29.4608 18.8389C28.98 18.3245 28.3427 17.9834 27.648 17.8685C26.9534 17.7536 26.2402 17.8715 25.6194 18.2037C24.9986 18.536 24.505 19.064 24.2152 19.7058C23.9255 20.3475 23.8559 21.067 24.0173 21.7524C22.747 21.6887 21.5044 21.3586 20.37 20.7835C19.2356 20.2084 18.2348 19.4012 17.4326 18.4142C17.1486 18.9019 16.9994 19.4563 17.0002 20.0207C17.0002 21.1283 17.564 22.1069 18.4211 22.6798C17.9138 22.6638 17.4178 22.5268 16.9743 22.2803V22.32C16.9744 23.0577 17.2297 23.7726 17.6968 24.3436C18.1639 24.9145 18.8141 25.3064 19.5371 25.4527C19.0663 25.5803 18.5725 25.5991 18.0934 25.5077C18.2972 26.1427 18.6945 26.698 19.2297 27.0959C19.7649 27.4938 20.4111 27.7144 21.0779 27.7268C20.4152 28.2472 19.6564 28.632 18.8449 28.859C18.0335 29.086 17.1852 29.1509 16.3486 29.0498C17.809 29.989 19.5089 30.4876 21.2452 30.486C27.1218 30.486 30.3354 25.6177 30.3354 21.3957C30.3354 21.2582 30.3316 21.1192 30.3255 20.9832C30.951 20.5311 31.4909 19.971 31.9197 19.3294L31.919 19.3286Z" fill="#939598"/>
<rect x="0.65625" y="0.674805" width="47" height="47" rx="23.5" stroke="#939598"/>
</svg>
