<svg version="1.1" id="Layer_1" xmlns="http://www.w3.org/2000/svg" xmlns:xlink="http://www.w3.org/1999/xlink" x="0px" y="0px" width="250px" height="80px" viewBox="281.5 360 659.5 72" style="enable-background:new 0 0 1224 792;" xml:space="preserve">
<style type="text/css">
	.st0{fill:#727272;}
	.st1{fill:none;stroke:#727272;stroke-width:1.1293;stroke-miterlimit:10;}
	.st2{fill:none;stroke:#727272;stroke-width:1.1483;stroke-miterlimit:10;}
	.st3{fill:#78A240;}
	.st4{fill:none;stroke:#78A240;stroke-width:1.1483;stroke-miterlimit:10;}
</style>
<g>
	<path class="st0" d="M309.5,432c-5.2,0-9.9-1-14.2-3.1c-4.2-2.1-7.6-5.2-10.1-9.4c-2.5-4.2-3.7-9.5-3.7-15.9v-43h14v43.1
		c0,3.4,0.6,6.3,1.7,8.5c1.1,2.3,2.7,4,4.9,5.2c2.1,1.2,4.7,1.8,7.6,1.8c3.1,0,5.7-0.6,7.8-1.8c2.1-1.2,3.7-2.9,4.9-5.2
		c1.1-2.3,1.7-5.1,1.7-8.5v-43.1h14v43c0,6.4-1.3,11.7-3.9,15.9c-2.6,4.2-6,7.3-10.4,9.4C319.5,430.9,314.8,432,309.5,432L309.5,432
		z"></path>
	<path class="st1" d="M309.5,432c-5.2,0-9.9-1-14.2-3.1c-4.2-2.1-7.6-5.2-10.1-9.4c-2.5-4.2-3.7-9.5-3.7-15.9v-43h14v43.1
		c0,3.4,0.6,6.3,1.7,8.5c1.1,2.3,2.7,4,4.9,5.2c2.1,1.2,4.7,1.8,7.6,1.8c3.1,0,5.7-0.6,7.8-1.8c2.1-1.2,3.7-2.9,4.9-5.2
		c1.1-2.3,1.7-5.1,1.7-8.5v-43.1h14v43c0,6.4-1.3,11.7-3.9,15.9c-2.6,4.2-6,7.3-10.4,9.4C319.5,430.9,314.8,432,309.5,432L309.5,432
		z"></path>
	<path class="st0" d="M349.9,432v-71.4h27c5.8,0,10.6,1,14.3,3c3.8,2,6.6,4.6,8.4,7.9c1.8,3.3,2.8,7,2.8,11.1
		c0,3.8-0.9,7.4-2.7,10.7c-1.8,3.3-4.6,6-8.4,8s-8.6,3-14.5,3h-12.6V432H349.9L349.9,432z M364.2,393.8H376c4.1,0,7.1-1,9-3
		c1.9-2,2.9-4.6,2.9-7.9c0-3.2-0.9-5.7-2.8-7.6c-1.9-1.9-4.9-2.9-9-2.9h-11.8V393.8L364.2,393.8z M386.8,432l-14.6-31.3h15.4
		l15.5,31.3H386.8L386.8,432z"></path>
	<path class="st2" d="M349.9,432v-71.4h27c5.8,0,10.6,1,14.3,3c3.8,2,6.6,4.6,8.4,7.9c1.8,3.3,2.8,7,2.8,11.1
		c0,3.8-0.9,7.4-2.7,10.7c-1.8,3.3-4.6,6-8.4,8s-8.6,3-14.5,3h-12.6V432H349.9L349.9,432z M364.2,393.8H376c4.1,0,7.1-1,9-3
		c1.9-2,2.9-4.6,2.9-7.9c0-3.2-0.9-5.7-2.8-7.6c-1.9-1.9-4.9-2.9-9-2.9h-11.8V393.8L364.2,393.8z M386.8,432l-14.6-31.3h15.4
		l15.5,31.3H386.8L386.8,432z"></path>
	<path class="st0" d="M414.8,432v-71.4h29.7c5,0,9.1,0.8,12.5,2.3c3.4,1.6,6,3.7,7.8,6.5c1.8,2.8,2.7,6,2.7,9.6c0,3.5-0.8,6.5-2.3,9
		c-1.6,2.4-3.6,4.3-6.2,5.7c-2.6,1.3-5.4,2.1-8.4,2.3l1.6-1.1c3.3,0.1,6.2,1,8.7,2.7c2.5,1.6,4.6,3.8,6,6.4c1.5,2.6,2.2,5.5,2.2,8.6
		c0,3.8-0.9,7.2-2.8,10.1c-1.8,3-4.5,5.3-8,6.9c-3.5,1.6-7.8,2.4-12.8,2.4H414.8L414.8,432z M429.1,390.2h13c3.5,0,6.2-0.8,8.1-2.4
		c1.8-1.6,2.8-3.9,2.8-6.8c0-2.9-0.9-5.1-2.8-6.7c-1.8-1.6-4.6-2.4-8.2-2.4h-12.8V390.2L429.1,390.2z M429.1,420.3h14.1
		c3.6,0,6.4-0.8,8.4-2.5c2-1.7,3-4,3-7.1s-1-5.5-3.1-7.2c-2.1-1.8-4.9-2.7-8.5-2.7h-13.9V420.3L429.1,420.3z"></path>
	<path class="st2" d="M414.8,432v-71.4h29.7c5,0,9.1,0.8,12.5,2.3c3.4,1.6,6,3.7,7.8,6.5c1.8,2.8,2.7,6,2.7,9.6c0,3.5-0.8,6.5-2.3,9
		c-1.6,2.4-3.6,4.3-6.2,5.7c-2.6,1.3-5.4,2.1-8.4,2.3l1.6-1.1c3.3,0.1,6.2,1,8.7,2.7c2.5,1.6,4.6,3.8,6,6.4c1.5,2.6,2.2,5.5,2.2,8.6
		c0,3.8-0.9,7.2-2.8,10.1c-1.8,3-4.5,5.3-8,6.9c-3.5,1.6-7.8,2.4-12.8,2.4H414.8L414.8,432z M429.1,390.2h13c3.5,0,6.2-0.8,8.1-2.4
		c1.8-1.6,2.8-3.9,2.8-6.8c0-2.9-0.9-5.1-2.8-6.7c-1.8-1.6-4.6-2.4-8.2-2.4h-12.8V390.2L429.1,390.2z M429.1,420.3h14.1
		c3.6,0,6.4-0.8,8.4-2.5c2-1.7,3-4,3-7.1s-1-5.5-3.1-7.2c-2.1-1.8-4.9-2.7-8.5-2.7h-13.9V420.3L429.1,420.3z"></path>
	<path class="st0" d="M476.1,432l26-71.4h16.3l26,71.4h-15.2l-19.1-55.2L491,432H476.1L476.1,432z M487.5,415.9l3.8-11.1H528
		l3.7,11.1H487.5L487.5,415.9z"></path>
	<path class="st2" d="M476.1,432l26-71.4h16.3l26,71.4h-15.2l-19.1-55.2L491,432H476.1L476.1,432z M487.5,415.9l3.8-11.1H528
		l3.7,11.1H487.5L487.5,415.9z"></path>
	<polygon class="st0" points="554.8,432 554.8,360.6 569.1,360.6 601.4,409 601.4,360.6 615.7,360.6 615.7,432 601.4,432 
		569.1,383.6 569.1,432 554.8,432 	"></polygon>
	<polygon class="st2" points="554.8,432 554.8,360.6 569.1,360.6 601.4,409 601.4,360.6 615.7,360.6 615.7,432 601.4,432 
		569.1,383.6 569.1,432 554.8,432 	"></polygon>
	<polygon class="st3" points="666.6,432 666.6,360.6 680.9,360.6 680.9,420.8 712,420.8 712,432 666.6,432 	"></polygon>
	<polygon class="st4" points="666.6,432 666.6,360.6 680.9,360.6 680.9,420.8 712,420.8 712,432 666.6,432 	"></polygon>
	<path class="st3" d="M720.3,432l26-71.4h16.3l26,71.4h-15.2l-19.1-55.2L735.2,432H720.3L720.3,432z M731.8,415.9l3.8-11.1h36.7
		l3.7,11.1H731.8L731.8,415.9z"></path>
	<path class="st4" d="M720.3,432l26-71.4h16.3l26,71.4h-15.2l-19.1-55.2L735.2,432H720.3L720.3,432z M731.8,415.9l3.8-11.1h36.7
		l3.7,11.1H731.8L731.8,415.9z"></path>
	<polygon class="st3" points="798,432 798,360.6 812.3,360.6 844.6,409 844.6,360.6 858.9,360.6 858.9,432 844.6,432 812.3,383.6 
		812.3,432 798,432 	"></polygon>
	<polygon class="st4" points="798,432 798,360.6 812.3,360.6 844.6,409 844.6,360.6 858.9,360.6 858.9,432 844.6,432 812.3,383.6 
		812.3,432 798,432 	"></polygon>
	<path class="st3" d="M870,432v-71.4h24.1c8.3,0,15.1,1.5,20.5,4.4c5.4,3,9.4,7.1,12,12.4c2.6,5.3,3.9,11.6,3.9,18.8
		c0,7.1-1.3,13.4-3.9,18.8c-2.6,5.4-6.6,9.5-12,12.5c-5.4,3-12.3,4.4-20.5,4.4H870L870,432z M884.3,419.7h9.1
		c5.6,0,10.1-0.9,13.5-2.8c3.3-1.9,5.7-4.6,7.1-8.1c1.4-3.5,2.1-7.7,2.1-12.6c0-4.9-0.7-9.1-2.1-12.6c-1.4-3.5-3.8-6.2-7.1-8.1
		c-3.3-1.9-7.8-2.9-13.5-2.9h-9.1V419.7L884.3,419.7z"></path>
	<path class="st4" d="M870,432v-71.4h24.1c8.3,0,15.1,1.5,20.5,4.4c5.4,3,9.4,7.1,12,12.4c2.6,5.3,3.9,11.6,3.9,18.8
		c0,7.1-1.3,13.4-3.9,18.8c-2.6,5.4-6.6,9.5-12,12.5c-5.4,3-12.3,4.4-20.5,4.4H870L870,432z M884.3,419.7h9.1
		c5.6,0,10.1-0.9,13.5-2.8c3.3-1.9,5.7-4.6,7.1-8.1c1.4-3.5,2.1-7.7,2.1-12.6c0-4.9-0.7-9.1-2.1-12.6c-1.4-3.5-3.8-6.2-7.1-8.1
		c-3.3-1.9-7.8-2.9-13.5-2.9h-9.1V419.7L884.3,419.7z"></path>
	<path class="st3" d="M935.1,360c-3.3,0-5.9,2.7-5.9,5.9c0,3.3,2.7,5.9,5.9,5.9c3.3,0,5.9-2.7,5.9-5.9
		C941,362.7,938.4,360,935.1,360L935.1,360z M935.1,370.7c-2.6,0-4.8-2.1-4.8-4.8c0-2.6,2.1-4.7,4.8-4.7s4.7,2.1,4.7,4.7
		C939.8,368.6,937.7,370.7,935.1,370.7L935.1,370.7z"></path>
	<path class="st3" d="M936.3,367.1c0.6-0.4,1-1.1,1-1.9c0-1.2-1-2.2-2.2-2.2h-2.3v5.8h1.5v-1.5h0.4l1.1,1.5h1.9L936.3,367.1
		L936.3,367.1z M935.2,365.9h-0.9v-1.5h0.9c0.4,0,0.7,0.3,0.7,0.7S935.6,365.9,935.2,365.9L935.2,365.9z"></path>
</g>
</svg>