<?xml version="1.0" encoding="UTF-8"?>
<svg id="Layer_2" data-name="Layer 2" xmlns="http://www.w3.org/2000/svg" viewBox="0 0 757.62 400.71">
  <defs>
    <style>
      .cls-1 {
        fill: #77a340;
      }

      .cls-1, .cls-2, .cls-3, .cls-4 {
        stroke-width: 0px;
      }

      .cls-2 {
        fill: #9cb866;
      }

      .cls-3 {
        fill: #bacc91;
      }

      .cls-4 {
        fill: #fff;
      }
    </style>
  </defs>
  <g id="Layer_1-2" data-name="Layer 1">
    <rect class="cls-4" x="308.26" width="1.71" height="400.71"/>
    <g>
      <path class="cls-1" d="M223.48,89.14c0-11.37-9.22-20.59-20.6-20.59-.13,0-182.2-.02-182.29-.02C9.23,68.53,0,77.75,0,89.12v.31l.03,110.64h223.44v-110.94h0Z"/>
      <path class="cls-2" d="M223.48,200.1s-223.45-.03-223.45-.01c-.07,68.82.01,111.45.01,111.5,0,11.37,9.22,20.59,20.6,20.59h182.26c11.38,0,20.6-9.22,20.6-20.59,0-.14.1-20.49,0-111.49"/>
      <path class="cls-3" d="M76.92,200.08h16.6v-86.61h-16.6v86.61h0ZM36.75,200.08h16.6v-86.61h-16.6v86.61h0ZM170.05,200.08h16.6v-86.63h-16.6v86.63h0ZM114.54,200.08h16.6v-86.59h-16.6v86.59h0Z"/>
      <polygon class="cls-4" points="186.65 291 170.05 291 170.05 200.07 186.65 200.07 186.65 291 186.65 291"/>
      <polygon class="cls-4" points="131.14 275.72 131.14 200.07 114.54 200.07 114.54 290.97 114.58 290.97 114.58 291.01 159.53 291.01 159.53 275.72 131.14 275.72 131.14 275.72"/>
      <path class="cls-4" d="M76.92,200.07v71.34c-.04,2-1.6,4.11-4.01,4.34h-15.53c-2.42-.23-3.98-2.34-4.02-4.34v-71.34h-16.59s0,70.96,0,71.16c0,10.75,8.51,19.48,19.15,19.91h18.42c10.65-.42,19.15-9.16,19.15-19.91,0-.19.01-71.16.01-71.16h-16.6Z"/>
    </g>
    <path class="cls-4" d="M428.26,115.68l-3.91,21.45c-.38,2.19-.95,5.82-1.24,7.44-.29-1.62-1.05-5.19-1.57-7.34l-5.29-21.54h-4l-5.29,21.54c-.52,2.15-1.29,5.72-1.57,7.34-.29-1.62-.86-5.24-1.24-7.44l-3.91-21.45h-3.72l6.67,33.36h4.1l5.24-21.35c.57-2.29,1.24-5.48,1.62-7.53.38,2.05,1.1,5.34,1.62,7.53l5.24,21.35h4.19l6.67-33.36h-3.62ZM472.53,115.68h-3.72v14.25h-16.59v-14.25h-3.72v33.36h3.72v-15.73h16.59v15.73h3.72v-33.36h0ZM511.71,145.66h-17.16v-12.73h9.53v-3.38h-9.53v-10.48h16.44v-3.38h-20.16v33.36h20.88v-3.38h0ZM540.93,131.5h-8.87v-12.44h9.34c4.43,0,6.82,2.1,6.82,6.2s-2.34,6.24-7.29,6.24h0ZM541.54,115.68h-13.2v33.36h3.72v-14.2h7.91l7.15,14.2h4.29l-7.34-14.49c4.77-1,7.86-4.24,7.86-9.44,0-6.43-4.53-9.44-10.39-9.44h0ZM589.73,145.66h-17.16v-12.73h9.53v-3.38h-9.53v-10.48h16.44v-3.38h-20.16v33.36h20.88v-3.38h0ZM421.32,185.09h-23.35v3.38h9.82v29.98h3.72v-29.98h9.82v-3.38h0ZM461.6,185.09h-3.72v14.25h-16.59v-14.25h-3.72v33.36h3.72v-15.73h16.59v15.73h3.72v-33.36h0ZM500.77,215.07h-17.16v-12.73h9.53v-3.38h-9.53v-10.48h16.44v-3.38h-20.16v33.36h20.88v-3.38h0ZM558.92,185.09h-19.59v33.36h3.72v-15.54h9.15v-3.38h-9.15v-11.06h15.87v-3.38h0ZM598.76,185.09h-3.72v19.83c0,7.2-2.29,10.68-8.06,10.68s-8.53-3.57-8.53-10.77v-19.73h-3.72v19.83c0,9.25,4.1,14.06,12.06,14.06s11.96-4.91,11.96-14.16v-19.73h0ZM638.13,185.09h-23.35v3.38h9.82v29.98h3.72v-29.98h9.82v-3.38h0ZM678.17,185.09h-3.72v19.83c0,7.2-2.29,10.68-8.05,10.68s-8.53-3.57-8.53-10.77v-19.73h-3.72v19.83c0,9.25,4.1,14.06,12.06,14.06s11.96-4.91,11.96-14.16v-19.73h0ZM708.81,200.92h-8.86v-12.44h9.34c4.43,0,6.82,2.1,6.82,6.2s-2.34,6.24-7.29,6.24h0ZM709.43,185.09h-13.2v33.36h3.72v-14.2h7.91l7.15,14.2h4.29l-7.34-14.49c4.77-1,7.86-4.24,7.86-9.44,0-6.43-4.53-9.44-10.39-9.44h0ZM757.62,215.07h-17.16v-12.73h9.53v-3.38h-9.53v-10.48h16.44v-3.38h-20.16v33.36h20.88v-3.38h0ZM405.69,251.15h-3.72v33.36h3.72v-33.36h0ZM435.04,265.64c-6.67-2.38-7.91-3.96-7.91-6.72,0-2.62,1.91-4.91,6.48-4.91,3.34,0,5.58,1.1,8.01,3.1l2.38-2.91c-2.81-2.24-5.67-3.57-10.15-3.57-6.24,0-10.44,3.19-10.44,8.53,0,4.81,2.43,7.15,9.63,9.72,6.1,2.19,7.96,3.96,7.96,7.05,0,3.53-2.77,5.72-7.2,5.72-3.43,0-6.34-1.57-8.86-4l-2.48,2.77c2.62,2.67,6.67,4.62,11.2,4.62,6.96,0,11.06-4.05,11.06-9.29,0-4.96-2.29-7.44-9.67-10.1h0ZM500.34,266.3c2.81-1,4.81-3.15,4.81-6.82,0-5.72-3.77-8.34-9.05-8.34h-12.2v33.36h11.96c7.01,0,10.87-3.29,10.87-9.87,0-5.39-3.34-7.53-6.39-8.34h0ZM495.67,264.92h-8.05v-10.39h8.34c3.72,0,5.48,2.05,5.48,5.1s-1.62,5.29-5.77,5.29h0ZM496.1,281.13h-8.48v-12.87h8.29c4.34,0,7.1,2.38,7.1,6.58,0,3.81-1.91,6.29-6.91,6.29h0ZM547.05,251.15h-3.72v19.83c0,7.2-2.29,10.68-8.05,10.68s-8.53-3.57-8.53-10.77v-19.73h-3.72v19.83c0,9.25,4.1,14.06,12.06,14.06s11.96-4.91,11.96-14.16v-19.73h0ZM569.07,251.15h-3.72v33.36h3.72v-33.36h0ZM607.82,281.13h-16.49v-29.98h-3.72v33.36h20.21v-3.38h0ZM640.8,251.15h-23.35v3.38h9.82v29.98h3.72v-29.98h9.82v-3.38h0Z"/>
  </g>
</svg>