<svg width="20" height="15" viewBox="0 0 20 15" fill="none" xmlns="http://www.w3.org/2000/svg">
<g clip-path="url(#clip0_1638_5078)">
<rect width="20" height="15" fill="white"/>
<path d="M28.5 0H0V15H28.5V0Z" fill="#BD3D44"/>
<path d="M0 1.73077H28.5ZM28.5 4.03847H0ZM0 6.34616H28.5ZM28.5 8.65385H0ZM0 10.9615H28.5ZM28.5 13.2692H0Z" fill="black"/>
<path d="M0 1.73077H28.5M28.5 4.03847H0M0 6.34616H28.5M28.5 8.65385H0M0 10.9615H28.5M28.5 13.2692H0" stroke="white" stroke-width="1.15385"/>
<path d="M11.4 0H0V8.07692H11.4V0Z" fill="#192F5D"/>
<path d="M0.949936 0.346146L1.22122 1.18108L0.510986 0.665061H1.38888L0.67865 1.18108L0.949936 0.346146Z" fill="white"/>
<path d="M0.949936 1.96153L1.22122 2.79646L0.510986 2.28045H1.38888L0.67865 2.79646L0.949936 1.96153Z" fill="white"/>
<path d="M0.949936 3.57693L1.22122 4.41187L0.510986 3.89585H1.38888L0.67865 4.41187L0.949936 3.57693Z" fill="white"/>
<path d="M0.949936 5.19231L1.22122 6.02724L0.510986 5.51122H1.38888L0.67865 6.02724L0.949936 5.19231Z" fill="white"/>
<path d="M0.949936 6.80769L1.22122 7.64262L0.510986 7.12661H1.38888L0.67865 7.64262L0.949936 6.80769Z" fill="white"/>
<path d="M1.90001 1.15385L2.17129 1.98879L1.46106 1.47277H2.33896L1.62872 1.98879L1.90001 1.15385Z" fill="white"/>
<path d="M1.90001 2.76924L2.17129 3.60417L1.46106 3.08816H2.33896L1.62872 3.60417L1.90001 2.76924Z" fill="white"/>
<path d="M1.90001 4.38461L2.17129 5.21954L1.46106 4.70353H2.33896L1.62872 5.21954L1.90001 4.38461Z" fill="white"/>
<path d="M1.90001 6.00002L2.17129 6.83495L1.46106 6.31893H2.33896L1.62872 6.83495L1.90001 6.00002Z" fill="white"/>
<path d="M2.85008 0.346146L3.12137 1.18108L2.41113 0.665061H3.28903L2.5788 1.18108L2.85008 0.346146Z" fill="white"/>
<path d="M2.85008 1.96153L3.12137 2.79646L2.41113 2.28045H3.28903L2.5788 2.79646L2.85008 1.96153Z" fill="white"/>
<path d="M2.85008 3.57693L3.12137 4.41187L2.41113 3.89585H3.28903L2.5788 4.41187L2.85008 3.57693Z" fill="white"/>
<path d="M2.85008 5.19231L3.12137 6.02724L2.41113 5.51122H3.28903L2.5788 6.02724L2.85008 5.19231Z" fill="white"/>
<path d="M2.85008 6.80769L3.12137 7.64262L2.41113 7.12661H3.28903L2.5788 7.64262L2.85008 6.80769Z" fill="white"/>
<path d="M3.80003 1.15385L4.07132 1.98879L3.36108 1.47277H4.23898L3.52875 1.98879L3.80003 1.15385Z" fill="white"/>
<path d="M3.80003 2.76924L4.07132 3.60417L3.36108 3.08816H4.23898L3.52875 3.60417L3.80003 2.76924Z" fill="white"/>
<path d="M3.80003 4.38461L4.07132 5.21954L3.36108 4.70353H4.23898L3.52875 5.21954L3.80003 4.38461Z" fill="white"/>
<path d="M3.80003 6.00002L4.07132 6.83495L3.36108 6.31893H4.23898L3.52875 6.83495L3.80003 6.00002Z" fill="white"/>
<path d="M4.75011 0.346146L5.02139 1.18108L4.31116 0.665061H5.18906L4.47882 1.18108L4.75011 0.346146Z" fill="white"/>
<path d="M4.75011 1.96153L5.02139 2.79646L4.31116 2.28045H5.18906L4.47882 2.79646L4.75011 1.96153Z" fill="white"/>
<path d="M4.75011 3.57693L5.02139 4.41187L4.31116 3.89585H5.18906L4.47882 4.41187L4.75011 3.57693Z" fill="white"/>
<path d="M4.75011 5.19231L5.02139 6.02724L4.31116 5.51122H5.18906L4.47882 6.02724L4.75011 5.19231Z" fill="white"/>
<path d="M4.75011 6.80769L5.02139 7.64262L4.31116 7.12661H5.18906L4.47882 7.64262L4.75011 6.80769Z" fill="white"/>
<path d="M5.69994 1.15385L5.97122 1.98879L5.26099 1.47277H6.13888L5.42865 1.98879L5.69994 1.15385Z" fill="white"/>
<path d="M5.69994 2.76924L5.97122 3.60417L5.26099 3.08816H6.13888L5.42865 3.60417L5.69994 2.76924Z" fill="white"/>
<path d="M5.69994 4.38461L5.97122 5.21954L5.26099 4.70353H6.13888L5.42865 5.21954L5.69994 4.38461Z" fill="white"/>
<path d="M5.69994 6.00002L5.97122 6.83495L5.26099 6.31893H6.13888L5.42865 6.83495L5.69994 6.00002Z" fill="white"/>
<path d="M6.65001 0.346146L6.92129 1.18108L6.21106 0.665061H7.08896L6.37872 1.18108L6.65001 0.346146Z" fill="white"/>
<path d="M6.65001 1.96153L6.92129 2.79646L6.21106 2.28045H7.08896L6.37872 2.79646L6.65001 1.96153Z" fill="white"/>
<path d="M6.65001 3.57693L6.92129 4.41187L6.21106 3.89585H7.08896L6.37872 4.41187L6.65001 3.57693Z" fill="white"/>
<path d="M6.65001 5.19231L6.92129 6.02724L6.21106 5.51122H7.08896L6.37872 6.02724L6.65001 5.19231Z" fill="white"/>
<path d="M6.65001 6.80769L6.92129 7.64262L6.21106 7.12661H7.08896L6.37872 7.64262L6.65001 6.80769Z" fill="white"/>
<path d="M7.59996 1.15385L7.87125 1.98879L7.16101 1.47277H8.03891L7.32867 1.98879L7.59996 1.15385Z" fill="white"/>
<path d="M7.59996 2.76924L7.87125 3.60417L7.16101 3.08816H8.03891L7.32867 3.60417L7.59996 2.76924Z" fill="white"/>
<path d="M7.59996 4.38461L7.87125 5.21954L7.16101 4.70353H8.03891L7.32867 5.21954L7.59996 4.38461Z" fill="white"/>
<path d="M7.59996 6.00002L7.87125 6.83495L7.16101 6.31893H8.03891L7.32867 6.83495L7.59996 6.00002Z" fill="white"/>
<path d="M8.55003 0.346146L8.82132 1.18108L8.11108 0.665061H8.98898L8.27875 1.18108L8.55003 0.346146Z" fill="white"/>
<path d="M8.55003 1.96153L8.82132 2.79646L8.11108 2.28045H8.98898L8.27875 2.79646L8.55003 1.96153Z" fill="white"/>
<path d="M8.55003 3.57693L8.82132 4.41187L8.11108 3.89585H8.98898L8.27875 4.41187L8.55003 3.57693Z" fill="white"/>
<path d="M8.55003 5.19231L8.82132 6.02724L8.11108 5.51122H8.98898L8.27875 6.02724L8.55003 5.19231Z" fill="white"/>
<path d="M8.55003 6.80769L8.82132 7.64262L8.11108 7.12661H8.98898L8.27875 7.64262L8.55003 6.80769Z" fill="white"/>
<path d="M9.49998 1.15385L9.77127 1.98879L9.06104 1.47277H9.93893L9.2287 1.98879L9.49998 1.15385Z" fill="white"/>
<path d="M9.49998 2.76924L9.77127 3.60417L9.06104 3.08816H9.93893L9.2287 3.60417L9.49998 2.76924Z" fill="white"/>
<path d="M9.49998 4.38461L9.77127 5.21954L9.06104 4.70353H9.93893L9.2287 5.21954L9.49998 4.38461Z" fill="white"/>
<path d="M9.49998 6.00002L9.77127 6.83495L9.06104 6.31893H9.93893L9.2287 6.83495L9.49998 6.00002Z" fill="white"/>
<path d="M10.4501 0.346146L10.7213 1.18108L10.0111 0.665061H10.889L10.1788 1.18108L10.4501 0.346146Z" fill="white"/>
<path d="M10.4501 1.96153L10.7213 2.79646L10.0111 2.28045H10.889L10.1788 2.79646L10.4501 1.96153Z" fill="white"/>
<path d="M10.4501 3.57693L10.7213 4.41187L10.0111 3.89585H10.889L10.1788 4.41187L10.4501 3.57693Z" fill="white"/>
<path d="M10.4501 5.19231L10.7213 6.02724L10.0111 5.51122H10.889L10.1788 6.02724L10.4501 5.19231Z" fill="white"/>
<path d="M10.4501 6.80769L10.7213 7.64262L10.0111 7.12661H10.889L10.1788 7.64262L10.4501 6.80769Z" fill="white"/>
</g>
<defs>
<clipPath id="clip0_1638_5078">
<rect width="20" height="15" fill="white"/>
</clipPath>
</defs>
</svg>
