<?xml version="1.0" encoding="UTF-8"?>
<svg width="26px" height="26px" viewBox="0 0 26 26" version="1.1" xmlns="http://www.w3.org/2000/svg" xmlns:xlink="http://www.w3.org/1999/xlink">
    <title>21DBFCA7-26BF-44B8-AAC0-3D30D6AE7B78</title>
    <g id="Page-1" stroke="none" stroke-width="1" fill="none" fill-rule="evenodd">
        <g id="UserWay-Options" transform="translate(-1525.000000, -828.000000)">
            <g id="Group-2" transform="translate(207.000000, 117.000000)">
                <g id="Level-3/L/Header/UserWay" transform="translate(0.000000, 49.000000)">
                    <g id="Level-1/Icons/Accessibility" transform="translate(1318.000000, 662.000000)">
                        <circle id="Oval" fill="#1D609E" cx="13" cy="13" r="13"></circle>
                        <circle id="Oval" stroke="#FFFFFF" cx="13" cy="13" r="10.5"></circle>
                        <circle id="Oval" fill="#FFFFFF" fill-rule="nonzero" transform="translate(12.999059, 8.047139) rotate(-45.000000) translate(-12.999059, -8.047139) " cx="12.9990585" cy="8.04713851" r="1.76698413"></circle>
                        <path d="M18.0968996,9.92992401 C14.7252803,10.5537013 11.2680199,10.5537013 7.89640065,9.92992401 C7.76033073,9.90317086 7.61923208,9.93241872 7.50496266,10.0110639 C7.39069325,10.089709 7.31288834,10.21112 7.28911513,10.3478841 C7.26328631,10.4840024 7.29286656,10.6248093 7.37127574,10.7389823 C7.44968492,10.8531553 7.57042019,10.9312254 7.70662393,10.955826 C8.84845016,11.1661068 10.0018241,11.307791 11.1605603,11.3801188 C11.3872657,11.3958213 11.5975825,11.504034 11.7422967,11.6794352 C11.8870108,11.8548363 11.9534231,12.0820338 11.9259931,12.3078635 L11.8247788,13.1786136 C11.6708487,14.5492186 11.3522507,15.8962182 10.8758952,17.1903969 L10.2433061,18.8844017 C10.141989,19.1545812 10.2786426,19.4558275 10.5485304,19.5572541 C10.8184182,19.6586807 11.1193392,19.5218794 11.2206563,19.2516999 L11.2206563,19.2516999 L11.3756406,18.9350635 C11.8817119,17.8553334 12.3529907,16.7502723 12.7831513,15.6325458 C12.8180679,15.5423477 12.9047648,15.4829018 13.0013945,15.4829018 C13.0980243,15.4829018 13.1847212,15.5423477 13.2196378,15.6325458 C13.6497983,16.7502723 14.1210772,17.8490006 14.6271485,18.9382299 L14.7884587,19.2833636 L14.7884587,19.2833636 C14.8683605,19.4721775 15.0517725,19.5962385 15.2565746,19.6 C15.3182893,19.5994923 15.3793908,19.5876881 15.4368625,19.56517 C15.5686562,19.5193972 15.6764787,19.4224127 15.7359919,19.2961083 C15.7955052,19.1698039 15.8016924,19.0248264 15.753157,18.8939008 L15.120568,17.199896 C14.6457642,15.9052495 14.327211,14.5584392 14.1716843,13.1881127 L14.073633,12.3110298 C14.0471284,12.0860357 14.1140531,11.8600145 14.2587558,11.6858244 C14.4034585,11.5116343 14.6132494,11.4045511 14.8390658,11.3896179 C15.9881084,11.317881 17.1319203,11.1783183 18.2645357,10.9716578 C18.5234377,10.9276447 18.7145985,10.7057117 18.72,10.442875 C18.7201255,10.2864819 18.6502587,10.1382574 18.5295937,10.0389231 C18.4089288,9.9395889 18.2501577,9.89959317 18.0968996,9.92992401 Z" id="Path" fill="#FFFFFF" fill-rule="nonzero"></path>
                    </g>
                </g>
            </g>
        </g>
    </g>
</svg>