<?xml version="1.0" encoding="UTF-8"?>
<svg width="26px" height="26px" viewBox="0 0 26 26" version="1.1" xmlns="http://www.w3.org/2000/svg" xmlns:xlink="http://www.w3.org/1999/xlink">
    <title>1D6AC4A4-03AD-465E-B03A-3339A59C4406</title>
    <g id="UserWay-Widget" stroke="none" stroke-width="1" fill="none" fill-rule="evenodd">
        <g id="L-|-UserWay-Widget-Copy" transform="translate(-914.000000, -373.000000)" fill="#999999" fill-rule="nonzero">
            <g id="Story-1" transform="translate(165.000000, 231.000000)">
                <g id="L---1500/Story-Detail/Hero---With-Gallery" transform="translate(50.000000, 30.000000)">
                    <g id="sbg-accessibility2" transform="translate(699.000000, 112.000000)">
                        <circle id="Oval" transform="translate(12.998791, 6.637629) rotate(-45.000000) translate(-12.998791, -6.637629) " cx="12.9987906" cy="6.63762852" r="2.26984127"></circle>
                        <path d="M20.1454687,9.23870422 C15.6961177,10.0493985 11.1337507,10.0493985 6.68439968,9.23870422 C6.50483528,9.2039344 6.31863471,9.24194649 6.16783929,9.34415791 C6.01704387,9.44636933 5.91436878,9.60416156 5.88299651,9.78190745 C5.84891155,9.9588141 5.88794707,10.1418143 5.9914196,10.2901996 C6.09489213,10.438585 6.25422019,10.5400491 6.43396119,10.5720212 C7.94077,10.8453134 9.46281767,11.0294537 10.9919418,11.1234548 C11.291113,11.1438627 11.5686573,11.2845017 11.759629,11.5124624 C11.9506008,11.7404231 12.0382417,12.0357011 12.0020437,12.3292014 L11.8684765,13.4608748 C11.6653428,15.2421863 11.2449057,16.9928189 10.616284,18.6748027 L9.78148904,20.8764218 C9.64778613,21.2275616 9.82812072,21.6190773 10.1842776,21.7508967 C10.5404345,21.8827162 10.9375444,21.704922 11.0712473,21.3537823 L11.0712473,21.3537823 L11.275772,20.9422647 C11.943608,19.5389897 12.5655303,18.1027932 13.1331909,16.6501361 C13.1792685,16.5329099 13.2936779,16.4556508 13.4211951,16.4556508 C13.5487124,16.4556508 13.6631218,16.5329099 13.7091994,16.6501361 C14.27686,18.1027932 14.8987822,19.5307593 15.5666182,20.9463798 L15.7794909,21.394934 L15.7794909,21.394934 C15.8849332,21.6403266 16.1269725,21.8015629 16.3972392,21.8064516 C16.4786809,21.8057918 16.5593134,21.7904504 16.6351558,21.7611847 C16.8090771,21.7016959 16.9513649,21.5756497 17.0299014,21.4114977 C17.1084379,21.2473458 17.1166029,21.0589253 17.0525533,20.8887674 L16.2177583,18.6871482 C15.5911844,17.0045565 15.1708064,15.2541699 14.9655658,13.4732203 L14.8361726,12.3333165 C14.8011958,12.0409022 14.8895128,11.7471529 15.0804695,11.5207661 C15.2714262,11.2943794 15.5482763,11.1552084 15.8462745,11.1358003 C17.3626064,11.0425672 18.8720356,10.8611842 20.3666893,10.5925971 C20.7083489,10.5353954 20.9606139,10.2469594 20.9677419,9.90536273 C20.9679076,9.70210596 20.8757079,9.50946539 20.7164727,9.38036531 C20.5572375,9.25126524 20.3477154,9.19928465 20.1454687,9.23870422 Z" id="Path"></path>
                        <path d="M13,0 C5.82029825,0 0,5.82029825 0,13 C0,20.1797017 5.82029825,26 13,26 C20.1797017,26 26,20.1797017 26,13 C25.9931746,5.82312731 20.1768727,0.00682537095 13,0 Z M13,24.7619048 C6.50407937,24.7619048 1.23809524,19.4959206 1.23809524,13 C1.23809524,6.50407937 6.50407937,1.23809524 13,1.23809524 C19.4959206,1.23809524 24.7619048,6.50407937 24.7619048,13 C24.7528121,19.4921506 19.4921506,24.7528121 13,24.7619048 L13,24.7619048 Z" id="Shape" opacity="0.85"></path>
                    </g>
                </g>
            </g>
        </g>
    </g>
</svg>