<?xml version="1.0" encoding="UTF-8"?>
<svg width="36px" height="36px" viewBox="0 0 36 36" version="1.1" xmlns="http://www.w3.org/2000/svg" xmlns:xlink="http://www.w3.org/1999/xlink">
    <title>verified-patch-staff</title>
    <g id="Page-1" stroke="none" stroke-width="1" fill="none" fill-rule="evenodd">
        <g id="verified-patch-staff" fill-rule="nonzero">
            <circle id="Oval" fill="#004C05" cx="17.9754685" cy="18.0245313" r="17.9754685"></circle>
            <g id="Patch-P-Icon-White" transform="translate(10.285714, 9.257143)">
                <path d="M11.9102857,5.947 C11.9102857,7.38944898 10.8284489,8.49532653 8.97730612,8.49532653 L6.04471429,8.49532653 L6.04471429,3.35059184 L8.90518367,3.35059184 C10.7559388,3.35059184 11.9102857,4.24010204 11.9102857,5.89891836 L11.9102857,5.947 Z M9.21771429,0.00930612245 L4.19318367,0.00930612245 C3.15942857,0.00930612245 2.34242857,0.826693878 2.34242857,1.86006123 L2.34242857,15.9134694 C2.4587551,16.0542245 2.57353061,16.1988572 2.68171428,16.3520204 C3.27187755,17.1849183 3.61891837,18.2419388 3.7317551,18.678551 C4.13734693,17.0705306 5.11836735,15.6044285 6.04471429,14.9045306 L6.04471429,11.7889184 L8.85710204,11.7889184 C12.6315102,11.7889184 15.6602653,9.7694898 15.6602653,5.87487755 L15.6602653,5.82679592 C15.6602653,2.38934694 13.2321428,0.00930612245 9.21771429,0.00930612245 L9.21771429,0.00930612245 Z" id="Fill-1" fill="#FFFFFF"></path>
                <path d="M7.67406123,17.272551 C7.23124489,18.0472857 7.12422449,19.0488571 7.10871429,19.1954285 C7.18936735,17.7091633 8.09438775,15.5117551 9.20918368,14.7362449 C8.56279592,15.0146531 7.82644898,15.7118367 7.33516327,16.53 C7.00789796,17.0755714 6.43246939,18.4218572 6.50304081,19.1717755 C6.50459184,19.1942653 6.48248979,19.1946531 6.44642857,19.1919388 C6.41036735,19.1892245 6.36073469,19.1834081 6.36577551,19.1876734 C6.02610204,17.1639796 8.15875511,14.7362449 8.53061224,14.5590408 C7.94238775,14.7839388 7.11104081,15.5082653 6.49489796,16.4652449 C6.32506123,16.7293061 6.17538776,17.0143061 6.04471429,17.3008572 C5.82214286,17.7886531 5.65967347,18.2799388 5.57591837,18.6855306 C5.55420408,18.7913878 5.53636735,18.8933674 5.5255102,18.9856531 C5.51775511,18.9115918 5.51426531,18.8383061 5.51155102,18.7642449 C5.48440816,18.0922653 5.64804081,17.4416122 5.85859183,16.7987143 C5.91171429,16.6463266 5.97608164,16.5051836 6.04471429,16.3683062 C6.39097959,15.6784898 6.9090204,15.1740204 7.36734694,14.7529184 C6.97144898,14.9219796 6.479,15.2438163 6.04471429,15.6563878 C5.719,15.9658163 5.42546938,16.3244897 5.23508163,16.7157347 C5.07338776,17.0631633 4.75038776,17.7498776 4.58830612,19.1791429 C4.58830612,19.1791429 4.51967347,19.1919388 4.45879592,19.1791429 C4.30291837,18.2047143 4.85391837,16.868898 5.34365306,16.0534489 C5.61469388,15.6350613 5.83261225,15.3671224 6.04471429,15.1523061 C6.27775511,14.9153877 6.50381632,14.742449 6.78571428,14.5105714 C6.5515102,14.5733877 6.3002449,14.7114286 6.04471429,14.9045306 C5.11836735,15.6044285 4.13734693,17.0705306 3.7317551,18.678551 C3.61891837,18.2419388 3.27187755,17.1849183 2.68171428,16.3520204 C2.57353061,16.1988572 2.4587551,16.0542245 2.34242857,15.9134694 C1.73210205,15.1751837 1.04151021,14.6040204 0.613816327,14.2197551 C1.2117347,14.9952653 1.8119796,15.7447959 2.29395919,16.5614081 C2.31140816,16.5916531 2.3257551,16.6191837 2.34242857,16.6486531 C2.79067347,17.4319184 2.95469388,18.0422449 3.08110204,18.9352449 C3.09234694,19.0135715 3.10320408,19.0903469 3.11406122,19.1737143 C2.98687755,19.1857347 3.05357143,19.1791429 2.85969388,19.1713877 C2.82789796,18.9844898 2.7895102,18.7960408 2.74685715,18.6075919 C2.6452653,18.1612858 2.5114898,17.7169183 2.34242857,17.293102 C1.88953061,16.1573674 1.18265306,15.1763469 0.153938775,14.7587347 C0.985285715,15.3019796 2.14855102,17.8708571 2.03571429,18.8887143 C1.80926531,18.2745102 1.01785714,16.9340408 0,16.4493469 C0.936816327,17.2081837 1.38932653,18.3070816 1.58320408,19.2438979 L1.84997959,19.2353674 C1.32457143,19.2679388 1.35055102,19.2167551 0.75922449,19.2435103 C0.716959184,19.3939592 0.758836735,19.5428571 0.758836735,19.5428571 L8.4480204,19.5343265 C8.4480204,19.5343265 8.44259184,19.2493265 8.45228571,19.1310613 C8.08081633,19.1395918 7.93540816,19.1531633 7.56122449,19.1310613 C7.60930612,17.7894286 8.53061224,16.0123469 9.19289796,15.6889592 C8.92689796,15.8087756 8.23165306,16.2981224 7.67406123,17.272551" id="Fill-2" fill="#94D357"></path>
            </g>
        </g>
    </g>
</svg>