<svg width="76" height="312" viewBox="0 0 76 312" fill="none" xmlns="http://www.w3.org/2000/svg">
<path fill-rule="evenodd" clip-rule="evenodd" d="M59.3778 16.0371V22.7251H52.5778V16.0371H59.3778ZM47.4638 22.3871H21.2178V16.4301H47.4638V22.3871Z" fill="black"/>
<path fill-rule="evenodd" clip-rule="evenodd" d="M36.8418 53.82H21.2148V47.8635H35.9996C40.0467 47.8635 42.6893 45.6716 42.6893 41.289C42.6893 37.4112 39.7096 33.8705 34.7063 33.8705H21.2148V27.914H47.4676V33.8705H45.05C46.9044 35.4444 48.1988 38.4792 48.1988 42.2439C48.1988 49.2683 43.7006 53.82 36.8418 53.82Z" fill="black"/>
<path fill-rule="evenodd" clip-rule="evenodd" d="M59.3778 58.5791V65.2671H52.5778V58.5791H59.3778ZM47.4638 64.9291H21.2178V58.9721H47.4638V64.9291Z" fill="black"/>
<path fill-rule="evenodd" clip-rule="evenodd" d="M54.0368 78.3708H47.4616V86.574H42.2344V78.3708H30.375C27.847 78.3708 26.4419 79.6625 26.4419 82.3599V86.5741H21.2148V82.303C21.2148 75.7293 24.4189 72.414 29.364 72.414H42.2344V67.5821H47.4616V72.414H54.0368V78.3708Z" fill="black"/>
<path fill-rule="evenodd" clip-rule="evenodd" d="M59.3778 89.4651V96.1531H52.5778V89.4651H59.3778ZM47.4638 95.8161H21.2178V89.8591H47.4638V95.8161Z" fill="black"/>
<path fill-rule="evenodd" clip-rule="evenodd" d="M32.9643 119.487V112.068C32.9643 108.359 31.8403 106.111 29.3113 106.111C26.9503 106.111 25.5463 108.19 25.5463 111.618C25.5463 116.115 27.7933 119.487 31.5593 119.487H32.9643ZM37.7413 125.444H21.2183V119.487H23.6343C21.5563 117.519 20.4873 114.372 20.4873 110.663C20.4873 104.369 23.5223 100.154 29.3113 100.154C35.7743 100.154 37.7413 105.998 37.7413 112.124V119.487C41.3383 119.487 42.6873 116.396 42.6873 112.574C42.6873 109.539 41.7313 106.842 39.3143 105.886V99.5352C45.2153 101.053 48.1953 106.504 48.1953 112.518C48.1953 120.161 44.4293 125.444 37.7413 125.444H37.7413Z" fill="black"/>
<path fill-rule="evenodd" clip-rule="evenodd" d="M58.8108 136.62H21.2148V130.656H58.8108V136.62Z" fill="black"/>
<path fill-rule="evenodd" clip-rule="evenodd" d="M59.3778 141.751V148.439H52.5778V141.751H59.3778ZM47.4638 148.102H21.2178V142.145H47.4638V148.102Z" fill="black"/>
<path fill-rule="evenodd" clip-rule="evenodd" d="M21.2148 151.9H26.443L42.2386 167.633V151.9H47.4668V175.5H42.2386L26.443 159.654V175.612H21.2148V151.9Z" fill="black"/>
<path fill-rule="evenodd" clip-rule="evenodd" d="M37.0103 183.76V198.203C40.4953 197.641 42.8563 194.944 42.8563 191.178C42.8563 187.357 40.4953 184.266 37.0103 183.76ZM28.8613 197.641V204.104C23.6913 202.194 20.4873 197.192 20.4873 191.459C20.4873 183.422 26.3323 177.465 34.3693 177.465C42.2373 177.465 48.1953 183.141 48.1953 191.178C48.1953 198.99 42.2373 204.498 34.5943 204.498C33.8073 204.498 33.0203 204.498 32.2333 204.385V183.647C28.5243 184.322 25.9953 187.525 25.9953 191.459C25.9953 194.101 26.8953 196.349 28.8613 197.641V197.641Z" fill="black"/>
<path fill-rule="evenodd" clip-rule="evenodd" d="M42.6873 220.806C42.6873 216.198 38.8653 212.994 34.3133 212.994C29.8163 212.994 25.9953 216.198 25.9953 220.806C25.9953 224.909 28.7493 228.899 34.3133 228.899C39.9333 228.899 42.6873 224.909 42.6873 220.806ZM58.8163 234.632H21.2183V228.675H23.6343C21.6683 226.82 20.4873 223.729 20.4873 220.413C20.4873 211.87 27.1193 207.037 34.3133 207.037C41.5633 207.037 48.1953 211.87 48.1953 220.413C48.1953 223.729 47.0143 226.82 45.0473 228.675H58.8163L58.8163 234.632Z" fill="black"/>
<path fill-rule="evenodd" clip-rule="evenodd" d="M23.962 270.3C25.455 263.365 31.5371 258.459 39.3973 258.459C47.2585 258.459 53.3407 263.365 54.8327 270.3H59.9988C58.4518 260.303 50.0926 253.01 39.3973 253.01C28.7021 253.01 20.3439 260.303 18.7968 270.3H23.962Z" fill="black"/>
<path fill-rule="evenodd" clip-rule="evenodd" d="M23.962 278.65C25.455 285.585 31.5371 290.492 39.3973 290.492C47.2585 290.492 53.3407 285.585 54.8327 278.65H59.9988C58.4518 288.647 50.0926 295.94 39.3973 295.94C28.7021 295.94 20.3439 288.647 18.7968 278.65H23.962Z" fill="black"/>
</svg>
