<svg width="47" height="193" viewBox="0 0 47 193" fill="none" xmlns="http://www.w3.org/2000/svg">
<path fill-rule="evenodd" clip-rule="evenodd" d="M36.721 9.92041V14.0575H32.5157V9.92041H36.721ZM29.3531 13.8484H13.1221V10.1635H29.3531V13.8484Z" fill="black"/>
<path fill-rule="evenodd" clip-rule="evenodd" d="M22.7843 33.2926H13.1202V29.608H22.2635C24.7663 29.608 26.4005 28.2521 26.4005 25.541C26.4005 23.1423 24.5578 20.9521 21.4636 20.9521H13.1202V17.2674H29.3555V20.9521H27.8604C29.0072 21.9257 29.8077 23.8029 29.8077 26.1318C29.8077 30.477 27.0259 33.2926 22.7843 33.2926Z" fill="black"/>
<path fill-rule="evenodd" clip-rule="evenodd" d="M36.721 36.2363V40.3735H32.5157V36.2363H36.721ZM29.3531 40.1644H13.1221V36.4794H29.3531V40.1644Z" fill="black"/>
<path fill-rule="evenodd" clip-rule="evenodd" d="M33.418 48.4793H29.3518V53.5538H26.1192V48.4793H18.7851C17.2217 48.4793 16.3528 49.2784 16.3528 50.947V53.5538H13.1202V50.9117C13.1202 46.8454 15.1017 44.7946 18.1599 44.7946H26.1192V41.8056H29.3518V44.7946H33.418V48.4793Z" fill="black"/>
<path fill-rule="evenodd" clip-rule="evenodd" d="M36.721 55.3423V59.4794H32.5157V55.3423H36.721ZM29.3531 59.271H13.1221V55.586H29.3531V59.271Z" fill="black"/>
<path fill-rule="evenodd" clip-rule="evenodd" d="M20.386 73.9136V69.3243C20.386 67.03 19.6909 65.6394 18.1269 65.6394C16.6668 65.6394 15.7985 66.9254 15.7985 69.046C15.7985 71.8277 17.1881 73.9136 19.5171 73.9136H20.386ZM23.3402 77.5986H13.122V73.9136H14.6161C13.331 72.6963 12.6699 70.7495 12.6699 68.4552C12.6699 64.5618 14.5468 61.9544 18.1269 61.9544C22.1237 61.9544 23.3402 65.5695 23.3402 69.3589V73.9136C25.5646 73.9136 26.3989 72.0016 26.3989 69.6373C26.3989 67.7599 25.8077 66.0916 24.3129 65.5002V61.5715C27.9622 62.5106 29.8051 65.8825 29.8051 69.6027C29.8051 74.3306 27.4762 77.5986 23.3402 77.5986H23.3402Z" fill="black"/>
<path fill-rule="evenodd" clip-rule="evenodd" d="M36.3704 84.5118H13.1202V80.8225H36.3704V84.5118Z" fill="black"/>
<path fill-rule="evenodd" clip-rule="evenodd" d="M36.721 87.6858V91.8229H32.5157V87.6858H36.721ZM29.3531 91.6144H13.1221V87.9295H29.3531V91.6144Z" fill="black"/>
<path fill-rule="evenodd" clip-rule="evenodd" d="M13.1202 93.9638H16.3534L26.1218 103.696V93.9638H29.355V108.563H26.1218L16.3534 98.7601V108.632H13.1202V93.9638Z" fill="black"/>
<path fill-rule="evenodd" clip-rule="evenodd" d="M22.8881 113.672V122.606C25.0433 122.259 26.5034 120.59 26.5034 118.261C26.5034 115.897 25.0433 113.985 22.8881 113.672ZM17.8486 122.259V126.257C14.6513 125.075 12.6699 121.981 12.6699 118.435C12.6699 113.463 16.2846 109.778 21.2548 109.778C26.1206 109.778 29.8051 113.289 29.8051 118.261C29.8051 123.093 26.1206 126.5 21.394 126.5C20.9073 126.5 20.4206 126.5 19.9339 126.431V113.602C17.6402 114.02 16.0762 116.001 16.0762 118.435C16.0762 120.069 16.6328 121.46 17.8486 122.259V122.259Z" fill="black"/>
<path fill-rule="evenodd" clip-rule="evenodd" d="M26.3989 136.588C26.3989 133.738 24.0353 131.756 21.2202 131.756C18.4392 131.756 16.0762 133.738 16.0762 136.588C16.0762 139.126 17.7793 141.595 21.2202 141.595C24.6957 141.595 26.3989 139.126 26.3989 136.588ZM36.3734 145.141H13.122V141.456H14.6161C13.4003 140.309 12.6699 138.397 12.6699 136.345C12.6699 131.061 16.7713 128.071 21.2202 128.071C25.7038 128.071 29.8051 131.061 29.8051 136.345C29.8051 138.397 29.0748 140.309 27.8584 141.456H36.3734L36.3734 145.141Z" fill="black"/>
<path fill-rule="evenodd" clip-rule="evenodd" d="M14.819 167.205C15.7423 162.915 19.5036 159.88 24.3645 159.88C29.2261 159.88 32.9874 162.915 33.9101 167.205H37.1049C36.1482 161.021 30.9787 156.51 24.3645 156.51C17.7504 156.51 12.5815 161.021 11.6247 167.205H14.819Z" fill="black"/>
<path fill-rule="evenodd" clip-rule="evenodd" d="M14.819 172.37C15.7423 176.66 19.5036 179.695 24.3645 179.695C29.2261 179.695 32.9874 176.66 33.9101 172.37H37.1049C36.1482 178.554 30.9787 183.066 24.3645 183.066C17.7504 183.066 12.5815 178.554 11.6247 172.37H14.819Z" fill="black"/>
</svg>
