<?xml version="1.0" encoding="utf-8"?>
<!-- Generator: Adobe Illustrator 25.2.1, SVG Export Plug-In . SVG Version: 6.00 Build 0)  -->
<svg version="1.1" id="Layer_1" xmlns="http://www.w3.org/2000/svg" xmlns:xlink="http://www.w3.org/1999/xlink" x="0px" y="0px"
	 viewBox="0 0 127.819 60" style="enable-background:new 0 0 127.819 60;" xml:space="preserve">
<style type="text/css">
	.st0{fill:none;}
	.st1{fill:#FFFFFF;}
</style>
<rect class="st0" width="127.819" height="60"/>
<g>
	<path class="st1" d="M67.464,36.599c-0.339-0.337-0.744-0.605-1.207-0.795c-0.461-0.19-0.963-0.288-1.492-0.288
		s-1.031,0.098-1.495,0.288c-0.463,0.19-0.868,0.458-1.207,0.797c-0.339,0.337-0.607,0.741-0.8,1.2
		c-0.195,0.458-0.293,0.961-0.293,1.49c0,0.532,0.098,1.032,0.293,1.492c0.193,0.458,0.461,0.861,0.8,1.2
		c0.339,0.339,0.744,0.607,1.207,0.802c0.463,0.193,0.966,0.29,1.495,0.29s1.031-0.098,1.495-0.29
		c0.461-0.193,0.866-0.463,1.205-0.802c0.339-0.339,0.61-0.744,0.802-1.2c0.193-0.461,0.293-0.963,0.293-1.492
		c0-0.529-0.1-1.029-0.293-1.49C68.074,37.342,67.803,36.938,67.464,36.599z M66.625,40.115c-0.098,0.251-0.239,0.468-0.417,0.649
		c-0.176,0.18-0.39,0.324-0.636,0.429c-0.485,0.207-1.129,0.207-1.617,0c-0.244-0.105-0.458-0.249-0.636-0.429
		c-0.178-0.18-0.317-0.397-0.417-0.649c-0.098-0.251-0.149-0.529-0.149-0.824c0-0.293,0.051-0.568,0.149-0.817
		c0.1-0.249,0.239-0.463,0.417-0.644c0.178-0.18,0.393-0.324,0.636-0.429c0.244-0.105,0.515-0.158,0.81-0.158
		c0.293,0,0.566,0.054,0.807,0.158c0.246,0.105,0.461,0.249,0.636,0.429c0.178,0.18,0.319,0.397,0.417,0.641
		c0.1,0.251,0.151,0.527,0.151,0.819C66.777,39.586,66.725,39.864,66.625,40.115z"/>
	<polygon class="st1" points="73.58,39.631 70.663,35.618 69.145,35.618 69.145,42.974 70.872,42.974 70.872,38.818 73.91,42.974 
		75.307,42.974 75.307,35.618 73.58,35.618 	"/>
	<polygon class="st1" points="82.471,35.618 81.113,38.133 79.747,35.618 77.802,35.618 80.246,39.846 80.246,42.974 81.973,42.974 
		81.973,39.846 84.416,35.618 	"/>
	<path class="st1" d="M90.211,36.601c-0.337-0.339-0.744-0.607-1.207-0.797c-0.461-0.19-0.963-0.288-1.492-0.288
		c-0.529,0-1.031,0.098-1.492,0.288c-0.463,0.19-0.871,0.458-1.209,0.797c-0.337,0.337-0.607,0.741-0.8,1.2
		c-0.193,0.458-0.293,0.961-0.293,1.49c0,0.532,0.1,1.032,0.293,1.492c0.193,0.456,0.463,0.861,0.8,1.2
		c0.339,0.339,0.746,0.607,1.207,0.802c0.463,0.193,0.966,0.29,1.495,0.29c0.529,0,1.032-0.098,1.495-0.29
		c0.461-0.195,0.868-0.463,1.207-0.802c0.337-0.339,0.607-0.741,0.8-1.2c0.193-0.461,0.293-0.961,0.293-1.492
		c0-0.529-0.1-1.031-0.293-1.49C90.82,37.342,90.55,36.938,90.211,36.601z M89.372,40.115c-0.098,0.251-0.239,0.468-0.415,0.649
		c-0.178,0.18-0.393,0.324-0.636,0.429c-0.488,0.207-1.131,0.207-1.619,0c-0.244-0.105-0.458-0.249-0.636-0.429
		c-0.176-0.18-0.317-0.397-0.415-0.649c-0.1-0.251-0.151-0.529-0.151-0.824c0-0.293,0.051-0.568,0.151-0.819
		c0.098-0.246,0.237-0.461,0.415-0.641c0.178-0.18,0.393-0.324,0.636-0.429c0.244-0.105,0.517-0.158,0.81-0.158
		c0.293,0,0.566,0.054,0.81,0.158c0.244,0.105,0.458,0.249,0.636,0.429c0.176,0.18,0.317,0.395,0.415,0.644
		c0.1,0.246,0.151,0.522,0.151,0.817C89.523,39.588,89.472,39.864,89.372,40.115z"/>
	<path class="st1" d="M96.04,40.245c0,0.335-0.105,0.596-0.321,0.797c-0.222,0.206-0.52,0.306-0.912,0.306
		c-0.393,0-0.691-0.099-0.913-0.303c-0.216-0.198-0.321-0.459-0.321-0.8v-4.627h-1.727v4.608c0,0.419,0.073,0.807,0.217,1.152
		c0.144,0.346,0.349,0.65,0.609,0.903c0.261,0.254,0.576,0.452,0.938,0.589c0.359,0.136,0.761,0.206,1.196,0.206
		c0.435,0,0.837-0.069,1.195-0.206c0.362-0.137,0.678-0.335,0.938-0.589c0.26-0.253,0.465-0.557,0.61-0.903
		c0.144-0.347,0.217-0.734,0.217-1.152v-4.608H96.04V40.245z"/>
	<path class="st1" d="M103.715,39.454c0.273-0.405,0.412-0.875,0.412-1.402c0-0.344-0.059-0.668-0.173-0.963
		c-0.117-0.3-0.293-0.561-0.522-0.78c-0.224-0.215-0.5-0.385-0.819-0.507c-0.315-0.122-0.678-0.183-1.075-0.183h-2.814v7.357h1.729
		v-2.492h0.558l1.424,2.492h2l-1.617-2.756C103.191,40.042,103.493,39.783,103.715,39.454z M102.145,38.596
		c-0.144,0.139-0.346,0.207-0.617,0.207h-1.075v-1.505h1.075c0.271,0,0.473,0.068,0.617,0.207c0.141,0.137,0.21,0.315,0.21,0.546
		C102.354,38.281,102.286,38.462,102.145,38.596z"/>
	<path class="st1" d="M111.612,39.133c-0.195-0.167-0.426-0.305-0.687-0.41c-0.246-0.099-0.51-0.185-0.788-0.256l-0.574-0.139
		c-0.164-0.04-0.308-0.086-0.428-0.139c-0.099-0.044-0.178-0.099-0.235-0.165c-0.042-0.048-0.062-0.118-0.062-0.214
		c0-0.176,0.061-0.303,0.194-0.4c0.152-0.111,0.361-0.167,0.623-0.167c0.248,0,0.487,0.052,0.71,0.154
		c0.231,0.106,0.441,0.25,0.623,0.427L111.171,38l1.079-1.247l-0.138-0.156c-0.299-0.339-0.662-0.606-1.08-0.795
		c-0.419-0.189-0.891-0.285-1.404-0.285c-0.371,0-0.714,0.052-1.021,0.156c-0.313,0.105-0.586,0.26-0.813,0.459
		c-0.23,0.202-0.409,0.45-0.533,0.737c-0.124,0.286-0.186,0.606-0.186,0.951c0,0.335,0.057,0.631,0.169,0.88
		c0.111,0.246,0.262,0.462,0.45,0.644c0.185,0.178,0.406,0.327,0.658,0.443c0.239,0.11,0.498,0.202,0.768,0.272
		c0.204,0.056,0.404,0.105,0.595,0.146c0.172,0.037,0.324,0.083,0.45,0.135c0.107,0.045,0.193,0.103,0.255,0.173
		c0.047,0.055,0.07,0.133,0.07,0.241c0,0.191-0.068,0.325-0.214,0.422c-0.171,0.115-0.399,0.173-0.677,0.173
		c-0.267,0-0.52-0.052-0.75-0.155c-0.237-0.106-0.453-0.25-0.642-0.428l-0.18-0.17l-1.09,1.243l0.142,0.158
		c0.305,0.338,0.674,0.605,1.099,0.794c0.424,0.189,0.911,0.285,1.449,0.285c0.366,0,0.713-0.049,1.032-0.145
		c0.326-0.099,0.612-0.25,0.848-0.449c0.239-0.201,0.429-0.454,0.564-0.751c0.134-0.296,0.202-0.641,0.202-1.024
		c0-0.361-0.061-0.674-0.18-0.929C111.976,39.524,111.814,39.307,111.612,39.133z"/>
	<rect x="112.908" y="35.618" class="st1" width="1.727" height="7.356"/>
	<path class="st1" d="M120.49,36.647c-0.337-0.322-0.744-0.578-1.205-0.758c-0.463-0.18-0.963-0.271-1.49-0.271h-2.156v7.357h2.156
		c0.527,0,1.029-0.093,1.49-0.273c0.461-0.18,0.868-0.437,1.207-0.763c0.339-0.324,0.61-0.717,0.805-1.168
		c0.193-0.451,0.29-0.949,0.29-1.48c0-0.529-0.098-1.027-0.29-1.478C121.102,37.362,120.831,36.969,120.49,36.647z M119.656,40.105
		c-0.098,0.241-0.237,0.454-0.412,0.627c-0.178,0.176-0.393,0.315-0.636,0.412c-0.244,0.1-0.519,0.149-0.812,0.149h-0.429v-3.994
		h0.429c0.295,0,0.568,0.051,0.812,0.149c0.244,0.1,0.458,0.239,0.636,0.412c0.176,0.173,0.315,0.383,0.412,0.624
		c0.1,0.241,0.149,0.512,0.149,0.807C119.804,39.586,119.756,39.861,119.656,40.105z"/>
	<polygon class="st1" points="123.903,41.294 123.903,40.076 126.786,40.076 127.199,38.395 123.903,38.395 123.903,37.299 
		126.906,37.299 127.319,35.618 122.175,35.618 122.175,42.974 126.934,42.974 127.348,41.294 	"/>
	<polygon class="st1" points="64.757,23.589 72.173,33.589 75.155,33.589 75.155,17.188 71.534,17.188 71.534,26.703 64.492,17.188 
		61.136,17.188 61.136,33.589 64.757,33.589 	"/>
	<polygon class="st1" points="89.811,30.124 82.086,30.124 82.086,26.988 88.265,26.988 89.128,23.523 82.086,23.523 82.086,20.653 
		88.906,20.653 89.745,17.188 78.464,17.188 78.464,33.589 88.972,33.589 	"/>
	<polygon class="st1" points="114.51,17.188 110.626,17.188 107.78,28.359 104.754,17.188 100.694,17.188 97.648,28.359 
		94.8,17.188 90.915,17.188 95.373,33.589 99.789,33.589 102.725,22.797 105.637,33.589 110.053,33.589 	"/>
	<path class="st1" d="M121.155,33.855c0.868,0,1.666-0.112,2.395-0.332c0.729-0.222,1.358-0.551,1.887-0.992
		c0.529-0.444,0.941-0.99,1.236-1.646c0.295-0.654,0.441-1.417,0.441-2.285c0-0.81-0.129-1.485-0.385-2.031
		c-0.258-0.544-0.605-0.995-1.039-1.356c-0.434-0.361-0.934-0.651-1.5-0.873c-0.568-0.219-1.161-0.412-1.778-0.573
		c-0.441-0.117-0.853-0.215-1.236-0.288c-0.383-0.073-0.722-0.168-1.014-0.288c-0.295-0.117-0.527-0.268-0.695-0.451
		c-0.171-0.185-0.256-0.446-0.256-0.783c0-0.456,0.193-0.81,0.576-1.061c0.383-0.249,0.883-0.376,1.5-0.376
		c0.634,0,1.244,0.137,1.834,0.41c0.588,0.271,1.117,0.636,1.587,1.092l2.253-2.604c-0.707-0.78-1.546-1.392-2.517-1.834
		c-0.973-0.441-2.053-0.661-3.246-0.661c-0.839,0-1.607,0.117-2.307,0.351c-0.7,0.237-1.302,0.575-1.809,1.017
		c-0.507,0.441-0.902,0.975-1.18,1.6c-0.28,0.627-0.419,1.329-0.419,2.109c0,0.749,0.112,1.392,0.341,1.931
		c0.227,0.536,0.541,0.992,0.939,1.368c0.397,0.376,0.861,0.688,1.39,0.939c0.529,0.249,1.095,0.456,1.7,0.617
		c0.441,0.117,0.868,0.217,1.28,0.298c0.412,0.083,0.783,0.178,1.114,0.288c0.332,0.11,0.597,0.266,0.795,0.463
		c0.2,0.198,0.297,0.476,0.297,0.829c0,0.485-0.21,0.856-0.629,1.114c-0.419,0.256-0.961,0.385-1.622,0.385
		c-0.663,0-1.292-0.129-1.887-0.385c-0.597-0.258-1.144-0.615-1.644-1.071l-2.275,2.604c0.707,0.78,1.553,1.388,2.538,1.822
		C118.807,33.638,119.919,33.855,121.155,33.855z"/>
	<path class="st1" d="M36.934,9.531c-8.52,0-15.841,5.233-18.918,12.656c-1.036-0.237-2.114-0.363-3.224-0.363
		c-7.911,0-14.321,6.413-14.321,14.321c0,7.911,6.411,14.324,14.321,14.324c3.872,0,7.384-1.539,9.961-4.033
		c3.407,2.534,7.62,4.033,12.18,4.033c11.288,0,20.469-9.183,20.469-20.469S48.222,9.531,36.934,9.531z M36.934,15.008
		c4.419,0,8.498,1.88,11.351,5.194H25.59C28.443,16.888,32.52,15.008,36.934,15.008z M9.923,40.444H7.604v-0.863
		c0,0-0.795,1.012-2.326,1.012c-1.968,0-4.267-1.773-4.267-4.455c0-2.458,2-4.458,4.455-4.458c2.458,0,4.458,2,4.458,4.458V40.444z
		 M14.939,40.593c-2.458,0-4.455-2-4.455-4.455v-7.615H12.8v4.106c0,0,0.871-0.949,2.241-0.949c0.532,0,1.044,0.102,1.519,0.293
		c1.639,0.644,2.836,2.292,2.836,4.165c0,1.014-0.344,1.953-0.919,2.704C17.663,39.905,16.38,40.593,14.939,40.593z M24.295,40.593
		c-2.458,0-4.455-2-4.455-4.455c0-1.665,0.917-3.119,2.273-3.885c0.644-0.366,1.39-0.573,2.182-0.573
		c2.085,0,3.909,1.468,4.353,3.497h-2.47c-0.363-0.712-1.083-1.153-1.883-1.153c-0.629,0-1.195,0.278-1.585,0.717
		c-0.327,0.373-0.527,0.863-0.527,1.397c0,1.163,0.949,2.112,2.112,2.112c0.039,0,0.078,0,0.115-0.005
		c0.732-0.037,1.388-0.449,1.739-1.095h2.487c-0.329,1.422-1.346,2.563-2.646,3.104C25.463,40.473,24.89,40.593,24.295,40.593z
		 M32.333,44.273c-1.634-0.522-3.131-1.312-4.45-2.312c0.793-1.778,1.231-3.746,1.231-5.816c0-4.131-1.748-7.852-4.548-10.466
		h14.602C37.397,27.14,31.704,32.768,32.333,44.273z M38.197,44.941c-0.724-6.696,0.995-11.958,5.114-15.643
		c3.155-2.826,6.623-3.624,6.657-3.631l0.027-0.007c0.4-0.11,0.714-0.141,0.944-0.141c0.137,0,0.239,0.012,0.312,0.022
		c0.449,1.446,0.678,2.946,0.678,4.46C51.929,37.83,45.937,44.299,38.197,44.941z"/>
	<path class="st1" d="M5.465,34.024c-1.163,0-2.112,0.949-2.112,2.114c0,1.163,0.949,2.112,2.112,2.112
		c1.166,0,2.114-0.949,2.114-2.112C7.579,34.972,6.631,34.024,5.465,34.024z"/>
	<path class="st1" d="M14.939,34.024c-1.163,0-2.112,0.949-2.112,2.114c0,1.163,0.949,2.112,2.112,2.112
		c1.166,0,2.112-0.949,2.112-2.112C17.051,34.972,16.104,34.024,14.939,34.024z"/>
</g>
</svg>
