<?xml version="1.0" encoding="UTF-8"?>
<svg width="325px" height="145px" viewBox="0 0 325 145" version="1.1" xmlns="http://www.w3.org/2000/svg" xmlns:xlink="http://www.w3.org/1999/xlink">
    <title>WLTX_overhang</title>
    <defs>
        <polygon id="path-1" points="-4.41685167e-14 0 59.3028463 0 59.3028463 59.3030017 -4.41685167e-14 59.3030017"></polygon>
        <polygon id="path-3" points="0 0 68.9020054 0 68.9020054 47.6803251 0 47.6803251"></polygon>
    </defs>
    <g id="WLTX_overhang" stroke="none" stroke-width="1" fill="none" fill-rule="evenodd">
        <g id="Group-21" transform="translate(0.000000, 0.000000)">
            <path d="M286.260821,112.196514 C274.440781,127.290143 256.068902,137.018443 235.456095,137.018443 C214.842511,137.018443 196.470632,127.290143 184.65137,112.196514 L174.819726,112.196514 C187.787425,131.937504 210.122887,145 235.456095,145 C260.788526,145 283.124765,131.937504 296.092464,112.196514 L286.260821,112.196514 Z" id="Fill-1" fill="#FFFFFF"></path>
            <path d="M184.651136,32.8034856 C196.470399,17.7098572 214.843055,7.98155728 235.455862,7.98155728 C256.068669,7.98155728 274.441325,17.7098572 286.260588,32.8034856 L296.092231,32.8034856 C283.124532,13.062496 260.78907,0 235.455862,0 C210.122654,0 187.787192,13.062496 174.819493,32.8034856 L184.651136,32.8034856 Z" id="Fill-3" fill="#FFFFFF"></path>
            <g id="Group-7" transform="translate(265.707844, 42.848344)">
                <mask id="mask-2" fill="white">
                    <use xlink:href="#path-1"></use>
                </mask>
                <g id="Clip-6"></g>
                <polygon id="Fill-5" fill="#FFFFFF" mask="url(#mask-2)" points="55.1855686 22.1862738 37.1167278 22.1862738 37.1167278 4.11743302 37.1167278 0 32.9992948 0 26.3029299 0 22.1862738 0 22.1862738 4.11743302 22.1862738 22.1862738 4.116656 22.1862738 -4.41685167e-14 22.1862738 -4.41685167e-14 26.3037069 -4.41685167e-14 33.0000718 -4.41685167e-14 37.1167278 4.116656 37.1167278 22.1862738 37.1167278 22.1862738 55.1855686 22.1862738 59.3030017 26.3029299 59.3030017 32.9992948 59.3030017 37.1167278 59.3030017 37.1167278 55.1855686 37.1167278 37.1167278 55.1855686 37.1167278 59.3030017 37.1167278 59.3030017 33.0000718 59.3030017 26.3037069 59.3030017 22.1862738"></polygon>
            </g>
            <g id="Group-10" transform="translate(0.000000, 54.484463)">
                <mask id="mask-4" fill="white">
                    <use xlink:href="#path-3"></use>
                </mask>
                <g id="Clip-9"></g>
                <polygon id="Fill-8" fill="#FFFFFF" mask="url(#mask-4)" points="56.0935951 0 48.8618629 29.8803334 40.8049346 0 28.2925692 0 20.3040188 29.8593539 13.20438 0 -0.000310808305 0 13.5361679 47.6803251 25.5077268 47.6803251 34.4504588 17.0820245 43.3931907 47.6803251 55.2979258 47.6803251 68.9020054 0"></polygon>
            </g>
            <polygon id="Fill-11" fill="#FFFFFF" points="83.7166832 91.3249597 83.7166832 54.4848513 71.3612761 54.4848513 71.3612761 102.164399 101.774646 102.164399 101.774646 91.3249597"></polygon>
            <polygon id="Fill-13" fill="#FFFFFF" points="95.3864473 54.4844628 95.3864473 65.1265392 108.56705 65.1265392 108.56705 102.164788 120.857188 102.164788 120.857188 65.1265392 134.037791 65.1265392 134.037791 54.4844628"></polygon>
            <polygon id="Fill-15" fill="#FFFFFF" points="166.691545 77.0032238 181.794497 54.4843851 167.432046 54.4843851 159.152112 68.4964005 150.745525 54.4843851 135.914529 54.4843851 151.29177 77.010217 134.611466 102.16471 149.296381 102.16471 158.834311 86.1596365 168.757643 102.16471 183.91421 102.16471"></polygon>
            <path d="M208.375911,74.9527437 C208.24848,74.7973396 208.12338,74.6372733 207.999833,74.475653 C207.835105,74.2604182 207.673485,74.0412984 207.515749,73.8151853 C207.380548,73.6217072 207.248454,73.4251209 207.117915,73.2230955 C207.025449,73.0785697 206.93143,72.9363749 206.841295,72.7879639 C206.657141,72.4841488 206.481535,72.1679013 206.31059,71.8454377 C206.235996,71.704797 206.162956,71.5633792 206.09147,71.4196303 C205.918195,71.070748 205.751912,70.7133185 205.595731,70.3442336 C205.545225,70.2230184 205.497049,70.097918 205.448097,69.9751487 C205.291916,69.5843073 205.143505,69.1856956 205.008303,68.7715436 C204.982662,68.6930645 204.959351,68.6130313 204.934486,68.5337752 C204.801616,68.1087449 204.681178,67.6689511 204.572395,67.2182791 C204.549084,67.1219285 204.523442,67.027132 204.500909,66.9300044 C204.390572,66.4451434 204.296552,65.943188 204.214965,65.4288002 C204.197871,65.3200173 204.180776,65.2112344 204.165236,65.1008975 C204.089088,64.5725234 204.026926,64.0301629 203.98419,63.4699309 C203.977197,63.3797965 203.972535,63.286554 203.967096,63.1956426 C203.926691,62.5973366 203.901049,61.9865983 203.901049,61.3517723 C203.901049,60.6757642 203.929799,60.0137425 203.974089,59.358714 C203.981859,59.2359448 203.988852,59.1123985 203.998953,58.9904062 C204.048683,58.3579113 204.118615,57.7347407 204.209526,57.1232253 C204.224289,57.0214356 204.242161,56.9211999 204.258478,56.8201872 C204.358714,56.1915774 204.47449,55.5722919 204.616685,54.9677697 C204.617462,54.9631076 204.618239,54.9584455 204.619016,54.9545604 C204.765096,54.3344978 204.938372,53.7299756 205.126411,53.1355548 C205.152052,53.0555216 205.176917,52.9747115 205.203336,52.8939013 C205.396037,52.3080276 205.608163,51.7338093 205.842047,51.1743543 C205.859141,51.1331722 205.87779,51.0935442 205.894884,51.0523621 C206.386738,49.8922701 206.966396,48.7920087 207.626863,47.755463 C207.652505,47.7150579 207.678147,47.6746528 207.703788,47.6350248 C208.039461,47.1151979 208.393783,46.6109114 208.770638,46.1252734 L208.770638,46.1252734 L208.770638,40.7987961 L183.570301,40.7987961 L183.570301,51.7726603 L191.468717,51.7726603 L191.468717,102.164788 L208.770638,102.164788 L208.770638,75.4236183 L208.770638,75.4236183 C208.63699,75.2705452 208.506451,75.112033 208.375911,74.9527437" id="Fill-17" fill="#FFFFFF"></path>
            <path d="M230.55154,68.4326848 C226.50637,68.4326848 223.215687,64.9042335 223.215687,60.5661266 C223.215687,56.2280197 226.50637,52.6995684 230.55154,52.6995684 C234.59671,52.6995684 237.887393,56.2280197 237.887393,60.5661266 C237.887393,64.9042335 234.59671,68.4326848 230.55154,68.4326848 M230.476169,38.1731652 C215.486662,38.1731652 206.111129,47.8680533 206.111129,61.3516946 C206.111129,81.7096386 228.07906,82.3304782 228.07906,82.3304782 C225.064996,87.9483383 221.599484,94.5778795 217.907858,102.148393 L236.777807,102.16471 C245.931889,82.0196699 254.991951,71.6767465 254.991951,61.4247346 C254.991951,47.9659579 245.395745,38.1731652 230.476169,38.1731652" id="Fill-19" fill="#FFFFFF"></path>
        </g>
    </g>
</svg>