<?xml version="1.0" encoding="UTF-8"?>
<svg id="Layer_1" data-name="Layer 1" xmlns="http://www.w3.org/2000/svg" viewBox="0 0 720 720">
  <defs>
    <style>
      .cls-1 {
        fill: #c42127;
        stroke-width: 0px;
      }
    </style>
  </defs>
  <path class="cls-1" d="M390.31,334.58l118.9-128.42h-28.75l-102.97,111.25-83.24-111.25h-97.79l126.89,169.69-127.73,137.98h28.75l111.85-120.82,90.35,120.82h97.84l-134.09-179.26ZM238.71,227.32h44.93l198.49,265.36h-44.98L238.71,227.32Z"/>
  <g id="layer1">
    <path id="path1009" class="cls-1" d="M390.31,334.58l118.9-128.42h-28.75l-102.97,111.25-83.24-111.25h-97.79l126.89,169.69-127.73,137.98h28.75l111.85-120.82,90.35,120.82h97.84l-134.09-179.26ZM238.71,227.32h44.93l198.49,265.36h-44.98L238.71,227.32Z"/>
  </g>
</svg>