<svg xmlns="http://www.w3.org/2000/svg" width="24" height="22" viewBox="0 0 24 22">
    <path fill="#F00" fill-rule="evenodd" d="M12.34 3c1.484.007 7.404.062 9.037.488a2.968 2.968 0 0 1 2.122 2.067c.456 1.657.497 4.951.5 5.537v.18c-.003.585-.044 3.879-.5 5.537a2.968 2.968 0 0 1-2.122 2.066c-1.673.437-7.844.483-9.138.488h-.478c-1.295-.005-7.466-.051-9.138-.488A2.968 2.968 0 0 1 .5 16.81C.06 15.206.006 12.075 0 11.339v-.315c.006-.735.06-3.867.5-5.47a2.968 2.968 0 0 1 2.123-2.066c1.632-.426 7.552-.48 9.037-.488zM9.544 7.728v6.907l6.273-3.453-6.273-3.454z"/>
</svg>
