<svg xmlns="http://www.w3.org/2000/svg" width="24" height="22" viewBox="0 0 24 22">
    <path fill="#666" fill-rule="evenodd" d="M12.239 3c1.294.005 7.465.051 9.138.488a2.968 2.968 0 0 1 2.122 2.067c.47 1.712.5 5.173.501 5.586v.081c-.002.413-.03 3.874-.501 5.587a2.968 2.968 0 0 1-2.122 2.066c-1.673.437-7.844.483-9.138.488h-.478c-1.295-.005-7.466-.051-9.138-.488A2.968 2.968 0 0 1 .5 16.81c-.456-1.658-.498-4.952-.502-5.537v-.18c.004-.586.046-3.88.502-5.537a2.968 2.968 0 0 1 2.122-2.067C4.295 3.05 10.466 3.005 11.76 3zM9.545 7.728v6.907l6.273-3.453-6.273-3.454z"/>
</svg>
