<?xml version="1.0" encoding="UTF-8"?>
<svg id="Layer_1" data-name="Layer 1" xmlns="http://www.w3.org/2000/svg" viewBox="0 0 720 720">
  <defs>
    <style>
      .cls-1 {
        fill: #c42127;
        stroke-width: 0px;
      }
    </style>
  </defs>
  <path class="cls-1" d="M431,344.44l-96.17-52.33c-9.23-5.11-22.79-1.94-29.54,1.98-6.42,3.73-10.1,9.67-10.1,16.29v101.83c0,6.51,3.59,12.39,9.85,16.12,4.16,2.48,11.37,4.76,18.44,4.76,3.8,0,7.57-.66,10.79-2.31l100.14-49.54.49-.25c5.89-3.19,9.44-9.03,9.51-15.63.1-9.12-6.67-17.08-13.41-20.92ZM325.19,401.8v-80.78l77.76,42.31-77.76,38.47Z"/>
  <path class="cls-1" d="M471.81,205.52h-223.62c-56.49,0-102.45,45.96-102.45,102.45v104.06c0,56.49,45.96,102.45,102.45,102.45h223.62c56.49,0,102.45-45.96,102.45-102.45v-104.06c0-56.49-45.96-102.45-102.45-102.45ZM544.26,412.03c0,39.95-32.5,72.45-72.45,72.45h-223.62c-39.95,0-72.45-32.5-72.45-72.45v-104.06c0-39.95,32.5-72.45,72.45-72.45h223.62c39.95,0,72.45,32.5,72.45,72.45v104.06Z"/>
</svg>